<svg width="128" height="128" viewBox="0 0 128 128" fill="none" xmlns="http://www.w3.org/2000/svg">
<g clip-path="url(#clip0_6932_19166)">
<path d="M3 8.95404V19.0721" stroke="white" stroke-width="2" stroke-miterlimit="10" stroke-linecap="round"/>
<path d="M8.44055 14.0131V19.0721" stroke="white" stroke-width="2" stroke-miterlimit="10" stroke-linecap="round"/>
<path d="M13.3084 6.42737V19.0721" stroke="white" stroke-width="2" stroke-miterlimit="10" stroke-linecap="round"/>
<path d="M28.542 14.0131V19.0721" stroke="white" stroke-width="2" stroke-miterlimit="10" stroke-linecap="round"/>
<path d="M33.4099 6.42737V19.0721" stroke="white" stroke-width="2" stroke-miterlimit="10" stroke-linecap="round"/>
<path d="M18.4627 14.0131V19.0721" stroke="white" stroke-width="2" stroke-miterlimit="10" stroke-linecap="round"/>
<path d="M23.0442 2V19.0721" stroke="white" stroke-width="2" stroke-miterlimit="10" stroke-linecap="round"/>
<path d="M66 43.954V54.0721" stroke="#0076BF" stroke-width="2" stroke-miterlimit="10" stroke-linecap="round"/>
<path d="M71.4406 49.0131V54.0721" stroke="#0076BF" stroke-width="2" stroke-miterlimit="10" stroke-linecap="round"/>
<path d="M76.3084 41.4274V54.0721" stroke="#0076BF" stroke-width="2" stroke-miterlimit="10" stroke-linecap="round"/>
<path d="M81.4626 49.0131V54.0721" stroke="#0076BF" stroke-width="2" stroke-miterlimit="10" stroke-linecap="round"/>
<path d="M86.0442 37V54.0721" stroke="#0076BF" stroke-width="2" stroke-miterlimit="10" stroke-linecap="round"/>
<path d="M96.9843 9.11981L94.4776 19.6095" stroke="white" stroke-width="2" stroke-miterlimit="10" stroke-linecap="round"/>
<path d="M100.274 9.66852L103.598 19.6096" stroke="white" stroke-width="2" stroke-miterlimit="10" stroke-linecap="round"/>
<path d="M102.584 7.77655C107.901 11.303 114.661 16.0608 119.731 20.0854" stroke="white" stroke-width="2" stroke-miterlimit="10" stroke-linecap="round"/>
<path d="M73.1959 19.8559L95.4916 6.76904" stroke="white" stroke-width="2" stroke-miterlimit="10" stroke-linecap="round"/>
<path d="M103.558 6.00778C103.558 8.21878 101.756 10.0156 99.5249 10.0156C97.2942 10.0156 95.4916 8.21878 95.4916 6.00778C95.4916 3.79679 97.2999 2 99.5249 2C101.75 2 103.558 3.79679 103.558 6.00778Z" stroke="white" stroke-width="2" stroke-miterlimit="10" stroke-linecap="round"/>
<path d="M127.662 29.9259H31.7249C30.818 29.9259 30.4744 28.7504 31.2405 28.269L44.574 19.856L127.155 20.1079V29.9259" stroke="white" stroke-width="2" stroke-miterlimit="10" stroke-linecap="round"/>
<path d="M44.5346 20.0126V29.5955" stroke="white" stroke-width="2" stroke-miterlimit="10" stroke-linecap="round"/>
<path d="M52.3139 20.3206V29.59" stroke="white" stroke-width="2" stroke-miterlimit="10" stroke-linecap="round"/>
<path d="M60.7072 20.3206V29.59" stroke="white" stroke-width="2" stroke-miterlimit="10" stroke-linecap="round"/>
<path d="M69.7314 20.3206V29.59" stroke="white" stroke-width="2" stroke-miterlimit="10" stroke-linecap="round"/>
<path d="M78.136 20.0126V29.5955" stroke="white" stroke-width="2" stroke-miterlimit="10" stroke-linecap="round"/>
<path d="M85.9153 20.3206V29.59" stroke="white" stroke-width="2" stroke-miterlimit="10" stroke-linecap="round"/>
<path d="M94.3085 20.3206V29.59" stroke="white" stroke-width="2" stroke-miterlimit="10" stroke-linecap="round"/>
<path d="M103.333 20.3206V29.59" stroke="white" stroke-width="2" stroke-miterlimit="10" stroke-linecap="round"/>
<path d="M111.715 20.3206V29.59" stroke="white" stroke-width="2" stroke-miterlimit="10" stroke-linecap="round"/>
<path d="M120.739 20.3206V29.59" stroke="white" stroke-width="2" stroke-miterlimit="10" stroke-linecap="round"/>
<path d="M103.404 30.6744H93.5682V117.233H103.404V30.6744Z" stroke="white" stroke-width="2" stroke-miterlimit="10" stroke-linecap="round"/>
<path d="M113.219 117.693H84.8506V126H113.219V117.693Z" stroke="white" stroke-width="2" stroke-miterlimit="10" stroke-linecap="round"/>
<path d="M84.8506 117.52L93.1313 107.086" stroke="white" stroke-width="2" stroke-miterlimit="10" stroke-linecap="round"/>
<path d="M103.632 107.086L113.354 117.822" stroke="white" stroke-width="2" stroke-miterlimit="10" stroke-linecap="round"/>
<path d="M93.2102 37.2416H103.631" stroke="white" stroke-width="2" stroke-miterlimit="10" stroke-linecap="round"/>
<path d="M93.3681 46.9812H103.632" stroke="white" stroke-width="2" stroke-miterlimit="10" stroke-linecap="round"/>
<path d="M93.1313 55.5566H103.862" stroke="white" stroke-width="2" stroke-miterlimit="10" stroke-linecap="round"/>
<path d="M93.5989 64.5963H104.093" stroke="white" stroke-width="2" stroke-miterlimit="10" stroke-linecap="round"/>
<path d="M93.1313 73.6909H103.626" stroke="white" stroke-width="2" stroke-miterlimit="10" stroke-linecap="round"/>
<path d="M93.1313 82.8062H103.862" stroke="white" stroke-width="2" stroke-miterlimit="10" stroke-linecap="round"/>
<path d="M93.5989 91.8459H104.093" stroke="white" stroke-width="2" stroke-miterlimit="10" stroke-linecap="round"/>
<path d="M93.1313 100.94H103.626" stroke="white" stroke-width="2" stroke-miterlimit="10" stroke-linecap="round"/>
<path d="M93.5989 107.086H103.862" stroke="white" stroke-width="2" stroke-miterlimit="10" stroke-linecap="round"/>
<path d="M37.9043 30.4967V33.5529H55.8682V30.3568" stroke="white" stroke-width="2" stroke-miterlimit="10" stroke-linecap="round"/>
<path d="M46.0892 33.5529V55.2767" stroke="white" stroke-width="2" stroke-miterlimit="10" stroke-linecap="round"/>
<path d="M43.8754 55.5566H48.4607" stroke="white" stroke-width="2" stroke-miterlimit="10" stroke-linecap="round"/>
<path d="M43.1488 57.3253C43.7516 56.5752 44.681 56.0938 45.7288 56.0938C47.5539 56.0938 49.0298 57.5603 49.0298 59.3739C49.0298 61.1875 47.5539 62.654 45.7288 62.654C44.8726 62.654 44.0896 62.3294 43.5037 61.7976" stroke="white" stroke-width="2" stroke-miterlimit="10" stroke-linecap="round"/>
<path d="M45.9078 123.722L53.271 123.722L53.271 119.509C53.7506 119.341 54.2143 119.141 54.662 118.917L57.6521 121.907L62.8646 116.695L59.9226 113.752C60.1624 113.289 60.3703 112.809 60.5461 112.313L64.6794 112.313L64.6794 104.95L60.818 104.95C60.6501 104.359 60.4422 103.791 60.1864 103.239L62.8566 100.569L57.6441 95.3566L55.2057 97.795C54.5901 97.4432 53.9425 97.1474 53.263 96.9076L53.263 93.5418L45.8998 93.5418L45.8998 96.7077C45.1483 96.9316 44.4288 97.2194 43.7413 97.5791L41.5187 95.3566L36.3062 100.569L38.5767 102.84C38.2409 103.511 37.9611 104.215 37.7532 104.95L34.4914 104.95L34.4914 112.313L38.025 112.313C38.2569 112.945 38.5367 113.561 38.8645 114.136L36.3062 116.695L41.5187 121.907L44.3089 119.117C44.8205 119.349 45.3482 119.557 45.8998 119.717L45.8998 123.73L45.9078 123.722Z" stroke="#0076BF" stroke-width="2" stroke-miterlimit="10" stroke-linecap="round"/>
<path d="M44.6206 108.628C44.6206 111.374 46.8469 113.601 49.5933 113.601C52.3396 113.601 54.566 111.374 54.566 108.628C54.566 105.882 52.3396 103.655 49.5933 103.655C46.8469 103.655 44.6206 105.882 44.6206 108.628Z" stroke="#0076BF" stroke-width="2" stroke-miterlimit="10" stroke-linecap="round"/>
<path d="M14.6324 103.096L19.9888 101.792L19.2453 98.7305C19.5651 98.5226 19.8689 98.2988 20.1567 98.051L22.8589 99.6979L25.729 94.989L23.0668 93.366C23.1627 92.9903 23.2267 92.5986 23.2667 92.2068L26.2727 91.4713L24.9695 86.1148L22.1634 86.7944C21.9395 86.3947 21.6837 86.0189 21.4039 85.6591L22.8749 83.2447L18.166 80.3746L16.8229 82.5812C16.3113 82.4373 15.7916 82.3333 15.248 82.2854L14.6484 79.839L9.2919 81.1421L9.85153 83.4446C9.33987 83.7404 8.86818 84.0762 8.43646 84.4599L6.4218 83.2367L3.55169 87.9456L5.59833 89.1928C5.47042 89.7444 5.39847 90.3041 5.37448 90.8797L3.00005 91.4553L4.30319 96.8118L6.87749 96.1882C7.15731 96.6119 7.4691 97.0036 7.81287 97.3634L6.4058 99.6819L11.1147 102.552L12.6497 100.026C13.0654 100.106 13.4811 100.162 13.9128 100.178L14.6244 103.096L14.6324 103.096Z" stroke="#0076BF" stroke-width="2" stroke-miterlimit="10" stroke-linecap="round"/>
<path d="M15.5277 95.0847C13.529 95.5723 11.5143 94.3492 11.0266 92.3505C10.539 90.3518 11.7621 88.3371 13.7608 87.8494C15.7595 87.3618 17.7742 88.585 18.2618 90.5836C18.7495 92.5823 17.5263 94.597 15.5277 95.0847Z" stroke="#0076BF" stroke-width="2" stroke-miterlimit="10" stroke-linecap="round"/>
<path d="M32.021 85.2514L36.1383 87.2661L37.2896 84.9076C37.6014 84.9476 37.9211 84.9636 38.2329 84.9556L39.0884 87.4419L43.4215 85.9549L42.5821 83.5006C42.8459 83.3087 43.0857 83.0928 43.3256 82.869L45.636 83.9962L47.6507 79.8789L45.4921 78.8236C45.5561 78.4479 45.5961 78.0721 45.6121 77.6964L47.8346 76.9369L46.3476 72.6038L44.3169 73.2993C44.0691 72.9315 43.7813 72.5958 43.4695 72.276L44.3889 70.3972L40.2716 68.3825L39.4082 70.1574C38.9285 70.0774 38.4408 70.0375 37.9611 70.0534L37.3295 68.1987L32.9964 69.6857L33.644 71.5724C33.2682 71.8523 32.9245 72.172 32.6047 72.5318L30.7819 71.6364L28.7672 75.7537L30.7419 76.721C30.7019 77.1368 30.6859 77.5525 30.7099 77.9682L28.5833 78.6957L30.0703 83.0289L32.3968 82.2294C32.6207 82.5012 32.8605 82.757 33.1243 82.9969L32.029 85.2434L32.021 85.2514Z" stroke="white" stroke-width="2" stroke-miterlimit="10" stroke-linecap="round"/>
<path d="M36.8501 80.6065C35.3151 79.855 34.6755 78.0003 35.427 76.4653C36.1785 74.9303 38.0333 74.2907 39.5683 75.0422C41.1033 75.7937 41.7429 77.6485 40.9914 79.1835C40.2399 80.7185 38.3851 81.358 36.8501 80.6065Z" stroke="white" stroke-width="2" stroke-miterlimit="10" stroke-linecap="round"/>
<path d="M74.425 90.32L68.2131 95.5885" stroke="#0076BF" stroke-width="2" stroke-miterlimit="10" stroke-linecap="round"/>
<path d="M76 105.678L69.3084 104.055" stroke="#0076BF" stroke-width="2" stroke-miterlimit="10" stroke-linecap="round"/>
<path d="M60.1704 85.1074L59.5708 92.3586" stroke="#0076BF" stroke-width="2" stroke-miterlimit="10" stroke-linecap="round"/>
</g>
<defs>
<clipPath id="clip0_6932_19166">
<rect width="128" height="128" fill="white"/>
</clipPath>
</defs>
</svg>
