<svg width="129" height="128" viewBox="0 0 129 128" fill="none" xmlns="http://www.w3.org/2000/svg">
<path d="M2.66675 86L43.7144 86C48.9348 86 53.1667 90.232 53.1667 95.4524V95.4524C53.1667 100.673 48.9348 104.905 43.7144 104.905H38.7144C32.8891 104.905 28.1667 109.627 28.1667 115.452V115.452C28.1667 121.278 32.8891 126 38.7144 126H76.6667" stroke="#0076BF" stroke-width="2" stroke-miterlimit="10" stroke-linecap="round"/>
<path d="M19.0557 103.965C19.0557 107.094 18.1853 109.884 16.83 111.863C15.4715 113.847 13.697 114.934 11.8599 114.934C10.0227 114.934 8.24888 113.847 6.89114 111.864C5.53659 109.885 4.66675 107.096 4.66675 103.965C4.66675 100.835 5.53658 98.0464 6.89106 96.0684C8.24869 94.0859 10.0225 93 11.8599 93C13.6972 93 15.4717 94.0864 16.8301 96.0695C18.1853 98.048 19.0557 100.836 19.0557 103.965Z" stroke="white" stroke-width="2" stroke-linecap="round"/>
<path d="M11.8625 103.965V126.183" stroke="white" stroke-width="2" stroke-miterlimit="10" stroke-linecap="round"/>
<path d="M11.8625 111.294L15.9723 107.184" stroke="white" stroke-width="2" stroke-miterlimit="10" stroke-linecap="round"/>
<path d="M11.8625 108.645L8.47766 105.262" stroke="white" stroke-width="2" stroke-miterlimit="10" stroke-linecap="round"/>
<path d="M120.361 61.5385C120.361 63.7212 119.753 65.653 118.823 67.0112C117.89 68.3742 116.702 69.077 115.514 69.077C114.325 69.077 113.137 68.3746 112.204 67.0121C111.274 65.6543 110.667 63.7226 110.667 61.5385C110.667 59.3558 111.274 57.424 112.204 56.0657C113.138 54.7028 114.325 54 115.514 54C116.702 54 117.89 54.7028 118.823 56.0657C119.753 57.424 120.361 59.3558 120.361 61.5385Z" stroke="white" stroke-width="2" stroke-linecap="round"/>
<path d="M115.514 59.7749V78.3149" stroke="white" stroke-width="2" stroke-miterlimit="10" stroke-linecap="round"/>
<path d="M115.514 66.7686L118.448 63.8372" stroke="white" stroke-width="2" stroke-miterlimit="10" stroke-linecap="round"/>
<path d="M115.514 64.8785L113.099 62.4664" stroke="white" stroke-width="2" stroke-miterlimit="10" stroke-linecap="round"/>
<path d="M82.651 104.283C82.651 104.835 83.0987 105.283 83.651 105.283C84.2033 105.283 84.651 104.835 84.651 104.283H82.651ZM80.7032 102.557H79.7032C79.7032 103.11 80.1509 103.557 80.7032 103.557V102.557ZM69.5798 103.829V104.829C70.132 104.829 70.5798 104.381 70.5798 103.829H69.5798ZM65.8618 102.829C65.3095 102.829 64.8618 103.277 64.8618 103.829C64.8618 104.381 65.3095 104.829 65.8618 104.829V102.829ZM82.8881 104.283V103.283C82.5515 103.283 82.2376 103.452 82.0526 103.734L82.8881 104.283ZM81.2725 106.74V107.74C81.6091 107.74 81.9231 107.57 82.108 107.289L81.2725 106.74ZM84.4139 104.283H85.4139C85.4139 103.731 84.9662 103.283 84.4139 103.283V104.283ZM82.3526 81.5494L82.1356 82.5256L82.1362 82.5257L82.3526 81.5494ZM63.6667 79L63.5257 79.99C63.8278 80.033 64.1329 79.9358 64.3544 79.7261C64.5759 79.5163 64.6895 79.2169 64.663 78.913L63.6667 79ZM87.4778 113.571L86.4779 113.582C86.4835 114.13 86.9295 114.571 87.4778 114.571V113.571ZM100.91 86.0862L100.88 85.0866L99.91 85.1157V86.0862H100.91ZM100.91 112.571C100.358 112.571 99.91 113.019 99.91 113.571C99.91 114.124 100.358 114.571 100.91 114.571V112.571ZM92.5784 107.561L92.3493 106.587L92.3492 106.587L92.5784 107.561ZM107.041 103.593L107.512 104.475L107.041 103.593ZM87.4809 113.568V112.568C87.216 112.568 86.9619 112.673 86.7745 112.86L87.4809 113.568ZM96.7909 113.571V112.571H95.7909V113.571H96.7909ZM112.427 113.571H113.427V112.571H112.427V113.571ZM112.427 116.336V117.336H113.427V116.336H112.427ZM96.7909 116.336H95.7909V117.336H96.7909V116.336ZM58.6667 72.0001V71.0001C58.3792 71.0001 58.1055 71.1239 57.9157 71.3398C57.7258 71.5558 57.6381 71.8431 57.675 72.1283L58.6667 72.0001ZM65.8114 106.74V107.74C66.3569 107.74 66.8018 107.302 66.8112 106.757L65.8114 106.74ZM66.2835 79.4878L67.2834 79.5051C67.2864 79.3343 67.2455 79.1656 67.1647 79.015L66.2835 79.4878ZM62.2662 72.0001L63.1474 71.5273C62.9732 71.2026 62.6347 71.0001 62.2662 71.0001V72.0001ZM97.5129 86.4139L97.7039 87.3955L97.5129 86.4139ZM66.1514 79.2414L66.259 78.2472L66.1514 79.2414ZM84.651 104.283C84.651 103.544 84.4077 102.846 83.8973 102.329C83.3854 101.81 82.6885 101.557 81.9443 101.557V103.557C82.2338 103.557 82.3903 103.649 82.4733 103.733C82.5578 103.819 82.651 103.983 82.651 104.283H84.651ZM81.9443 101.557H80.7032V103.557H81.9443V101.557ZM81.7032 102.557C81.7032 100.849 80.3242 99.4584 78.611 99.4584V101.458C79.2128 101.458 79.7032 101.946 79.7032 102.557H81.7032ZM78.611 99.4584H72.9378V101.458H78.611V99.4584ZM72.9378 99.4584C70.5284 99.4584 68.5798 101.417 68.5798 103.829H70.5798C70.5798 102.516 71.6394 101.458 72.9378 101.458V99.4584ZM69.5798 102.829H65.8618V104.829H69.5798V102.829ZM82.0526 103.734L80.437 106.19L82.108 107.289L83.7236 104.833L82.0526 103.734ZM81.2725 105.74H63.1575V107.74H81.2725V105.74ZM62.1575 106.74C62.1575 113.205 67.7516 118.418 73.7857 118.418V116.418C68.8202 116.418 64.1575 112.065 64.1575 106.74H62.1575ZM73.7857 118.418C80.8579 118.418 85.4139 113.145 85.4139 106.74H83.4139C83.4139 112.126 79.6692 116.418 73.7857 116.418V118.418ZM85.4139 106.74V104.283H83.4139V106.74H85.4139ZM119.316 99.3141C119.316 99.043 119.536 98.8147 119.818 98.8147V100.815C120.65 100.815 121.316 100.139 121.316 99.3141H119.316ZM119.818 98.8147H113.454V100.815H119.818V98.8147ZM113.454 98.8147C113.736 98.8147 113.956 99.043 113.956 99.3141H111.956C111.956 100.139 112.622 100.815 113.454 100.815V98.8147ZM113.956 96.5622C113.956 96.8333 113.736 97.0615 113.454 97.0615V95.0615C112.622 95.0615 111.956 95.7376 111.956 96.5622H113.956ZM113.454 97.0615H119.818V95.0615H113.454V97.0615ZM119.818 97.0615C119.536 97.0615 119.316 96.8333 119.316 96.5622H121.316C121.316 95.7376 120.65 95.0615 119.818 95.0615V97.0615ZM64.663 78.913L64.2051 73.67L62.2126 73.844L62.6705 79.087L64.663 78.913ZM88.4778 113.571V102.43H86.4778V113.571H88.4778ZM101.511 87.0582H106.645V85.0582H101.511V87.0582ZM106.645 87.0582C108.754 87.0582 110.473 88.7769 110.473 90.9091H112.473C112.473 87.6804 109.866 85.0582 106.645 85.0582V87.0582ZM110.473 90.9091V108.72H112.473V90.9091H110.473ZM110.473 108.72C110.473 110.849 108.751 112.571 106.645 112.571V114.571C109.863 114.571 112.473 111.946 112.473 108.72H110.473ZM106.645 112.571H87.4778V114.571H106.645V112.571ZM106.648 85.0582H101.514V87.0582H106.648V85.0582ZM101.514 85.0582C101.374 85.0582 101.249 85.0654 101.146 85.0719C101.037 85.0788 100.962 85.0842 100.88 85.0866L100.94 87.0857C101.065 87.082 101.185 87.0734 101.273 87.0679C101.367 87.0619 101.44 87.0582 101.514 87.0582V85.0582ZM106.648 114.571C109.87 114.571 112.476 111.946 112.476 108.72H110.476C110.476 110.85 108.756 112.571 106.648 112.571V114.571ZM112.476 108.72V90.9091H110.476V108.72H112.476ZM112.476 90.9091C112.476 87.68 109.866 85.0582 106.648 85.0582V87.0582C108.754 87.0582 110.476 88.7774 110.476 90.9091H112.476ZM87.4778 113.571C88.4777 113.561 88.4778 113.561 88.4778 113.562C88.4778 113.562 88.4778 113.563 88.4778 113.563C88.4778 113.563 88.4778 113.564 88.4778 113.564C88.4778 113.565 88.4778 113.566 88.4778 113.566C88.4778 113.567 88.4778 113.566 88.4778 113.564C88.4778 113.561 88.4779 113.554 88.4782 113.542C88.4788 113.519 88.4802 113.481 88.4836 113.428C88.4905 113.322 88.5055 113.162 88.5377 112.962C88.6026 112.561 88.7352 112.017 89.0028 111.444C89.5233 110.33 90.571 109.061 92.8076 108.534L92.3492 106.587C89.4357 107.273 87.933 109.009 87.1909 110.597C86.8271 111.376 86.6501 112.107 86.5634 112.643C86.5198 112.912 86.4984 113.136 86.4878 113.298C86.4826 113.378 86.48 113.444 86.4788 113.492C86.4782 113.516 86.4779 113.535 86.4778 113.55C86.4778 113.558 86.4778 113.564 86.4778 113.57C86.4778 113.572 86.4778 113.574 86.4778 113.576C86.4778 113.577 86.4778 113.578 86.4778 113.579C86.4778 113.58 86.4778 113.58 86.4778 113.58C86.4778 113.581 86.4779 113.582 87.4778 113.571ZM107.512 104.475C109.052 103.653 109.727 101.991 110.209 100.966C110.482 100.384 110.691 99.9858 110.921 99.7229C111.11 99.5066 111.262 99.4372 111.476 99.4372V97.4372C110.566 97.4372 109.898 97.8541 109.415 98.4067C108.972 98.9127 108.657 99.5657 108.399 100.115C107.818 101.351 107.401 102.267 106.57 102.711L107.512 104.475ZM122.154 103.288V108.717H124.154V103.288H122.154ZM122.154 108.717C122.154 109.403 122.153 109.973 122.088 110.477C122.024 110.972 121.907 111.322 121.729 111.581C121.415 112.039 120.649 112.568 118.326 112.568V114.568C120.84 114.568 122.488 114.011 123.378 112.712C123.803 112.094 123.986 111.398 124.072 110.732C124.156 110.076 124.154 109.37 124.154 108.717H122.154ZM118.326 112.568H87.4809V114.568H118.326V112.568ZM86.7745 112.86L86.7713 112.863L88.1843 114.279L88.1874 114.276L86.7745 112.86ZM121.857 115.336H87.4871V117.336H121.857V115.336ZM87.4871 115.336C84.2718 115.336 81.6775 117.949 81.6775 121.168H83.6775C83.6775 119.045 85.3852 117.336 87.4871 117.336V115.336ZM81.6775 121.168C81.6775 124.387 84.2718 127 87.4871 127V125C85.3852 125 83.6775 123.291 83.6775 121.168H81.6775ZM87.4871 127H121.857V125H87.4871V127ZM121.857 127C125.069 127 127.667 124.387 127.667 121.168H125.667C125.667 123.291 123.956 125 121.857 125V127ZM127.667 121.168C127.667 117.949 125.069 115.336 121.857 115.336V117.336C123.956 117.336 125.667 119.045 125.667 121.168H127.667ZM86.8035 121.168C86.8035 120.68 87.1929 120.296 87.6636 120.296V118.296C86.073 118.296 84.8035 119.591 84.8035 121.168H86.8035ZM87.6636 120.296C88.1354 120.296 88.5237 120.678 88.5237 121.168H90.5237C90.5237 119.587 89.2531 118.296 87.6636 118.296V120.296ZM88.5237 121.168C88.5237 121.657 88.1334 122.04 87.6636 122.04V124.04C89.2489 124.04 90.5237 122.75 90.5237 121.168H88.5237ZM87.6636 122.04C87.1949 122.04 86.8035 121.654 86.8035 121.168H84.8035C84.8035 122.746 86.0772 124.04 87.6636 124.04V122.04ZM93.5818 121.168C93.5818 120.681 93.9732 120.296 94.4419 120.296V118.296C92.8555 118.296 91.5818 119.59 91.5818 121.168H93.5818ZM94.4419 120.296C94.9117 120.296 95.302 120.679 95.302 121.168H97.302C97.302 119.586 96.0272 118.296 94.4419 118.296V120.296ZM95.302 121.168C95.302 121.657 94.9117 122.04 94.4419 122.04V124.04C96.0272 124.04 97.302 122.75 97.302 121.168H95.302ZM94.4419 122.04C93.9732 122.04 93.5818 121.655 93.5818 121.168H91.5818C91.5818 122.746 92.8555 124.04 94.4419 124.04V122.04ZM100.36 121.168C100.36 120.681 100.751 120.296 101.22 120.296V118.296C99.6334 118.296 98.3598 119.59 98.3598 121.168H100.36ZM101.22 120.296C101.69 120.296 102.08 120.679 102.08 121.168H104.08C104.08 119.586 102.805 118.296 101.22 118.296V120.296ZM102.08 121.168C102.08 121.655 101.688 122.04 101.22 122.04V124.04C102.801 124.04 104.08 122.751 104.08 121.168H102.08ZM101.22 122.04C100.753 122.04 100.36 121.653 100.36 121.168H98.3598C98.3598 122.747 99.6376 124.04 101.22 124.04V122.04ZM107.138 121.168C107.138 120.681 107.529 120.296 107.998 120.296V118.296C106.411 118.296 105.138 119.59 105.138 121.168H107.138ZM107.998 120.296C108.468 120.296 108.858 120.679 108.858 121.168H110.858C110.858 119.586 109.583 118.296 107.998 118.296V120.296ZM108.858 121.168C108.858 121.657 108.468 122.04 107.998 122.04V124.04C109.583 124.04 110.858 122.75 110.858 121.168H108.858ZM107.998 122.04C107.529 122.04 107.138 121.654 107.138 121.168H105.138C105.138 122.746 106.411 124.04 107.998 124.04V122.04ZM113.916 121.168C113.916 120.681 114.307 120.296 114.776 120.296V118.296C113.19 118.296 111.916 119.59 111.916 121.168H113.916ZM114.776 120.296C115.246 120.296 115.636 120.679 115.636 121.168H117.636C117.636 119.586 116.361 118.296 114.776 118.296V120.296ZM115.636 121.168C115.636 121.657 115.246 122.04 114.776 122.04V124.04C116.361 124.04 117.636 122.75 117.636 121.168H115.636ZM114.776 122.04C114.307 122.04 113.916 121.654 113.916 121.168H111.916C111.916 122.746 113.19 124.04 114.776 124.04V122.04ZM120.694 121.168C120.694 120.681 121.085 120.296 121.554 120.296V118.296C119.968 118.296 118.694 119.59 118.694 121.168H120.694ZM121.554 120.296C122.026 120.296 122.417 120.681 122.417 121.168H124.417C124.417 119.583 123.137 118.296 121.554 118.296V120.296ZM122.417 121.168C122.417 121.654 122.026 122.04 121.554 122.04V124.04C123.137 124.04 124.417 122.752 124.417 121.168H122.417ZM121.554 122.04C121.085 122.04 120.694 121.654 120.694 121.168H118.694C118.694 122.746 119.968 124.04 121.554 124.04V122.04ZM96.7909 114.571H112.427V112.571H96.7909V114.571ZM111.427 113.571V116.336H113.427V113.571H111.427ZM112.427 115.336H96.7909V117.336H112.427V115.336ZM97.7909 116.336V113.571H95.7909V116.336H97.7909ZM84.4139 103.283H82.8881V105.283H84.4139V103.283ZM100.91 114.571H106.648V112.571H100.91V114.571ZM57.675 72.1283L62.1657 106.868L64.1492 106.611L59.6585 71.8719L57.675 72.1283ZM63.1575 107.74H65.8114V105.74H63.1575V107.74ZM66.8112 106.757L67.2834 79.5051L65.2837 79.4705L64.8115 106.722L66.8112 106.757ZM62.2662 71.0001H58.6667V73.0001H62.2662V71.0001ZM88.4778 102.43C88.4778 98.6172 88.8253 94.2719 91.1544 91.1912L89.559 89.9851C86.7884 93.6497 86.4778 98.6237 86.4778 102.43H88.4778ZM91.2451 90.129C90.3059 88.3119 89.0586 86.1621 87.6248 84.3644C86.2242 82.6083 84.5014 81.0016 82.5691 80.5731L82.1362 82.5257C83.3571 82.7964 84.7108 83.9183 86.0612 85.6115C87.3784 87.263 88.5565 89.2831 89.4683 91.0473L91.2451 90.129ZM91.1544 91.1912C92.49 89.4247 94.5249 88.0139 97.7039 87.3955L97.322 85.4323C93.6951 86.1378 91.2134 87.7969 89.559 89.9851L91.1544 91.1912ZM97.7039 87.3955C98.8209 87.1782 100.083 87.0582 101.511 87.0582V85.0582C99.9721 85.0582 98.5804 85.1875 97.322 85.4323L97.7039 87.3955ZM82.1576 74.757C89.5536 74.757 94.0908 81.2516 96.6012 86.8246L98.4247 86.0032C95.8925 80.3817 90.8757 72.757 82.1576 72.757V74.757ZM64.09 73.2842L63.1474 71.5273L61.3851 72.4728L62.3277 74.2297L64.09 73.2842ZM63.2089 74.757C63.2165 74.757 63.2242 74.757 63.2318 74.757C63.2395 74.757 63.2472 74.757 63.2549 74.757C63.2626 74.757 63.2703 74.757 63.278 74.757C63.2858 74.757 63.2935 74.757 63.3013 74.757C63.309 74.757 63.3168 74.757 63.3246 74.757C63.3324 74.757 63.3402 74.757 63.348 74.757C63.3558 74.757 63.3636 74.757 63.3715 74.757C63.3793 74.757 63.3871 74.757 63.395 74.757C63.4029 74.757 63.4108 74.757 63.4187 74.757C63.4266 74.757 63.4345 74.757 63.4424 74.757C63.4503 74.757 63.4582 74.757 63.4662 74.757C63.4741 74.757 63.4821 74.757 63.4901 74.757C63.4981 74.757 63.506 74.757 63.514 74.757C63.5221 74.757 63.5301 74.757 63.5381 74.757C63.5461 74.757 63.5542 74.757 63.5622 74.757C63.5703 74.757 63.5784 74.757 63.5864 74.757C63.5945 74.757 63.6026 74.757 63.6107 74.757C63.6188 74.757 63.627 74.757 63.6351 74.757C63.6433 74.757 63.6514 74.757 63.6596 74.757C63.6677 74.757 63.6759 74.757 63.6841 74.757C63.6923 74.757 63.7005 74.757 63.7087 74.757C63.7169 74.757 63.7252 74.757 63.7334 74.757C63.7417 74.757 63.7499 74.757 63.7582 74.757C63.7665 74.757 63.7747 74.757 63.783 74.757C63.7913 74.757 63.7997 74.757 63.808 74.757C63.8163 74.757 63.8246 74.757 63.833 74.757C63.8413 74.757 63.8497 74.757 63.8581 74.757C63.8665 74.757 63.8749 74.757 63.8833 74.757C63.8917 74.757 63.9001 74.757 63.9085 74.757C63.9169 74.757 63.9254 74.757 63.9338 74.757C63.9423 74.757 63.9508 74.757 63.9593 74.757C63.9677 74.757 63.9762 74.757 63.9847 74.757C63.9932 74.757 64.0018 74.757 64.0103 74.757C64.0188 74.757 64.0274 74.757 64.0359 74.757C64.0445 74.757 64.0531 74.757 64.0617 74.757C64.0703 74.757 64.0789 74.757 64.0875 74.757C64.0961 74.757 64.1047 74.757 64.1133 74.757C64.122 74.757 64.1306 74.757 64.1393 74.757C64.148 74.757 64.1566 74.757 64.1653 74.757C64.174 74.757 64.1827 74.757 64.1914 74.757C64.2002 74.757 64.2089 74.757 64.2176 74.757C64.2264 74.757 64.2351 74.757 64.2439 74.757C64.2526 74.757 64.2614 74.757 64.2702 74.757C64.279 74.757 64.2878 74.757 64.2966 74.757C64.3054 74.757 64.3143 74.757 64.3231 74.757C64.332 74.757 64.3408 74.757 64.3497 74.757C64.3586 74.757 64.3674 74.757 64.3763 74.757C64.3852 74.757 64.3941 74.757 64.403 74.757C64.412 74.757 64.4209 74.757 64.4298 74.757C64.4388 74.757 64.4477 74.757 64.4567 74.757C64.4657 74.757 64.4747 74.757 64.4837 74.757C64.4926 74.757 64.5017 74.757 64.5107 74.757C64.5197 74.757 64.5287 74.757 64.5378 74.757C64.5468 74.757 64.5559 74.757 64.5649 74.757C64.574 74.757 64.5831 74.757 64.5922 74.757C64.6013 74.757 64.6104 74.757 64.6195 74.757C64.6286 74.757 64.6377 74.757 64.6469 74.757C64.656 74.757 64.6652 74.757 64.6744 74.757C64.6835 74.757 64.6927 74.757 64.7019 74.757C64.7111 74.757 64.7203 74.757 64.7295 74.757C64.7387 74.757 64.7479 74.757 64.7572 74.757C64.7664 74.757 64.7757 74.757 64.785 74.757C64.7942 74.757 64.8035 74.757 64.8128 74.757C64.8221 74.757 64.8314 74.757 64.8407 74.757C64.85 74.757 64.8593 74.757 64.8687 74.757C64.878 74.757 64.8874 74.757 64.8967 74.757C64.9061 74.757 64.9155 74.757 64.9248 74.757C64.9342 74.757 64.9436 74.757 64.953 74.757C64.9624 74.757 64.9719 74.757 64.9813 74.757C64.9907 74.757 65.0002 74.757 65.0096 74.757C65.0191 74.757 65.0286 74.757 65.0381 74.757C65.0475 74.757 65.057 74.757 65.0665 74.757C65.076 74.757 65.0856 74.757 65.0951 74.757C65.1046 74.757 65.1142 74.757 65.1237 74.757C65.1333 74.757 65.1428 74.757 65.1524 74.757C65.162 74.757 65.1716 74.757 65.1812 74.757C65.1908 74.757 65.2004 74.757 65.21 74.757C65.2197 74.757 65.2293 74.757 65.2389 74.757C65.2486 74.757 65.2582 74.757 65.2679 74.757C65.2776 74.757 65.2873 74.757 65.297 74.757C65.3067 74.757 65.3164 74.757 65.3261 74.757C65.3358 74.757 65.3455 74.757 65.3553 74.757C65.365 74.757 65.3748 74.757 65.3845 74.757C65.3943 74.757 65.4041 74.757 65.4139 74.757C65.4237 74.757 65.4335 74.757 65.4433 74.757C65.4531 74.757 65.4629 74.757 65.4727 74.757C65.4826 74.757 65.4924 74.757 65.5023 74.757C65.5121 74.757 65.522 74.757 65.5319 74.757C65.5418 74.757 65.5517 74.757 65.5616 74.757C65.5715 74.757 65.5814 74.757 65.5913 74.757C65.6012 74.757 65.6112 74.757 65.6211 74.757C65.6311 74.757 65.641 74.757 65.651 74.757C65.661 74.757 65.671 74.757 65.681 74.757C65.691 74.757 65.701 74.757 65.711 74.757C65.721 74.757 65.731 74.757 65.7411 74.757C65.7511 74.757 65.7612 74.757 65.7712 74.757C65.7813 74.757 65.7913 74.757 65.8014 74.757C65.8115 74.757 65.8216 74.757 65.8317 74.757C65.8418 74.757 65.8519 74.757 65.8621 74.757C65.8722 74.757 65.8823 74.757 65.8925 74.757C65.9027 74.757 65.9128 74.757 65.923 74.757C65.9332 74.757 65.9433 74.757 65.9535 74.757C65.9637 74.757 65.9739 74.757 65.9842 74.757C65.9944 74.757 66.0046 74.757 66.0149 74.757C66.0251 74.757 66.0353 74.757 66.0456 74.757C66.0559 74.757 66.0661 74.757 66.0764 74.757C66.0867 74.757 66.097 74.757 66.1073 74.757C66.1176 74.757 66.1279 74.757 66.1383 74.757C66.1486 74.757 66.1589 74.757 66.1693 74.757C66.1796 74.757 66.19 74.757 66.2004 74.757C66.2107 74.757 66.2211 74.757 66.2315 74.757C66.2419 74.757 66.2523 74.757 66.2627 74.757C66.2731 74.757 66.2836 74.757 66.294 74.757C66.3044 74.757 66.3149 74.757 66.3253 74.757C66.3358 74.757 66.3463 74.757 66.3568 74.757C66.3672 74.757 66.3777 74.757 66.3882 74.757C66.3987 74.757 66.4092 74.757 66.4198 74.757C66.4303 74.757 66.4408 74.757 66.4514 74.757C66.4619 74.757 66.4725 74.757 66.483 74.757C66.4936 74.757 66.5042 74.757 66.5147 74.757C66.5253 74.757 66.5359 74.757 66.5465 74.757C66.5571 74.757 66.5678 74.757 66.5784 74.757C66.589 74.757 66.5997 74.757 66.6103 74.757C66.621 74.757 66.6316 74.757 66.6423 74.757C66.653 74.757 66.6636 74.757 66.6743 74.757C66.685 74.757 66.6957 74.757 66.7064 74.757C66.7171 74.757 66.7279 74.757 66.7386 74.757C66.7493 74.757 66.7601 74.757 66.7708 74.757C66.7816 74.757 66.7923 74.757 66.8031 74.757C66.8139 74.757 66.8247 74.757 66.8355 74.757C66.8463 74.757 66.8571 74.757 66.8679 74.757C66.8787 74.757 66.8895 74.757 66.9004 74.757C66.9112 74.757 66.922 74.757 66.9329 74.757C66.9438 74.757 66.9546 74.757 66.9655 74.757C66.9764 74.757 66.9873 74.757 66.9982 74.757C67.0091 74.757 67.02 74.757 67.0309 74.757C67.0418 74.757 67.0527 74.757 67.0637 74.757C67.0746 74.757 67.0855 74.757 67.0965 74.757C67.1075 74.757 67.1184 74.757 67.1294 74.757C67.1404 74.757 67.1514 74.757 67.1624 74.757C67.1734 74.757 67.1844 74.757 67.1954 74.757C67.2064 74.757 67.2174 74.757 67.2285 74.757C67.2395 74.757 67.2506 74.757 67.2616 74.757C67.2727 74.757 67.2837 74.757 67.2948 74.757C67.3059 74.757 67.317 74.757 67.3281 74.757C67.3392 74.757 67.3503 74.757 67.3614 74.757C67.3725 74.757 67.3837 74.757 67.3948 74.757C67.4059 74.757 67.4171 74.757 67.4282 74.757C67.4394 74.757 67.4505 74.757 67.4617 74.757C67.4729 74.757 67.4841 74.757 67.4953 74.757C67.5065 74.757 67.5177 74.757 67.5289 74.757C67.5401 74.757 67.5513 74.757 67.5626 74.757C67.5738 74.757 67.585 74.757 67.5963 74.757C67.6076 74.757 67.6188 74.757 67.6301 74.757C67.6414 74.757 67.6526 74.757 67.6639 74.757C67.6752 74.757 67.6865 74.757 67.6978 74.757C67.7092 74.757 67.7205 74.757 67.7318 74.757C67.7431 74.757 67.7545 74.757 67.7658 74.757C67.7772 74.757 67.7885 74.757 67.7999 74.757C67.8113 74.757 67.8226 74.757 67.834 74.757C67.8454 74.757 67.8568 74.757 67.8682 74.757C67.8796 74.757 67.891 74.757 67.9025 74.757C67.9139 74.757 67.9253 74.757 67.9368 74.757C67.9482 74.757 67.9597 74.757 67.9711 74.757C67.9826 74.757 67.9941 74.757 68.0056 74.757C68.017 74.757 68.0285 74.757 68.04 74.757C68.0515 74.757 68.063 74.757 68.0746 74.757C68.0861 74.757 68.0976 74.757 68.1091 74.757C68.1207 74.757 68.1322 74.757 68.1438 74.757C68.1553 74.757 68.1669 74.757 68.1785 74.757C68.19 74.757 68.2016 74.757 68.2132 74.757C68.2248 74.757 68.2364 74.757 68.248 74.757C68.2596 74.757 68.2712 74.757 68.2829 74.757C68.2945 74.757 68.3061 74.757 68.3178 74.757C68.3294 74.757 68.3411 74.757 68.3528 74.757C68.3644 74.757 68.3761 74.757 68.3878 74.757C68.3995 74.757 68.4112 74.757 68.4229 74.757C68.4346 74.757 68.4463 74.757 68.458 74.757C68.4697 74.757 68.4814 74.757 68.4932 74.757C68.5049 74.757 68.5166 74.757 68.5284 74.757C68.5402 74.757 68.5519 74.757 68.5637 74.757C68.5755 74.757 68.5872 74.757 68.599 74.757C68.6108 74.757 68.6226 74.757 68.6344 74.757C68.6462 74.757 68.6581 74.757 68.6699 74.757C68.6817 74.757 68.6935 74.757 68.7054 74.757C68.7172 74.757 68.7291 74.757 68.7409 74.757C68.7528 74.757 68.7647 74.757 68.7765 74.757C68.7884 74.757 68.8003 74.757 68.8122 74.757C68.8241 74.757 68.836 74.757 68.8479 74.757C68.8598 74.757 68.8717 74.757 68.8837 74.757C68.8956 74.757 68.9075 74.757 68.9195 74.757C68.9314 74.757 68.9434 74.757 68.9554 74.757C68.9673 74.757 68.9793 74.757 68.9913 74.757C69.0033 74.757 69.0152 74.757 69.0272 74.757C69.0392 74.757 69.0513 74.757 69.0633 74.757C69.0753 74.757 69.0873 74.757 69.0993 74.757C69.1114 74.757 69.1234 74.757 69.1355 74.757C69.1475 74.757 69.1596 74.757 69.1716 74.757C69.1837 74.757 69.1958 74.757 69.2079 74.757C69.2199 74.757 69.232 74.757 69.2441 74.757C69.2562 74.757 69.2683 74.757 69.2805 74.757C69.2926 74.757 69.3047 74.757 69.3168 74.757C69.329 74.757 69.3411 74.757 69.3532 74.757C69.3654 74.757 69.3776 74.757 69.3897 74.757C69.4019 74.757 69.4141 74.757 69.4262 74.757C69.4384 74.757 69.4506 74.757 69.4628 74.757C69.475 74.757 69.4872 74.757 69.4994 74.757C69.5116 74.757 69.5239 74.757 69.5361 74.757C69.5483 74.757 69.5606 74.757 69.5728 74.757C69.5851 74.757 69.5973 74.757 69.6096 74.757C69.6218 74.757 69.6341 74.757 69.6464 74.757C69.6587 74.757 69.671 74.757 69.6833 74.757C69.6956 74.757 69.7079 74.757 69.7202 74.757C69.7325 74.757 69.7448 74.757 69.7571 74.757C69.7695 74.757 69.7818 74.757 69.7941 74.757C69.8065 74.757 69.8188 74.757 69.8312 74.757C69.8435 74.757 69.8559 74.757 69.8683 74.757C69.8807 74.757 69.893 74.757 69.9054 74.757C69.9178 74.757 69.9302 74.757 69.9426 74.757C69.955 74.757 69.9675 74.757 69.9799 74.757C69.9923 74.757 70.0047 74.757 70.0172 74.757C70.0296 74.757 70.042 74.757 70.0545 74.757C70.067 74.757 70.0794 74.757 70.0919 74.757C70.1044 74.757 70.1168 74.757 70.1293 74.757C70.1418 74.757 70.1543 74.757 70.1668 74.757C70.1793 74.757 70.1918 74.757 70.2043 74.757C70.2168 74.757 70.2293 74.757 70.2419 74.757C70.2544 74.757 70.2669 74.757 70.2795 74.757C70.292 74.757 70.3046 74.757 70.3171 74.757C70.3297 74.757 70.3423 74.757 70.3548 74.757C70.3674 74.757 70.38 74.757 70.3926 74.757C70.4052 74.757 70.4178 74.757 70.4304 74.757C70.443 74.757 70.4556 74.757 70.4682 74.757C70.4808 74.757 70.4935 74.757 70.5061 74.757C70.5187 74.757 70.5314 74.757 70.544 74.757C70.5567 74.757 70.5693 74.757 70.582 74.757C70.5947 74.757 70.6073 74.757 70.62 74.757C70.6327 74.757 70.6454 74.757 70.6581 74.757C70.6708 74.757 70.6835 74.757 70.6962 74.757C70.7089 74.757 70.7216 74.757 70.7343 74.757C70.747 74.757 70.7598 74.757 70.7725 74.757C70.7852 74.757 70.798 74.757 70.8107 74.757C70.8235 74.757 70.8362 74.757 70.849 74.757C70.8618 74.757 70.8745 74.757 70.8873 74.757C70.9001 74.757 70.9129 74.757 70.9257 74.757C70.9385 74.757 70.9513 74.757 70.9641 74.757C70.9769 74.757 70.9897 74.757 71.0025 74.757C71.0153 74.757 71.0282 74.757 71.041 74.757C71.0538 74.757 71.0667 74.757 71.0795 74.757C71.0924 74.757 71.1052 74.757 71.1181 74.757C71.131 74.757 71.1438 74.757 71.1567 74.757C71.1696 74.757 71.1825 74.757 71.1954 74.757C71.2083 74.757 71.2212 74.757 71.2341 74.757C71.247 74.757 71.2599 74.757 71.2728 74.757C71.2857 74.757 71.2986 74.757 71.3116 74.757C71.3245 74.757 71.3375 74.757 71.3504 74.757C71.3633 74.757 71.3763 74.757 71.3893 74.757C71.4022 74.757 71.4152 74.757 71.4282 74.757C71.4411 74.757 71.4541 74.757 71.4671 74.757C71.4801 74.757 71.4931 74.757 71.5061 74.757C71.5191 74.757 71.5321 74.757 71.5451 74.757C71.5581 74.757 71.5711 74.757 71.5842 74.757C71.5972 74.757 71.6102 74.757 71.6233 74.757C71.6363 74.757 71.6493 74.757 71.6624 74.757C71.6754 74.757 71.6885 74.757 71.7016 74.757C71.7146 74.757 71.7277 74.757 71.7408 74.757C71.7539 74.757 71.767 74.757 71.78 74.757C71.7931 74.757 71.8062 74.757 71.8193 74.757C71.8324 74.757 71.8456 74.757 71.8587 74.757C71.8718 74.757 71.8849 74.757 71.898 74.757C71.9112 74.757 71.9243 74.757 71.9375 74.757C71.9506 74.757 71.9637 74.757 71.9769 74.757C71.9901 74.757 72.0032 74.757 72.0164 74.757C72.0296 74.757 72.0427 74.757 72.0559 74.757C72.0691 74.757 72.0823 74.757 72.0955 74.757C72.1087 74.757 72.1219 74.757 72.1351 74.757C72.1483 74.757 72.1615 74.757 72.1747 74.757C72.1879 74.757 72.2012 74.757 72.2144 74.757C72.2276 74.757 72.2409 74.757 72.2541 74.757C72.2673 74.757 72.2806 74.757 72.2938 74.757C72.3071 74.757 72.3204 74.757 72.3336 74.757C72.3469 74.757 72.3602 74.757 72.3735 74.757C72.3867 74.757 72.4 74.757 72.4133 74.757C72.4266 74.757 72.4399 74.757 72.4532 74.757C72.4665 74.757 72.4798 74.757 72.4931 74.757C72.5065 74.757 72.5198 74.757 72.5331 74.757C72.5464 74.757 72.5598 74.757 72.5731 74.757C72.5864 74.757 72.5998 74.757 72.6131 74.757C72.6265 74.757 72.6398 74.757 72.6532 74.757C72.6666 74.757 72.6799 74.757 72.6933 74.757C72.7067 74.757 72.7201 74.757 72.7335 74.757C72.7468 74.757 72.7602 74.757 72.7736 74.757C72.787 74.757 72.8004 74.757 72.8138 74.757C72.8273 74.757 72.8407 74.757 72.8541 74.757C72.8675 74.757 72.8809 74.757 72.8944 74.757C72.9078 74.757 72.9212 74.757 72.9347 74.757C72.9481 74.757 72.9616 74.757 72.975 74.757C72.9885 74.757 73.002 74.757 73.0154 74.757C73.0289 74.757 73.0424 74.757 73.0558 74.757C73.0693 74.757 73.0828 74.757 73.0963 74.757C73.1098 74.757 73.1233 74.757 73.1368 74.757C73.1503 74.757 73.1638 74.757 73.1773 74.757C73.1908 74.757 73.2043 74.757 73.2178 74.757C73.2314 74.757 73.2449 74.757 73.2584 74.757C73.2719 74.757 73.2855 74.757 73.299 74.757C73.3126 74.757 73.3261 74.757 73.3397 74.757C73.3532 74.757 73.3668 74.757 73.3804 74.757C73.3939 74.757 73.4075 74.757 73.4211 74.757C73.4346 74.757 73.4482 74.757 73.4618 74.757C73.4754 74.757 73.489 74.757 73.5026 74.757C73.5162 74.757 73.5298 74.757 73.5434 74.757C73.557 74.757 73.5706 74.757 73.5842 74.757C73.5978 74.757 73.6115 74.757 73.6251 74.757C73.6387 74.757 73.6524 74.757 73.666 74.757C73.6796 74.757 73.6933 74.757 73.7069 74.757C73.7206 74.757 73.7342 74.757 73.7479 74.757C73.7616 74.757 73.7752 74.757 73.7889 74.757C73.8026 74.757 73.8162 74.757 73.8299 74.757C73.8436 74.757 73.8573 74.757 73.871 74.757C73.8847 74.757 73.8983 74.757 73.912 74.757C73.9257 74.757 73.9394 74.757 73.9532 74.757C73.9669 74.757 73.9806 74.757 73.9943 74.757C74.008 74.757 74.0217 74.757 74.0355 74.757C74.0492 74.757 74.0629 74.757 74.0767 74.757C74.0904 74.757 74.1042 74.757 74.1179 74.757C74.1317 74.757 74.1454 74.757 74.1592 74.757C74.1729 74.757 74.1867 74.757 74.2005 74.757C74.2142 74.757 74.228 74.757 74.2418 74.757C74.2556 74.757 74.2693 74.757 74.2831 74.757C74.2969 74.757 74.3107 74.757 74.3245 74.757C74.3383 74.757 74.3521 74.757 74.3659 74.757C74.3797 74.757 74.3935 74.757 74.4073 74.757C74.4212 74.757 74.435 74.757 74.4488 74.757C74.4626 74.757 74.4765 74.757 74.4903 74.757C74.5041 74.757 74.518 74.757 74.5318 74.757C74.5456 74.757 74.5595 74.757 74.5733 74.757C74.5872 74.757 74.6011 74.757 74.6149 74.757C74.6288 74.757 74.6426 74.757 74.6565 74.757C74.6704 74.757 74.6843 74.757 74.6981 74.757C74.712 74.757 74.7259 74.757 74.7398 74.757C74.7537 74.757 74.7676 74.757 74.7815 74.757C74.7954 74.757 74.8093 74.757 74.8232 74.757C74.8371 74.757 74.851 74.757 74.8649 74.757C74.8788 74.757 74.8927 74.757 74.9067 74.757C74.9206 74.757 74.9345 74.757 74.9484 74.757C74.9624 74.757 74.9763 74.757 74.9902 74.757C75.0042 74.757 75.0181 74.757 75.0321 74.757C75.046 74.757 75.06 74.757 75.0739 74.757C75.0879 74.757 75.1019 74.757 75.1158 74.757C75.1298 74.757 75.1438 74.757 75.1577 74.757C75.1717 74.757 75.1857 74.757 75.1997 74.757C75.2136 74.757 75.2276 74.757 75.2416 74.757C75.2556 74.757 75.2696 74.757 75.2836 74.757C75.2976 74.757 75.3116 74.757 75.3256 74.757C75.3396 74.757 75.3536 74.757 75.3677 74.757C75.3817 74.757 75.3957 74.757 75.4097 74.757C75.4237 74.757 75.4378 74.757 75.4518 74.757C75.4658 74.757 75.4799 74.757 75.4939 74.757C75.5079 74.757 75.522 74.757 75.536 74.757C75.5501 74.757 75.5641 74.757 75.5782 74.757C75.5922 74.757 75.6063 74.757 75.6203 74.757C75.6344 74.757 75.6485 74.757 75.6625 74.757C75.6766 74.757 75.6907 74.757 75.7048 74.757C75.7188 74.757 75.7329 74.757 75.747 74.757C75.7611 74.757 75.7752 74.757 75.7893 74.757C75.8034 74.757 75.8175 74.757 75.8316 74.757C75.8457 74.757 75.8598 74.757 75.8739 74.757C75.888 74.757 75.9021 74.757 75.9162 74.757C75.9303 74.757 75.9444 74.757 75.9586 74.757C75.9727 74.757 75.9868 74.757 76.0009 74.757C76.0151 74.757 76.0292 74.757 76.0433 74.757C76.0575 74.757 76.0716 74.757 76.0858 74.757C76.0999 74.757 76.114 74.757 76.1282 74.757C76.1423 74.757 76.1565 74.757 76.1707 74.757C76.1848 74.757 76.199 74.757 76.2131 74.757C76.2273 74.757 76.2415 74.757 76.2556 74.757C76.2698 74.757 76.284 74.757 76.2982 74.757C76.3123 74.757 76.3265 74.757 76.3407 74.757C76.3549 74.757 76.3691 74.757 76.3833 74.757C76.3975 74.757 76.4117 74.757 76.4259 74.757C76.4401 74.757 76.4543 74.757 76.4685 74.757C76.4827 74.757 76.4969 74.757 76.5111 74.757C76.5253 74.757 76.5395 74.757 76.5537 74.757C76.568 74.757 76.5822 74.757 76.5964 74.757C76.6106 74.757 76.6249 74.757 76.6391 74.757C76.6533 74.757 76.6675 74.757 76.6818 74.757C76.696 74.757 76.7103 74.757 76.7245 74.757C76.7387 74.757 76.753 74.757 76.7672 74.757C76.7815 74.757 76.7957 74.757 76.81 74.757C76.8243 74.757 76.8385 74.757 76.8528 74.757C76.867 74.757 76.8813 74.757 76.8956 74.757C76.9098 74.757 76.9241 74.757 76.9384 74.757C76.9527 74.757 76.9669 74.757 76.9812 74.757C76.9955 74.757 77.0098 74.757 77.0241 74.757C77.0383 74.757 77.0526 74.757 77.0669 74.757C77.0812 74.757 77.0955 74.757 77.1098 74.757C77.1241 74.757 77.1384 74.757 77.1527 74.757C77.167 74.757 77.1813 74.757 77.1956 74.757C77.2099 74.757 77.2243 74.757 77.2386 74.757C77.2529 74.757 77.2672 74.757 77.2815 74.757C77.2958 74.757 77.3102 74.757 77.3245 74.757C77.3388 74.757 77.3531 74.757 77.3675 74.757C77.3818 74.757 77.3961 74.757 77.4105 74.757C77.4248 74.757 77.4391 74.757 77.4535 74.757C77.4678 74.757 77.4822 74.757 77.4965 74.757C77.5109 74.757 77.5252 74.757 77.5396 74.757C77.5539 74.757 77.5683 74.757 77.5826 74.757C77.597 74.757 77.6113 74.757 77.6257 74.757C77.6401 74.757 77.6544 74.757 77.6688 74.757C77.6832 74.757 77.6975 74.757 77.7119 74.757C77.7263 74.757 77.7407 74.757 77.755 74.757C77.7694 74.757 77.7838 74.757 77.7982 74.757C77.8126 74.757 77.8269 74.757 77.8413 74.757C77.8557 74.757 77.8701 74.757 77.8845 74.757C77.8989 74.757 77.9133 74.757 77.9277 74.757C77.9421 74.757 77.9565 74.757 77.9709 74.757C77.9853 74.757 77.9997 74.757 78.0141 74.757C78.0285 74.757 78.0429 74.757 78.0573 74.757C78.0717 74.757 78.0861 74.757 78.1005 74.757C78.115 74.757 78.1294 74.757 78.1438 74.757C78.1582 74.757 78.1726 74.757 78.1871 74.757C78.2015 74.757 78.2159 74.757 78.2303 74.757C78.2448 74.757 78.2592 74.757 78.2736 74.757C78.2881 74.757 78.3025 74.757 78.3169 74.757C78.3314 74.757 78.3458 74.757 78.3602 74.757C78.3747 74.757 78.3891 74.757 78.4036 74.757C78.418 74.757 78.4325 74.757 78.4469 74.757C78.4614 74.757 78.4758 74.757 78.4903 74.757C78.5047 74.757 78.5192 74.757 78.5336 74.757C78.5481 74.757 78.5625 74.757 78.577 74.757C78.5915 74.757 78.6059 74.757 78.6204 74.757C78.6349 74.757 78.6493 74.757 78.6638 74.757C78.6783 74.757 78.6927 74.757 78.7072 74.757C78.7217 74.757 78.7361 74.757 78.7506 74.757C78.7651 74.757 78.7796 74.757 78.794 74.757C78.8085 74.757 78.823 74.757 78.8375 74.757C78.852 74.757 78.8665 74.757 78.8809 74.757C78.8954 74.757 78.9099 74.757 78.9244 74.757C78.9389 74.757 78.9534 74.757 78.9679 74.757C78.9824 74.757 78.9969 74.757 79.0114 74.757C79.0259 74.757 79.0404 74.757 79.0549 74.757C79.0694 74.757 79.0839 74.757 79.0984 74.757C79.1129 74.757 79.1274 74.757 79.1419 74.757C79.1564 74.757 79.1709 74.757 79.1854 74.757C79.1999 74.757 79.2144 74.757 79.2289 74.757C79.2434 74.757 79.2579 74.757 79.2725 74.757C79.287 74.757 79.3015 74.757 79.316 74.757C79.3305 74.757 79.345 74.757 79.3596 74.757C79.3741 74.757 79.3886 74.757 79.4031 74.757C79.4177 74.757 79.4322 74.757 79.4467 74.757C79.4612 74.757 79.4758 74.757 79.4903 74.757C79.5048 74.757 79.5193 74.757 79.5339 74.757C79.5484 74.757 79.5629 74.757 79.5775 74.757C79.592 74.757 79.6065 74.757 79.6211 74.757C79.6356 74.757 79.6502 74.757 79.6647 74.757C79.6792 74.757 79.6938 74.757 79.7083 74.757C79.7229 74.757 79.7374 74.757 79.7519 74.757C79.7665 74.757 79.781 74.757 79.7956 74.757C79.8101 74.757 79.8247 74.757 79.8392 74.757C79.8538 74.757 79.8683 74.757 79.8829 74.757C79.8974 74.757 79.912 74.757 79.9265 74.757C79.9411 74.757 79.9556 74.757 79.9702 74.757C79.9847 74.757 79.9993 74.757 80.0139 74.757C80.0284 74.757 80.043 74.757 80.0575 74.757C80.0721 74.757 80.0866 74.757 80.1012 74.757C80.1158 74.757 80.1303 74.757 80.1449 74.757C80.1595 74.757 80.174 74.757 80.1886 74.757C80.2031 74.757 80.2177 74.757 80.2323 74.757C80.2468 74.757 80.2614 74.757 80.276 74.757C80.2905 74.757 80.3051 74.757 80.3197 74.757C80.3343 74.757 80.3488 74.757 80.3634 74.757C80.378 74.757 80.3925 74.757 80.4071 74.757C80.4217 74.757 80.4363 74.757 80.4508 74.757C80.4654 74.757 80.48 74.757 80.4946 74.757C80.5091 74.757 80.5237 74.757 80.5383 74.757C80.5529 74.757 80.5674 74.757 80.582 74.757C80.5966 74.757 80.6112 74.757 80.6258 74.757C80.6403 74.757 80.6549 74.757 80.6695 74.757C80.6841 74.757 80.6987 74.757 80.7132 74.757C80.7278 74.757 80.7424 74.757 80.757 74.757C80.7716 74.757 80.7862 74.757 80.8007 74.757C80.8153 74.757 80.8299 74.757 80.8445 74.757C80.8591 74.757 80.8737 74.757 80.8882 74.757C80.9028 74.757 80.9174 74.757 80.932 74.757C80.9466 74.757 80.9612 74.757 80.9758 74.757C80.9904 74.757 81.0049 74.757 81.0195 74.757C81.0341 74.757 81.0487 74.757 81.0633 74.757C81.0779 74.757 81.0925 74.757 81.1071 74.757C81.1217 74.757 81.1362 74.757 81.1508 74.757C81.1654 74.757 81.18 74.757 81.1946 74.757C81.2092 74.757 81.2238 74.757 81.2384 74.757C81.253 74.757 81.2676 74.757 81.2821 74.757C81.2967 74.757 81.3113 74.757 81.3259 74.757C81.3405 74.757 81.3551 74.757 81.3697 74.757C81.3843 74.757 81.3989 74.757 81.4135 74.757C81.4281 74.757 81.4427 74.757 81.4573 74.757C81.4718 74.757 81.4864 74.757 81.501 74.757C81.5156 74.757 81.5302 74.757 81.5448 74.757C81.5594 74.757 81.574 74.757 81.5886 74.757C81.6032 74.757 81.6178 74.757 81.6324 74.757C81.647 74.757 81.6616 74.757 81.6761 74.757C81.6907 74.757 81.7053 74.757 81.7199 74.757C81.7345 74.757 81.7491 74.757 81.7637 74.757C81.7783 74.757 81.7929 74.757 81.8075 74.757C81.8221 74.757 81.8367 74.757 81.8513 74.757C81.8658 74.757 81.8804 74.757 81.895 74.757C81.9096 74.757 81.9242 74.757 81.9388 74.757C81.9534 74.757 81.968 74.757 81.9826 74.757C81.9972 74.757 82.0118 74.757 82.0263 74.757C82.0409 74.757 82.0555 74.757 82.0701 74.757C82.0847 74.757 82.0993 74.757 82.1139 74.757C82.1285 74.757 82.1431 74.757 82.1576 74.757V72.757C82.1431 72.757 82.1285 72.757 82.1139 72.757C82.0993 72.757 82.0847 72.757 82.0701 72.757C82.0555 72.757 82.0409 72.757 82.0263 72.757C82.0118 72.757 81.9972 72.757 81.9826 72.757C81.968 72.757 81.9534 72.757 81.9388 72.757C81.9242 72.757 81.9096 72.757 81.895 72.757C81.8804 72.757 81.8658 72.757 81.8513 72.757C81.8367 72.757 81.8221 72.757 81.8075 72.757C81.7929 72.757 81.7783 72.757 81.7637 72.757C81.7491 72.757 81.7345 72.757 81.7199 72.757C81.7053 72.757 81.6907 72.757 81.6761 72.757C81.6616 72.757 81.647 72.757 81.6324 72.757C81.6178 72.757 81.6032 72.757 81.5886 72.757C81.574 72.757 81.5594 72.757 81.5448 72.757C81.5302 72.757 81.5156 72.757 81.501 72.757C81.4864 72.757 81.4718 72.757 81.4573 72.757C81.4427 72.757 81.4281 72.757 81.4135 72.757C81.3989 72.757 81.3843 72.757 81.3697 72.757C81.3551 72.757 81.3405 72.757 81.3259 72.757C81.3113 72.757 81.2967 72.757 81.2821 72.757C81.2676 72.757 81.253 72.757 81.2384 72.757C81.2238 72.757 81.2092 72.757 81.1946 72.757C81.18 72.757 81.1654 72.757 81.1508 72.757C81.1362 72.757 81.1217 72.757 81.1071 72.757C81.0925 72.757 81.0779 72.757 81.0633 72.757C81.0487 72.757 81.0341 72.757 81.0195 72.757C81.0049 72.757 80.9904 72.757 80.9758 72.757C80.9612 72.757 80.9466 72.757 80.932 72.757C80.9174 72.757 80.9028 72.757 80.8882 72.757C80.8737 72.757 80.8591 72.757 80.8445 72.757C80.8299 72.757 80.8153 72.757 80.8007 72.757C80.7862 72.757 80.7716 72.757 80.757 72.757C80.7424 72.757 80.7278 72.757 80.7132 72.757C80.6987 72.757 80.6841 72.757 80.6695 72.757C80.6549 72.757 80.6403 72.757 80.6258 72.757C80.6112 72.757 80.5966 72.757 80.582 72.757C80.5674 72.757 80.5529 72.757 80.5383 72.757C80.5237 72.757 80.5091 72.757 80.4946 72.757C80.48 72.757 80.4654 72.757 80.4508 72.757C80.4363 72.757 80.4217 72.757 80.4071 72.757C80.3925 72.757 80.378 72.757 80.3634 72.757C80.3488 72.757 80.3343 72.757 80.3197 72.757C80.3051 72.757 80.2905 72.757 80.276 72.757C80.2614 72.757 80.2468 72.757 80.2323 72.757C80.2177 72.757 80.2031 72.757 80.1886 72.757C80.174 72.757 80.1595 72.757 80.1449 72.757C80.1303 72.757 80.1158 72.757 80.1012 72.757C80.0866 72.757 80.0721 72.757 80.0575 72.757C80.043 72.757 80.0284 72.757 80.0139 72.757C79.9993 72.757 79.9847 72.757 79.9702 72.757C79.9556 72.757 79.9411 72.757 79.9265 72.757C79.912 72.757 79.8974 72.757 79.8829 72.757C79.8683 72.757 79.8538 72.757 79.8392 72.757C79.8247 72.757 79.8101 72.757 79.7956 72.757C79.781 72.757 79.7665 72.757 79.7519 72.757C79.7374 72.757 79.7229 72.757 79.7083 72.757C79.6938 72.757 79.6792 72.757 79.6647 72.757C79.6502 72.757 79.6356 72.757 79.6211 72.757C79.6065 72.757 79.592 72.757 79.5775 72.757C79.5629 72.757 79.5484 72.757 79.5339 72.757C79.5193 72.757 79.5048 72.757 79.4903 72.757C79.4758 72.757 79.4612 72.757 79.4467 72.757C79.4322 72.757 79.4177 72.757 79.4031 72.757C79.3886 72.757 79.3741 72.757 79.3596 72.757C79.345 72.757 79.3305 72.757 79.316 72.757C79.3015 72.757 79.287 72.757 79.2725 72.757C79.2579 72.757 79.2434 72.757 79.2289 72.757C79.2144 72.757 79.1999 72.757 79.1854 72.757C79.1709 72.757 79.1564 72.757 79.1419 72.757C79.1274 72.757 79.1129 72.757 79.0984 72.757C79.0839 72.757 79.0694 72.757 79.0549 72.757C79.0404 72.757 79.0259 72.757 79.0114 72.757C78.9969 72.757 78.9824 72.757 78.9679 72.757C78.9534 72.757 78.9389 72.757 78.9244 72.757C78.9099 72.757 78.8954 72.757 78.8809 72.757C78.8665 72.757 78.852 72.757 78.8375 72.757C78.823 72.757 78.8085 72.757 78.794 72.757C78.7796 72.757 78.7651 72.757 78.7506 72.757C78.7361 72.757 78.7217 72.757 78.7072 72.757C78.6927 72.757 78.6783 72.757 78.6638 72.757C78.6493 72.757 78.6349 72.757 78.6204 72.757C78.6059 72.757 78.5915 72.757 78.577 72.757C78.5625 72.757 78.5481 72.757 78.5336 72.757C78.5192 72.757 78.5047 72.757 78.4903 72.757C78.4758 72.757 78.4614 72.757 78.4469 72.757C78.4325 72.757 78.418 72.757 78.4036 72.757C78.3891 72.757 78.3747 72.757 78.3602 72.757C78.3458 72.757 78.3314 72.757 78.3169 72.757C78.3025 72.757 78.2881 72.757 78.2736 72.757C78.2592 72.757 78.2448 72.757 78.2303 72.757C78.2159 72.757 78.2015 72.757 78.1871 72.757C78.1726 72.757 78.1582 72.757 78.1438 72.757C78.1294 72.757 78.115 72.757 78.1005 72.757C78.0861 72.757 78.0717 72.757 78.0573 72.757C78.0429 72.757 78.0285 72.757 78.0141 72.757C77.9997 72.757 77.9853 72.757 77.9709 72.757C77.9565 72.757 77.9421 72.757 77.9277 72.757C77.9133 72.757 77.8989 72.757 77.8845 72.757C77.8701 72.757 77.8557 72.757 77.8413 72.757C77.8269 72.757 77.8126 72.757 77.7982 72.757C77.7838 72.757 77.7694 72.757 77.755 72.757C77.7407 72.757 77.7263 72.757 77.7119 72.757C77.6975 72.757 77.6832 72.757 77.6688 72.757C77.6544 72.757 77.6401 72.757 77.6257 72.757C77.6113 72.757 77.597 72.757 77.5826 72.757C77.5683 72.757 77.5539 72.757 77.5396 72.757C77.5252 72.757 77.5109 72.757 77.4965 72.757C77.4822 72.757 77.4678 72.757 77.4535 72.757C77.4391 72.757 77.4248 72.757 77.4105 72.757C77.3961 72.757 77.3818 72.757 77.3675 72.757C77.3531 72.757 77.3388 72.757 77.3245 72.757C77.3102 72.757 77.2958 72.757 77.2815 72.757C77.2672 72.757 77.2529 72.757 77.2386 72.757C77.2243 72.757 77.2099 72.757 77.1956 72.757C77.1813 72.757 77.167 72.757 77.1527 72.757C77.1384 72.757 77.1241 72.757 77.1098 72.757C77.0955 72.757 77.0812 72.757 77.0669 72.757C77.0526 72.757 77.0383 72.757 77.0241 72.757C77.0098 72.757 76.9955 72.757 76.9812 72.757C76.9669 72.757 76.9527 72.757 76.9384 72.757C76.9241 72.757 76.9098 72.757 76.8956 72.757C76.8813 72.757 76.867 72.757 76.8528 72.757C76.8385 72.757 76.8243 72.757 76.81 72.757C76.7957 72.757 76.7815 72.757 76.7672 72.757C76.753 72.757 76.7387 72.757 76.7245 72.757C76.7103 72.757 76.696 72.757 76.6818 72.757C76.6675 72.757 76.6533 72.757 76.6391 72.757C76.6249 72.757 76.6106 72.757 76.5964 72.757C76.5822 72.757 76.568 72.757 76.5537 72.757C76.5395 72.757 76.5253 72.757 76.5111 72.757C76.4969 72.757 76.4827 72.757 76.4685 72.757C76.4543 72.757 76.4401 72.757 76.4259 72.757C76.4117 72.757 76.3975 72.757 76.3833 72.757C76.3691 72.757 76.3549 72.757 76.3407 72.757C76.3265 72.757 76.3123 72.757 76.2982 72.757C76.284 72.757 76.2698 72.757 76.2556 72.757C76.2415 72.757 76.2273 72.757 76.2131 72.757C76.199 72.757 76.1848 72.757 76.1707 72.757C76.1565 72.757 76.1423 72.757 76.1282 72.757C76.114 72.757 76.0999 72.757 76.0858 72.757C76.0716 72.757 76.0575 72.757 76.0433 72.757C76.0292 72.757 76.0151 72.757 76.0009 72.757C75.9868 72.757 75.9727 72.757 75.9586 72.757C75.9444 72.757 75.9303 72.757 75.9162 72.757C75.9021 72.757 75.888 72.757 75.8739 72.757C75.8598 72.757 75.8457 72.757 75.8316 72.757C75.8175 72.757 75.8034 72.757 75.7893 72.757C75.7752 72.757 75.7611 72.757 75.747 72.757C75.7329 72.757 75.7188 72.757 75.7048 72.757C75.6907 72.757 75.6766 72.757 75.6625 72.757C75.6485 72.757 75.6344 72.757 75.6203 72.757C75.6063 72.757 75.5922 72.757 75.5782 72.757C75.5641 72.757 75.5501 72.757 75.536 72.757C75.522 72.757 75.5079 72.757 75.4939 72.757C75.4799 72.757 75.4658 72.757 75.4518 72.757C75.4378 72.757 75.4237 72.757 75.4097 72.757C75.3957 72.757 75.3817 72.757 75.3677 72.757C75.3536 72.757 75.3396 72.757 75.3256 72.757C75.3116 72.757 75.2976 72.757 75.2836 72.757C75.2696 72.757 75.2556 72.757 75.2416 72.757C75.2276 72.757 75.2136 72.757 75.1997 72.757C75.1857 72.757 75.1717 72.757 75.1577 72.757C75.1438 72.757 75.1298 72.757 75.1158 72.757C75.1019 72.757 75.0879 72.757 75.0739 72.757C75.06 72.757 75.046 72.757 75.0321 72.757C75.0181 72.757 75.0042 72.757 74.9902 72.757C74.9763 72.757 74.9624 72.757 74.9484 72.757C74.9345 72.757 74.9206 72.757 74.9067 72.757C74.8927 72.757 74.8788 72.757 74.8649 72.757C74.851 72.757 74.8371 72.757 74.8232 72.757C74.8093 72.757 74.7954 72.757 74.7815 72.757C74.7676 72.757 74.7537 72.757 74.7398 72.757C74.7259 72.757 74.712 72.757 74.6981 72.757C74.6843 72.757 74.6704 72.757 74.6565 72.757C74.6426 72.757 74.6288 72.757 74.6149 72.757C74.6011 72.757 74.5872 72.757 74.5733 72.757C74.5595 72.757 74.5456 72.757 74.5318 72.757C74.518 72.757 74.5041 72.757 74.4903 72.757C74.4765 72.757 74.4626 72.757 74.4488 72.757C74.435 72.757 74.4212 72.757 74.4073 72.757C74.3935 72.757 74.3797 72.757 74.3659 72.757C74.3521 72.757 74.3383 72.757 74.3245 72.757C74.3107 72.757 74.2969 72.757 74.2831 72.757C74.2693 72.757 74.2556 72.757 74.2418 72.757C74.228 72.757 74.2142 72.757 74.2005 72.757C74.1867 72.757 74.1729 72.757 74.1592 72.757C74.1454 72.757 74.1317 72.757 74.1179 72.757C74.1042 72.757 74.0904 72.757 74.0767 72.757C74.0629 72.757 74.0492 72.757 74.0355 72.757C74.0217 72.757 74.008 72.757 73.9943 72.757C73.9806 72.757 73.9669 72.757 73.9532 72.757C73.9394 72.757 73.9257 72.757 73.912 72.757C73.8983 72.757 73.8847 72.757 73.871 72.757C73.8573 72.757 73.8436 72.757 73.8299 72.757C73.8162 72.757 73.8026 72.757 73.7889 72.757C73.7752 72.757 73.7616 72.757 73.7479 72.757C73.7342 72.757 73.7206 72.757 73.7069 72.757C73.6933 72.757 73.6796 72.757 73.666 72.757C73.6524 72.757 73.6387 72.757 73.6251 72.757C73.6115 72.757 73.5978 72.757 73.5842 72.757C73.5706 72.757 73.557 72.757 73.5434 72.757C73.5298 72.757 73.5162 72.757 73.5026 72.757C73.489 72.757 73.4754 72.757 73.4618 72.757C73.4482 72.757 73.4346 72.757 73.4211 72.757C73.4075 72.757 73.3939 72.757 73.3804 72.757C73.3668 72.757 73.3532 72.757 73.3397 72.757C73.3261 72.757 73.3126 72.757 73.299 72.757C73.2855 72.757 73.2719 72.757 73.2584 72.757C73.2449 72.757 73.2314 72.757 73.2178 72.757C73.2043 72.757 73.1908 72.757 73.1773 72.757C73.1638 72.757 73.1503 72.757 73.1368 72.757C73.1233 72.757 73.1098 72.757 73.0963 72.757C73.0828 72.757 73.0693 72.757 73.0558 72.757C73.0424 72.757 73.0289 72.757 73.0154 72.757C73.002 72.757 72.9885 72.757 72.975 72.757C72.9616 72.757 72.9481 72.757 72.9347 72.757C72.9212 72.757 72.9078 72.757 72.8944 72.757C72.8809 72.757 72.8675 72.757 72.8541 72.757C72.8407 72.757 72.8273 72.757 72.8138 72.757C72.8004 72.757 72.787 72.757 72.7736 72.757C72.7602 72.757 72.7468 72.757 72.7335 72.757C72.7201 72.757 72.7067 72.757 72.6933 72.757C72.6799 72.757 72.6666 72.757 72.6532 72.757C72.6398 72.757 72.6265 72.757 72.6131 72.757C72.5998 72.757 72.5864 72.757 72.5731 72.757C72.5598 72.757 72.5464 72.757 72.5331 72.757C72.5198 72.757 72.5065 72.757 72.4931 72.757C72.4798 72.757 72.4665 72.757 72.4532 72.757C72.4399 72.757 72.4266 72.757 72.4133 72.757C72.4 72.757 72.3867 72.757 72.3735 72.757C72.3602 72.757 72.3469 72.757 72.3336 72.757C72.3204 72.757 72.3071 72.757 72.2938 72.757C72.2806 72.757 72.2673 72.757 72.2541 72.757C72.2409 72.757 72.2276 72.757 72.2144 72.757C72.2012 72.757 72.1879 72.757 72.1747 72.757C72.1615 72.757 72.1483 72.757 72.1351 72.757C72.1219 72.757 72.1087 72.757 72.0955 72.757C72.0823 72.757 72.0691 72.757 72.0559 72.757C72.0427 72.757 72.0296 72.757 72.0164 72.757C72.0032 72.757 71.9901 72.757 71.9769 72.757C71.9637 72.757 71.9506 72.757 71.9375 72.757C71.9243 72.757 71.9112 72.757 71.898 72.757C71.8849 72.757 71.8718 72.757 71.8587 72.757C71.8456 72.757 71.8324 72.757 71.8193 72.757C71.8062 72.757 71.7931 72.757 71.78 72.757C71.767 72.757 71.7539 72.757 71.7408 72.757C71.7277 72.757 71.7146 72.757 71.7016 72.757C71.6885 72.757 71.6754 72.757 71.6624 72.757C71.6493 72.757 71.6363 72.757 71.6233 72.757C71.6102 72.757 71.5972 72.757 71.5842 72.757C71.5711 72.757 71.5581 72.757 71.5451 72.757C71.5321 72.757 71.5191 72.757 71.5061 72.757C71.4931 72.757 71.4801 72.757 71.4671 72.757C71.4541 72.757 71.4411 72.757 71.4282 72.757C71.4152 72.757 71.4022 72.757 71.3893 72.757C71.3763 72.757 71.3633 72.757 71.3504 72.757C71.3375 72.757 71.3245 72.757 71.3116 72.757C71.2986 72.757 71.2857 72.757 71.2728 72.757C71.2599 72.757 71.247 72.757 71.2341 72.757C71.2212 72.757 71.2083 72.757 71.1954 72.757C71.1825 72.757 71.1696 72.757 71.1567 72.757C71.1438 72.757 71.131 72.757 71.1181 72.757C71.1052 72.757 71.0924 72.757 71.0795 72.757C71.0667 72.757 71.0538 72.757 71.041 72.757C71.0282 72.757 71.0153 72.757 71.0025 72.757C70.9897 72.757 70.9769 72.757 70.9641 72.757C70.9513 72.757 70.9385 72.757 70.9257 72.757C70.9129 72.757 70.9001 72.757 70.8873 72.757C70.8745 72.757 70.8618 72.757 70.849 72.757C70.8362 72.757 70.8235 72.757 70.8107 72.757C70.798 72.757 70.7852 72.757 70.7725 72.757C70.7598 72.757 70.747 72.757 70.7343 72.757C70.7216 72.757 70.7089 72.757 70.6962 72.757C70.6835 72.757 70.6708 72.757 70.6581 72.757C70.6454 72.757 70.6327 72.757 70.62 72.757C70.6073 72.757 70.5947 72.757 70.582 72.757C70.5693 72.757 70.5567 72.757 70.544 72.757C70.5314 72.757 70.5187 72.757 70.5061 72.757C70.4935 72.757 70.4808 72.757 70.4682 72.757C70.4556 72.757 70.443 72.757 70.4304 72.757C70.4178 72.757 70.4052 72.757 70.3926 72.757C70.38 72.757 70.3674 72.757 70.3548 72.757C70.3423 72.757 70.3297 72.757 70.3171 72.757C70.3046 72.757 70.292 72.757 70.2795 72.757C70.2669 72.757 70.2544 72.757 70.2419 72.757C70.2293 72.757 70.2168 72.757 70.2043 72.757C70.1918 72.757 70.1793 72.757 70.1668 72.757C70.1543 72.757 70.1418 72.757 70.1293 72.757C70.1168 72.757 70.1044 72.757 70.0919 72.757C70.0794 72.757 70.067 72.757 70.0545 72.757C70.042 72.757 70.0296 72.757 70.0172 72.757C70.0047 72.757 69.9923 72.757 69.9799 72.757C69.9675 72.757 69.955 72.757 69.9426 72.757C69.9302 72.757 69.9178 72.757 69.9054 72.757C69.893 72.757 69.8807 72.757 69.8683 72.757C69.8559 72.757 69.8435 72.757 69.8312 72.757C69.8188 72.757 69.8065 72.757 69.7941 72.757C69.7818 72.757 69.7695 72.757 69.7571 72.757C69.7448 72.757 69.7325 72.757 69.7202 72.757C69.7079 72.757 69.6956 72.757 69.6833 72.757C69.671 72.757 69.6587 72.757 69.6464 72.757C69.6341 72.757 69.6218 72.757 69.6096 72.757C69.5973 72.757 69.5851 72.757 69.5728 72.757C69.5606 72.757 69.5483 72.757 69.5361 72.757C69.5239 72.757 69.5116 72.757 69.4994 72.757C69.4872 72.757 69.475 72.757 69.4628 72.757C69.4506 72.757 69.4384 72.757 69.4262 72.757C69.4141 72.757 69.4019 72.757 69.3897 72.757C69.3776 72.757 69.3654 72.757 69.3532 72.757C69.3411 72.757 69.329 72.757 69.3168 72.757C69.3047 72.757 69.2926 72.757 69.2805 72.757C69.2683 72.757 69.2562 72.757 69.2441 72.757C69.232 72.757 69.2199 72.757 69.2079 72.757C69.1958 72.757 69.1837 72.757 69.1716 72.757C69.1596 72.757 69.1475 72.757 69.1355 72.757C69.1234 72.757 69.1114 72.757 69.0993 72.757C69.0873 72.757 69.0753 72.757 69.0633 72.757C69.0513 72.757 69.0392 72.757 69.0272 72.757C69.0152 72.757 69.0033 72.757 68.9913 72.757C68.9793 72.757 68.9673 72.757 68.9554 72.757C68.9434 72.757 68.9314 72.757 68.9195 72.757C68.9075 72.757 68.8956 72.757 68.8837 72.757C68.8717 72.757 68.8598 72.757 68.8479 72.757C68.836 72.757 68.8241 72.757 68.8122 72.757C68.8003 72.757 68.7884 72.757 68.7765 72.757C68.7647 72.757 68.7528 72.757 68.7409 72.757C68.7291 72.757 68.7172 72.757 68.7054 72.757C68.6935 72.757 68.6817 72.757 68.6699 72.757C68.6581 72.757 68.6462 72.757 68.6344 72.757C68.6226 72.757 68.6108 72.757 68.599 72.757C68.5872 72.757 68.5755 72.757 68.5637 72.757C68.5519 72.757 68.5402 72.757 68.5284 72.757C68.5166 72.757 68.5049 72.757 68.4932 72.757C68.4814 72.757 68.4697 72.757 68.458 72.757C68.4463 72.757 68.4346 72.757 68.4229 72.757C68.4112 72.757 68.3995 72.757 68.3878 72.757C68.3761 72.757 68.3644 72.757 68.3528 72.757C68.3411 72.757 68.3294 72.757 68.3178 72.757C68.3061 72.757 68.2945 72.757 68.2829 72.757C68.2712 72.757 68.2596 72.757 68.248 72.757C68.2364 72.757 68.2248 72.757 68.2132 72.757C68.2016 72.757 68.19 72.757 68.1785 72.757C68.1669 72.757 68.1553 72.757 68.1438 72.757C68.1322 72.757 68.1207 72.757 68.1091 72.757C68.0976 72.757 68.0861 72.757 68.0746 72.757C68.063 72.757 68.0515 72.757 68.04 72.757C68.0285 72.757 68.017 72.757 68.0056 72.757C67.9941 72.757 67.9826 72.757 67.9711 72.757C67.9597 72.757 67.9482 72.757 67.9368 72.757C67.9253 72.757 67.9139 72.757 67.9025 72.757C67.891 72.757 67.8796 72.757 67.8682 72.757C67.8568 72.757 67.8454 72.757 67.834 72.757C67.8226 72.757 67.8113 72.757 67.7999 72.757C67.7885 72.757 67.7772 72.757 67.7658 72.757C67.7545 72.757 67.7431 72.757 67.7318 72.757C67.7205 72.757 67.7092 72.757 67.6978 72.757C67.6865 72.757 67.6752 72.757 67.6639 72.757C67.6526 72.757 67.6414 72.757 67.6301 72.757C67.6188 72.757 67.6076 72.757 67.5963 72.757C67.585 72.757 67.5738 72.757 67.5626 72.757C67.5513 72.757 67.5401 72.757 67.5289 72.757C67.5177 72.757 67.5065 72.757 67.4953 72.757C67.4841 72.757 67.4729 72.757 67.4617 72.757C67.4505 72.757 67.4394 72.757 67.4282 72.757C67.4171 72.757 67.4059 72.757 67.3948 72.757C67.3837 72.757 67.3725 72.757 67.3614 72.757C67.3503 72.757 67.3392 72.757 67.3281 72.757C67.317 72.757 67.3059 72.757 67.2948 72.757C67.2837 72.757 67.2727 72.757 67.2616 72.757C67.2506 72.757 67.2395 72.757 67.2285 72.757C67.2174 72.757 67.2064 72.757 67.1954 72.757C67.1844 72.757 67.1734 72.757 67.1624 72.757C67.1514 72.757 67.1404 72.757 67.1294 72.757C67.1184 72.757 67.1075 72.757 67.0965 72.757C67.0855 72.757 67.0746 72.757 67.0637 72.757C67.0527 72.757 67.0418 72.757 67.0309 72.757C67.02 72.757 67.0091 72.757 66.9982 72.757C66.9873 72.757 66.9764 72.757 66.9655 72.757C66.9546 72.757 66.9438 72.757 66.9329 72.757C66.922 72.757 66.9112 72.757 66.9004 72.757C66.8895 72.757 66.8787 72.757 66.8679 72.757C66.8571 72.757 66.8463 72.757 66.8355 72.757C66.8247 72.757 66.8139 72.757 66.8031 72.757C66.7923 72.757 66.7816 72.757 66.7708 72.757C66.7601 72.757 66.7493 72.757 66.7386 72.757C66.7279 72.757 66.7171 72.757 66.7064 72.757C66.6957 72.757 66.685 72.757 66.6743 72.757C66.6636 72.757 66.653 72.757 66.6423 72.757C66.6316 72.757 66.621 72.757 66.6103 72.757C66.5997 72.757 66.589 72.757 66.5784 72.757C66.5678 72.757 66.5571 72.757 66.5465 72.757C66.5359 72.757 66.5253 72.757 66.5147 72.757C66.5042 72.757 66.4936 72.757 66.483 72.757C66.4725 72.757 66.4619 72.757 66.4514 72.757C66.4408 72.757 66.4303 72.757 66.4198 72.757C66.4092 72.757 66.3987 72.757 66.3882 72.757C66.3777 72.757 66.3672 72.757 66.3568 72.757C66.3463 72.757 66.3358 72.757 66.3253 72.757C66.3149 72.757 66.3044 72.757 66.294 72.757C66.2836 72.757 66.2731 72.757 66.2627 72.757C66.2523 72.757 66.2419 72.757 66.2315 72.757C66.2211 72.757 66.2107 72.757 66.2004 72.757C66.19 72.757 66.1796 72.757 66.1693 72.757C66.1589 72.757 66.1486 72.757 66.1383 72.757C66.1279 72.757 66.1176 72.757 66.1073 72.757C66.097 72.757 66.0867 72.757 66.0764 72.757C66.0661 72.757 66.0559 72.757 66.0456 72.757C66.0353 72.757 66.0251 72.757 66.0149 72.757C66.0046 72.757 65.9944 72.757 65.9842 72.757C65.9739 72.757 65.9637 72.757 65.9535 72.757C65.9433 72.757 65.9332 72.757 65.923 72.757C65.9128 72.757 65.9027 72.757 65.8925 72.757C65.8823 72.757 65.8722 72.757 65.8621 72.757C65.8519 72.757 65.8418 72.757 65.8317 72.757C65.8216 72.757 65.8115 72.757 65.8014 72.757C65.7913 72.757 65.7813 72.757 65.7712 72.757C65.7612 72.757 65.7511 72.757 65.7411 72.757C65.731 72.757 65.721 72.757 65.711 72.757C65.701 72.757 65.691 72.757 65.681 72.757C65.671 72.757 65.661 72.757 65.651 72.757C65.641 72.757 65.6311 72.757 65.6211 72.757C65.6112 72.757 65.6012 72.757 65.5913 72.757C65.5814 72.757 65.5715 72.757 65.5616 72.757C65.5517 72.757 65.5418 72.757 65.5319 72.757C65.522 72.757 65.5121 72.757 65.5023 72.757C65.4924 72.757 65.4826 72.757 65.4727 72.757C65.4629 72.757 65.4531 72.757 65.4433 72.757C65.4335 72.757 65.4237 72.757 65.4139 72.757C65.4041 72.757 65.3943 72.757 65.3845 72.757C65.3748 72.757 65.365 72.757 65.3553 72.757C65.3455 72.757 65.3358 72.757 65.3261 72.757C65.3164 72.757 65.3067 72.757 65.297 72.757C65.2873 72.757 65.2776 72.757 65.2679 72.757C65.2582 72.757 65.2486 72.757 65.2389 72.757C65.2293 72.757 65.2197 72.757 65.21 72.757C65.2004 72.757 65.1908 72.757 65.1812 72.757C65.1716 72.757 65.162 72.757 65.1524 72.757C65.1428 72.757 65.1333 72.757 65.1237 72.757C65.1142 72.757 65.1046 72.757 65.0951 72.757C65.0856 72.757 65.076 72.757 65.0665 72.757C65.057 72.757 65.0475 72.757 65.0381 72.757C65.0286 72.757 65.0191 72.757 65.0096 72.757C65.0002 72.757 64.9907 72.757 64.9813 72.757C64.9719 72.757 64.9624 72.757 64.953 72.757C64.9436 72.757 64.9342 72.757 64.9248 72.757C64.9155 72.757 64.9061 72.757 64.8967 72.757C64.8874 72.757 64.878 72.757 64.8687 72.757C64.8593 72.757 64.85 72.757 64.8407 72.757C64.8314 72.757 64.8221 72.757 64.8128 72.757C64.8035 72.757 64.7942 72.757 64.785 72.757C64.7757 72.757 64.7664 72.757 64.7572 72.757C64.7479 72.757 64.7387 72.757 64.7295 72.757C64.7203 72.757 64.7111 72.757 64.7019 72.757C64.6927 72.757 64.6835 72.757 64.6744 72.757C64.6652 72.757 64.656 72.757 64.6469 72.757C64.6377 72.757 64.6286 72.757 64.6195 72.757C64.6104 72.757 64.6013 72.757 64.5922 72.757C64.5831 72.757 64.574 72.757 64.5649 72.757C64.5559 72.757 64.5468 72.757 64.5378 72.757C64.5287 72.757 64.5197 72.757 64.5107 72.757C64.5017 72.757 64.4926 72.757 64.4837 72.757C64.4747 72.757 64.4657 72.757 64.4567 72.757C64.4477 72.757 64.4388 72.757 64.4298 72.757C64.4209 72.757 64.412 72.757 64.403 72.757C64.3941 72.757 64.3852 72.757 64.3763 72.757C64.3674 72.757 64.3586 72.757 64.3497 72.757C64.3408 72.757 64.332 72.757 64.3231 72.757C64.3143 72.757 64.3054 72.757 64.2966 72.757C64.2878 72.757 64.279 72.757 64.2702 72.757C64.2614 72.757 64.2526 72.757 64.2439 72.757C64.2351 72.757 64.2264 72.757 64.2176 72.757C64.2089 72.757 64.2002 72.757 64.1914 72.757C64.1827 72.757 64.174 72.757 64.1653 72.757C64.1566 72.757 64.148 72.757 64.1393 72.757C64.1306 72.757 64.122 72.757 64.1133 72.757C64.1047 72.757 64.0961 72.757 64.0875 72.757C64.0789 72.757 64.0703 72.757 64.0617 72.757C64.0531 72.757 64.0445 72.757 64.0359 72.757C64.0274 72.757 64.0188 72.757 64.0103 72.757C64.0018 72.757 63.9932 72.757 63.9847 72.757C63.9762 72.757 63.9677 72.757 63.9593 72.757C63.9508 72.757 63.9423 72.757 63.9338 72.757C63.9254 72.757 63.9169 72.757 63.9085 72.757C63.9001 72.757 63.8917 72.757 63.8833 72.757C63.8749 72.757 63.8665 72.757 63.8581 72.757C63.8497 72.757 63.8413 72.757 63.833 72.757C63.8246 72.757 63.8163 72.757 63.808 72.757C63.7997 72.757 63.7913 72.757 63.783 72.757C63.7747 72.757 63.7665 72.757 63.7582 72.757C63.7499 72.757 63.7417 72.757 63.7334 72.757C63.7252 72.757 63.7169 72.757 63.7087 72.757C63.7005 72.757 63.6923 72.757 63.6841 72.757C63.6759 72.757 63.6677 72.757 63.6596 72.757C63.6514 72.757 63.6433 72.757 63.6351 72.757C63.627 72.757 63.6188 72.757 63.6107 72.757C63.6026 72.757 63.5945 72.757 63.5864 72.757C63.5784 72.757 63.5703 72.757 63.5622 72.757C63.5542 72.757 63.5461 72.757 63.5381 72.757C63.5301 72.757 63.5221 72.757 63.514 72.757C63.506 72.757 63.4981 72.757 63.4901 72.757C63.4821 72.757 63.4741 72.757 63.4662 72.757C63.4582 72.757 63.4503 72.757 63.4424 72.757C63.4345 72.757 63.4266 72.757 63.4187 72.757C63.4108 72.757 63.4029 72.757 63.395 72.757C63.3871 72.757 63.3793 72.757 63.3715 72.757C63.3636 72.757 63.3558 72.757 63.348 72.757C63.3402 72.757 63.3324 72.757 63.3246 72.757C63.3168 72.757 63.309 72.757 63.3013 72.757C63.2935 72.757 63.2858 72.757 63.278 72.757C63.2703 72.757 63.2626 72.757 63.2549 72.757C63.2472 72.757 63.2395 72.757 63.2318 72.757C63.2242 72.757 63.2165 72.757 63.2089 72.757V74.757ZM67.1647 79.015L67.0326 78.7687L65.2702 79.7142L65.4024 79.9606L67.1647 79.015ZM82.5697 80.5733C78.4529 79.6579 71.2644 78.7892 66.259 78.2472L66.0437 80.2356C71.0695 80.7797 78.1459 81.6385 82.1356 82.5256L82.5697 80.5733ZM66.259 78.2472C64.6192 78.0697 63.9796 78.0072 63.75 77.9899C63.717 77.9874 63.624 77.9797 63.5409 77.9834C63.5241 77.9842 63.493 77.9859 63.4546 77.9908C63.433 77.9936 63.334 78.0057 63.2167 78.0514C63.1626 78.0725 63.0238 78.1308 62.8874 78.2616C62.7278 78.4146 62.5436 78.7035 62.5852 79.0905C62.6204 79.4184 62.8013 79.6203 62.875 79.6935C62.9603 79.7782 63.0416 79.828 63.0796 79.85C63.1589 79.8958 63.2267 79.9201 63.2475 79.9274C63.2777 79.9381 63.3025 79.9453 63.3169 79.9493C63.346 79.9574 63.37 79.9627 63.3819 79.9653C63.4251 79.9745 63.4695 79.9815 63.4839 79.9837C63.4952 79.9855 63.5052 79.987 63.5123 79.988C63.5159 79.9886 63.5189 79.989 63.5212 79.9894C63.5223 79.9895 63.5233 79.9897 63.5241 79.9898C63.5244 79.9898 63.5248 79.9899 63.5251 79.9899C63.5252 79.9899 63.5253 79.9899 63.5254 79.99C63.5255 79.99 63.5256 79.99 63.5256 79.99C63.5257 79.99 63.5257 79.99 63.6667 79C63.8078 78.01 63.8078 78.01 63.8079 78.01C63.8079 78.01 63.808 78.01 63.808 78.01C63.808 78.01 63.8081 78.01 63.8081 78.01C63.8082 78.0101 63.8083 78.0101 63.8083 78.0101C63.8083 78.0101 63.8082 78.01 63.8079 78.01C63.8073 78.0099 63.8062 78.0098 63.8047 78.0095C63.8016 78.0091 63.7974 78.0085 63.7931 78.0078C63.7762 78.0051 63.7834 78.0059 63.8023 78.01C63.8082 78.0112 63.827 78.0153 63.8519 78.0222C63.8643 78.0256 63.8874 78.0323 63.916 78.0425C63.9354 78.0493 64.0021 78.0731 64.0805 78.1185C64.1182 78.1402 64.1992 78.1898 64.2842 78.2743C64.3578 78.3473 64.5385 78.5489 64.5737 78.8767C64.6153 79.2635 64.4311 79.5522 64.2718 79.705C64.1355 79.8357 63.997 79.8938 63.9433 79.9148C63.8268 79.9602 63.729 79.972 63.7091 79.9746C63.6724 79.9793 63.6434 79.9808 63.6293 79.9815C63.5673 79.9842 63.5278 79.9788 63.5996 79.9843C63.7895 79.9986 64.3922 80.0568 66.0437 80.2356L66.259 78.2472ZM120.158 99.5597C120.868 99.6734 121.288 99.8515 121.542 100.027C121.777 100.189 121.91 100.377 121.999 100.614C122.097 100.878 122.147 101.22 122.161 101.69C122.177 102.186 122.154 102.651 122.154 103.288H124.154C124.154 102.782 124.177 102.149 124.16 101.628C124.143 101.079 124.084 100.481 123.873 99.9156C123.653 99.3245 123.276 98.794 122.679 98.3813C122.1 97.9816 121.366 97.7277 120.474 97.5849L120.158 99.5597ZM119.316 96.5622V98.5723H121.316V96.5622H119.316ZM119.316 98.5723V99.3141H121.316V98.5723H119.316ZM111.476 99.4372H112.956V97.4372H111.476V99.4372ZM113.956 99.3141V98.4372H111.956V99.3141H113.956ZM113.956 98.4372V96.5622H111.956V98.4372H113.956ZM92.8075 108.534C95.3858 107.927 98.4563 107.241 101.158 106.551L100.663 104.613C97.9854 105.297 94.9607 105.973 92.3493 106.587L92.8075 108.534ZM101.158 106.551C103.783 105.88 106.209 105.171 107.512 104.475L106.57 102.711C105.519 103.272 103.34 103.929 100.663 104.613L101.158 106.551ZM99.91 86.0862V105.582H101.91V86.0862H99.91Z" fill="white"/>
<path d="M30.989 79.9967V80.9967H31.989L31.989 79.9967L30.989 79.9967ZM5.9286 39.4169V38.4169H4.9286V39.4169H5.9286ZM30.9892 39.4169L31.9892 39.4169L31.9892 38.4169H30.9892V39.4169ZM5.9286 79.9967H4.9286V80.9967H5.9286L5.9286 79.9967ZM19.4316 44.3727C19.4316 43.8204 18.9839 43.3727 18.4316 43.3727C17.8793 43.3727 17.4316 43.8204 17.4316 44.3727H19.4316ZM17.4316 76.9494C17.4316 77.5017 17.8793 77.9494 18.4316 77.9494C18.9839 77.9494 19.4316 77.5017 19.4316 76.9494H17.4316ZM11.381 43.9982C10.8288 43.9982 10.381 44.4459 10.381 44.9982C10.381 45.5505 10.8288 45.9982 11.381 45.9982V43.9982ZM15.4153 45.9982C15.9676 45.9982 16.4153 45.5505 16.4153 44.9982C16.4153 44.4459 15.9676 43.9982 15.4153 43.9982V45.9982ZM11.381 52.9699C10.8288 52.9699 10.381 53.4176 10.381 53.9699C10.381 54.5222 10.8288 54.9699 11.381 54.9699V52.9699ZM15.4153 54.9699C15.9676 54.9699 16.4153 54.5222 16.4153 53.9699C16.4153 53.4176 15.9676 52.9699 15.4153 52.9699V54.9699ZM11.381 61.9386C10.8288 61.9386 10.381 62.3863 10.381 62.9386C10.381 63.4908 10.8288 63.9386 11.381 63.9386V61.9386ZM15.4153 63.9386C15.9676 63.9386 16.4153 63.4908 16.4153 62.9386C16.4153 62.3863 15.9676 61.9386 15.4153 61.9386V63.9386ZM11.381 70.9103C10.8288 70.9103 10.381 71.358 10.381 71.9103C10.381 72.4625 10.8288 72.9103 11.381 72.9103V70.9103ZM15.4153 72.9103C15.9676 72.9103 16.4153 72.4625 16.4153 71.9103C16.4153 71.358 15.9676 70.9103 15.4153 70.9103V72.9103ZM21.6909 43.9982C21.1386 43.9982 20.6909 44.4459 20.6909 44.9982C20.6909 45.5505 21.1386 45.9982 21.6909 45.9982V43.9982ZM25.722 45.9982C26.2742 45.9982 26.722 45.5505 26.722 44.9982C26.722 44.4459 26.2742 43.9982 25.722 43.9982V45.9982ZM21.6909 52.9699C21.1386 52.9699 20.6909 53.4176 20.6909 53.9699C20.6909 54.5222 21.1386 54.9699 21.6909 54.9699V52.9699ZM25.722 54.9699C26.2742 54.9699 26.722 54.5222 26.722 53.9699C26.722 53.4176 26.2742 52.9699 25.722 52.9699V54.9699ZM21.6909 61.9386C21.1386 61.9386 20.6909 62.3863 20.6909 62.9386C20.6909 63.4908 21.1386 63.9386 21.6909 63.9386V61.9386ZM25.722 63.9386C26.2742 63.9386 26.722 63.4908 26.722 62.9386C26.722 62.3863 26.2742 61.9386 25.722 61.9386V63.9386ZM21.6909 70.9103C21.1386 70.9103 20.6909 71.358 20.6909 71.9103C20.6909 72.4625 21.1386 72.9103 21.6909 72.9103V70.9103ZM25.722 72.9103C26.2742 72.9103 26.722 72.4625 26.722 71.9103C26.722 71.358 26.2742 70.9103 25.722 70.9103V72.9103ZM4.66675 34.8396V33.8396C4.11446 33.8396 3.66675 34.2873 3.66675 34.8396H4.66675ZM31.0081 34.8396H32.0081C32.0081 34.2873 31.5604 33.8396 31.0081 33.8396V34.8396ZM31.0081 39.4169V40.4169C31.5604 40.4169 32.0081 39.9692 32.0081 39.4169H31.0081ZM4.66675 39.4169H3.66675C3.66675 39.9692 4.11446 40.4169 4.66675 40.4169V39.4169ZM5.9286 40.4169H30.9892V38.4169H5.9286V40.4169ZM29.9892 39.4169L29.989 79.9967L31.989 79.9967L31.9892 39.4169L29.9892 39.4169ZM30.989 78.9967L5.9286 78.9967L5.9286 80.9967L30.989 80.9967V78.9967ZM6.9286 79.9967V39.4169H4.9286V79.9967H6.9286ZM17.4316 44.3727V76.9494H19.4316V44.3727H17.4316ZM11.381 45.9982H15.4153V43.9982H11.381V45.9982ZM11.381 54.9699H15.4153V52.9699H11.381V54.9699ZM11.381 63.9386H15.4153V61.9386H11.381V63.9386ZM11.381 72.9103H15.4153V70.9103H11.381V72.9103ZM21.6909 45.9982H25.722V43.9982H21.6909V45.9982ZM21.6909 54.9699H25.722V52.9699H21.6909V54.9699ZM21.6909 63.9386H25.722V61.9386H21.6909V63.9386ZM21.6909 72.9103H25.722V70.9103H21.6909V72.9103ZM4.66675 35.8396H31.0081V33.8396H4.66675V35.8396ZM30.0081 34.8396V39.4169H32.0081V34.8396H30.0081ZM31.0081 38.4169H4.66675V40.4169H31.0081V38.4169ZM5.66675 39.4169V34.8396H3.66675V39.4169H5.66675Z" fill="white"/>
<path d="M87.3891 20.9603H88.3891V19.9603H87.3891V20.9603ZM67.7745 26.058C67.2223 26.058 66.7745 26.5057 66.7745 27.058C66.7745 27.6103 67.2223 28.058 67.7745 28.058V26.058ZM71.8056 28.058C72.3579 28.058 72.8056 27.6103 72.8056 27.058C72.8056 26.5057 72.3579 26.058 71.8056 26.058V28.058ZM67.7745 35.0266C67.2222 35.0266 66.7745 35.4743 66.7745 36.0266C66.7745 36.5789 67.2222 37.0266 67.7745 37.0266V35.0266ZM71.8056 37.0266C72.3579 37.0266 72.8056 36.5789 72.8056 36.0266C72.8056 35.4743 72.3579 35.0266 71.8056 35.0266V37.0266ZM67.7745 43.9984C67.2222 43.9984 66.7745 44.4461 66.7745 44.9984C66.7745 45.5507 67.2222 45.9984 67.7745 45.9984V43.9984ZM71.8056 45.9984C72.3579 45.9984 72.8056 45.5507 72.8056 44.9984C72.8056 44.4461 72.3579 43.9984 71.8056 43.9984V45.9984ZM67.7745 52.9701C67.2222 52.9701 66.7745 53.4178 66.7745 53.9701C66.7745 54.5224 67.2222 54.9701 67.7745 54.9701V52.9701ZM71.8056 54.9701C72.3579 54.9701 72.8056 54.5224 72.8056 53.9701C72.8056 53.4178 72.3579 52.9701 71.8056 52.9701V54.9701ZM67.7745 61.9386C67.2222 61.9386 66.7745 62.3863 66.7745 62.9386C66.7745 63.4909 67.2222 63.9386 67.7745 63.9386V61.9386ZM71.8056 63.9386C72.3579 63.9386 72.8056 63.4909 72.8056 62.9386C72.8056 62.3863 72.3579 61.9386 71.8056 61.9386V63.9386ZM78.0813 26.058C77.529 26.058 77.0813 26.5057 77.0813 27.058C77.0813 27.6103 77.529 28.058 78.0813 28.058V26.058ZM82.1156 28.058C82.6678 28.058 83.1156 27.6103 83.1156 27.058C83.1156 26.5057 82.6678 26.058 82.1156 26.058V28.058ZM78.0812 35.0266C77.529 35.0266 77.0812 35.4743 77.0812 36.0266C77.0812 36.5789 77.529 37.0266 78.0812 37.0266V35.0266ZM82.1155 37.0266C82.6678 37.0266 83.1155 36.5789 83.1155 36.0266C83.1155 35.4743 82.6678 35.0266 82.1155 35.0266V37.0266ZM78.0812 43.9984C77.529 43.9984 77.0812 44.4461 77.0812 44.9984C77.0812 45.5507 77.529 45.9984 78.0812 45.9984V43.9984ZM82.1155 45.9984C82.6678 45.9984 83.1155 45.5507 83.1155 44.9984C83.1155 44.4461 82.6678 43.9984 82.1155 43.9984V45.9984ZM78.0812 52.9701C77.529 52.9701 77.0812 53.4178 77.0812 53.9701C77.0812 54.5224 77.529 54.9701 78.0812 54.9701V52.9701ZM82.1155 54.9701C82.6678 54.9701 83.1155 54.5224 83.1155 53.9701C83.1155 53.4178 82.6678 52.9701 82.1155 52.9701V54.9701ZM78.0812 61.9386C77.529 61.9386 77.0812 62.3863 77.0812 62.9386C77.0812 63.4909 77.529 63.9386 78.0812 63.9386V61.9386ZM82.1155 63.9386C82.6678 63.9386 83.1155 63.4909 83.1155 62.9386C83.1155 62.3863 82.6678 61.9386 82.1155 61.9386V63.9386ZM62.3253 15.6837V14.6837C61.773 14.6837 61.3253 15.1314 61.3253 15.6837H62.3253ZM88.6667 15.6837H89.6667C89.6667 15.1314 89.2189 14.6837 88.6667 14.6837V15.6837ZM88.6667 20.9603V21.9603C89.2189 21.9603 89.6667 21.5126 89.6667 20.9603H88.6667ZM86.3891 66.5C86.3891 67.0523 86.8369 67.5 87.3891 67.5C87.9414 67.5 88.3891 67.0523 88.3891 66.5H86.3891ZM61.322 50.4785C61.322 51.0307 61.7696 51.4785 62.3219 51.4786C62.8742 51.4786 63.322 51.031 63.322 50.4787L61.322 50.4785ZM62.3253 21.9603H87.3891V19.9603H62.3253V21.9603ZM67.7745 28.058H71.8056V26.058H67.7745V28.058ZM67.7745 37.0266H71.8056V35.0266H67.7745V37.0266ZM67.7745 45.9984H71.8056V43.9984H67.7745V45.9984ZM67.7745 54.9701H71.8056V52.9701H67.7745V54.9701ZM67.7745 63.9386H71.8056V61.9386H67.7745V63.9386ZM78.0813 28.058H82.1156V26.058H78.0813V28.058ZM78.0812 37.0266H82.1155V35.0266H78.0812V37.0266ZM78.0812 45.9984H82.1155V43.9984H78.0812V45.9984ZM78.0812 54.9701H82.1155V52.9701H78.0812V54.9701ZM78.0812 63.9386H82.1155V61.9386H78.0812V63.9386ZM62.3253 16.6837H88.6667V14.6837H62.3253V16.6837ZM87.6667 15.6837V20.9603H89.6667V15.6837H87.6667ZM88.6667 19.9603H62.3253V21.9603H88.6667V19.9603ZM63.3253 20.9603V15.6837H61.3253V20.9603H63.3253ZM86.3891 20.9603V66.5H88.3891V20.9603H86.3891ZM63.322 50.4787L63.3253 20.9604L61.3253 20.9602L61.322 50.4785L63.322 50.4787Z" fill="white"/>
<path d="M30.989 6.25324V5.25324H29.989V6.25324H30.989ZM62.3188 7.25324C62.8711 7.25324 63.3188 6.80552 63.3188 6.25324C63.3188 5.70095 62.8711 5.25324 62.3188 5.25324V7.25324ZM31.9892 39.417C31.9892 38.8647 31.5415 38.417 30.9892 38.417C30.4369 38.417 29.9892 38.8647 29.9892 39.417L31.9892 39.417ZM47.6667 11.2411C47.6667 10.6888 47.219 10.2411 46.6667 10.2411C46.1145 10.2411 45.6667 10.6888 45.6667 11.2411H47.6667ZM45.6667 75.288C45.6667 75.8403 46.1145 76.288 46.6667 76.288C47.219 76.288 47.6667 75.8403 47.6667 75.288H45.6667ZM36.1667 19.7678C35.6145 19.7678 35.1667 20.2155 35.1667 20.7678C35.1667 21.32 35.6145 21.7678 36.1667 21.7678V19.7678ZM42.6541 21.7678C43.2064 21.7678 43.6541 21.32 43.6541 20.7678C43.6541 20.2155 43.2064 19.7678 42.6541 19.7678V21.7678ZM36.1667 28.7395C35.6145 28.7395 35.1667 29.1873 35.1667 29.7395C35.1667 30.2918 35.6145 30.7395 36.1667 30.7395V28.7395ZM42.6509 30.7395C43.2031 30.7395 43.6509 30.2918 43.6509 29.7395C43.6509 29.1873 43.2031 28.7395 42.6509 28.7395V30.7395ZM36.1667 37.7081C35.6145 37.7081 35.1667 38.1558 35.1667 38.7081C35.1667 39.2604 35.6145 39.7081 36.1667 39.7081V37.7081ZM42.6541 39.7081C43.2064 39.7081 43.6541 39.2604 43.6541 38.7081C43.6541 38.1558 43.2064 37.7081 42.6541 37.7081V39.7081ZM36.1667 46.6799C35.6145 46.6799 35.1667 47.1276 35.1667 47.6799C35.1667 48.2322 35.6145 48.6799 36.1667 48.6799V46.6799ZM42.6541 48.6799C43.2064 48.6799 43.6541 48.2322 43.6541 47.6799C43.6541 47.1276 43.2064 46.6799 42.6541 46.6799V48.6799ZM36.1667 55.6517C35.6145 55.6517 35.1667 56.0994 35.1667 56.6517C35.1667 57.2039 35.6145 57.6517 36.1667 57.6517V55.6517ZM42.6541 57.6517C43.2064 57.6517 43.6541 57.2039 43.6541 56.6517C43.6541 56.0994 43.2064 55.6517 42.6541 55.6517V57.6517ZM36.1667 64.4469C35.6145 64.4469 35.1667 64.8947 35.1667 65.4469C35.1667 65.9992 35.6145 66.4469 36.1667 66.4469V64.4469ZM42.6541 66.4469C43.2064 66.4469 43.6541 65.9992 43.6541 65.4469C43.6541 64.8947 43.2064 64.4469 42.6541 64.4469V66.4469ZM36.1667 73.4187C35.6145 73.4187 35.1667 73.8664 35.1667 74.4187C35.1667 74.971 35.6145 75.4187 36.1667 75.4187V73.4187ZM42.6541 75.4187C43.2064 75.4187 43.6541 74.971 43.6541 74.4187C43.6541 73.8664 43.2064 73.4187 42.6541 73.4187V75.4187ZM50.9264 64.4469C50.3741 64.4469 49.9264 64.8947 49.9264 65.4469C49.9264 65.9992 50.3741 66.4469 50.9264 66.4469V64.4469ZM57.6666 66.4469C58.2189 66.4469 58.6666 65.9992 58.6666 65.4469C58.6666 64.8947 58.2189 64.4469 57.6666 64.4469V66.4469ZM50.9265 10.7961C50.3742 10.7961 49.9265 11.2438 49.9265 11.7961C49.9265 12.3483 50.3742 12.7961 50.9265 12.7961V10.7961ZM57.6667 12.7961C58.219 12.7961 58.6667 12.3483 58.6667 11.7961C58.6667 11.2438 58.219 10.7961 57.6667 10.7961V12.7961ZM36.0929 10.7961C35.5407 10.7961 35.0929 11.2438 35.0929 11.7961C35.0929 12.3484 35.5407 12.7961 36.0929 12.7961V10.7961ZM42.5771 12.7961C43.1293 12.7961 43.5771 12.3484 43.5771 11.7961C43.5771 11.2438 43.1293 10.7961 42.5771 10.7961V12.7961ZM50.9265 19.7677C50.3742 19.7677 49.9265 20.2155 49.9265 20.7677C49.9265 21.32 50.3742 21.7677 50.9265 21.7677V19.7677ZM57.6667 21.7677C58.219 21.7677 58.6667 21.32 58.6667 20.7677C58.6667 20.2155 58.219 19.7677 57.6667 19.7677V21.7677ZM50.9265 28.7395C50.3742 28.7395 49.9265 29.1872 49.9265 29.7395C49.9265 30.2918 50.3742 30.7395 50.9265 30.7395V28.7395ZM57.6667 30.7395C58.219 30.7395 58.6667 30.2918 58.6667 29.7395C58.6667 29.1872 58.219 28.7395 57.6667 28.7395V30.7395ZM50.9265 37.7081C50.3742 37.7081 49.9265 38.1558 49.9265 38.7081C49.9265 39.2604 50.3742 39.7081 50.9265 39.7081V37.7081ZM57.6667 39.7081C58.219 39.7081 58.6667 39.2604 58.6667 38.7081C58.6667 38.1558 58.219 37.7081 57.6667 37.7081V39.7081ZM50.9265 46.6799C50.3742 46.6799 49.9265 47.1276 49.9265 47.6799C49.9265 48.2321 50.3742 48.6799 50.9265 48.6799V46.6799ZM57.6667 48.6799C58.219 48.6799 58.6667 48.2321 58.6667 47.6799C58.6667 47.1276 58.219 46.6799 57.6667 46.6799V48.6799ZM50.9265 55.6516C50.3742 55.6516 49.9265 56.0994 49.9265 56.6516C49.9265 57.2039 50.3742 57.6516 50.9265 57.6516V55.6516ZM57.6667 57.6516C58.219 57.6516 58.6667 57.2039 58.6667 56.6516C58.6667 56.0994 58.219 55.6516 57.6667 55.6516V57.6516ZM29.8364 2V1C29.2841 1 28.8364 1.44772 28.8364 2H29.8364ZM63.4939 2H64.4939C64.4939 1.44772 64.0462 1 63.4939 1V2ZM63.4939 6.25324V7.25324C64.0462 7.25324 64.4939 6.80552 64.4939 6.25324H63.4939ZM29.8364 6.25324H28.8364C28.8364 6.80552 29.2841 7.25324 29.8364 7.25324V6.25324ZM32.0081 34.8397C32.0081 34.2874 31.5604 33.8397 31.0081 33.8397C30.4558 33.8397 30.0081 34.2874 30.0081 34.8397H32.0081ZM30.0081 39.417C30.0081 39.9693 30.4558 40.417 31.0081 40.417C31.5604 40.417 32.0081 39.9693 32.0081 39.417H30.0081ZM63.3254 6.25324C63.3254 5.70095 62.8777 5.25324 62.3254 5.25324C61.7731 5.25324 61.3254 5.70095 61.3254 6.25324H63.3254ZM61.3254 66C61.3254 66.5523 61.7731 67 62.3254 67C62.8777 67 63.3254 66.5523 63.3254 66H61.3254ZM53.6667 80.9968C54.219 80.9968 54.6667 80.5491 54.6667 79.9968C54.6667 79.4445 54.219 78.9968 53.6667 78.9968V80.9968ZM2.66675 78.9968C2.11446 78.9968 1.66675 79.4445 1.66675 79.9968C1.66675 80.5491 2.11446 80.9968 2.66675 80.9968V78.9968ZM126.667 80.9968C127.219 80.9968 127.667 80.5491 127.667 79.9968C127.667 79.4445 127.219 78.9968 126.667 78.9968V80.9968ZM102.167 78.9968C101.614 78.9968 101.167 79.4445 101.167 79.9968C101.167 80.5491 101.614 80.9968 102.167 80.9968V78.9968ZM30.989 7.25324H62.3188V5.25324H30.989V7.25324ZM31.989 79.9968V6.25324H29.989V79.9968H31.989ZM29.9892 39.417L29.989 79.9968L31.989 79.9968L31.9892 39.417L29.9892 39.417ZM45.6667 11.2411V75.288H47.6667V11.2411H45.6667ZM36.1667 21.7678H42.6541V19.7678H36.1667V21.7678ZM36.1667 30.7395H42.6509V28.7395H36.1667V30.7395ZM36.1667 39.7081H42.6541V37.7081H36.1667V39.7081ZM36.1667 48.6799H42.6541V46.6799H36.1667V48.6799ZM36.1667 57.6517H42.6541V55.6517H36.1667V57.6517ZM36.1667 66.4469H42.6541V64.4469H36.1667V66.4469ZM36.1667 75.4187H42.6541V73.4187H36.1667V75.4187ZM50.9264 66.4469H57.6666V64.4469H50.9264V66.4469ZM50.9265 12.7961H57.6667V10.7961H50.9265V12.7961ZM36.0929 12.7961H42.5771V10.7961H36.0929V12.7961ZM50.9265 21.7677H57.6667V19.7677H50.9265V21.7677ZM50.9265 30.7395H57.6667V28.7395H50.9265V30.7395ZM50.9265 39.7081H57.6667V37.7081H50.9265V39.7081ZM50.9265 48.6799H57.6667V46.6799H50.9265V48.6799ZM50.9265 57.6516H57.6667V55.6516H50.9265V57.6516ZM29.8364 3H63.4939V1H29.8364V3ZM62.4939 2V6.25324H64.4939V2H62.4939ZM63.4939 5.25324H29.8364V7.25324H63.4939V5.25324ZM30.8364 6.25324V2H28.8364V6.25324H30.8364ZM30.0081 34.8397V39.417H32.0081V34.8397H30.0081ZM63.3254 20.9602V6.25324H61.3254V20.9602H63.3254ZM63.3254 66V20.9602H61.3254V66H63.3254ZM53.6667 78.9968H30.989V80.9968H53.6667V78.9968ZM30.989 78.9968H2.66675V80.9968H30.989V78.9968ZM102.167 80.9968H126.667V78.9968H102.167V80.9968Z" fill="#0076BF"/>
</svg>
