<svg width="46" height="46" viewBox="0 0 46 46" fill="none" xmlns="http://www.w3.org/2000/svg">
<path fill-rule="evenodd" clip-rule="evenodd" d="M7.58427 29.9507L7.4559 29.6769L7.74328 29.5313L7.75155 29.549L8.17223 30.4452L7.88486 30.591L7.7563 30.3172L6.84588 30.7786L6.83761 30.7608L6.674 30.4122L7.58427 29.9507ZM8.43344 30.9618L8.44353 30.9787L8.74118 31.4737C8.81646 31.599 8.8469 31.7094 8.83275 31.8052C8.81827 31.9007 8.78634 31.9794 8.73678 32.041C8.71885 32.0638 8.69979 32.0839 8.67974 32.1015C8.65969 32.1192 8.63999 32.1343 8.62062 32.1469C8.60124 32.1596 8.57958 32.1714 8.55544 32.1822C8.53132 32.1932 8.50558 32.2022 8.47837 32.2089C8.40374 32.2293 8.32167 32.2252 8.23171 32.1965C8.14178 32.1677 8.05916 32.0908 7.98392 31.9654L7.884 31.7994L7.51114 32.0416L7.50098 32.0248L7.30321 31.6958L8.43344 30.9618ZM8.13265 31.6379L8.1791 31.7151C8.20814 31.7632 8.23678 31.7933 8.26529 31.806C8.29381 31.8186 8.31904 31.8232 8.34089 31.8199C8.35557 31.8167 8.36844 31.8121 8.37996 31.8062C8.39138 31.8004 8.40033 31.7954 8.40684 31.7911C8.4132 31.7871 8.41939 31.7825 8.42559 31.7778C8.43179 31.773 8.43764 31.7679 8.44353 31.7627C8.46271 31.7423 8.47515 31.715 8.48032 31.6802C8.48573 31.6458 8.47204 31.601 8.43913 31.5461L8.39268 31.4691L8.13265 31.6379ZM9.54606 32.6975L9.55775 32.7132L9.83668 33.0842L9.07712 34.3236L9.06539 34.308L8.81936 33.9806L8.95621 33.7738L8.68903 33.4184L8.46176 33.505L8.45004 33.4893L8.20406 33.1619L9.54606 32.6975ZM8.96601 33.2916L9.1418 33.5256L9.42432 33.1077L8.96601 33.2916ZM10.4885 33.9223L10.5016 33.9367L10.7562 34.2205L10.4053 34.5605L10.7013 34.8903L11.0522 34.5503L11.0651 34.5649L11.3196 34.8483L10.345 35.7929L10.332 35.7785L10.0775 35.4949L10.4674 35.117L10.1713 34.7872L9.78145 35.1649L9.76842 35.1505L9.51393 34.8668L10.4885 33.9223ZM11.7382 36.9764C11.7064 36.9722 11.6767 36.9656 11.6491 36.9563C11.6215 36.9472 11.5951 36.9363 11.57 36.9241C11.5374 36.9087 11.5076 36.8909 11.48 36.8704C11.4525 36.8499 11.4268 36.829 11.4029 36.8073L11.3872 36.7959C11.2465 36.6667 11.166 36.5085 11.1462 36.321C11.1264 36.1337 11.1893 35.9528 11.3351 35.7787C11.4874 35.5963 11.6552 35.5063 11.8383 35.5084C12.0216 35.5105 12.1781 35.5701 12.3072 35.6869L12.3216 35.6998C12.339 35.7155 12.3558 35.7325 12.3724 35.7509C12.3889 35.7694 12.4052 35.7892 12.4208 35.8105C12.4446 35.8424 12.4656 35.877 12.4839 35.9146C12.5023 35.9521 12.5168 35.9915 12.5277 36.0327L12.274 36.3359L12.2596 36.3229C12.2596 36.3107 12.2593 36.2973 12.2584 36.2824C12.2572 36.2673 12.2558 36.2512 12.2536 36.2337C12.2484 36.1957 12.237 36.1546 12.2189 36.1105C12.2012 36.0665 12.1727 36.0259 12.1332 35.9885C12.0529 35.9195 11.9661 35.8947 11.8724 35.9141C11.7791 35.9336 11.6987 35.983 11.6321 36.0626C11.5572 36.1524 11.5243 36.2437 11.533 36.3364C11.5422 36.4292 11.5798 36.5074 11.6461 36.5709C11.6986 36.6147 11.7536 36.6429 11.8116 36.6549C11.8697 36.6671 11.9232 36.671 11.9723 36.6664L11.9866 36.6794L11.7382 36.9764ZM13.1103 36.3797L13.1256 36.3914L14.0869 37.1171L13.3033 38.2377L13.2881 38.2259L12.9861 37.9981L13.5815 37.1464L13.2397 36.8882L12.6443 37.7399L12.6289 37.7282L12.3268 37.5003L13.1103 36.3797ZM14.5606 38.9962C14.3524 38.886 14.2263 38.7368 14.1817 38.549C14.1371 38.3611 14.1574 38.1801 14.2426 38.0062C14.3274 37.8334 14.4552 37.7097 14.6263 37.6352C14.7976 37.5608 14.9888 37.5795 15.2003 37.6916L15.2172 37.7006C15.4289 37.8125 15.5558 37.9624 15.5983 38.1499C15.6412 38.3377 15.62 38.5179 15.5352 38.6906C15.4501 38.8646 15.3223 38.9879 15.1519 39.0605C14.9816 39.1333 14.7907 39.1142 14.5785 39.0035L14.5606 38.9962ZM14.7128 38.7036C14.724 38.7096 14.7363 38.715 14.7497 38.7198C14.763 38.7246 14.7769 38.728 14.7917 38.7299C14.8534 38.7432 14.9197 38.7353 14.9908 38.7053C15.0615 38.6755 15.1232 38.6071 15.1757 38.5001C15.228 38.3932 15.2448 38.301 15.2259 38.2236C15.2068 38.146 15.1744 38.0856 15.1288 38.0423C15.118 38.0323 15.1074 38.0228 15.0967 38.0142C15.0859 38.0055 15.0748 37.9981 15.0636 37.9922C15.0512 37.9855 15.0375 37.98 15.0229 37.9752C15.008 37.9701 14.9932 37.9669 14.9787 37.965C14.9184 37.9539 14.8536 37.9637 14.7839 37.994C14.714 38.0245 14.6535 38.0921 14.6022 38.1965C14.5509 38.3012 14.5339 38.3918 14.5512 38.4683C14.5686 38.5448 14.5992 38.6051 14.6433 38.6491C14.6533 38.6603 14.6643 38.6706 14.6763 38.6799C14.6881 38.6891 14.7003 38.6968 14.7128 38.7036ZM16.4302 38.3462L16.4478 38.3536L16.9685 38.5722C17.1005 38.6276 17.1875 38.6984 17.23 38.7846C17.2725 38.8707 17.2911 38.9539 17.2859 39.0341C17.2842 39.0633 17.2802 39.0912 17.274 39.1176C17.2678 39.1443 17.2603 39.1686 17.2518 39.1906C17.2432 39.2126 17.2324 39.2354 17.2191 39.259C17.2059 39.2827 17.1901 39.3055 17.1718 39.3277C17.1231 39.3897 17.0542 39.4366 16.9652 39.4682C16.8763 39.4999 16.7658 39.4881 16.634 39.4327L16.4593 39.3594L16.2947 39.7832L16.277 39.7757L15.9308 39.6305L16.4302 38.3462ZM16.5692 39.0768L16.6503 39.111C16.701 39.1322 16.7414 39.1391 16.7715 39.1318C16.8018 39.1247 16.8248 39.1129 16.8406 39.0969C16.8505 39.0854 16.8585 39.0737 16.8644 39.0621C16.8704 39.0502 16.8748 39.0408 16.8776 39.0334C16.8805 39.0262 16.8829 39.0187 16.8852 39.0111C16.8875 39.0034 16.8895 38.9959 16.8912 38.9881C16.8953 38.9598 16.8898 38.93 16.8745 38.8988C16.8593 38.8675 16.823 38.8397 16.7652 38.8155L16.684 38.7813L16.5692 39.0768ZM18.0896 39.2928L17.8077 39.2089L17.896 38.8893L17.9143 38.8949L18.8366 39.1697L18.7484 39.4892L18.4666 39.4053L18.1875 40.4171L18.1691 40.4117L17.8103 40.3047L18.0896 39.2928ZM19.4067 39.2968L19.4254 39.3004L19.7918 39.3744L19.7002 39.864L20.1263 39.95L20.2179 39.4607L20.2366 39.4644L20.6028 39.5383L20.3485 40.8978L20.3298 40.8941L19.9635 40.8201L20.0653 40.2762L19.6393 40.1902L19.5375 40.7341L19.5187 40.7303L19.1523 40.6562L19.4067 39.2968ZM21.8151 41.0786C21.5825 41.0575 21.4117 40.9682 21.3026 40.8114C21.1935 40.6546 21.1472 40.4789 21.1635 40.2843C21.1798 40.0913 21.2537 39.9268 21.3855 39.7911C21.5173 39.6553 21.7016 39.5984 21.938 39.6199L21.9571 39.6217C22.1934 39.6432 22.3652 39.7326 22.4724 39.8899C22.5796 40.0473 22.625 40.2227 22.6087 40.4157C22.5924 40.6103 22.5183 40.7743 22.3867 40.9081C22.255 41.0417 22.071 41.0984 21.8344 41.0783L21.8151 41.0786ZM21.8507 40.7479C21.8633 40.7491 21.8766 40.7495 21.8907 40.7487C21.9049 40.7479 21.9189 40.7457 21.9335 40.7416C21.9955 40.7299 22.0541 40.6968 22.1091 40.6414C22.1639 40.5862 22.1965 40.4988 22.2067 40.3791C22.2166 40.2596 22.1989 40.1674 22.1534 40.1033C22.1079 40.0388 22.0561 39.9953 21.9981 39.9729C21.9844 39.9677 21.9712 39.9631 21.9582 39.9594C21.9452 39.9555 21.9323 39.9529 21.9196 39.9517C21.9057 39.9505 21.891 39.9505 21.8758 39.9519C21.8603 39.9529 21.8453 39.9558 21.8311 39.9596C21.7713 39.9727 21.7146 40.0071 21.6609 40.0622C21.6071 40.1178 21.5753 40.204 21.5656 40.3208C21.5556 40.4376 21.5726 40.5282 21.6162 40.5925C21.6599 40.6567 21.7099 40.7007 21.7668 40.7245C21.7801 40.7309 21.794 40.7363 21.8083 40.74C21.8226 40.7441 21.8368 40.7468 21.8507 40.7479ZM23.2614 39.6792L23.2805 39.6786L24.0796 39.6496L24.0909 39.9818L23.6646 39.9972L23.6712 40.1909L24.0575 40.177L24.0676 40.4815L23.6814 40.4955L23.6889 40.717L24.115 40.7016L24.126 41.0338L24.1072 41.0344L23.308 41.0634L23.2614 39.6792ZM27.2169 40.4889L27.1986 40.4943L26.7886 40.6165L27.064 39.7769L26.467 39.2715L26.4853 39.2661L26.9153 39.1379L27.191 39.4261L27.2778 39.0299L27.2961 39.0245L27.7024 38.9034L27.4706 39.6352L28.1376 40.2146L28.1192 40.22L27.6964 40.346L27.3469 39.9911L27.2169 40.4889ZM29.4071 39.793C29.1905 39.8839 28.9994 39.8851 28.8337 39.7969C28.6679 39.7085 28.5499 39.5739 28.4795 39.3929C28.4097 39.2131 28.4038 39.0317 28.4619 38.8486C28.5199 38.6655 28.6592 38.5277 28.8793 38.4354L28.897 38.428C29.1171 38.3355 29.3091 38.3342 29.4734 38.4239C29.6378 38.5135 29.7548 38.6482 29.8246 38.8281C29.895 39.009 29.9008 39.1902 29.8417 39.3714C29.7829 39.5527 29.6436 39.69 29.424 39.7837L29.4071 39.793ZM29.2943 39.4816C29.3062 39.4767 29.3181 39.4708 29.3304 39.4635C29.3425 39.4561 29.3541 39.4474 29.3652 39.4371C29.4155 39.3973 29.4532 39.3401 29.4781 39.2649C29.5029 39.1897 29.4936 39.0964 29.4504 38.9852C29.4071 38.874 29.351 38.8003 29.2825 38.7644C29.2137 38.7285 29.1485 38.7143 29.0871 38.7216C29.0727 38.7234 29.0589 38.7254 29.0457 38.7283C29.0322 38.7311 29.0196 38.735 29.0079 38.7399C28.995 38.7452 28.982 38.7522 28.969 38.7607C28.9556 38.769 28.9436 38.7784 28.9325 38.7886C28.8849 38.8286 28.8494 38.8858 28.8258 38.9604C28.8019 39.0351 28.8114 39.1269 28.8536 39.2358C28.896 39.3445 28.9506 39.4173 29.0175 39.454C29.0845 39.4906 29.1483 39.506 29.2093 39.5005C29.2239 39.4999 29.2388 39.498 29.2533 39.4947C29.2676 39.4916 29.2815 39.4871 29.2943 39.4816ZM30.6989 38.2177C30.7564 38.1872 30.7934 38.1562 30.8092 38.1249C30.8253 38.0934 30.8315 38.0655 30.8278 38.0407C30.8266 38.0325 30.8247 38.0245 30.8217 38.0172C30.819 38.0099 30.8159 38.0033 30.8129 37.9974C30.7945 37.9598 30.7657 37.9378 30.7261 37.9314C30.6866 37.9248 30.6417 37.9342 30.5914 37.9595C30.5591 37.9779 30.5314 37.9989 30.5079 38.0224C30.4845 38.0459 30.4633 38.0716 30.4442 38.0995C30.4364 38.1095 30.4291 38.12 30.4224 38.131C30.4156 38.142 30.4089 38.1537 30.4022 38.1662L30.3852 38.1752L30.1513 37.9947C30.1588 37.9834 30.1684 37.969 30.1805 37.9515C30.1925 37.9341 30.2072 37.9149 30.2239 37.8939C30.2531 37.8577 30.29 37.8195 30.3341 37.779C30.3786 37.7387 30.4322 37.7016 30.4955 37.6681L30.5125 37.6591C30.6505 37.586 30.7772 37.5608 30.8931 37.5831C31.0088 37.6056 31.091 37.6667 31.1401 37.7664C31.1712 37.8301 31.1813 37.8963 31.1704 37.9657C31.1595 38.0352 31.13 38.0961 31.0814 38.1483L31.084 38.1537C31.0904 38.1518 31.0966 38.1508 31.1028 38.1503C31.1091 38.1501 31.1156 38.1496 31.1223 38.1489C31.179 38.1427 31.2377 38.1512 31.2985 38.1745C31.3591 38.1981 31.4093 38.2502 31.449 38.3313C31.5083 38.4523 31.507 38.57 31.4448 38.6843C31.3827 38.7987 31.2864 38.8904 31.1564 38.9593L31.1402 38.9701C31.1047 38.9874 31.0703 39.0025 31.0376 39.0155C31.0049 39.0284 30.9711 39.0389 30.9366 39.0468C30.89 39.0566 30.8388 39.0605 30.7828 39.0582C30.7269 39.0561 30.6608 39.0478 30.5839 39.0336L30.609 38.7317L30.6259 38.7227C30.6612 38.7336 30.6972 38.7412 30.7342 38.7452C30.7712 38.7495 30.8069 38.7505 30.8415 38.7485C30.8661 38.7459 30.8897 38.7419 30.9125 38.7364C30.9355 38.7309 30.9569 38.7236 30.9767 38.7146C31.0247 38.6877 31.056 38.6586 31.0705 38.6271C31.0852 38.5958 31.0909 38.5668 31.0878 38.5402C31.0878 38.5314 31.0863 38.523 31.0837 38.5147C31.0813 38.5065 31.0781 38.4987 31.0747 38.4916C31.0575 38.4566 31.029 38.4334 30.9894 38.4225C30.95 38.4117 30.8934 38.4256 30.8198 38.4645L30.6316 38.5643L30.5106 38.3174L30.6989 38.2177ZM32.2015 37.6623C32.1895 37.6672 32.1771 37.6718 32.1649 37.6762C32.1527 37.6808 32.1388 37.684 32.1235 37.6865C32.0632 37.6989 31.9974 37.6935 31.926 37.6699C31.8547 37.6466 31.7903 37.589 31.733 37.4972C31.6499 37.3645 31.6272 37.2409 31.6647 37.1268C31.7023 37.0125 31.7786 36.9167 31.8938 36.839L31.9097 36.8283L32.3679 36.5189L33.0937 37.6806L33.0779 37.6913L32.7648 37.9026L32.5181 37.5076L32.5054 37.5162L32.5238 38.0651L32.5078 38.0759L32.1725 38.3023L32.2015 37.6623ZM32.1986 36.9964L32.1284 37.0438C32.1209 37.0489 32.1104 37.0567 32.0975 37.0672C32.0844 37.0775 32.0716 37.0899 32.0596 37.1046C32.0432 37.1266 32.0323 37.1534 32.0267 37.1845C32.0212 37.2157 32.031 37.2512 32.0557 37.291C32.0855 37.3386 32.1171 37.3645 32.1507 37.3686C32.1844 37.3726 32.2162 37.3684 32.2462 37.3559C32.2564 37.3506 32.2663 37.3452 32.2757 37.3396C32.2851 37.3342 32.2941 37.3284 32.3025 37.3227L32.373 37.2753L32.1986 36.9964ZM33.1636 35.8833L33.6695 36.4881L33.5386 35.5445L33.5531 35.5315L33.8288 35.2823L34.7032 36.3276L34.6889 36.3406L34.4173 36.5858L33.9127 35.9826L34.0481 36.9193L34.0338 36.9324L33.7519 37.1869L32.8777 36.1417L32.892 36.1287L33.1636 35.8833ZM32.9971 35.5303L33.0114 35.5172C33.0362 35.5351 33.0595 35.5449 33.081 35.5462C33.1025 35.5479 33.122 35.545 33.1397 35.5379C33.1515 35.534 33.1624 35.5289 33.1724 35.5227C33.1822 35.5166 33.1907 35.5103 33.1971 35.5042C33.204 35.4981 33.211 35.4905 33.2184 35.4812C33.2257 35.4719 33.232 35.4614 33.2372 35.4497C33.2465 35.4326 33.2521 35.4128 33.2534 35.3904C33.255 35.3683 33.249 35.3429 33.2356 35.3148L33.25 35.3019L33.4663 35.2165C33.4913 35.2988 33.4886 35.3764 33.458 35.4495C33.4273 35.5225 33.3825 35.586 33.3231 35.6395L33.3087 35.6525C33.2426 35.7123 33.1719 35.7504 33.0965 35.7668C33.0212 35.7834 32.951 35.7748 32.8858 35.7409L32.9971 35.5303ZM35.9578 34.9684C35.9525 35.0012 35.945 35.0318 35.9352 35.0603C35.9255 35.0885 35.9141 35.1155 35.9015 35.1412C35.8855 35.1744 35.8673 35.2049 35.8466 35.2328C35.8261 35.2606 35.8049 35.2865 35.7832 35.3107L35.7718 35.3264C35.6427 35.4683 35.4877 35.5462 35.3067 35.5602C35.1258 35.5743 34.9541 35.5027 34.7917 35.3453C34.6218 35.1807 34.5409 35.0032 34.5494 34.8131C34.5579 34.6228 34.6206 34.4624 34.7373 34.3322L34.7503 34.3178C34.7659 34.3004 34.7829 34.2835 34.8012 34.2669C34.8195 34.2504 34.8391 34.2342 34.8603 34.2187C34.8917 34.1951 34.9258 34.1744 34.9626 34.1568C34.9993 34.139 35.0375 34.1253 35.0776 34.1155L35.3603 34.3895L35.3474 34.404C35.3356 34.4035 35.3226 34.4035 35.3083 34.4039C35.2938 34.4046 35.2782 34.4056 35.2612 34.4071C35.2246 34.4112 35.1847 34.4217 35.1417 34.4387C35.0986 34.4557 35.0586 34.484 35.0214 34.5236C34.9522 34.6045 34.9253 34.6939 34.9408 34.7918C34.9563 34.8896 35.0011 34.9746 35.0752 35.0466C35.1588 35.1275 35.2454 35.1651 35.3351 35.159C35.4245 35.1529 35.5011 35.1165 35.5645 35.0498C35.6084 34.9968 35.6373 34.9406 35.651 34.8808C35.6646 34.8211 35.6703 34.7655 35.6676 34.7144L35.6806 34.6998L35.9578 34.9684ZM35.8157 33.6194L35.6351 33.8595L35.3833 33.6548L35.395 33.6392L35.9856 32.8534L36.2376 33.0581L36.0573 33.2982L36.8554 33.9462L36.8437 33.9618L36.6138 34.2676L35.8157 33.6194ZM36.6964 31.807C36.7603 31.7007 36.8251 31.635 36.8914 31.6094C36.9576 31.584 37.0175 31.5778 37.0712 31.5908C37.0962 31.5963 37.1191 31.6037 37.1396 31.613C37.1599 31.6225 37.1784 31.6325 37.1947 31.6429C37.2528 31.6807 37.2913 31.7312 37.3103 31.794C37.3294 31.857 37.3327 31.9186 37.3202 31.9791L37.3235 31.9811C37.3349 31.9698 37.3494 31.9567 37.3673 31.942C37.3853 31.9269 37.4063 31.9134 37.4301 31.901C37.4715 31.8795 37.5205 31.8666 37.5769 31.8621C37.6334 31.8575 37.6951 31.877 37.762 31.9203C37.7683 31.9246 37.7745 31.9289 37.7801 31.9334C37.7854 31.9377 37.7914 31.942 37.798 31.9462C37.8623 31.9987 37.9055 32.0735 37.9279 32.1706C37.9505 32.2678 37.9231 32.3805 37.8457 32.5091L37.8356 32.526L37.4744 33.1267L36.3442 32.3927L36.3543 32.376L36.6964 31.807ZM37.537 32.5C37.5423 32.4909 37.5492 32.4791 37.5573 32.4642C37.5655 32.4492 37.5725 32.4337 37.5779 32.4167C37.5873 32.3888 37.5897 32.3592 37.5852 32.3284C37.5806 32.2974 37.5599 32.2699 37.5233 32.2463C37.4878 32.2232 37.456 32.217 37.4279 32.2274C37.3999 32.2379 37.3762 32.2532 37.3566 32.2732C37.3465 32.2854 37.3372 32.2975 37.3289 32.3101C37.3206 32.3226 37.3137 32.3333 37.3084 32.3423L37.2237 32.4831L37.4563 32.6342L37.537 32.5ZM37.0703 32.2156C37.0992 32.1675 37.1129 32.1282 37.1109 32.0974C37.1093 32.0668 37.1013 32.042 37.0871 32.0234C37.0819 32.017 37.0765 32.0116 37.071 32.0072C37.0655 32.0028 37.0599 31.9989 37.0545 31.9953C37.0256 31.9765 36.993 31.9705 36.9567 31.9772C36.9203 31.984 36.8849 32.016 36.8507 32.073L36.7781 32.1938L36.9977 32.3363L37.0703 32.2156ZM38.7903 30.8819C38.688 31.1002 38.5468 31.2339 38.3667 31.2836C38.1867 31.3333 38.0122 31.3152 37.8434 31.2297C37.6758 31.1447 37.5545 31.014 37.4799 30.8374C37.4052 30.6609 37.42 30.4618 37.5241 30.2401L37.5324 30.2222C37.6365 30.0004 37.7782 29.866 37.9581 29.8184C38.138 29.7708 38.3116 29.7895 38.4794 29.8745C38.6483 29.9601 38.7692 30.0907 38.842 30.2664C38.915 30.442 38.8998 30.641 38.797 30.8632L38.7903 30.8819ZM38.5062 30.729C38.5117 30.7172 38.5167 30.7044 38.5212 30.6904C38.5256 30.6765 38.5285 30.6619 38.5301 30.6466C38.5419 30.582 38.5331 30.5133 38.5031 30.4402C38.4731 30.3672 38.4063 30.3042 38.3024 30.2516C38.1986 30.199 38.1096 30.1833 38.0355 30.2043C37.9612 30.2255 37.9037 30.26 37.8626 30.3083C37.8532 30.3196 37.8444 30.3308 37.8363 30.3421C37.8281 30.3535 37.8212 30.365 37.8156 30.3768C37.8096 30.3898 37.8043 30.4041 37.8001 30.4195C37.7955 30.4349 37.7926 30.4503 37.7911 30.4655C37.7813 30.5283 37.7918 30.5956 37.8222 30.6675C37.8529 30.7395 37.9188 30.8013 38.0203 30.8528C38.1218 30.9041 38.2092 30.9202 38.2826 30.9009C38.356 30.8816 38.4133 30.8487 38.4551 30.8022C38.4656 30.7915 38.4754 30.78 38.484 30.7673C38.4927 30.7549 38.5 30.7421 38.5062 30.729ZM5.51855 19.8762L5.52212 19.8567L5.6748 19.041L5.98858 19.1045L5.9073 19.5394L6.90163 19.7403L6.89802 19.7597L6.82666 20.1405L5.51855 19.8762ZM7.3475 17.8752C7.28317 18.1087 7.16637 18.2658 6.99759 18.3473C6.82842 18.4287 6.65364 18.4424 6.47314 18.3886C6.29373 18.3352 6.15249 18.2283 6.04951 18.0679C5.94641 17.9075 5.92778 17.7088 5.99318 17.4716L5.99835 17.4526C6.06383 17.2154 6.18098 17.0574 6.35027 16.9782C6.5194 16.8988 6.69355 16.8857 6.87292 16.9392C7.05346 16.9931 7.19439 17.1 7.2956 17.2597C7.39674 17.4196 7.41514 17.6182 7.35095 17.8556L7.3475 17.8752ZM7.04204 17.776C7.04565 17.7633 7.04844 17.7498 7.05036 17.7352C7.05248 17.7208 7.05294 17.7059 7.05197 17.6905C7.05287 17.6248 7.03259 17.5587 6.99072 17.4921C6.94917 17.4255 6.87279 17.3757 6.76169 17.3426C6.6507 17.3096 6.56032 17.3101 6.49087 17.3441C6.42131 17.3783 6.37031 17.4228 6.33806 17.4777C6.33053 17.4907 6.32371 17.5032 6.31766 17.5159C6.31146 17.5285 6.30675 17.5411 6.30319 17.5539C6.29941 17.5678 6.29667 17.5826 6.29491 17.5985C6.2931 17.6146 6.29279 17.6304 6.29376 17.6456C6.29478 17.7091 6.31639 17.7735 6.3583 17.8388C6.40046 17.9042 6.47576 17.9531 6.58427 17.9854C6.69279 18.0177 6.78157 18.0178 6.85062 17.9857C6.91955 17.9533 6.97071 17.9106 7.00398 17.8573C7.01256 17.8448 7.02025 17.8317 7.02677 17.8177C7.03323 17.804 7.03828 17.7899 7.04204 17.776ZM6.57319 15.7656L6.5813 15.7476L6.81865 15.2187C6.87879 15.0847 6.95129 14.998 7.03635 14.9582C7.12125 14.9188 7.20219 14.9039 7.27896 14.9134C7.30698 14.9168 7.33353 14.9223 7.35864 14.9302C7.38387 14.9379 7.40682 14.9469 7.42749 14.9571C7.44841 14.9671 7.46975 14.9794 7.49152 14.9945C7.51353 15.0096 7.53487 15.0272 7.55512 15.0471C7.61228 15.101 7.65366 15.175 7.6794 15.2689C7.70514 15.3629 7.68804 15.4769 7.62793 15.6108L7.54844 15.7882L7.94692 15.9814L7.93876 15.9994L7.78105 16.3509L6.57319 15.7656ZM7.28254 15.6594L7.31953 15.5771C7.34268 15.5257 7.35126 15.4841 7.34609 15.4523C7.34068 15.4207 7.33059 15.3961 7.31608 15.3788C7.30548 15.3678 7.29474 15.3592 7.28367 15.3523C7.27276 15.3455 7.26398 15.3403 7.25691 15.337C7.25013 15.3338 7.24307 15.3307 7.23592 15.328C7.22859 15.3252 7.22141 15.3228 7.21411 15.3206C7.18708 15.3148 7.15821 15.3191 7.12745 15.3333C7.09661 15.3474 7.06793 15.3837 7.04169 15.4423L7.00474 15.5248L7.28254 15.6594ZM7.4127 13.9024L7.42216 13.8851L7.60887 13.5492L8.05901 13.8192L8.1569 13.6428C8.17027 13.6187 8.18886 13.5881 8.21252 13.5505C8.23645 13.5131 8.26608 13.4769 8.30163 13.4417C8.35474 13.3883 8.42021 13.3497 8.49829 13.3257C8.57598 13.3013 8.66676 13.3203 8.77001 13.3823C8.87331 13.4444 8.93474 13.5165 8.95413 13.5991C8.97335 13.6816 8.97448 13.7595 8.95723 13.833C8.94581 13.8824 8.93015 13.9278 8.91011 13.9691C8.8901 14.0104 8.87382 14.0424 8.86107 14.0653L8.85149 14.0826L8.56683 14.5949L7.4127 13.9024ZM8.60252 13.9766C8.63053 13.9263 8.64459 13.8805 8.64459 13.8396C8.6447 13.7984 8.62109 13.7637 8.5739 13.7353C8.52775 13.7077 8.48769 13.704 8.45381 13.7237C8.41991 13.7439 8.38875 13.7796 8.36007 13.8311L8.28973 13.9578L8.53214 14.1032L8.60252 13.9766ZM8.52104 12.0326L8.53313 12.0173L8.76809 11.7158L9.18222 12.0645L9.00869 11.4068L9.02074 11.3914L9.29623 11.0377L9.47925 11.8687L10.3404 11.8986L10.3284 11.9139L10.0349 12.2907L9.3805 12.2312L9.80377 12.5875L9.79173 12.6029L9.55676 12.9043L8.52104 12.0326ZM11.2799 10.8454C11.1176 11.02 10.9436 11.1019 10.7577 11.0912C10.5716 11.0807 10.411 11.0076 10.2759 10.872C10.1416 10.7372 10.0652 10.574 10.0467 10.3821C10.0283 10.1903 10.1014 10.0056 10.2665 9.82818L10.2796 9.81391C10.4445 9.63647 10.6195 9.55402 10.8046 9.56654C10.9898 9.57911 11.1495 9.65273 11.2838 9.78735C11.4188 9.92296 11.4949 10.086 11.512 10.2765C11.5291 10.467 11.4556 10.6513 11.2918 10.8296L11.2799 10.8454ZM11.055 10.6087C11.064 10.5992 11.0725 10.5887 11.0808 10.5768C11.0891 10.5648 11.0962 10.5521 11.1024 10.5379C11.1328 10.4803 11.1448 10.4121 11.1379 10.3329C11.1313 10.2538 11.0863 10.1725 11.0032 10.0892C10.9201 10.0058 10.8401 9.96223 10.7635 9.95852C10.6865 9.95464 10.6215 9.96917 10.5682 10.0019C10.5558 10.0096 10.5441 10.0174 10.533 10.0255C10.5218 10.0337 10.5118 10.0425 10.503 10.052C10.4934 10.0623 10.4841 10.0744 10.4755 10.0875C10.4667 10.1007 10.4592 10.1145 10.4533 10.1285C10.4255 10.1851 10.4154 10.2524 10.4229 10.3305C10.4305 10.4089 10.475 10.4888 10.5562 10.5702C10.6375 10.6517 10.7158 10.6952 10.7914 10.7003C10.8668 10.7054 10.9312 10.6927 10.9847 10.6617C10.9978 10.655 11.0107 10.6471 11.0226 10.638C11.0345 10.629 11.0454 10.619 11.055 10.6087ZM12.077 8.18268C12.172 8.10554 12.2548 8.06678 12.3254 8.06641C12.3961 8.06587 12.4544 8.08129 12.5005 8.1126C12.5222 8.12683 12.5412 8.14192 12.5573 8.15801C12.5735 8.17408 12.5875 8.19003 12.5992 8.20559C12.6414 8.26179 12.6611 8.32274 12.6582 8.38862C12.6554 8.45446 12.6383 8.51355 12.6067 8.56606L12.6091 8.56912C12.6235 8.56248 12.6416 8.55542 12.6633 8.54796C12.6849 8.54017 12.7092 8.53491 12.7356 8.53169C12.7815 8.52627 12.8318 8.53142 12.8864 8.54742C12.941 8.56317 12.9925 8.60348 13.041 8.66798C13.0458 8.67422 13.05 8.68035 13.0538 8.68663C13.0575 8.69253 13.0617 8.69877 13.0665 8.70509C13.1096 8.77721 13.1256 8.86287 13.1148 8.96207C13.104 9.06127 13.041 9.15744 12.926 9.25093L12.9111 9.26316L12.3739 9.69925L11.5534 8.6079L11.5684 8.59566L12.077 8.18268ZM12.6388 9.13257C12.6469 9.12601 12.6572 9.11721 12.6698 9.10615C12.6824 9.09514 12.694 9.08279 12.7048 9.06894C12.7227 9.0459 12.7348 9.01899 12.7408 8.98849C12.7465 8.95771 12.7362 8.92464 12.7097 8.88929C12.6837 8.85509 12.6561 8.8378 12.6263 8.8378C12.5965 8.83767 12.5691 8.84359 12.5441 8.85542C12.5306 8.86319 12.5179 8.87135 12.506 8.88015C12.4939 8.88909 12.484 8.89676 12.4761 8.90316L12.3501 9.00541L12.5189 9.22998L12.6388 9.13257ZM12.294 8.69951C12.337 8.66461 12.3628 8.63243 12.3711 8.603C12.3796 8.57352 12.3803 8.54742 12.3731 8.52493C12.3701 8.51714 12.3671 8.51001 12.3633 8.50393C12.3596 8.4978 12.3556 8.49205 12.3517 8.487C12.3307 8.45892 12.3019 8.44162 12.2655 8.43498C12.2294 8.42858 12.1855 8.44603 12.1345 8.4875L12.0267 8.57519L12.186 8.7872L12.294 8.69951ZM14.7304 7.89775C14.7172 7.92824 14.7024 7.95567 14.6858 7.98054C14.6693 8.00513 14.6517 8.02833 14.633 8.04966C14.6094 8.07738 14.5843 8.10196 14.5574 8.12349C14.5305 8.14466 14.5036 8.1641 14.4766 8.18155L14.4616 8.19374C14.3016 8.29599 14.1325 8.32966 13.9541 8.29448C13.776 8.25945 13.6279 8.14392 13.5103 7.94822C13.3871 7.7435 13.3532 7.55049 13.4087 7.36898C13.4643 7.1875 13.5649 7.0495 13.7101 6.95519L13.7261 6.94471C13.7457 6.93215 13.7662 6.92029 13.788 6.90916C13.8099 6.8981 13.8329 6.8878 13.857 6.8785C13.8933 6.8641 13.9314 6.85342 13.9714 6.84633C14.0111 6.83903 14.0517 6.83598 14.0928 6.83732L14.2976 7.17797L14.2814 7.18853C14.2701 7.18477 14.2578 7.18139 14.2438 7.17784C14.2296 7.17462 14.2143 7.1714 14.1975 7.16834C14.161 7.16243 14.1199 7.16178 14.0742 7.16683C14.0284 7.17161 13.9826 7.18819 13.9368 7.21629C13.8498 7.2759 13.8016 7.35491 13.7921 7.45387C13.7827 7.55237 13.8046 7.64667 13.8586 7.73604C13.919 7.83679 13.9935 7.89626 14.0815 7.91453C14.1695 7.93264 14.2526 7.91808 14.3303 7.87087C14.386 7.8314 14.4279 7.78484 14.4558 7.73082C14.4841 7.67664 14.5033 7.6247 14.5136 7.57455L14.5297 7.56406L14.7304 7.89775ZM14.9228 6.28369L14.9402 6.27554L15.2813 6.11774L15.4981 6.62401L15.6307 5.95605L15.6481 5.9481L16.0483 5.76304L15.848 6.58964L16.6026 7.02259L16.5851 7.03074L16.1589 7.22778L15.6019 6.86614L15.8233 7.38304L15.8059 7.39115L15.4649 7.54895L14.9228 6.28369ZM17.9086 6.55677C17.6864 6.63179 17.4957 6.61907 17.3362 6.51922C17.1769 6.41897 17.068 6.27606 17.01 6.09052C16.9524 5.90611 16.9587 5.72459 17.029 5.54614C17.0993 5.36768 17.2474 5.24052 17.4732 5.16415L17.4913 5.15803C17.7172 5.08188 17.9087 5.0944 18.0666 5.19584C18.2245 5.29724 18.3322 5.44017 18.3898 5.6245C18.4479 5.8101 18.4415 5.99128 18.3704 6.16786C18.2996 6.34428 18.1515 6.47132 17.9261 6.54883L17.9086 6.55677ZM17.817 6.23811C17.8291 6.23407 17.8413 6.22897 17.854 6.22257C17.8669 6.21613 17.8789 6.20834 17.8906 6.19885C17.9434 6.16277 17.9848 6.10845 18.0148 6.03515C18.0444 5.96197 18.0415 5.86836 18.0058 5.75424C17.9701 5.63992 17.9192 5.5624 17.8531 5.52175C17.787 5.48095 17.723 5.46199 17.6613 5.46484C17.6467 5.46551 17.6329 5.46672 17.6194 5.46859C17.6059 5.47027 17.5931 5.47316 17.5809 5.47719C17.5677 5.48176 17.5542 5.48775 17.5407 5.49514C17.5268 5.50247 17.5141 5.51108 17.5026 5.52058C17.4524 5.55679 17.4132 5.6115 17.3844 5.68411C17.3558 5.75693 17.3589 5.84919 17.3939 5.96082C17.4287 6.07237 17.4783 6.1489 17.5426 6.19041C17.607 6.23171 17.6697 6.25188 17.7308 6.25067C17.7455 6.2512 17.7603 6.2504 17.7751 6.24814C17.7896 6.2461 17.8036 6.24255 17.817 6.23811ZM19.1634 4.72986L19.1823 4.72647L19.9697 4.58223L20.0253 4.9095L19.6054 4.98656L19.6377 5.17741L20.0182 5.10764L20.0693 5.40781L19.6887 5.47756L19.7256 5.69582L20.1457 5.61879L20.2011 5.94623L20.1823 5.94961L19.3949 6.09386L19.1634 4.72986ZM23.7138 5.77605C23.4809 5.75913 23.3085 5.67311 23.1969 5.51837C23.0851 5.36344 23.0358 5.18853 23.0488 4.99385C23.0618 4.80043 23.1332 4.6347 23.2626 4.49653C23.3921 4.35855 23.5754 4.29809 23.8121 4.31539L23.8311 4.31677C24.0679 4.33402 24.2412 4.4202 24.3509 4.57579C24.4609 4.73121 24.5093 4.90563 24.4962 5.09896C24.483 5.29369 24.4118 5.45913 24.2823 5.59523C24.153 5.73119 23.97 5.79133 23.7331 5.7754L23.7138 5.77605ZM23.7439 5.44487C23.7565 5.44593 23.7697 5.44593 23.7839 5.44487C23.7979 5.44393 23.812 5.44132 23.8263 5.43708C23.8883 5.4244 23.9463 5.39002 24.0005 5.33364C24.0544 5.27762 24.0853 5.18955 24.0934 5.06969C24.1014 4.94998 24.0823 4.85837 24.0356 4.79489C23.989 4.73121 23.9364 4.68872 23.8781 4.66724C23.8644 4.66234 23.8512 4.6581 23.838 4.65452C23.8248 4.65076 23.812 4.6486 23.7992 4.64755C23.7854 4.64661 23.7707 4.64688 23.7554 4.64861C23.7399 4.64996 23.7251 4.65302 23.7109 4.65726C23.6513 4.67128 23.5952 4.70671 23.5425 4.76289C23.4897 4.81929 23.4594 4.90616 23.4514 5.0231C23.4436 5.14011 23.462 5.23038 23.5068 5.29386C23.5514 5.35718 23.6022 5.4004 23.6595 5.42307C23.6728 5.42919 23.6868 5.4344 23.7013 5.43794C23.7156 5.44165 23.7298 5.44388 23.7439 5.44487ZM25.4859 4.53583L25.5047 4.53921L26.4743 4.71698L26.4187 5.04429L25.8169 4.93392L25.7822 5.13863L25.9751 5.17398C26.0015 5.17875 26.0355 5.18633 26.0777 5.19669C26.1198 5.20717 26.1626 5.22376 26.2066 5.24643C26.2729 5.28015 26.3304 5.33041 26.379 5.39765C26.4275 5.46484 26.4417 5.558 26.4215 5.67755C26.4005 5.80096 26.356 5.88683 26.2879 5.93441C26.2198 5.9823 26.1497 6.0102 26.0774 6.01835C26.0285 6.02564 25.9821 6.02647 25.9378 6.02108C25.8936 6.01545 25.8591 6.01056 25.834 6.006L25.8153 6.00261L25.2546 5.89987L25.4859 4.53583ZM25.8258 5.72325C25.8809 5.73324 25.927 5.73137 25.9642 5.71746C26.0013 5.70343 26.0248 5.66853 26.0342 5.61267C26.0435 5.55816 26.0331 5.51771 26.0034 5.49146C25.9738 5.46516 25.9308 5.4471 25.8745 5.43674L25.7359 5.41135L25.6872 5.69784L25.8258 5.72325ZM27.5851 5.34277L27.3316 5.25731L27.4305 4.94118L27.4486 4.94729L28.0569 5.15266L27.8963 5.66637L28.0828 5.72937C28.1081 5.73781 28.141 5.75032 28.1814 5.76676C28.2215 5.78297 28.2617 5.80568 28.3021 5.83447C28.3636 5.87749 28.4135 5.93607 28.4523 6.0102C28.4913 6.0842 28.4922 6.18038 28.4554 6.29825C28.4184 6.41627 28.3634 6.49362 28.2897 6.53051C28.2162 6.56729 28.1429 6.58453 28.0704 6.58233C28.0214 6.58099 27.9753 6.57439 27.9324 6.56289C27.8894 6.55087 27.8559 6.54108 27.8316 6.53293L27.8135 6.52681L27.2721 6.34395L27.5851 5.34277ZM27.8614 6.25168C27.9147 6.26962 27.9605 6.27439 27.9992 6.26591C28.0378 6.25743 28.0656 6.22628 28.0825 6.17226C28.0989 6.11963 28.0942 6.07817 28.0681 6.04783C28.0424 6.01765 28.0023 5.99348 27.9479 5.97501L27.814 5.92983L27.7275 6.20646L27.8614 6.25168ZM29.6104 5.75188L29.6278 5.75982L30.3584 6.09777L30.2283 6.40156L29.8388 6.22119L29.7629 6.3983L30.1159 6.56171L29.9967 6.84006L29.6436 6.6768L29.557 6.8792L29.9463 7.05949L29.8163 7.36307L29.7989 7.35512L29.0683 7.017L29.6104 5.75188ZM32.1836 7.14584L31.6926 8.06641L31.8324 8.14701L31.548 8.68001L31.5316 8.67056L31.2517 8.50918L31.3809 8.26688L30.7248 7.88893L30.5956 8.13128L30.579 8.12173L30.2992 7.96057L30.5835 7.42757C30.5891 7.43078 30.5944 7.43348 30.5998 7.43584C30.605 7.43809 30.6107 7.44029 30.6169 7.44228C30.6686 7.45989 30.7261 7.45888 30.7897 7.43894C30.8533 7.41913 30.9109 7.36731 30.9626 7.284C30.9711 7.2708 30.9793 7.2569 30.987 7.24271C30.9946 7.22812 31.0024 7.2134 31.0104 7.19848C31.0128 7.1939 31.0154 7.18918 31.0179 7.18461C31.0203 7.18005 31.0228 7.17547 31.0253 7.17071L31.3077 6.64125L31.3244 6.65075L32.1836 7.14584ZM31.3157 7.40151C31.2751 7.47751 31.2324 7.54082 31.1875 7.59097C31.1426 7.64141 31.0832 7.66869 31.0099 7.67325L31.3496 7.86884L31.6856 7.23896L31.469 7.1142L31.3157 7.40151ZM33.4008 8.05405L32.926 8.6856L33.7923 8.37203L33.8075 8.38418L34.0954 8.61804L33.2749 9.70948L33.2599 9.69725L32.9764 9.46698L33.4499 8.83715L32.5909 9.15411L32.5757 9.1419L32.2817 8.903L33.1022 7.81159L33.1171 7.82377L33.4008 8.05405ZM34.8947 9.33884L34.908 9.35303L35.1672 9.63206L34.8222 9.9785L35.1235 10.3029L35.4688 9.95664L35.482 9.97091L35.7412 10.2497L34.7825 11.2118L34.7692 11.1976L34.5101 10.9187L34.8935 10.5338L34.5921 10.2094L34.2086 10.5943L34.1954 10.5799L33.936 10.3009L34.8947 9.33884ZM36.359 11.0393L36.3711 11.0547L36.8744 11.7004L36.6257 11.9097L36.3574 11.5653L36.2124 11.6872L36.4557 11.9994L36.2277 12.1913L35.9845 11.8791L35.8188 12.0186L36.0871 12.363L35.8387 12.5721L35.8266 12.5567L35.3233 11.9109L36.359 11.0393ZM37.4745 12.5748L37.4842 12.5921L37.6707 12.928L37.2553 13.1772L37.4723 13.5678L37.8877 13.3186L37.8974 13.3357L38.0839 13.6714L36.9297 14.3639L36.9201 14.3468L36.7336 14.0111L37.1953 13.7341L36.9783 13.3435L36.5165 13.6205L36.5071 13.6032L36.3204 13.2673L37.4745 12.5748ZM38.5524 14.5668L38.5605 14.5847L38.7181 14.9363L38.2833 15.147L38.4668 15.5557L38.9016 15.3451L38.9097 15.3631L39.0673 15.7144L37.8595 16.2997L37.8514 16.2818L37.6939 15.9304L38.1769 15.6963L37.9935 15.2876L37.5104 15.5215L37.5022 15.5036L37.3445 15.1521L38.5524 14.5668ZM38.2952 17.8048C38.2309 17.5713 38.2497 17.3737 38.3514 17.2116C38.4533 17.0496 38.5945 16.9416 38.7752 16.8878C38.9544 16.8344 39.1287 16.8473 39.2978 16.9266C39.4669 17.0058 39.5842 17.1641 39.6496 17.4011L39.655 17.4202C39.7203 17.6573 39.7016 17.8559 39.5986 18.0163C39.4955 18.1768 39.3543 18.2838 39.175 18.3371C38.9945 18.391 38.8204 18.3779 38.6532 18.298C38.486 18.2182 38.369 18.06 38.3024 17.8232L38.2952 17.8048ZM38.6049 17.7208C38.6085 17.7335 38.6129 17.7464 38.6186 17.7598C38.6243 17.7733 38.6315 17.7862 38.6401 17.7987C38.673 17.8547 38.7238 17.8996 38.7933 17.9333C38.8625 17.9666 38.9528 17.967 39.0637 17.9338C39.1748 17.9008 39.2511 17.8505 39.2926 17.7834C39.3342 17.7161 39.3547 17.6502 39.354 17.5858C39.3538 17.5708 39.3533 17.5564 39.3518 17.5424C39.3506 17.5283 39.3483 17.5149 39.3448 17.5022C39.341 17.4883 39.3356 17.4742 39.3289 17.4597C39.3224 17.4452 39.3146 17.4316 39.306 17.4192C39.2727 17.3659 39.2218 17.3231 39.1529 17.2907C39.0838 17.2586 38.995 17.2586 38.8863 17.291C38.7778 17.3233 38.7025 17.3722 38.6603 17.4376C38.6184 17.503 38.5967 17.5673 38.596 17.6308C38.5948 17.6462 38.5951 17.6616 38.5967 17.6768C38.5982 17.6921 38.601 17.7068 38.6049 17.7208ZM39.9873 19.0919L39.9909 19.1114L40.1436 19.927L39.8296 19.9905L39.7483 19.5555L39.5652 19.5924L39.6388 19.9868L39.351 20.0448L39.2773 19.6507L39.0679 19.693L39.1493 20.1279L38.8353 20.1913L38.8317 20.1718L38.6791 19.356L39.9873 19.0919Z" fill="white"/>
<path fill-rule="evenodd" clip-rule="evenodd" d="M3.59375 27.0802V26.3025H4.0302C4.26444 26.3025 4.41147 26.2832 4.46878 26.2458C4.52646 26.2084 4.55386 26.1466 4.55386 26.0594V23.8488C4.55386 23.7617 4.52646 23.6999 4.46878 23.6626C4.4136 23.6249 4.26657 23.6058 4.0302 23.6058H3.59375V22.8269H11.0968V24.3542H9.5386C9.53004 24.2548 9.49587 24.1476 9.43606 24.0321C9.38945 23.9299 9.32107 23.8579 9.22959 23.8154C9.13806 23.7729 8.93803 23.7516 8.63148 23.7516H7.68599V26.0533C7.68599 26.1527 7.72228 26.2184 7.79454 26.2519C7.86505 26.2852 8.00315 26.3025 8.20966 26.3025H8.78457V27.0802H3.59375ZM16.3984 22.7178C17.0288 22.7178 17.7016 22.7724 18.4147 22.8806C19.1303 22.99 19.7518 23.1947 20.2819 23.4954C20.9889 23.9278 21.3425 24.4138 21.3425 24.9536C21.3425 25.5612 21.0103 26.0563 20.3482 26.4371C19.916 26.6841 19.3453 26.8705 18.6362 26.9962C17.9295 27.1216 17.1819 27.1845 16.3984 27.1845C15.8896 27.1845 15.3894 27.1572 14.9017 27.1035C14.4119 27.0499 13.9562 26.9667 13.5326 26.8543C13.1111 26.7418 12.7533 26.6032 12.4617 26.4371C11.791 26.0522 11.4546 25.5571 11.4546 24.9536C11.4546 24.7926 11.4888 24.6295 11.5568 24.4654C11.6226 24.3025 11.7376 24.1364 11.8974 23.9693C12.0573 23.8012 12.2681 23.6432 12.5276 23.4954C12.8131 23.3334 13.1324 23.2006 13.4902 23.0953C13.8455 22.99 14.2011 22.9101 14.5546 22.8564C14.9081 22.8027 15.2403 22.7664 15.551 22.747C15.8597 22.7277 16.1431 22.7178 16.3984 22.7178ZM16.3984 26.26C16.7202 26.26 16.9669 26.2133 17.1374 26.1201C17.3076 26.026 17.4226 25.9014 17.4781 25.7434C17.5333 25.5865 17.5611 25.3921 17.5611 25.1612V24.7531C17.5611 24.3987 17.4888 24.1253 17.3396 23.9319C17.1904 23.7384 16.8775 23.6422 16.3984 23.6422C15.9025 23.6422 15.5831 23.7425 15.4446 23.9429C15.304 24.1446 15.236 24.4119 15.236 24.747V25.1612C15.236 25.5167 15.3125 25.7889 15.4703 25.9774C15.6276 26.1657 15.9366 26.26 16.3984 26.26ZM23.7188 27.0802V26.3025H24.2912C24.5041 26.3025 24.6469 26.2852 24.7195 26.2508C24.7918 26.2173 24.828 26.1537 24.828 26.0594V23.7506H24.2912C24.0655 23.7506 23.8975 23.7577 23.7868 23.7719C23.676 23.7849 23.6059 23.8052 23.5739 23.8306C23.544 23.8569 23.5141 23.8994 23.4867 23.9592L23.3225 24.3166H21.6746L21.7619 22.8269H31.026L31.1154 24.3166H29.4653L29.3012 23.9592C29.261 23.8711 29.199 23.8144 29.1161 23.789C29.031 23.7638 28.8245 23.7506 28.4966 23.7506H27.9598V26.0594C27.9598 26.1364 27.9897 26.1961 28.0495 26.2387C28.1111 26.2812 28.256 26.3025 28.4838 26.3025H29.0584V27.0802H23.7188ZM36.8747 22.8269V23.6048H36.7067C36.5639 23.6048 36.4917 23.6351 36.4917 23.6969C36.4917 23.7262 36.534 23.7638 36.6195 23.8103L37.1941 24.1698H37.3347L37.9203 23.8114C38.0417 23.7343 38.1011 23.6888 38.1011 23.6717C38.1011 23.627 38.0203 23.6048 37.8583 23.6048H37.669V22.8269H41.821V23.6048H41.4611C41.2354 23.6048 41.0417 23.6341 40.8797 23.6918C40.7181 23.7496 40.486 23.8681 40.1813 24.0482L39.072 24.7228L40.9118 25.8883C40.9374 25.9045 40.9605 25.9176 40.9819 25.9288C41.0033 25.94 41.0204 25.948 41.0267 25.9551C41.0545 25.9683 41.1268 26.0108 41.2439 26.0828C41.4824 26.2295 41.7295 26.3025 41.9847 26.3025H42.4062V27.0802H37.1026V26.3025C37.3838 26.2974 37.5241 26.2629 37.5241 26.1982C37.5241 26.1616 37.454 26.0969 37.3091 26.0047L36.7726 25.6584H36.6319L35.9804 26.0473C35.8868 26.1039 35.8402 26.1576 35.8402 26.2102C35.8402 26.2629 35.9848 26.2934 36.2745 26.3025V27.0802H31.801V26.3025H32.2118C32.461 26.3025 32.6718 26.2771 32.8402 26.2265C33.0082 26.1768 33.2467 26.0574 33.5532 25.8711L34.8416 25.0802L33.104 23.9754C33.0954 23.9693 33.0595 23.947 32.9954 23.9085C32.9317 23.8701 32.8655 23.8296 32.7996 23.787C32.7145 23.7272 32.6248 23.6816 32.5312 23.6503C32.4376 23.6199 32.2969 23.6048 32.1097 23.6048H31.7882V22.8269H36.8747Z" fill="white"/>
<path fill-rule="evenodd" clip-rule="evenodd" d="M27.6505 19.0387L27.6522 18.6803L28.4336 18.685C28.4336 18.6484 28.4382 18.3262 28.4382 18.3262L24.8471 18.3279C24.8471 18.2291 24.8471 18.1295 24.8471 18.0371H28.438L28.4402 16.2002L29.0707 16.6023L28.7356 17.1431L29.5754 17.7064L30.6092 16.0895L29.7928 15.4996L29.4527 16.0467L25.9924 14.339L18.0633 8.66816C18.1935 7.85536 17.1536 7.65416 16.955 8.5506C16.7072 9.66888 16.3243 11.5464 16.1185 12.4931L16.1859 12.5098L16.1877 13.5943L15.4307 13.594L15.4296 15.1681L17.0267 15.1686L17.0278 13.592L16.3162 13.5933L16.3159 12.5327L16.3841 12.5461L17.6325 9.57863L24.1059 18.3569L24.1025 19.0589L16.118 19.0523L16.1106 20.0332H31.7588V19.0431L27.6505 19.0387ZM22.2962 14.3624C20.8013 12.5846 19.4187 10.8045 17.9191 9.03078L17.9936 8.8438C18.6568 9.32364 25.6602 14.3565 25.6405 14.3624H22.2962ZM24.0983 16.575L22.5762 14.7006L25.9331 14.7127L28.045 15.9048L24.1019 15.918L24.0983 16.575Z" fill="white"/>
<path fill-rule="evenodd" clip-rule="evenodd" d="M23.5323 32.5274L22.907 32.5313C22.9124 32.4728 22.9261 32.3471 22.9379 32.2803L23.2412 32.2876C23.3244 32.0792 23.1416 31.036 22.9326 31.2696C22.4487 31.8101 22.4313 33.8997 22.9019 34.8039C23.1473 35.2753 23.3101 34.0118 23.2862 33.8208L22.9487 33.8102L22.9272 33.5695L23.5559 33.5736C23.5388 33.853 23.551 34.5745 23.2721 35.0465C23.1779 35.2059 23.0589 35.2875 22.863 35.2722C21.731 35.1839 22.0309 30.7298 22.8227 30.7201C23.391 30.7133 23.56 32.0773 23.5323 32.5274ZM29.2803 30.6968L32.9414 30.7159C32.1936 31.7621 31.3015 31.4055 30.1232 31.4055C29.9525 31.4055 30.0257 31.5991 30.1181 31.6007C30.5903 31.6536 31.0677 31.6161 31.545 31.6742C31.3359 32.5888 29.6926 32.3583 29.5138 32.148C29.4275 32.148 29.3869 32.243 29.4326 32.3169C29.6957 32.4395 30.116 32.5279 29.6629 32.7894C29.0975 32.9363 28.8848 32.9972 28.3459 32.8024C28.329 32.8351 28.263 32.8283 28.2593 32.9115C28.2447 33.2403 27.5279 33.7114 26.9241 33.3195C26.6455 33.635 25.6506 34.0711 25.3906 33.5307C27.0885 32.837 28.2958 32.3339 29.2803 30.6968ZM25.0401 33.0644C25.0401 32.9829 25.0148 32.8974 25.1062 32.8974C25.2078 32.8446 25.416 32.8974 25.4769 32.7918C25.5329 32.4862 25.427 31.7025 25.5175 31.4251C25.5402 31.3931 25.5707 31.3772 25.614 31.3776C26.0832 31.3776 26.3984 31.4304 26.6804 30.9712C26.7819 30.8657 26.8682 30.8815 27.0003 30.8657C27.4349 30.929 28.5 30.7915 28.6912 30.9184C28.7217 30.9871 28.6963 31.0926 28.6607 31.1559C28.3769 31.3871 27.9914 31.3905 27.6553 31.3406C27.569 31.3037 27.3506 31.1929 27.3659 31.367C27.4785 31.6012 27.8372 31.5795 28.0463 31.5992C28.0971 31.652 28.0412 31.8103 28.0057 31.8631C27.5795 32.306 27.4008 32.2005 26.8835 31.9792C26.8273 31.9583 26.7056 31.8921 26.6499 31.9211C26.6056 31.9672 26.6351 32.0401 26.6651 32.0847C26.7836 32.1903 27.1839 32.3394 27.1475 32.5016C27.051 32.6546 26.8124 32.718 26.6448 32.7549C26.3883 32.7307 26.3139 32.6134 26.1472 32.4278C25.8831 32.4278 26.0101 32.7813 26.0101 32.9449C25.8344 33.1373 25.1858 33.2455 25.0401 33.0644ZM25.2126 30.6887C25.4145 30.6856 25.7661 30.6797 25.9689 30.6854C26.2091 30.6921 26.2221 30.9906 26.0382 31.05C25.7892 31.1304 25.2552 30.9453 25.2484 31.3452C25.2586 31.7085 24.9441 31.7588 24.9322 31.4065C24.9279 31.2814 24.933 31.1091 24.958 30.9648C24.9919 30.7687 25.0308 30.6914 25.2126 30.6887ZM16.327 30.6968L12.6658 30.698C13.4137 31.7442 14.3058 31.3769 15.4841 31.3769C15.6548 31.3769 15.5678 31.5231 15.4891 31.5721C15.0169 31.6249 14.5396 31.6256 14.0622 31.6836C14.2713 32.5983 15.9146 32.3583 16.0934 32.148C16.1797 32.148 16.2204 32.243 16.1746 32.317C15.9116 32.4395 15.4913 32.5279 15.9444 32.7894C16.5098 32.9363 16.7224 32.9972 17.2613 32.8024C17.2782 32.8351 17.3443 32.8283 17.348 32.9116C17.3626 33.2403 18.0794 33.7114 18.6831 33.3195C18.9617 33.635 19.9567 34.0711 20.2167 33.5307C18.5188 32.837 17.3115 32.3339 16.327 30.6968ZM20.567 33.0644C20.567 32.9829 20.5925 32.8974 20.5011 32.8974C20.3995 32.8446 20.1913 32.8974 20.1304 32.7918C20.0743 32.4862 20.1803 31.7025 20.0897 31.4251C20.075 31.3969 20.0446 31.3811 19.9933 31.3776C19.5241 31.3776 19.2089 31.4304 18.9269 30.9712C18.8253 30.8657 18.739 30.8815 18.607 30.8657C18.1723 30.929 17.1073 30.7915 16.9161 30.9184C16.8856 30.9871 16.9109 31.0926 16.9465 31.1559C17.2304 31.3871 17.6159 31.3905 17.9519 31.3406C18.0382 31.3037 18.2566 31.1929 18.2414 31.367C18.1287 31.6012 17.77 31.5795 17.5609 31.5992C17.5102 31.652 17.566 31.8103 17.6016 31.8631C18.0277 32.306 18.2064 32.2005 18.7238 31.9792C18.7799 31.9583 18.9016 31.8921 18.9574 31.9211C19.0017 31.9672 18.9722 32.0401 18.9421 32.0847C18.8236 32.1903 18.4233 32.3394 18.4597 32.5016C18.5562 32.6546 18.7949 32.718 18.9624 32.7549C19.2189 32.7307 19.2933 32.6134 19.4601 32.4278C19.7241 32.4278 19.5972 32.7813 19.5972 32.9449C19.7728 33.1373 20.4215 33.2455 20.567 33.0644ZM20.2993 30.6887C20.0974 30.6856 19.7458 30.6797 19.5429 30.6854C19.3028 30.6921 19.2897 30.9906 19.4736 31.05C19.7227 31.1304 20.2566 30.9453 20.2635 31.3452C20.2533 31.7085 20.5678 31.7588 20.5797 31.4065C20.584 31.2814 20.5788 31.1091 20.5538 30.9648C20.52 30.7687 20.481 30.6914 20.2993 30.6887ZM24.5578 31.8156L24.8015 31.9158C24.705 32.0636 24.6086 32.2823 24.5172 32.4353L24.0391 32.4178C24.0097 31.7714 23.8211 30.9895 23.457 30.4995C23.0675 29.9756 22.5565 29.9838 22.1163 30.5128C21.6965 31.0172 21.5384 31.8525 21.4831 32.3994C21.3713 32.4047 21.2045 32.4244 21.0928 32.435C20.9962 32.282 20.9271 32.1006 20.8306 31.9475L21.0794 31.8578C21.0794 31.0477 21.2029 30.5641 20.7863 30.3811L11.6517 30.3686C12.5182 31.2289 13.107 31.7698 13.7913 31.8336C13.928 32.5591 14.7925 32.8413 15.4515 32.8413L15.4558 32.8422L15.5221 32.8555C16.0134 33.3993 16.508 33.4543 17.1223 33.3511C17.3937 33.7049 17.7236 33.896 18.1705 33.8977H18.1715C18.3861 33.8985 18.5806 33.841 18.7871 33.7874C19.3349 34.3586 20.2435 34.3565 20.574 33.5834L21.5173 33.5933C21.5511 34.2983 21.8235 35.894 22.7915 35.8945C23.767 35.8951 23.9723 34.3032 24.0113 33.5892L25.0662 33.5919C25.401 34.3324 26.342 34.3391 26.8384 33.7649C27.5661 33.9038 27.9514 33.8783 28.4833 33.3083C29.174 33.4693 29.5339 33.3594 30.0958 32.8175C30.8314 32.8232 31.3747 32.6512 31.7607 31.8753C32.6483 31.7053 33.1856 31.0149 33.771 30.3454L24.9518 30.3407C24.3566 30.3086 24.5666 31.3181 24.5578 31.8156ZM21.5249 30.4408C22.1126 29.2821 23.5362 29.3293 24.0667 30.4206C24.187 30.0334 24.4912 29.8087 24.9793 29.8036L35.047 29.8511C34.2066 30.7048 33.2814 32.0485 32.0892 32.3529C31.6868 33.0072 31.038 33.2433 30.3301 33.3299C30.0784 33.5657 29.7966 33.6924 29.5018 33.7611L29.5018 33.7614C29.2315 33.8244 28.9641 33.8365 28.701 33.8419C28.2033 34.3413 27.6829 34.4529 27.015 34.3415C26.3952 34.8463 25.2205 34.8738 24.7529 34.1284L24.4396 34.1278C24.3474 35.0449 23.8822 36.4323 22.7915 36.4318C21.6989 36.4313 21.1984 35.0426 21.1132 34.1262L20.8148 34.1666C20.3159 34.8277 19.2835 34.8473 18.6694 34.375C18.6689 34.3748 18.6685 34.3744 18.668 34.374C18.5048 34.4145 18.3373 34.435 18.1695 34.435C18.1697 34.435 18.1701 34.435 18.17 34.435C17.6733 34.4327 17.1478 34.214 16.8226 33.8548C16.2135 33.8395 15.7807 33.7639 15.294 33.3558C14.7129 33.24 13.7446 33.0246 13.4644 32.2948C12.0605 32.0326 11.4454 30.7769 10.5474 29.8298L20.4828 29.8141C21.2072 29.832 21.2695 30.1172 21.5249 30.4408Z" fill="white"/>
</svg>
