<svg width="46" height="46" viewBox="0 0 46 46" fill="none" xmlns="http://www.w3.org/2000/svg">
<path d="M11.4572 10.3266C11.4572 9.75408 11.5057 9.35257 11.6065 9.12208C11.6998 8.89158 11.879 8.74659 12.144 8.69455C12.3717 8.63878 12.7897 8.61276 13.4019 8.61276H13.973C14.5926 8.61276 15.0069 8.6425 15.2234 8.69455C15.4996 8.74288 15.6788 8.88786 15.7609 9.12208C15.8617 9.35257 15.9102 9.75408 15.9102 10.3266V10.7801C15.9102 11.3527 15.8617 11.7542 15.7609 11.9847C15.6713 12.204 15.4921 12.3453 15.2234 12.4048C15.0069 12.4605 14.5926 12.4865 13.973 12.4865H13.4019C12.7897 12.4865 12.3717 12.4605 12.1514 12.4048C11.879 12.3453 11.7035 12.204 11.6139 11.9847C11.558 11.8694 11.5169 11.7096 11.4945 11.5051C11.4684 11.3006 11.4572 11.059 11.4572 10.7801V10.3266ZM10.9197 12.059C11.0429 12.4865 11.2892 12.7802 11.6662 12.9401C11.9909 13.0925 12.5695 13.1706 13.4056 13.1706H13.9842C14.3462 13.1706 14.656 13.1557 14.9099 13.1297C15.1637 13.1037 15.3727 13.0628 15.5295 13.0145C15.5332 13.0145 15.5369 13.0145 15.5369 13.007C15.7348 12.9513 15.9027 12.8657 16.0334 12.7468C16.1677 12.6278 16.276 12.4865 16.3581 12.323C16.4365 12.1594 16.4925 11.9475 16.5298 11.6873C16.5634 11.4307 16.5821 11.1259 16.5821 10.7801C16.5821 10.3563 16.5709 10.0032 16.5485 9.7169C16.5261 9.43064 16.4962 9.2113 16.4589 9.05888C16.3357 8.62391 16.0931 8.3265 15.731 8.16664C15.369 8.00678 14.7829 7.92871 13.9842 7.92871H13.4056C12.6815 7.92871 12.1626 7.98076 11.8491 8.08485H11.8566C11.6587 8.14433 11.4908 8.23356 11.3527 8.35252C11.2146 8.47149 11.1026 8.61648 11.013 8.78377C10.9346 8.94735 10.8786 9.15925 10.8488 9.41949C10.8152 9.67972 10.8002 9.98085 10.8002 10.3266C10.8002 10.7504 10.8077 11.1036 10.8301 11.3898C10.8488 11.6761 10.8823 11.8992 10.9234 12.059" fill="white"/>
<path d="M21.2849 12.4124C21.087 12.4718 20.6914 12.5016 20.1016 12.5016H19.2655C18.7579 12.5016 18.4145 12.4644 18.2316 12.3938C18.0711 12.3492 17.9554 12.2636 17.8807 12.1335C17.8061 12.0034 17.765 11.851 17.7613 11.6688C17.7613 11.6205 17.7351 11.5945 17.6866 11.5945H17.1715C17.123 11.5945 17.0969 11.6205 17.0969 11.6688C17.1081 12.3157 17.3208 12.7395 17.7314 12.9365C18.0076 13.0927 18.5003 13.167 19.2058 13.167H20.1912C20.9527 13.167 21.4864 13.0964 21.7888 12.9514C22.2479 12.7469 22.4756 12.3008 22.4756 11.6093C22.4756 11.4346 22.4681 11.2859 22.4569 11.1632C22.442 11.0443 22.4159 10.9439 22.3785 10.8658C22.274 10.6836 22.1247 10.5424 21.9306 10.4383C22.1135 10.3565 22.2442 10.245 22.33 10.1074C22.3897 10.0182 22.4308 9.91409 22.4494 9.79513C22.4681 9.67616 22.4793 9.53117 22.4793 9.3676C22.4793 8.71329 22.233 8.2932 21.744 8.10731C21.6021 8.05898 21.4006 8.01809 21.1468 7.99207C20.8929 7.96604 20.5757 7.95117 20.1949 7.95117H19.2021C18.5339 7.95117 18.0449 8.0404 17.7351 8.21512C17.3096 8.45677 17.1006 8.8843 17.1006 9.494C17.1006 9.54233 17.1267 9.56835 17.1752 9.56835H17.6904C17.7389 9.56835 17.765 9.54233 17.765 9.494C17.7762 9.1148 17.9404 8.86571 18.2614 8.74303C18.4779 8.6724 18.8363 8.63522 19.3364 8.63522H20.0904C20.3704 8.63522 20.6093 8.63894 20.7996 8.64637C20.99 8.65381 21.1318 8.6724 21.2251 8.70214C21.423 8.74675 21.576 8.82482 21.6843 8.93635C21.7925 9.04788 21.8448 9.19287 21.8448 9.3676C21.8448 9.77282 21.6059 10.0851 21.046 10.0851H18.4369V10.7915H21.1654C21.6507 10.8956 21.8448 11.1707 21.8448 11.6093C21.8448 12.048 21.6581 12.3045 21.2886 12.4086" fill="white"/>
<path d="M23.1399 11.9102C23.1847 12.1369 23.2556 12.3265 23.3601 12.4827C23.4609 12.6388 23.5915 12.7689 23.7446 12.873C23.9163 12.9771 24.1328 13.0515 24.3941 13.0998C24.6553 13.1444 24.9689 13.1704 25.3347 13.1704H27.2122C27.8094 13.1704 28.2536 13.0738 28.5447 12.8805C28.8993 12.6277 29.0748 12.2224 29.0748 11.6685C29.0748 11.6536 29.0748 11.6425 29.0673 11.6351L29.0262 11.6016C29.0262 11.6016 29.0262 11.5942 29.0188 11.5942H28.4887C28.4402 11.5942 28.4141 11.6202 28.4141 11.6685V11.6945C28.4141 12.0328 28.3021 12.2596 28.0744 12.3637C27.8878 12.4567 27.5966 12.505 27.2047 12.505H25.275C24.5956 12.505 24.1589 12.3935 23.9685 12.1741C23.8901 12.0775 23.8304 11.9102 23.7894 11.6759C23.7483 11.4417 23.7259 11.1443 23.7259 10.78C23.7259 10.4454 23.7259 10.1666 23.7334 9.95096C23.7408 9.73533 23.752 9.57919 23.7744 9.48625C23.8342 9.14423 23.9723 8.91373 24.1813 8.78733C24.297 8.72785 24.4538 8.67952 24.6591 8.63863C24.8606 8.60145 25.1107 8.58286 25.4168 8.58286H27.2047C28.0035 8.58286 28.4066 8.85425 28.4066 9.39703V9.41562C28.4066 9.46395 28.4328 9.48997 28.4813 9.48997H29.0038C29.0486 9.48997 29.071 9.46395 29.071 9.41562V9.39703C29.071 8.89886 28.9143 8.52338 28.6045 8.27801C28.2909 8.02893 27.8281 7.90625 27.2085 7.90625H25.469C24.5434 7.90625 23.9088 8.06983 23.5729 8.4007H23.5803C23.2369 8.73529 23.069 9.371 23.069 10.3041C23.069 11.1071 23.0951 11.6425 23.1436 11.9139" fill="white"/>
<path d="M31.5981 37.3578H30.859V33.0267H27.8505V37.3578H26.1373V29.8035H28.0372V29.1381L26.141 27.9261H26.7681V26.0338H26.029V27.8555L25.3945 27.4465V21.5317H29.4182V20.7957H25.3945V19.6581H29.4182V18.922H25.3945V17.539H29.4182V16.8029H25.3945V14.814H31.5981V37.3652V37.3578ZM21.6469 25.5133L19.956 26.6435V16.1486L21.6581 15.4608L21.6469 25.5133ZM19.217 27.138L17.8994 28.019V16.9813L19.217 16.4497V27.138ZM35.2188 8.03296C35.2188 7.9772 35.1889 7.95117 35.1366 7.95117H34.3005L31.0793 10.0554H30.3327V8.03296C30.3327 7.9772 30.3066 7.95117 30.2581 7.95117H29.7355C29.687 7.95117 29.6609 7.98091 29.6609 8.03296V13.0964C29.6609 13.1447 29.687 13.1708 29.7355 13.1708H30.2581C30.3103 13.1708 30.3327 13.1447 30.3327 13.0964V10.6799H31.0942L34.42 13.3195V37.3578H32.3372V14.0704H24.6554V16.7992H23.0765V17.5353H24.6554V18.9182H23.0765V19.6543H24.6554V20.7919H23.0765V21.528H24.6554V26.9669L22.386 25.5059L22.3972 14.3604L10.7812 19.0632V19.8551L17.1566 17.2788V28.5098L15.5851 29.5767V30.127H17.3581V35.5138H15.1969V19.3272L10.785 21.0633V38.0939H23.3714V34.7517H22.6323V37.3541H11.524V21.5615L14.4542 20.409V36.2462H18.0935V29.3871H17.1678L22.0165 26.1491L26.5441 29.0637H25.3907V38.0864H25.4318V38.0939H28.5859V33.7628H30.1125V38.0939H35.159V13.0629H35.1553C35.1553 13.0629 35.159 13.0592 35.1628 13.0555L31.7213 10.3491L35.2113 8.07757C35.2113 8.07757 35.2188 8.04783 35.2188 8.03668" fill="white"/>
<path d="M19.9559 30.5205H19.2169V32.4128H19.9559V30.5205Z" fill="white"/>
<path d="M22.5577 30.5205H21.8186V32.4128H22.5577V30.5205Z" fill="white"/>
<path d="M29.3288 22.7432H28.5898V24.6354H29.3288V22.7432Z" fill="white"/>
<path d="M29.3288 26.1377H28.5898V28.03H29.3288V26.1377Z" fill="white"/>
<path d="M29.3288 29.5801H28.5898V31.4724H29.3288V29.5801Z" fill="white"/>
<path d="M26.7678 22.7432H26.0287V24.6354H26.7678V22.7432Z" fill="white"/>
</svg>
