<svg width="24" height="24" viewBox="0 0 24 24" fill="none" xmlns="http://www.w3.org/2000/svg">
<path d="M17.2055 15.2304C16.5521 14.5853 15.7363 14.5853 15.0871 15.2304C14.5918 15.7215 14.0965 16.2126 13.6096 16.712C13.4764 16.8493 13.364 16.8785 13.2017 16.7869C12.8812 16.6121 12.54 16.4706 12.232 16.2792C10.7961 15.3761 9.59334 14.2149 8.52789 12.9081C7.99933 12.2589 7.52903 11.5638 7.20024 10.7814C7.13365 10.6233 7.14613 10.5192 7.27515 10.3902C7.77042 9.9116 8.2532 9.42051 8.74015 8.92941C9.41854 8.24688 9.41854 7.44781 8.73598 6.76111C8.34893 6.3699 7.96187 5.98701 7.57481 5.5958C7.17527 5.19627 6.77988 4.79257 6.37618 4.3972C5.72276 3.76045 4.90702 3.76045 4.25777 4.40136C3.75834 4.89246 3.27972 5.39604 2.77196 5.87881C2.30167 6.32412 2.06444 6.86932 2.01449 7.50607C1.93542 8.54236 2.18929 9.52039 2.54722 10.4734C3.27972 12.4461 4.39511 14.1983 5.74773 15.8047C7.57481 17.9772 9.75565 19.696 12.3069 20.9362C13.4556 21.4939 14.6459 21.9226 15.9403 21.9933C16.8309 22.0433 17.605 21.8185 18.2251 21.1235C18.6497 20.6491 19.1283 20.2162 19.5778 19.7626C20.2437 19.0884 20.2478 18.2727 19.5861 17.6068C18.7953 16.8119 18.0004 16.0211 17.2055 15.2304ZM16.4106 11.9134L17.9463 11.6512C17.7049 10.2404 17.039 8.96271 16.0277 7.94722C14.958 6.87764 13.6054 6.20343 12.1155 5.99534L11.899 7.53937C13.0519 7.70168 14.1007 8.2219 14.9289 9.0501C15.7113 9.83252 16.2233 10.823 16.4106 11.9134ZM18.812 5.23789C17.039 3.46496 14.7957 2.34543 12.3194 2L12.103 3.54403C14.2422 3.84368 16.1816 4.81338 17.7132 6.34077C19.1657 7.79324 20.1188 9.6286 20.4643 11.6471L22 11.3849C21.5963 9.04594 20.4934 6.92342 18.812 5.23789Z" fill="white"/>
</svg>
