<svg width="24" height="24" viewBox="0 0 24 24" fill="none" xmlns="http://www.w3.org/2000/svg">
<g id="Website" clip-path="url(#clip0_6034_8476)">
<path id="Vector (Stroke)" fill-rule="evenodd" clip-rule="evenodd" d="M2 9.73988C1.83636 10.467 1.75 11.2234 1.75 12C1.75 13.136 1.93479 14.2288 2.27596 15.25H6.46473C6.32451 14.2157 6.25 13.1247 6.25 12C6.25 11.2318 6.28476 10.4794 6.35147 9.75H2V9.73988ZM2.45766 8.25H6.53832C6.79825 6.61459 7.22498 5.13623 7.78169 3.91147C8.04673 3.32839 8.35317 2.77962 8.69899 2.29315C5.84471 3.26351 3.55597 5.45743 2.45766 8.25ZM12 0.25C5.51065 0.25 0.25 5.51065 0.25 12C0.25 18.4893 5.51065 23.75 12 23.75V22.25C11.0942 22.25 10.0292 21.4081 9.14724 19.4678C8.7914 18.685 8.48887 17.768 8.25728 16.75H11V15.25H7.97943C7.83107 14.2308 7.75 13.1389 7.75 12C7.75 11.2256 7.78749 10.4729 7.85812 9.75H16.1419C16.2125 10.4729 16.25 11.2256 16.25 12H17.75C17.75 11.2318 17.7152 10.4794 17.6485 9.75H22V9.73988C22.1636 10.467 22.25 11.2234 22.25 12H23.75C23.75 5.51065 18.4893 0.25 12 0.25ZM12 1.75C11.0942 1.75 10.0292 2.59193 9.14724 4.53218C8.67833 5.56379 8.30201 6.82819 8.05857 8.25H15.9414C15.698 6.82819 15.3217 5.56379 14.8528 4.53218C13.9708 2.59193 12.9058 1.75 12 1.75ZM17.4617 8.25C17.2017 6.61459 16.775 5.13623 16.2183 3.91147C15.9533 3.32839 15.6468 2.77962 15.301 2.29315C18.1553 3.26351 20.444 5.45743 21.5423 8.25H17.4617ZM6.72199 16.75H2.91469C4.12629 19.0627 6.19502 20.8556 8.69899 21.7069C8.35317 21.2204 8.04673 20.6716 7.78169 20.0885C7.34087 19.1187 6.98154 17.9899 6.72199 16.75ZM12.1402 13.7214C11.8145 12.7442 12.7442 11.8145 13.7214 12.1402L22.1317 14.9437C23.2221 15.3072 23.2853 16.8257 22.2288 17.2785L18.7636 18.7636L17.2785 22.2288C16.8257 23.2853 15.3072 23.2221 14.9437 22.1317L12.1402 13.7214ZM13.7214 13.7214L16.1588 21.0335L17.4242 18.0808C17.5507 17.7858 17.7858 17.5507 18.0808 17.4242L21.0335 16.1588L13.7214 13.7214Z" fill="#F6F6F6"/>
</g>
<defs>
<clipPath id="clip0_6034_8476">
<rect width="24" height="24" fill="white"/>
</clipPath>
</defs>
</svg>
