<svg width="66" height="66" viewBox="0 0 66 66" fill="none" xmlns="http://www.w3.org/2000/svg">
<rect x="18.75" y="3" width="9.75" height="54" fill="#0076BF"/>
<rect x="33.75" y="13.5" width="6.75" height="43.5" fill="#0076BF"/>
<rect x="45" y="33" width="5.25" height="24" fill="#0076BF"/>
<path d="M4.5 3.75H23.25" stroke="#0076BF" stroke-width="1.5" stroke-linecap="round" stroke-linejoin="round"/>
<path d="M4.5 11.25H23.25" stroke="#0076BF" stroke-width="1.5" stroke-linecap="round" stroke-linejoin="round"/>
<path d="M4.5 18.75H23.25" stroke="#0076BF" stroke-width="1.5" stroke-linecap="round" stroke-linejoin="round"/>
<path d="M4.5 26.25H23.25" stroke="#0076BF" stroke-width="1.5" stroke-linecap="round" stroke-linejoin="round"/>
<path d="M4.5 33.75H23.25" stroke="#0076BF" stroke-width="1.5" stroke-linecap="round" stroke-linejoin="round"/>
<path d="M4.5 41.25H23.25" stroke="#0076BF" stroke-width="1.5" stroke-linecap="round" stroke-linejoin="round"/>
<path d="M4.5 48.75H23.25" stroke="#0076BF" stroke-width="1.5" stroke-linecap="round" stroke-linejoin="round"/>
<path d="M4.5 56.25H23.25" stroke="#0076BF" stroke-width="1.5" stroke-linecap="round" stroke-linejoin="round"/>
<path d="M30 14.25H37.5" stroke="#0076BF" stroke-width="1.5" stroke-linecap="round" stroke-linejoin="round"/>
<path d="M30 20.25H37.5" stroke="#0076BF" stroke-width="1.5" stroke-linecap="round" stroke-linejoin="round"/>
<path d="M30 26.25H37.5" stroke="#0076BF" stroke-width="1.5" stroke-linecap="round" stroke-linejoin="round"/>
<path d="M30 32.25H37.5" stroke="#0076BF" stroke-width="1.5" stroke-linecap="round" stroke-linejoin="round"/>
<path d="M30 38.25H37.5" stroke="#0076BF" stroke-width="1.5" stroke-linecap="round" stroke-linejoin="round"/>
<path d="M30 44.25H37.5" stroke="#0076BF" stroke-width="1.5" stroke-linecap="round" stroke-linejoin="round"/>
<path d="M30 50.25H37.5" stroke="#0076BF" stroke-width="1.5" stroke-linecap="round" stroke-linejoin="round"/>
<path d="M30 56.25H37.5" stroke="#0076BF" stroke-width="1.5" stroke-linecap="round" stroke-linejoin="round"/>
<path d="M42 33.75H47.25" stroke="#0076BF" stroke-width="1.5" stroke-linecap="round" stroke-linejoin="round"/>
<path d="M42 38.25H47.25" stroke="#0076BF" stroke-width="1.5" stroke-linecap="round" stroke-linejoin="round"/>
<path d="M42 42.75H47.25" stroke="#0076BF" stroke-width="1.5" stroke-linecap="round" stroke-linejoin="round"/>
<path d="M42 47.25H47.25" stroke="#0076BF" stroke-width="1.5" stroke-linecap="round" stroke-linejoin="round"/>
<path d="M42 51.75H47.25" stroke="#0076BF" stroke-width="1.5" stroke-linecap="round" stroke-linejoin="round"/>
<path d="M42 56.25H47.25" stroke="#0076BF" stroke-width="1.5" stroke-linecap="round" stroke-linejoin="round"/>
<path d="M3 63H15.5M19.6667 63H43M47.25 63H61.5" stroke="#0076BF" stroke-width="1.5" stroke-linecap="round" stroke-linejoin="round"/>
<ellipse cx="57.75" cy="45.375" rx="3.75" ry="6.375" fill="#0076BF"/>
<path d="M57.75 48V57" stroke="#0076BF" stroke-width="1.5" stroke-linecap="round" stroke-linejoin="round"/>
</svg>
