<svg width="66" height="66" viewBox="0 0 66 66" fill="none" xmlns="http://www.w3.org/2000/svg">
<path d="M10.5 12.75H14.2629C15.569 12.75 16.725 13.595 17.1214 14.8395L24.9189 39.3209C25.7117 41.8099 28.0237 43.5 30.6359 43.5H51" stroke="#0076BF" stroke-width="1.5" stroke-linecap="round" stroke-linejoin="round"/>
<circle cx="29.25" cy="49.5" r="4.5" fill="#0076BF"/>
<path d="M52.8105 30.666C52.1572 33.356 49.7486 35.2499 46.9805 35.25H23.6025L22.0342 30H52.9727L52.8105 30.666ZM53.3359 28.5H21.5859L20.0166 23.25H54.6113L53.3359 28.5ZM54.3418 16.5C55.3133 16.5 56.0288 17.4094 55.7998 18.3535L54.9756 21.75H19.5684L18 16.5H54.3418Z" fill="#0076BF"/>
<circle cx="46.5" cy="49.5" r="4.5" fill="#0076BF"/>
<path d="M3 63H15.5M19.6667 63H43M47.25 63H61.5" stroke="#0076BF" stroke-width="1.5" stroke-linecap="round" stroke-linejoin="round"/>
<path d="M49.5 59.25H37M32.8333 59.25H9.5" stroke="#0076BF" stroke-width="1.5" stroke-linecap="round" stroke-linejoin="round"/>
</svg>
