<svg width="66" height="66" viewBox="0 0 66 66" fill="none" xmlns="http://www.w3.org/2000/svg">
<rect x="56.25" y="20.25" width="3" height="6.75" rx="0.75" fill="#0076BF"/>
<rect width="3" height="6.75" rx="0.75" transform="matrix(-1 0 0 1 9.75 20.25)" fill="#0076BF"/>
<path d="M54 17.25H57C57.4142 17.25 57.75 17.5858 57.75 18V20.25" stroke="#0076BF" stroke-width="1.5"/>
<path d="M12 17.25H9C8.58579 17.25 8.25 17.5858 8.25 18V21" stroke="#0076BF" stroke-width="1.5"/>
<path d="M32.9932 3C40.0575 3 46.6276 3.35974 50.6572 3.63867C52.9739 3.79904 54.7373 5.73439 54.7373 8.05664V51.7021C54.7373 52.5306 54.0657 53.2021 53.2373 53.2021H52.7607V54.9004C52.7606 55.7286 52.089 56.4003 51.2607 56.4004H48.3301C47.502 56.4002 46.8303 55.7285 46.8301 54.9004V53.2021H19.1572V54.9004C19.157 55.7285 18.4853 56.4002 17.6572 56.4004H14.7266C13.8983 56.4003 13.2268 55.7286 13.2266 54.9004V53.2021H12.75C11.9216 53.2021 11.25 52.5306 11.25 51.7021V8.05664C11.25 5.73439 13.0134 3.79904 15.3301 3.63867C19.3596 3.35974 25.9291 3.00002 32.9932 3ZM28.4502 48.4648C27.7322 48.4648 27.1504 49.0323 27.1504 49.7324C27.1504 50.4325 27.7322 51 28.4502 51H37.5498C38.2678 51 38.8496 50.4325 38.8496 49.7324C38.8496 49.0323 38.2678 48.4648 37.5498 48.4648H28.4502ZM20.6504 43.3945C19.5734 43.3945 18.7002 44.2458 18.7002 45.2959C18.7003 46.346 19.5735 47.1973 20.6504 47.1973C21.7271 47.1971 22.5995 46.3458 22.5996 45.2959C22.5996 44.2459 21.7272 43.3947 20.6504 43.3945ZM45.3496 43.3945C44.2728 43.3947 43.4004 44.2459 43.4004 45.2959C43.4005 46.3458 44.2729 47.1971 45.3496 47.1973C46.4265 47.1973 47.2997 46.346 47.2998 45.2959C47.2998 44.2458 46.4266 43.3945 45.3496 43.3945ZM15.4502 42.7607C14.3732 42.7607 13.5 43.612 13.5 44.6621C13.5001 45.7122 14.3733 46.5635 15.4502 46.5635C16.527 46.5634 17.4003 45.7121 17.4004 44.6621C17.4004 43.6121 16.5271 42.7608 15.4502 42.7607ZM50.5498 42.7607C49.4729 42.7608 48.5996 43.6121 48.5996 44.6621C48.5997 45.7121 49.473 46.5634 50.5498 46.5635C51.6267 46.5635 52.4999 45.7122 52.5 44.6621C52.5 43.612 51.6268 42.7607 50.5498 42.7607ZM14.0498 13.6055C13.332 13.6056 12.7501 14.1731 12.75 14.873V35.9648C12.7501 36.5922 13.2172 37.1212 13.8564 37.1924C16.2155 37.4552 23.0966 38.0068 33 38.0068C42.9034 38.0068 49.7845 37.4552 52.1436 37.1924C52.7828 37.1212 53.2499 36.5922 53.25 35.9648V14.873C53.2499 14.1731 52.668 13.6056 51.9502 13.6055H14.0498ZM19.3496 6C18.6318 6.00021 18.0498 6.56764 18.0498 7.26758V10.4365C18.0498 11.1365 18.6318 11.7039 19.3496 11.7041H46.6504C47.3682 11.7039 47.9502 11.1365 47.9502 10.4365V7.26758C47.9502 6.56764 47.3682 6.00021 46.6504 6H19.3496Z" fill="#0076BF"/>
<path d="M15.5 59.25H28.8333M33.8333 59.25H48M52.1667 59.25H63M3 63H15.5M19.6667 63H43" stroke="#0076BF" stroke-width="1.5" stroke-linecap="round" stroke-linejoin="round"/>
</svg>
