<svg width="66" height="66" viewBox="0 0 66 66" fill="none" xmlns="http://www.w3.org/2000/svg">
<path d="M3 63H15.5M19.6667 63H43M47.25 63H61.5" stroke="#0076BF" stroke-width="1.5" stroke-linecap="round" stroke-linejoin="round"/>
<path d="M12 19.5L9.75 55.5H25.5L22.5 19.5H12Z" fill="#0076BF"/>
<path d="M56.25 55.5V27.75L45.75 33V27.75L35.25 33V27.75L24 33.75" stroke="#0076BF" stroke-width="1.5" stroke-linecap="round" stroke-linejoin="round"/>
<rect x="3" y="53.25" width="60" height="3" rx="1.5" fill="#0076BF"/>
<path d="M15.75 17.25C15.75 13.5221 18.6997 10.5 22.3382 10.5C24.5798 10.5 26.5599 11.647 27.75 13.3993" stroke="#0076BF" stroke-width="1.5" stroke-linecap="round" stroke-linejoin="round"/>
<path d="M24 10.5C24 6.77208 26.9497 3.75 30.5882 3.75C32.8298 3.75 34.8099 4.89697 36 6.64935" stroke="#0076BF" stroke-width="1.5" stroke-linecap="round" stroke-linejoin="round"/>
<path d="M31.5 37.5C31.5 44.25 36.75 43.5 36.75 49.5" stroke="#0076BF" stroke-width="1.5" stroke-linecap="round" stroke-linejoin="round"/>
<path d="M36.75 37.5C36.75 44.25 42 43.5 42 49.5" stroke="#0076BF" stroke-width="1.5" stroke-linecap="round" stroke-linejoin="round"/>
<path d="M42 37.5C42 44.25 47.25 43.5 47.25 49.5" stroke="#0076BF" stroke-width="1.5" stroke-linecap="round" stroke-linejoin="round"/>
<path d="M49.5 59.25H37M32.8333 59.25H9.5" stroke="#0076BF" stroke-width="1.5" stroke-linecap="round" stroke-linejoin="round"/>
</svg>
