<svg width="66" height="66" viewBox="0 0 66 66" fill="none" xmlns="http://www.w3.org/2000/svg">
<path d="M61.5 63H49M44.8333 63H21.5M17.25 63H3" stroke="#0076BF" stroke-width="1.5" stroke-linecap="round" stroke-linejoin="round"/>
<path d="M40.5 57H35.25V47.25C35.25 43.5221 32.2279 40.5 28.5 40.5C24.7721 40.5 21.75 43.5221 21.75 47.25V57H16.5V38.25H40.5V57Z" fill="#0076BF"/>
<path d="M28.5 3L39 17.25H18L28.5 3Z" fill="#0076BF"/>
<path d="M15.75 18.75V25.5H41.25V18.75H38.25V20.25H34.5V18.75H30.75V20.25H27V18.75H23.25V20.25H19.5V18.75H15.75Z" fill="#0076BF"/>
<path d="M40.5 38.6257V39.622C40.5 40.1953 40.6643 40.7566 40.9734 41.2394L50.1774 55.6174C50.7289 56.4789 51.6813 57 52.7041 57H57.75C58.9926 57 60 55.9926 60 54.75C60 53.5074 58.9926 52.5 57.75 52.5H56.7666C55.7438 52.5 54.7914 51.9789 54.2399 51.1174L45.3371 37.2101C44.8545 36.4561 44.0209 36 43.1257 36C41.6756 36 40.5 37.1756 40.5 38.6257Z" fill="#0076BF"/>
<rect x="18.75" y="25.5" width="1.5" height="12.75" fill="#0076BF"/>
<rect x="36.75" y="25.5" width="1.5" height="12.75" fill="#0076BF"/>
<path d="M16.5 39H13.5C10.1863 39 7.5 41.6863 7.5 45V57" stroke="#0076BF" stroke-width="1.5"/>
<path d="M15 59.25H27.5M31.6667 59.25H55" stroke="#0076BF" stroke-width="1.5" stroke-linecap="round" stroke-linejoin="round"/>
</svg>
