<svg width="96" height="96" viewBox="0 0 96 96" fill="none" xmlns="http://www.w3.org/2000/svg">
<path d="M85.7344 47.8873H89.934V45.4283H81.8576L75.5592 41.4324H89.9339V38.9734H71.6827L65.8687 35.2845H89.934V32.8262H60.7481L32.7422 50.5925V87.2078L6.00131 87.1968L6 89.6559L89.9109 89.6904L90 50.593L85.7344 47.8873ZM76.013 67.2517V82.0059H74.2372V77.0878H71.7782V72.1698H55.1804V77.0878H51.4912V82.0059H49.0329V87.2149L46.602 87.2135V67.2517H76.013ZM63.7866 74.6288H69.3191V77.0878H63.7866V74.6288ZM69.9343 82.0059H66.2456V79.5469H71.7782V82.0059H69.9343ZM60.0983 79.5469H63.7864V82.0059H60.0983V79.5469ZM63.7864 84.4648H67.4754V86.9238H63.7866L63.7864 84.4648ZM61.3275 77.0878H57.6393V74.6288H61.3275V77.0878ZM57.6393 82.0059H53.9505V79.5469H57.6393V82.0059ZM55.1804 84.4648V86.9238H51.4912V84.4648H55.1804ZM57.6393 84.4648H61.3275V87.2199L57.6393 87.218V84.4648ZM69.9343 84.4648H76.013V87.2257L69.9345 87.2232L69.9343 84.4648ZM78.4721 87.227V67.2517H80.9997V64.7928H41.656V67.2517H44.1432V87.2129L35.2012 87.2091V84.4647H41.656V82.0057H35.2012V51.9445L61.3704 35.3434L80.9997 47.7954V47.8871H81.1439L87.5378 51.9432L87.4692 82.0057H80.9997V84.4647H87.4634L87.457 87.2301L78.4721 87.227Z" fill="white"/>
<path d="M42.8795 61.1067H79.764V51.2706H42.8795V61.1067ZM66.2398 58.6477H62.5517V53.7297H66.2398V58.6477ZM68.6988 53.7297H72.3877V58.6477H68.6988V53.7297ZM60.0926 58.6477H56.4038V53.7297H60.0926V58.6477ZM53.9448 58.6477H50.2567V53.7297H53.9448V58.6477ZM77.3057 58.6477H74.8467V53.7297H77.3057V58.6477ZM45.3384 53.7297H47.7976V58.6477H45.3384V53.7297ZM37.9615 54.9589H40.4205V57.4179H37.9615V54.9589ZM82.2231 54.9589H84.6821V57.4179H82.2231V54.9589ZM61.3217 48.8116C64.034 48.8116 66.2398 46.605 66.2398 43.8935C66.2398 41.1816 64.034 38.9756 61.3217 38.9756C58.6103 38.9756 56.4038 41.1814 56.4038 43.8935C56.4038 46.6052 58.6103 48.8116 61.3217 48.8116ZM61.3217 41.4346C62.6779 41.4346 63.7809 42.5376 63.7809 43.8935C63.7809 45.2495 62.6779 46.3527 61.3217 46.3527C59.9664 46.3527 58.8628 45.2497 58.8628 43.8935C58.8628 42.5374 59.9664 41.4346 61.3217 41.4346ZM33.3927 21.731L37.154 24.2389L43.9677 18.0742H46.8754V15.6152H43.0206L36.9245 21.1305L33.3094 18.7204L27.6953 22.9309L29.1707 24.8977L33.3927 21.731ZM49.3343 15.6152H51.7933V18.0742H49.3343V15.6152Z" fill="white"/>
<path d="M30.8988 31.6006H56.7181V10.6994H30.8988V5.78125H6.30859V47.5839H30.8988V31.6006ZM54.2591 29.1416H25.9805V13.1583H54.259L54.2591 29.1416ZM28.4398 8.24022V10.6994H23.5217V18.0761H16.1446V20.5354H23.5217V22.9944H16.1446V25.4533H23.5217V27.9125H16.1446V30.3714H23.5217V31.6006H28.4398V38.9777H8.76756V13.1583H14.9155V10.6994H8.76756V8.24022H28.4398ZM8.76756 45.1247V41.4366H28.4398V45.1247H8.76756ZM28.1322 64.797H30.5912V67.256H28.1322V64.797ZM23.2141 64.797H25.6731V67.256H23.2141V64.797ZM18.2966 64.797H20.7558V67.256H18.2966V64.797ZM20.7558 54.9609H18.2966V57.5814C18.2963 57.8646 18.1836 58.1361 17.9834 58.3364C17.7831 58.5366 17.5116 58.6493 17.2284 58.6497H12.7635C10.391 58.6497 8.4606 60.5801 8.4606 62.9526C8.4606 65.3258 10.391 67.256 12.7635 67.256H15.8377V64.797H12.7635C11.7469 64.797 10.9196 63.9696 10.9196 62.9526C10.9196 61.9361 11.7469 61.1087 12.7635 61.1087H17.2284C19.1734 61.1087 20.7558 59.5265 20.7558 57.5814V54.9609ZM18.2966 50.0428H20.7558V52.5018H18.2966V50.0428Z" fill="white"/>
<path d="M17.3743 10.6953H19.8334V13.1543H17.3741L17.3743 10.6953ZM11.2266 18.0722H13.6855V20.5314H11.2266V18.0722ZM11.2266 22.9903H13.6855V25.4493H11.2266V22.9903ZM11.2266 27.9084H13.6855V30.3674H11.2266V27.9084ZM11.2266 32.8264H13.6855V35.2847H11.2266V32.8264ZM16.1445 32.8264H25.9805V35.2847H16.1445V32.8264ZM43.1938 24.2195H51.7999V26.6784H43.1938V24.2195Z" fill="white"/>
</svg>
