<svg width="66" height="66" viewBox="0 0 66 66" fill="none" xmlns="http://www.w3.org/2000/svg">
<path d="M3 45.75L7.48131 47.9907C9.38162 48.9408 11.6184 48.9408 13.5187 47.9907L14.9813 47.2593C16.8816 46.3092 19.1184 46.3092 21.0187 47.2593L22.4813 47.9907C24.3816 48.9408 26.6184 48.9408 28.5187 47.9907L29.9813 47.2593C31.8816 46.3092 34.1184 46.3092 36.0187 47.2593L37.4813 47.9907C39.3816 48.9408 41.6184 48.9408 43.5187 47.9907L44.9813 47.2593C46.8816 46.3092 49.1184 46.3092 51.0187 47.2593L52.4813 47.9907C54.3816 48.9408 56.6184 48.9408 58.5187 47.9907L63 45.75" stroke="#0076BF" stroke-width="1.5" stroke-linecap="round" stroke-linejoin="round"/>
<path d="M8.25 54.375L8.98131 54.7407C10.8816 55.6908 13.1184 55.6908 15.0187 54.7407L16.4813 54.0093C18.3816 53.0592 20.6184 53.0592 22.5187 54.0093L23.9813 54.7407C25.8816 55.6908 28.1184 55.6908 30.0187 54.7407L31.4813 54.0093C33.3816 53.0592 35.6184 53.0592 37.5187 54.0093L38.9813 54.7407C40.8816 55.6908 43.1184 55.6908 45.0187 54.7407L46.4813 54.0093C48.3816 53.0592 50.6184 53.0592 52.5187 54.0093L53.9813 54.7407C55.8816 55.6908 58.1184 55.6908 60.0187 54.7407L60.75 54.375" stroke="#0076BF" stroke-width="1.5" stroke-linecap="round" stroke-linejoin="round"/>
<path d="M21 61.125L21.7313 61.4907C23.6316 62.4408 25.8684 62.4408 27.7687 61.4907L29.2313 60.7593C31.1316 59.8092 33.3684 59.8092 35.2687 60.7593L36.7313 61.4907C38.6316 62.4408 40.8684 62.4408 42.7687 61.4907L43.5 61.125" stroke="#0076BF" stroke-width="1.5" stroke-linecap="round" stroke-linejoin="round"/>
<path d="M3 40.5H19.6667H40M44.25 40.5H61.5" stroke="#0076BF" stroke-width="1.5" stroke-linecap="round" stroke-linejoin="round"/>
<path d="M63 23.4375C63 27.0619 60.1458 30 56.625 30C53.1042 30 50.25 27.0619 50.25 23.4375C50.25 19.8131 53.1042 16.875 56.625 16.875C60.1458 16.875 63 19.8131 63 23.4375Z" fill="#0076BF"/>
<path d="M61.7857 17.1875C61.7857 20.1215 59.4752 22.5 56.625 22.5C53.7748 22.5 51.4643 20.1215 51.4643 17.1875C51.4643 14.2535 53.7748 11.875 56.625 11.875C59.4752 11.875 61.7857 14.2535 61.7857 17.1875Z" fill="#0076BF"/>
<path d="M61.1786 12.1875C61.1786 14.7763 59.1399 16.875 56.625 16.875C54.1101 16.875 52.0714 14.7763 52.0714 12.1875C52.0714 9.59867 54.1101 7.5 56.625 7.5C59.1399 7.5 61.1786 9.59867 61.1786 12.1875Z" fill="#0076BF"/>
<circle cx="10.5" cy="15" r="7.5" stroke="#0076BF" stroke-width="1.5" stroke-linecap="round" stroke-linejoin="round"/>
<path d="M10.5 40.5V20.25M10.5 13.5V18M10.5 20.25L7.5 17.25M10.5 20.25V18M10.5 18L12.75 15.75" stroke="#0076BF" stroke-width="1.5" stroke-linecap="round" stroke-linejoin="round"/>
<path d="M24.75 40.5V29.25M24.75 24V29.25M24.75 29.25L21.75 26.25M24.75 29.25L27.75 26.25" stroke="#0076BF" stroke-width="1.5" stroke-linecap="round" stroke-linejoin="round"/>
<path d="M56.25 40.5V29.25M56.25 23.25V29.25M56.25 29.25L52.5 25.5M56.25 29.25L60 25.5" stroke="#0076BF" stroke-width="1.5" stroke-linecap="round" stroke-linejoin="round"/>
<path d="M47.25 40.5V29.25M47.25 25.5V29.25M47.25 29.25L45 27M47.25 29.25L49.5 27" stroke="#0076BF" stroke-width="1.5" stroke-linecap="round" stroke-linejoin="round"/>
<ellipse cx="24.75" cy="25.5" rx="6" ry="9.75" fill="#0076BF"/>
<path d="M41.6875 19.02C41.6256 19.02 41.5641 19.0216 41.503 19.0249M54 28.5C54 30.75 51.711 32.25 49.8125 32.25C48.8275 32.25 47.9392 31.8324 47.3125 31.1632C46.6858 31.8324 45.7975 32.25 44.8125 32.25C43.239 32.25 41.9125 31.1844 41.5044 29.73C40.4375 29.73 38.25 29.415 38.25 26.265C38.25 25.5677 38.4543 24.9186 38.8059 24.375C38.4543 23.8314 38.25 23.1823 38.25 22.485C38.25 20.6337 39.6903 19.1215 41.503 19.0249M53.25 19.965C53.25 18.0513 51.711 16.5 49.8125 16.5C48.8275 16.5 47.9392 16.9176 47.3125 17.5868C46.6858 16.9176 45.7975 16.5 44.8125 16.5C43.2373 16.5 41.9095 17.568 41.503 19.0249" stroke="#0076BF" stroke-width="1.5" stroke-linecap="round" stroke-linejoin="round"/>
</svg>
