<svg width="81" height="52" viewBox="0 0 81 52" fill="none" xmlns="http://www.w3.org/2000/svg">
<g clip-path="url(#clip0_7601_8572)">
<path d="M26.2961 40.6307C25.6972 40.2645 25.0455 40.0825 24.3366 40.0825C23.7484 40.0825 23.2045 40.2116 22.6988 40.4719C22.1973 40.7365 21.808 41.0751 21.5456 41.4942H21.463V40.2645H19.4316V52.0001H21.5752V47.7101H21.6598C21.9138 48.0868 22.2841 48.3937 22.7708 48.6328C23.2574 48.872 23.778 48.9884 24.3345 48.9884C25.0434 48.9884 25.6951 48.8064 26.294 48.4403C26.8928 48.0762 27.3689 47.5577 27.7223 46.8805C28.0778 46.2032 28.2555 45.4222 28.2555 44.5355C28.2555 43.6487 28.0778 42.8825 27.7223 42.2011C27.3689 41.5175 26.8928 40.9926 26.294 40.6307M25.7734 45.9132C25.5914 46.3027 25.329 46.5969 24.9863 46.8043C24.6413 47.0074 24.2499 47.1111 23.8034 47.1111C23.3569 47.1111 22.9548 47.0074 22.6184 46.7979C22.2798 46.5842 22.0238 46.2879 21.846 45.9069C21.6683 45.5259 21.5794 45.0667 21.5794 44.5355C21.5794 44.0042 21.6683 43.5598 21.846 43.1746C22.0238 42.7852 22.2798 42.491 22.6184 42.2836C22.957 42.0762 23.3527 41.9767 23.8034 41.9767C24.2541 41.9767 24.6413 42.0762 24.9863 42.2751C25.329 42.4741 25.5914 42.7661 25.7734 43.1556C25.9554 43.5429 26.0485 44.0042 26.0485 44.5355C26.0485 45.0667 25.9554 45.5259 25.7734 45.9132Z" fill="white"/>
<path d="M35.2366 45.103H35.1519L32.346 40.2649H29.9189V48.8068H32.0456V43.2067H32.1281L34.4896 47.194H35.8862L38.2435 43.2067H38.326V48.8068H40.4378V40.2649H38.0763L35.2366 45.103Z" fill="white"/>
<path d="M44.8223 46.1316H44.7397V40.2649H42.6152V48.8068H45.1714L48.6946 42.957H48.7793V48.8068H50.9059V40.2649H48.3455L44.8223 46.1316Z" fill="white"/>
<path d="M58.9314 43.0501L55.2092 44.1824V40.2649H53.0635V48.8068H55.2092V45.7274L58.9314 45.0459V48.8068H61.0581V40.2649H58.9314V43.0501Z" fill="white"/>
<path d="M69.0254 40.5206C68.4562 40.2286 67.76 40.0825 66.9368 40.0825C66.228 40.0825 65.5931 40.201 65.0282 40.4381C64.4632 40.6751 64.0125 41.0159 63.6739 41.454C63.3353 41.8921 63.1407 42.4021 63.0835 42.9884H65.2588C65.3371 42.6349 65.5254 42.3577 65.8259 42.1587C66.1243 41.9598 66.4946 41.8603 66.9368 41.8603C67.4616 41.8603 67.87 41.9915 68.1705 42.2582C68.4688 42.5249 68.6191 42.9164 68.6191 43.437V43.7376H65.9444C65.2673 43.7376 64.6875 43.8476 64.2071 44.0677C63.7268 44.2921 63.3565 44.5947 63.1026 44.9841C62.8465 45.3714 62.7217 45.8222 62.7217 46.3302C62.7217 46.8381 62.8508 47.2805 63.111 47.6847C63.3713 48.091 63.731 48.4085 64.1839 48.6392C64.6388 48.8741 65.153 48.9884 65.7286 48.9884C66.3486 48.9884 66.9284 48.8572 67.4637 48.5884C68.0012 48.3238 68.3969 47.9789 68.6529 47.5577H68.7355V48.8043H70.7626V43.5683C70.7626 42.8741 70.6166 42.2645 70.3246 41.7418C70.0284 41.2212 69.5988 40.8148 69.0275 40.5206M68.3355 46.1376C68.1472 46.4762 67.8785 46.7408 67.5314 46.9291C67.1823 47.1175 66.7908 47.2106 66.3592 47.2106C65.8809 47.2106 65.5254 47.1175 65.2863 46.9355C65.0472 46.7535 64.9308 46.5122 64.9308 46.2117C64.9308 45.9111 65.0451 45.6741 65.2736 45.4984C65.4979 45.3207 65.8407 45.2318 66.2957 45.2318H68.6106C68.5789 45.564 68.49 45.8667 68.3355 46.1376Z" fill="white"/>
<path d="M74.1334 40.2649L73.7674 45.6512C73.7356 46.1401 73.6171 46.4893 73.4182 46.7052C73.2235 46.9189 72.9273 47.029 72.5379 47.029H72.4385V49.0247H72.8871C73.5325 49.0247 74.0594 48.9147 74.4762 48.7009C74.8889 48.4829 75.202 48.1422 75.4136 47.6681C75.6231 47.1983 75.7585 46.5739 75.8136 45.8014L76.059 42.1612H78.8734V48.8089H81V40.2649H74.1355H74.1334Z" fill="white"/>
<path d="M15.5462 40.6455C14.8691 40.2709 14.1116 40.0825 13.2694 40.0825C12.4272 40.0825 11.6591 40.2751 10.9692 40.6624C10.2752 41.0497 9.72501 41.5852 9.32296 42.2645C8.91668 42.9481 8.71777 43.7037 8.71777 44.5333C8.71777 45.363 8.91668 46.1185 9.32296 46.7958C9.72501 47.4688 10.2731 48.0043 10.9692 48.3979C11.6612 48.7895 12.4272 48.9863 13.2694 48.9863C13.9994 48.9863 14.6617 48.8551 15.2542 48.5863C15.8488 48.3239 16.3398 47.9619 16.7333 47.5133C17.129 47.0646 17.4062 46.5693 17.5734 46.0275H15.3643C15.1654 46.3937 14.8903 46.6688 14.5411 46.8572C14.192 47.0455 13.773 47.1387 13.2842 47.1387C12.7954 47.1387 12.3912 47.035 12.0315 46.8254C11.6718 46.6159 11.3946 46.309 11.202 45.909C11.0941 45.691 11.02 45.454 10.9735 45.1958H17.7554V44.7111C17.7554 43.782 17.5565 42.9651 17.1566 42.2603C16.7566 41.5577 16.2234 41.0159 15.5462 40.6391M11.0158 43.6698C11.0623 43.4921 11.1216 43.3249 11.202 43.164C11.3946 42.7725 11.6718 42.4656 12.0315 42.2518C12.3912 42.0339 12.8123 41.928 13.2842 41.928C13.7074 41.928 14.0862 42.0169 14.4247 42.2032C14.7633 42.3852 15.0384 42.6413 15.2479 42.9757C15.3833 43.1852 15.4828 43.418 15.5462 43.6698H11.0158Z" fill="white"/>
<path d="M0 42.8107L2.89905 42.4107V48.8066H5.01938V42.1166L7.92055 41.7166V39.579L0 41.2785V42.8107Z" fill="white"/>
<path d="M25.3789 20.2632L32.781 18.3158V29.8947H25.3789V20.2632Z" fill="#0076BF"/>
<path d="M55.4102 0V7.45054L25.3789 18.1053V0H55.4102Z" fill="#0076BF"/>
<path d="M36.376 17.3789L55.4099 12.421V29.8947H36.376V17.3789Z" fill="#0076BF"/>
</g>
<defs>
<clipPath id="clip0_7601_8572">
<rect width="81" height="52" fill="white"/>
</clipPath>
</defs>
</svg>
