<svg width="191" height="32" viewBox="0 0 191 32" fill="none" xmlns="http://www.w3.org/2000/svg">
<path d="M93.5676 12.7832C92.9509 11.5775 92.1156 10.6543 91.0682 10.0169C90.0208 9.36971 88.8821 9.05103 87.6389 9.05103C86.6111 9.05103 85.6583 9.27772 84.7708 9.73438C83.8931 10.1976 83.2111 10.7956 82.7511 11.5348H82.6075V9.36971H79.0542V30.0413H82.8065V22.4849H82.9566C83.4004 23.1486 84.0464 23.6907 84.9013 24.1112C85.7562 24.5317 86.6665 24.7387 87.6389 24.7387C88.8788 24.7387 90.0208 24.42 91.0682 23.7728C92.1156 23.1322 92.9509 22.2155 93.5676 21.0229C94.1908 19.8303 94.5008 18.4571 94.5008 16.8932C94.5008 15.3294 94.1875 13.9824 93.5676 12.7832ZM90.1546 19.3211C89.8381 20.0045 89.3748 20.5268 88.7776 20.8915C88.174 21.2496 87.4888 21.4303 86.709 21.4303C85.9291 21.4303 85.2243 21.2496 84.6338 20.8784C84.0432 20.5006 83.5929 19.9815 83.2829 19.308C82.9697 18.6378 82.8163 17.8263 82.8163 16.8932C82.8163 15.9602 82.9729 15.175 83.2829 14.4949C83.5962 13.8115 84.0432 13.2892 84.6338 12.9278C85.2243 12.5631 85.9161 12.389 86.709 12.389C87.5018 12.389 88.174 12.5631 88.7776 12.9146C89.3748 13.2662 89.8381 13.782 90.1546 14.4653C90.4711 15.1487 90.6342 15.9602 90.6342 16.8932C90.6342 17.8263 90.4711 18.6378 90.1546 19.3211Z" fill="white"/>
<path d="M111.68 9.36963L106.714 17.8886H106.564L101.653 9.36963H97.408V24.4167H101.128V14.5507H101.271L105.402 21.5748H107.846L111.974 14.5507H112.114V24.4167H115.811V9.36963H111.68Z" fill="white"/>
<path d="M129.645 9.36963L123.482 19.7021H123.338V9.36963H119.618V24.4167H124.092L130.255 14.1137H130.406V24.4167H134.129V9.36963H129.645Z" fill="white"/>
<path d="M168.099 11.9712C167.58 11.0546 166.826 10.3384 165.831 9.8193C164.833 9.3035 163.619 9.04724 162.18 9.04724C160.94 9.04724 159.831 9.25422 158.839 9.67475C157.847 10.0953 157.064 10.6899 156.47 11.462C155.876 12.2341 155.537 13.131 155.435 14.1659H159.243C159.38 13.5449 159.71 13.0554 160.235 12.7039C160.757 12.3523 161.407 12.1782 162.18 12.1782C163.097 12.1782 163.811 12.4115 164.337 12.8813C164.859 13.3511 165.123 14.041 165.123 14.9576V15.4866H160.444C159.26 15.4866 158.245 15.6804 157.403 16.0714C156.561 16.4656 155.912 17.0011 155.471 17.6845C155.021 18.3679 154.806 19.1596 154.806 20.0565C154.806 20.9534 155.031 21.7321 155.484 22.4417C155.941 23.1579 156.568 23.7164 157.361 24.1238C158.16 24.5378 159.057 24.7382 160.065 24.7382C161.149 24.7382 162.167 24.5049 163.1 24.0351C164.04 23.5719 164.731 22.9608 165.182 22.2216H165.325V24.4162H168.872V15.1909C168.872 13.9687 168.618 12.8944 168.105 11.9712M164.62 19.7149C164.291 20.3095 163.821 20.776 163.211 21.1079C162.601 21.4397 161.916 21.604 161.162 21.604C160.326 21.604 159.703 21.4397 159.286 21.121C158.868 20.8023 158.662 20.3752 158.662 19.8463C158.662 19.3173 158.861 18.9001 159.26 18.5913C159.651 18.2759 160.251 18.1215 161.048 18.1215H165.097C165.041 18.7062 164.885 19.2385 164.617 19.7149" fill="white"/>
<path d="M174.768 9.36963L174.125 18.8578C174.07 19.7186 173.864 20.3329 173.515 20.714C173.172 21.0919 172.654 21.2857 171.975 21.2857H171.799V24.801H172.585C173.714 24.801 174.634 24.6072 175.365 24.2294C176.09 23.845 176.638 23.2438 177.003 22.4093C177.372 21.5814 177.607 20.4841 177.701 19.1206L178.132 12.7076H183.056V24.4167H186.776V9.36963H174.765H174.768Z" fill="white"/>
<path d="M76.124 17.2114C76.124 15.572 75.7749 14.1363 75.0766 12.8944C74.3784 11.6591 73.4452 10.7031 72.2608 10.0394C71.0763 9.37906 69.7483 9.04724 68.2768 9.04724C66.8052 9.04724 65.4609 9.38564 64.2503 10.069C63.0365 10.7524 62.0772 11.6953 61.3725 12.8944C60.6611 14.1002 60.312 15.4307 60.312 16.8927C60.312 18.3547 60.6611 19.6853 61.3725 20.8779C62.0772 22.0639 63.0365 23.0068 64.2503 23.7033C65.4609 24.3932 66.7987 24.7382 68.2768 24.7382C69.5558 24.7382 70.7141 24.5049 71.7485 24.0351C72.7893 23.5719 73.6507 22.9378 74.336 22.146C75.0277 21.3543 75.5139 20.4836 75.8075 19.5309H71.9442C71.5951 20.1781 71.1155 20.661 70.5053 20.9929C69.8952 21.3247 69.1577 21.489 68.3061 21.489C67.4545 21.489 66.7432 21.3083 66.1134 20.937C65.4837 20.5658 64.9975 20.027 64.6615 19.3239C64.4755 18.9395 64.345 18.519 64.2634 18.0689H76.1306V17.2147L76.124 17.2114ZM64.3352 15.3683C64.4167 15.0562 64.5212 14.7605 64.6582 14.478C64.9943 13.788 65.4804 13.2492 66.1102 12.8714C66.7399 12.487 67.4741 12.2998 68.3029 12.2998C69.0435 12.2998 69.7059 12.4575 70.2965 12.7827C70.8871 13.1014 71.3667 13.5548 71.7354 14.1429C71.9736 14.5141 72.1465 14.9215 72.2608 15.365H64.3352V15.3683Z" fill="white"/>
<path d="M58.9156 8.16321L45.0613 11.1562V13.8535L50.1351 13.1471V24.416H53.8417V12.6313L58.9156 11.925V8.16321Z" fill="white"/>
<path d="M148.169 9.36963V14.3831L141.656 16.2328V9.36963H137.904V24.4134H141.656V19.183L148.169 17.9839V24.4134H151.889V9.36963H148.169Z" fill="white"/>
<path d="M0 21.6816L7.83674 19.5918V32H0V21.6816Z" fill="#0076BF"/>
<path d="M32 0V8.06413L0 19.5918V0H32Z" fill="#0076BF"/>
<path d="M11.7551 18.6697L32 13.3877V31.9999H11.7551V18.6697Z" fill="#0076BF"/>
</svg>
