<svg width="64" height="64" viewBox="0 0 64 64" fill="none" xmlns="http://www.w3.org/2000/svg">
<g id="Logo">
<path d="M0 32C0 14.3269 14.3269 0 32 0C49.6731 0 64 14.3269 64 32C64 49.6731 49.6731 64 32 64C14.3269 64 0 49.6731 0 32Z" fill="#003F86"/>
<g id="Logo_2">
<path id="path4" fill-rule="evenodd" clip-rule="evenodd" d="M10.552 41.6705L10.3734 41.2896L10.7732 41.087L10.7848 41.1117L11.3701 42.3586L10.9702 42.5614L10.7914 42.1804L9.52469 42.8225L9.51318 42.7977L9.28556 42.3127L10.552 41.6705ZM11.7335 43.0773L11.7475 43.1009L12.1616 43.7895C12.2664 43.9638 12.3087 44.1174 12.289 44.2507C12.2689 44.3836 12.2245 44.4931 12.1555 44.5788C12.1306 44.6104 12.104 44.6385 12.0762 44.663C12.0483 44.6876 12.0208 44.7086 11.9939 44.7261C11.9669 44.7437 11.9368 44.7602 11.9032 44.7753C11.8697 44.7906 11.8338 44.8031 11.796 44.8123C11.6921 44.8408 11.578 44.8351 11.4528 44.7951C11.3277 44.7551 11.2127 44.6481 11.108 44.4736L10.969 44.2427L10.4503 44.5796L10.4361 44.5562L10.161 44.0985L11.7335 43.0773ZM11.315 44.018L11.3796 44.1253C11.42 44.1923 11.4599 44.2342 11.4995 44.2518C11.5392 44.2693 11.5743 44.2757 11.6047 44.2712C11.6251 44.2667 11.643 44.2603 11.6591 44.2521C11.675 44.2441 11.6874 44.2371 11.6965 44.2312C11.7053 44.2255 11.7139 44.2191 11.7225 44.2126C11.7312 44.2059 11.7393 44.1988 11.7475 44.1915C11.7742 44.1633 11.7915 44.1252 11.7987 44.0768C11.8062 44.029 11.7872 43.9665 11.7414 43.8903L11.6768 43.7831L11.315 44.018ZM13.2815 45.4922L13.2977 45.5141L13.6858 46.0302L12.629 47.7545L12.6127 47.7329L12.2704 47.2773L12.4608 46.9897L12.0891 46.4952L11.7729 46.6156L11.7566 46.5939L11.4143 46.1383L13.2815 45.4922ZM12.4744 46.3187L12.719 46.6443L13.1121 46.0629L12.4744 46.3187ZM14.5927 47.1962L14.6109 47.2163L14.9652 47.6111L14.4769 48.0841L14.8887 48.543L15.377 48.07L15.3949 48.0902L15.749 48.4845L14.393 49.7989L14.3749 49.7788L14.0208 49.3842L14.5633 48.8585L14.1514 48.3996L13.609 48.9251L13.5908 48.905L13.2368 48.5103L14.5927 47.1962ZM16.3314 51.4454C16.2871 51.4396 16.2459 51.4304 16.2074 51.4174C16.169 51.4048 16.1324 51.3896 16.0974 51.3727C16.0521 51.3512 16.0106 51.3265 15.9721 51.298C15.934 51.2694 15.8981 51.2403 15.8648 51.2102L15.8431 51.1943C15.6472 51.0146 15.5353 50.7944 15.5078 50.5336C15.4802 50.273 15.5677 50.0212 15.7706 49.779C15.9825 49.5253 16.2159 49.4 16.4707 49.403C16.7257 49.4059 16.9434 49.4888 17.1231 49.6514L17.1431 49.6692C17.1673 49.6912 17.1907 49.7148 17.2138 49.7404C17.2367 49.7661 17.2593 49.7937 17.2811 49.8234C17.3142 49.8677 17.3435 49.9159 17.3688 49.9682C17.3945 50.0203 17.4146 50.0752 17.4299 50.1324L17.0769 50.5543L17.0569 50.5362C17.0569 50.5192 17.0564 50.5006 17.0551 50.4798C17.0535 50.4589 17.0515 50.4365 17.0485 50.4121C17.0413 50.3593 17.0254 50.302 17.0002 50.2407C16.9756 50.1795 16.9359 50.123 16.881 50.0709C16.7693 49.975 16.6484 49.9404 16.5182 49.9675C16.3882 49.9946 16.2765 50.0634 16.1838 50.1741C16.0795 50.299 16.0337 50.426 16.046 50.555C16.0587 50.6841 16.111 50.793 16.2033 50.8812C16.2763 50.9423 16.3529 50.9814 16.4336 50.9981C16.5143 51.015 16.5888 51.0205 16.6571 51.0141L16.677 51.0322L16.3314 51.4454ZM18.2404 50.6153L18.2617 50.6316L19.5991 51.6412L18.509 53.2002L18.4878 53.1839L18.0677 52.8669L18.896 51.682L18.4204 51.3228L17.5921 52.5077L17.5706 52.4914L17.1503 52.1743L18.2404 50.6153ZM20.2583 54.2556C19.9686 54.1023 19.7932 53.8947 19.731 53.6334C19.6689 53.372 19.6973 53.1202 19.8158 52.8782C19.9337 52.6377 20.1116 52.4657 20.3496 52.362C20.5879 52.2584 20.8539 52.2846 21.1482 52.4405L21.1718 52.453C21.4663 52.6087 21.6428 52.8172 21.702 53.0782C21.7616 53.3395 21.7321 53.5901 21.6142 53.8304C21.4957 54.0725 21.318 54.2441 21.0809 54.3451C20.844 54.4464 20.5784 54.4198 20.2832 54.2657L20.2583 54.2556ZM20.4699 53.8484C20.4856 53.8568 20.5026 53.8643 20.5213 53.8711C20.5398 53.8777 20.5591 53.8824 20.5797 53.8851C20.6656 53.9036 20.7579 53.8926 20.8567 53.8509C20.9551 53.8094 21.041 53.7142 21.114 53.5654C21.1868 53.4167 21.2101 53.2883 21.1838 53.1807C21.1573 53.0728 21.1122 52.9887 21.0487 52.9284C21.0337 52.9145 21.019 52.9013 21.004 52.8893C20.9891 52.8773 20.9736 52.8669 20.958 52.8587C20.9408 52.8495 20.9218 52.8417 20.9014 52.8351C20.8807 52.828 20.8601 52.8236 20.8399 52.8209C20.7561 52.8055 20.6658 52.8191 20.5688 52.8613C20.4716 52.9036 20.3875 52.9977 20.3161 53.143C20.2447 53.2886 20.2211 53.4146 20.2451 53.5211C20.2694 53.6275 20.312 53.7114 20.3732 53.7726C20.3873 53.7882 20.4025 53.8026 20.4192 53.8156C20.4356 53.8283 20.4525 53.8391 20.4699 53.8484ZM22.8594 53.3512L22.8839 53.3616L23.6083 53.6657C23.792 53.7427 23.913 53.8412 23.9721 53.9611C24.0313 54.081 24.0572 54.1967 24.0499 54.3083C24.0476 54.3489 24.042 54.3877 24.0333 54.4244C24.0247 54.4617 24.0143 54.4954 24.0025 54.526C23.9905 54.5567 23.9756 54.5884 23.9569 54.6212C23.9386 54.6542 23.9166 54.686 23.8912 54.7168C23.8235 54.803 23.7275 54.8683 23.6038 54.9123C23.48 54.9564 23.3263 54.9399 23.1429 54.8629L22.8999 54.7609L22.6708 55.3505L22.6463 55.3402L22.1646 55.1381L22.8594 53.3512ZM23.0527 54.3677L23.1657 54.4153C23.2361 54.4448 23.2924 54.4544 23.3343 54.4443C23.3765 54.4344 23.4084 54.4179 23.4303 54.3957C23.4442 54.3797 23.4553 54.3635 23.4635 54.3473C23.4718 54.3307 23.478 54.3176 23.4818 54.3074C23.486 54.2973 23.4893 54.2869 23.4925 54.2763C23.4957 54.2657 23.4984 54.2551 23.5009 54.2443C23.5065 54.2049 23.4988 54.1635 23.4775 54.1201C23.4564 54.0766 23.4059 54.0379 23.3254 54.0042L23.2126 53.9566L23.0527 54.3677ZM25.1681 54.6683L24.7759 54.5515L24.8988 54.1069L24.9242 54.1147L26.2074 54.497L26.0847 54.9416L25.6926 54.8248L25.3043 56.2325L25.2787 56.225L24.7796 56.0761L25.1681 54.6683ZM27.0006 54.6738L27.0266 54.6789L27.5364 54.7818L27.409 55.4629L28.0018 55.5826L28.1292 54.9018L28.1552 54.907L28.6648 55.0099L28.311 56.9013L28.2849 56.8961L27.7753 56.7932L27.917 56.0365L27.3242 55.9168L27.1826 56.6735L27.1565 56.6683L26.6467 56.5651L27.0006 54.6738ZM30.3515 57.1529C30.0278 57.1234 29.7902 56.9993 29.6384 56.7811C29.4865 56.563 29.4221 56.3184 29.4448 56.0478C29.4675 55.7792 29.5704 55.5503 29.7538 55.3616C29.9371 55.1727 30.1935 55.0935 30.5224 55.1234L30.549 55.1258C30.8778 55.1557 31.1168 55.2801 31.2659 55.4989C31.415 55.718 31.4783 55.962 31.4556 56.2306C31.4329 56.5013 31.3298 56.7295 31.1466 56.9156C30.9635 57.1015 30.7074 57.1804 30.3783 57.1524L30.3515 57.1529ZM30.4009 56.6928C30.4186 56.6944 30.437 56.6949 30.4566 56.6939C30.4764 56.6928 30.4959 56.6897 30.5161 56.6839C30.6024 56.6677 30.684 56.6216 30.7604 56.5446C30.8368 56.4677 30.8821 56.3461 30.8962 56.1796C30.91 56.0133 30.8854 55.8851 30.8221 55.7959C30.7588 55.7061 30.6868 55.6456 30.6061 55.6145C30.587 55.6072 30.5687 55.6008 30.5505 55.5957C30.5324 55.5902 30.5145 55.5867 30.4968 55.585C30.4775 55.5833 30.4571 55.5833 30.4359 55.5852C30.4143 55.5867 30.3935 55.5906 30.3737 55.596C30.2906 55.6142 30.2116 55.662 30.1369 55.7388C30.062 55.8161 30.0179 55.9359 30.0043 56.0985C29.9904 56.261 30.014 56.3871 30.0747 56.4766C30.1354 56.5659 30.2051 56.6271 30.2842 56.6601C30.3028 56.669 30.3221 56.6766 30.342 56.6817C30.3619 56.6874 30.3817 56.6912 30.4009 56.6928ZM32.3637 55.2059L32.3902 55.205L33.502 55.1647L33.5177 55.6268L32.9247 55.6483L32.9338 55.9178L33.4713 55.8985L33.4853 56.3221L32.9481 56.3416L32.9585 56.6497L33.5513 56.6283L33.5667 57.0904L33.5404 57.0914L32.4285 57.1317L32.3637 55.2059ZM37.8669 56.3324L37.8415 56.3399L37.271 56.5099L37.6543 55.3418L36.8236 54.6386L36.8491 54.6311L37.4474 54.4528L37.8309 54.8537L37.9517 54.3024L37.9771 54.2949L38.5424 54.1265L38.2199 55.1446L39.1479 55.9507L39.1223 55.9583L38.5341 56.1335L38.0479 55.6398L37.8669 56.3324ZM40.9142 55.3642C40.6129 55.4906 40.347 55.4924 40.1165 55.3696C39.8857 55.2466 39.7216 55.0593 39.6237 54.8075C39.5265 54.5574 39.5183 54.305 39.5992 54.0502C39.6799 53.7955 39.8737 53.6038 40.1799 53.4754L40.2044 53.465C40.5107 53.3364 40.7779 53.3345 41.0065 53.4593C41.2352 53.584 41.3979 53.7715 41.4951 54.0216C41.5931 54.2734 41.601 54.5255 41.5189 54.7776C41.4371 55.0299 41.2433 55.2209 40.9377 55.3512L40.9142 55.3642ZM40.7573 54.9309C40.7739 54.9241 40.7904 54.9159 40.8074 54.9057C40.8244 54.8954 40.8405 54.8834 40.8559 54.869C40.9259 54.8136 40.9783 54.7341 41.013 54.6294C41.0475 54.5248 41.0345 54.395 40.9745 54.2403C40.9142 54.0855 40.8361 53.983 40.7408 53.9331C40.6451 53.8832 40.5545 53.8633 40.469 53.8735C40.449 53.8761 40.4297 53.8789 40.4114 53.8829C40.3925 53.8867 40.3751 53.8921 40.3588 53.899C40.3409 53.9064 40.3227 53.9161 40.3047 53.9279C40.2861 53.9395 40.2693 53.9526 40.2538 53.9667C40.1877 54.0224 40.1383 54.102 40.1054 54.2058C40.0723 54.3098 40.0854 54.4374 40.1441 54.589C40.2031 54.7401 40.279 54.8415 40.3721 54.8925C40.4654 54.9435 40.5542 54.9649 40.639 54.9572C40.6594 54.9564 40.68 54.9538 40.7002 54.9491C40.7202 54.9449 40.7394 54.9385 40.7573 54.9309ZM42.7115 53.1724C42.7915 53.13 42.843 53.0869 42.865 53.0433C42.8873 52.9996 42.896 52.9607 42.8908 52.9262C42.8892 52.9148 42.8865 52.9036 42.8824 52.8935C42.8786 52.8834 42.8742 52.8741 42.8701 52.8659C42.8445 52.8137 42.8044 52.783 42.7494 52.7741C42.6944 52.7649 42.6319 52.7781 42.5619 52.8132C42.517 52.8388 42.4785 52.8681 42.4458 52.9008C42.4132 52.9334 42.3837 52.9692 42.3572 53.008C42.3463 53.0219 42.3361 53.0365 42.3268 53.0518C42.3173 53.0671 42.308 53.0834 42.2987 53.1008L42.2751 53.1134L41.9497 52.8622C41.9601 52.8464 41.9734 52.8264 41.9902 52.8021C42.007 52.7778 42.0274 52.7512 42.0507 52.722C42.0913 52.6716 42.1426 52.6184 42.2039 52.5621C42.2658 52.506 42.3404 52.4544 42.4286 52.4078L42.4521 52.3953C42.6442 52.2935 42.8205 52.2584 42.9817 52.2895C43.1426 52.3208 43.257 52.4059 43.3253 52.5446C43.3686 52.6332 43.3826 52.7253 43.3675 52.8219C43.3523 52.9185 43.3113 53.0033 43.2437 53.0759L43.2473 53.0834C43.2562 53.0808 43.2648 53.0794 43.2734 53.0786C43.2823 53.0785 43.2913 53.0777 43.3006 53.0768C43.3795 53.0681 43.4611 53.0799 43.5457 53.1123C43.63 53.1451 43.6998 53.2177 43.7551 53.3305C43.8376 53.4989 43.8358 53.6627 43.7492 53.8216C43.6628 53.9809 43.5289 54.1083 43.348 54.2042L43.3255 54.2193C43.2761 54.2433 43.2283 54.2643 43.1827 54.2824C43.1372 54.3004 43.0902 54.315 43.0422 54.326C42.9774 54.3396 42.9062 54.3451 42.8282 54.3418C42.7505 54.339 42.6585 54.3274 42.5515 54.3077L42.5864 53.8877L42.6099 53.8751C42.6591 53.8902 42.7092 53.9008 42.7607 53.9064C42.8121 53.9123 42.8618 53.9138 42.9098 53.9109C42.9441 53.9074 42.9769 53.9018 43.0086 53.8942C43.0406 53.8864 43.0705 53.8763 43.098 53.8638C43.1648 53.8264 43.2083 53.7858 43.2286 53.7421C43.249 53.6985 43.2569 53.6582 43.2526 53.6212C43.2526 53.6089 43.2505 53.5972 43.2469 53.5856C43.2435 53.5743 43.2391 53.5635 43.2344 53.5536C43.2104 53.5048 43.1707 53.4726 43.1156 53.4574C43.0608 53.4424 42.9821 53.4617 42.8797 53.5159L42.6179 53.6546L42.4495 53.3112L42.7115 53.1724ZM44.8021 52.3998C44.7853 52.4066 44.7681 52.4129 44.7512 52.4191C44.7341 52.4255 44.7148 52.4299 44.6936 52.4335C44.6096 52.4507 44.5181 52.4431 44.4188 52.4104C44.3196 52.3779 44.23 52.2977 44.1502 52.1701C44.0346 51.9854 44.0031 51.8134 44.0552 51.6547C44.1076 51.4956 44.2137 51.3623 44.3739 51.2542L44.3961 51.2393L45.0336 50.809L46.0434 52.4252L46.0214 52.44L45.5857 52.734L45.2426 52.1845L45.2249 52.1965L45.2505 52.9602L45.2283 52.9752L44.7617 53.2902L44.8021 52.3998ZM44.798 51.4733L44.7003 51.5392C44.6899 51.5463 44.6754 51.5572 44.6573 51.5718C44.6391 51.5861 44.6214 51.6033 44.6046 51.6238C44.5818 51.6544 44.5666 51.6917 44.5589 51.735C44.5512 51.7783 44.5648 51.8278 44.5993 51.8831C44.6407 51.9493 44.6847 51.9854 44.7314 51.9911C44.7783 51.9967 44.8225 51.9909 44.8643 51.9734C44.8785 51.966 44.8923 51.9586 44.9053 51.9507C44.9184 51.9432 44.9308 51.9352 44.9426 51.9272L45.0406 51.8613L44.798 51.4733ZM46.1406 49.9246L46.8445 50.7661L46.6624 49.4532L46.6826 49.4351L47.0661 49.0884L48.2827 50.5427L48.2628 50.5609L47.8849 50.902L47.1828 50.0627L47.3713 51.3661L47.3513 51.3842L46.9592 51.7383L45.7428 50.2841L45.7628 50.266L46.1406 49.9246ZM45.909 49.4334L45.9289 49.4153C45.9633 49.4401 45.9958 49.4537 46.0257 49.4556C46.0556 49.4579 46.0828 49.4539 46.1073 49.4441C46.1239 49.4386 46.139 49.4316 46.1529 49.4229C46.1665 49.4144 46.1783 49.4056 46.1873 49.3972C46.1968 49.3887 46.2066 49.3781 46.2168 49.3651C46.227 49.3522 46.2358 49.3376 46.2431 49.3213C46.256 49.2976 46.2637 49.27 46.2656 49.2389C46.2678 49.208 46.2594 49.1727 46.2408 49.1336L46.2608 49.1157L46.5618 48.9969C46.5965 49.1114 46.5929 49.2193 46.5503 49.3211C46.5076 49.4226 46.4453 49.511 46.3626 49.5854L46.3426 49.6035C46.2506 49.6867 46.1522 49.7398 46.0472 49.7626C45.9425 49.7856 45.8448 49.7736 45.7542 49.7265L45.909 49.4334ZM50.0282 48.6516C50.0209 48.6973 50.0104 48.7399 49.9968 48.7796C49.9833 48.8188 49.9674 48.8563 49.9499 48.8921C49.9277 48.9383 49.9023 48.9807 49.8735 49.0196C49.845 49.0582 49.8155 49.0943 49.7853 49.128L49.7695 49.1498C49.5898 49.3472 49.3742 49.4556 49.1223 49.4751C48.8707 49.4947 48.6318 49.3951 48.4058 49.176C48.1694 48.947 48.057 48.7001 48.0687 48.4356C48.0805 48.1708 48.1678 47.9477 48.3301 47.7666L48.3482 47.7465C48.37 47.7223 48.3936 47.6987 48.419 47.6756C48.4446 47.6528 48.4718 47.6302 48.5013 47.6087C48.545 47.5758 48.5924 47.547 48.6436 47.5225C48.6946 47.4978 48.7479 47.4787 48.8037 47.4651L49.1969 47.8462L49.179 47.8665C49.1625 47.8657 49.1445 47.8657 49.1246 47.8663C49.1044 47.8672 49.0827 47.8686 49.0591 47.8708C49.0081 47.8764 48.9526 47.891 48.8927 47.9148C48.8329 47.9384 48.7771 47.9777 48.7254 48.0328C48.6291 48.1454 48.5917 48.2698 48.6133 48.406C48.6348 48.5421 48.6971 48.6604 48.8002 48.7605C48.9165 48.8731 49.0371 48.9254 49.1618 48.9169C49.2862 48.9084 49.3928 48.8578 49.481 48.7649C49.5422 48.6912 49.5823 48.613 49.6013 48.5299C49.6203 48.4467 49.6282 48.3694 49.6245 48.2984L49.6425 48.278L50.0282 48.6516ZM49.8305 46.7748L49.5793 47.1088L49.2289 46.824L49.2452 46.8024L50.0669 45.7091L50.4176 45.9939L50.1667 46.328L51.2771 47.2294L51.2608 47.2512L50.941 47.6766L49.8305 46.7748ZM51.0559 44.2532C51.1447 44.1053 51.235 44.014 51.3272 43.9783C51.4192 43.943 51.5027 43.9343 51.5773 43.9524C51.6121 43.96 51.6439 43.9704 51.6725 43.9833C51.7008 43.9965 51.7264 44.0104 51.7491 44.025C51.83 44.0776 51.8835 44.1478 51.91 44.2351C51.9365 44.3228 51.9411 44.4086 51.9238 44.4926L51.9283 44.4954C51.9442 44.4797 51.9644 44.4615 51.9893 44.441C52.0143 44.4201 52.0435 44.4012 52.0766 44.384C52.1342 44.3541 52.2024 44.3362 52.2808 44.3298C52.3595 44.3235 52.4454 44.3506 52.5384 44.4109C52.5472 44.4168 52.5558 44.4228 52.5635 44.429C52.571 44.4351 52.5794 44.441 52.5885 44.4469C52.678 44.5199 52.7381 44.624 52.7693 44.7591C52.8006 44.8943 52.7625 45.0512 52.6549 45.23L52.6408 45.2535L52.1383 46.0893L50.5658 45.0681L50.5799 45.0448L51.0559 44.2532ZM52.2253 45.2175C52.2328 45.2048 52.2423 45.1883 52.2537 45.1675C52.265 45.1468 52.2747 45.1252 52.2822 45.1016C52.2954 45.0627 52.2987 45.0215 52.2924 44.9786C52.2861 44.9355 52.2573 44.8973 52.2063 44.8644C52.1569 44.8323 52.1127 44.8236 52.0736 44.8382C52.0347 44.8528 52.0016 44.874 51.9744 44.9018C51.9603 44.9188 51.9474 44.9357 51.9359 44.9531C51.9243 44.9706 51.9148 44.9854 51.9073 44.9979L51.7894 45.1939L52.1131 45.4041L52.2253 45.2175ZM51.5761 44.8217C51.6162 44.7548 51.6353 44.7002 51.6326 44.6573C51.6303 44.6146 51.6192 44.5802 51.5995 44.5543C51.5922 44.5454 51.5847 44.5379 51.577 44.5317C51.5693 44.5256 51.5616 44.5202 51.5541 44.5152C51.5138 44.4891 51.4685 44.4807 51.4179 44.49C51.3673 44.4994 51.3181 44.544 51.2705 44.6233L51.1695 44.7913L51.475 44.9897L51.5761 44.8217ZM53.9691 42.9662C53.8268 43.2698 53.6303 43.4559 53.3798 43.5249C53.1293 43.5942 52.8866 43.569 52.6517 43.45C52.4184 43.3317 52.2498 43.1499 52.146 42.9041C52.0419 42.6587 52.0626 42.3816 52.2074 42.0731L52.2189 42.0483C52.3638 41.7397 52.561 41.5527 52.8112 41.4865C53.0615 41.4203 53.3031 41.4463 53.5366 41.5645C53.7715 41.6836 53.9397 41.8653 54.041 42.1098C54.1426 42.3541 54.1215 42.6309 53.9785 42.9402L53.9691 42.9662ZM53.5738 42.7534C53.5815 42.7369 53.5885 42.7192 53.5947 42.6997C53.6008 42.6804 53.6049 42.6601 53.6071 42.6387C53.6234 42.5489 53.6112 42.4533 53.5695 42.3515C53.5278 42.25 53.4348 42.1623 53.2903 42.0891C53.1458 42.0161 53.022 41.9942 52.9189 42.0234C52.8155 42.0528 52.7356 42.1009 52.6784 42.168C52.6653 42.1838 52.653 42.1993 52.6417 42.2152C52.6304 42.2309 52.6208 42.2469 52.6129 42.2634C52.6046 42.2815 52.5973 42.3013 52.5914 42.3228C52.585 42.3442 52.581 42.3657 52.5789 42.3868C52.5653 42.4742 52.5798 42.5678 52.6222 42.6679C52.6648 42.768 52.7566 42.8539 52.8979 42.9256C53.0391 42.997 53.1606 43.0193 53.2628 42.9925C53.3648 42.9657 53.4446 42.92 53.5027 42.8552C53.5174 42.8403 53.531 42.8243 53.543 42.8066C53.555 42.7895 53.5652 42.7716 53.5738 42.7534ZM7.67798 27.6538L7.68294 27.6267L7.89537 26.4918L8.33193 26.5801L8.21884 27.1853L9.60226 27.4647L9.59723 27.4918L9.49795 28.0216L7.67798 27.6538ZM10.2226 24.8699C10.1331 25.1947 9.97059 25.4133 9.73576 25.5266C9.5004 25.64 9.25723 25.659 9.0061 25.5842C8.75648 25.5099 8.55998 25.3611 8.4167 25.138C8.27325 24.9149 8.24733 24.6383 8.33832 24.3083L8.34552 24.2819C8.43662 23.9519 8.59961 23.732 8.83514 23.6218C9.07045 23.5114 9.31275 23.4932 9.56231 23.5676C9.81349 23.6426 10.0096 23.7913 10.1504 24.0136C10.2911 24.2359 10.3167 24.5122 10.2274 24.8426L10.2226 24.8699ZM9.79761 24.7319C9.80264 24.7142 9.80651 24.6953 9.80919 24.675C9.81214 24.655 9.81278 24.6344 9.81142 24.6129C9.81267 24.5215 9.78447 24.4296 9.72621 24.3368C9.66841 24.2442 9.56213 24.1749 9.40756 24.1288C9.25314 24.0829 9.12739 24.0836 9.03077 24.1309C8.93399 24.1785 8.86303 24.2404 8.81816 24.3167C8.80768 24.3348 8.79819 24.3523 8.78978 24.37C8.78116 24.3874 8.7746 24.4051 8.76964 24.4228C8.76439 24.4421 8.76057 24.4628 8.75813 24.4849C8.75561 24.5073 8.75518 24.5292 8.75652 24.5505C8.75795 24.6388 8.78801 24.7283 8.84632 24.8192C8.90498 24.9101 9.00974 24.9783 9.16072 25.0232C9.31169 25.0682 9.43522 25.0682 9.53128 25.0236C9.62718 24.9785 9.69836 24.9191 9.74465 24.845C9.7566 24.8275 9.76729 24.8094 9.77636 24.7899C9.78536 24.7708 9.79237 24.7511 9.79761 24.7319ZM9.14529 21.9347L9.15658 21.9097L9.48681 21.1738C9.57048 20.9874 9.67135 20.8668 9.7897 20.8115C9.90781 20.7566 10.0204 20.7358 10.1272 20.7491C10.1662 20.7538 10.2032 20.7615 10.2381 20.7724C10.2732 20.7832 10.3051 20.7956 10.3339 20.8098C10.363 20.8237 10.3927 20.8409 10.423 20.8619C10.4536 20.8829 10.4833 20.9074 10.5115 20.9351C10.591 21.0101 10.6486 21.113 10.6844 21.2437C10.7202 21.3745 10.6964 21.533 10.6128 21.7193L10.5022 21.9662L11.0566 22.235L11.0452 22.26L10.8258 22.749L9.14529 21.9347ZM10.1322 21.787L10.1837 21.6725C10.2159 21.6009 10.2278 21.5431 10.2206 21.4989C10.2131 21.4548 10.1991 21.4206 10.1789 21.3966C10.1641 21.3813 10.1492 21.3693 10.1338 21.3597C10.1186 21.3502 10.1064 21.3431 10.0966 21.3384C10.0871 21.334 10.0773 21.3297 10.0674 21.3259C10.0572 21.322 10.0472 21.3186 10.037 21.3156C9.99941 21.3076 9.95924 21.3135 9.91645 21.3333C9.87353 21.3529 9.83363 21.4035 9.79712 21.485L9.74571 21.5997L10.1322 21.787ZM10.3133 19.3424L10.3265 19.3184L10.5862 18.8511L11.2125 19.2267L11.3487 18.9813C11.3673 18.9478 11.3932 18.9052 11.4261 18.8529C11.4594 18.8008 11.5006 18.7505 11.5501 18.7015C11.624 18.6273 11.7151 18.5736 11.8237 18.5401C11.9318 18.5062 12.0581 18.5326 12.2017 18.6188C12.3455 18.7052 12.4309 18.8056 12.4579 18.9205C12.4847 19.0352 12.4862 19.1436 12.4622 19.2459C12.4463 19.3147 12.4245 19.3777 12.3967 19.4353C12.3688 19.4928 12.3462 19.5373 12.3284 19.5691L12.3151 19.5931L11.9191 20.3059L10.3133 19.3424ZM11.9687 19.4457C12.0077 19.3757 12.0272 19.3121 12.0272 19.2551C12.0274 19.1977 11.9945 19.1495 11.9289 19.1099C11.8647 19.0715 11.809 19.0664 11.7618 19.0939C11.7146 19.122 11.6713 19.1717 11.6314 19.2433L11.5335 19.4195L11.8708 19.6218L11.9687 19.4457ZM11.8554 16.741L11.8722 16.7197L12.1991 16.3003L12.7753 16.7853L12.5338 15.8704L12.5506 15.8489L12.9339 15.3568L13.1885 16.513L14.3867 16.5545L14.3699 16.5759L13.9616 17.1001L13.0511 17.0174L13.64 17.513L13.6233 17.5345L13.2964 17.9538L11.8554 16.741ZM15.6937 15.0892C15.4679 15.3322 15.2258 15.4461 14.9672 15.4313C14.7083 15.4167 14.4849 15.3149 14.2969 15.1263C14.1101 14.9387 14.0038 14.7117 13.978 14.4447C13.9524 14.1779 14.0541 13.9208 14.2838 13.674L14.3021 13.6541C14.5315 13.4073 14.775 13.2926 15.0325 13.31C15.2902 13.3275 15.5123 13.4299 15.6991 13.6172C15.8871 13.8059 15.9929 14.0327 16.0167 14.2977C16.0405 14.5627 15.9383 14.8193 15.7103 15.0673L15.6937 15.0892ZM15.3809 14.7599C15.3933 14.7467 15.4051 14.7321 15.4167 14.7156C15.4283 14.6989 15.4382 14.6812 15.4468 14.6614C15.489 14.5814 15.5058 14.4864 15.4962 14.3762C15.487 14.2661 15.4244 14.1531 15.3088 14.0372C15.1932 13.9211 15.0819 13.8605 14.9753 13.8553C14.8681 13.8499 14.7777 13.8701 14.7036 13.9157C14.6864 13.9264 14.67 13.9373 14.6546 13.9486C14.639 13.9599 14.6252 13.9721 14.6129 13.9853C14.5996 13.9998 14.5866 14.0165 14.5746 14.0348C14.5624 14.0532 14.5519 14.0723 14.5438 14.0918C14.505 14.1706 14.491 14.2643 14.5014 14.3729C14.512 14.4819 14.5739 14.5931 14.6868 14.7064C14.7999 14.8198 14.909 14.8802 15.0142 14.8873C15.1191 14.8945 15.2086 14.8768 15.283 14.8337C15.3013 14.8244 15.3192 14.8134 15.3358 14.8006C15.3524 14.7882 15.3675 14.7743 15.3809 14.7599ZM16.8028 11.3846C16.935 11.2773 17.0501 11.2233 17.1483 11.2228C17.2467 11.2221 17.3278 11.2435 17.392 11.2871C17.4221 11.3069 17.4486 11.3279 17.4711 11.3503C17.4936 11.3726 17.513 11.3948 17.5294 11.4165C17.588 11.4947 17.6154 11.5795 17.6114 11.6711C17.6075 11.7627 17.5837 11.8449 17.5398 11.918L17.5431 11.9223C17.5631 11.913 17.5883 11.9032 17.6184 11.8928C17.6486 11.882 17.6823 11.8747 17.719 11.8702C17.783 11.8626 17.853 11.8698 17.9289 11.8921C18.0048 11.914 18.0765 11.9701 18.144 12.0598C18.1506 12.0685 18.1565 12.077 18.1618 12.0857C18.167 12.094 18.1728 12.1026 18.1794 12.1114C18.2395 12.2118 18.2617 12.331 18.2467 12.469C18.2316 12.607 18.144 12.7408 17.984 12.8709L17.9632 12.8879L17.2158 13.4946L16.0743 11.9762L16.0952 11.9592L16.8028 11.3846ZM17.5844 12.7062C17.5957 12.6971 17.61 12.6848 17.6275 12.6694C17.6451 12.6541 17.6612 12.6369 17.6762 12.6177C17.7011 12.5856 17.718 12.5482 17.7263 12.5057C17.7342 12.4629 17.7199 12.4169 17.683 12.3677C17.6469 12.3201 17.6085 12.2961 17.567 12.2961C17.5255 12.2959 17.4874 12.3041 17.4527 12.3206C17.4339 12.3314 17.4162 12.3428 17.3997 12.355C17.3829 12.3674 17.3691 12.3781 17.358 12.387L17.1828 12.5293L17.4176 12.8417L17.5844 12.7062ZM17.1048 12.1037C17.1646 12.0551 17.2004 12.0103 17.212 11.9694C17.2238 11.9284 17.2247 11.8921 17.2147 11.8608C17.2106 11.8499 17.2063 11.84 17.2011 11.8315C17.1959 11.823 17.1904 11.815 17.185 11.808C17.1558 11.7689 17.1157 11.7449 17.0651 11.7356C17.0148 11.7267 16.9538 11.751 16.8828 11.8087L16.7328 11.9307L16.9545 12.2257L17.1048 12.1037ZM20.4945 10.9882C20.4761 11.0306 20.4555 11.0688 20.4323 11.1034C20.4095 11.1376 20.385 11.1699 20.3589 11.1995C20.3261 11.2381 20.2912 11.2723 20.2537 11.3023C20.2164 11.3317 20.179 11.3587 20.1413 11.383L20.1205 11.4C19.8979 11.5423 19.6626 11.5891 19.4143 11.5402C19.1666 11.4914 18.9606 11.3307 18.7969 11.0584C18.6255 10.7736 18.5784 10.505 18.6556 10.2525C18.733 10 18.8728 9.808 19.0748 9.67679L19.0972 9.66221C19.1244 9.64473 19.153 9.62824 19.1834 9.61274C19.2138 9.59736 19.2457 9.58302 19.2793 9.57009C19.3298 9.55006 19.3829 9.53519 19.4384 9.52532C19.4937 9.51518 19.5502 9.51093 19.6073 9.5128L19.8922 9.98674L19.8697 10.0014C19.8541 9.9962 19.8369 9.9915 19.8174 9.98657C19.7977 9.98208 19.7764 9.97761 19.753 9.97334C19.7022 9.96512 19.6451 9.96421 19.5814 9.97124C19.5177 9.97789 19.454 10.001 19.3903 10.0401C19.2693 10.123 19.2022 10.2329 19.189 10.3706C19.1759 10.5076 19.2064 10.6389 19.2815 10.7632C19.3656 10.9034 19.4692 10.9861 19.5916 11.0115C19.714 11.0367 19.8296 11.0165 19.9377 10.9508C20.0153 10.8959 20.0736 10.8311 20.1125 10.7559C20.1517 10.6805 20.1785 10.6083 20.1928 10.5385L20.2152 10.5239L20.4945 10.9882ZM20.7622 8.74252L20.7864 8.73119L21.2609 8.51164L21.5626 9.21601L21.7471 8.28667L21.7713 8.27562L22.3281 8.01814L22.0494 9.1682L23.0992 9.77056L23.0749 9.78189L22.4819 10.056L21.707 9.55289L22.015 10.2721L21.9908 10.2833L21.5164 10.5029L20.7622 8.74252ZM24.9163 9.12246C24.6071 9.22684 24.3419 9.20914 24.1199 9.07022C23.8982 8.93074 23.7468 8.73191 23.6661 8.47376C23.5859 8.21719 23.5947 7.96465 23.6924 7.71637C23.7903 7.46808 23.9964 7.29116 24.3106 7.18491L24.3358 7.17639C24.65 7.07044 24.9164 7.08786 25.1361 7.22899C25.3558 7.37007 25.5056 7.56894 25.5858 7.82539C25.6666 8.08361 25.6577 8.33569 25.5589 8.58137C25.4602 8.82683 25.2542 9.00358 24.9407 9.11141L24.9163 9.12246ZM24.7889 8.67911C24.8056 8.67349 24.8226 8.6664 24.8403 8.65749C24.8582 8.64853 24.8749 8.6377 24.8913 8.62449C24.9647 8.57428 25.0223 8.49872 25.0641 8.39673C25.1053 8.29491 25.1012 8.16467 25.0516 8.0059C25.0019 7.84684 24.931 7.73899 24.8391 7.68244C24.7471 7.62567 24.658 7.59929 24.5722 7.60326C24.552 7.60419 24.5327 7.60587 24.5139 7.60847C24.4951 7.61081 24.4774 7.61484 24.4604 7.62044C24.442 7.6268 24.4232 7.63513 24.4044 7.64541C24.3852 7.65562 24.3675 7.66758 24.3514 7.68081C24.2816 7.73118 24.227 7.8073 24.187 7.90832C24.1472 8.00964 24.1515 8.13801 24.2002 8.29332C24.2487 8.44851 24.3176 8.55499 24.4071 8.61274C24.4967 8.6702 24.584 8.69827 24.6689 8.69659C24.6894 8.69733 24.7099 8.69621 24.7306 8.69306C24.7508 8.69022 24.7703 8.68529 24.7889 8.67911ZM26.6621 6.58067L26.6884 6.57596L27.784 6.37528L27.8613 6.8306L27.2771 6.93782L27.322 7.20335L27.8514 7.10628L27.9225 7.52391L27.3929 7.62096L27.4444 7.92461L28.0287 7.81745L28.1058 8.27302L28.0797 8.27771L26.9842 8.47842L26.6621 6.58067ZM32.9931 8.03625C32.6691 8.0127 32.4292 7.89302 32.2739 7.67773C32.1184 7.46218 32.0498 7.21882 32.0679 6.94797C32.086 6.67886 32.1853 6.44828 32.3653 6.25604C32.5455 6.06407 32.8005 5.97995 33.1298 6.00401L33.1564 6.00595C33.4858 6.02993 33.7269 6.14984 33.8795 6.36631C34.0325 6.58255 34.0998 6.82522 34.0817 7.0942C34.0633 7.36513 33.9643 7.59532 33.784 7.78467C33.6041 7.97383 33.3495 8.05751 33.0199 8.03534L32.9931 8.03625ZM33.0349 7.57547C33.0525 7.57695 33.0709 7.57695 33.0907 7.57547C33.1101 7.57417 33.1297 7.57053 33.1496 7.56463C33.2359 7.54698 33.3166 7.49916 33.3919 7.42071C33.4669 7.34277 33.51 7.22025 33.5213 7.05348C33.5324 6.88693 33.5058 6.75947 33.4409 6.67116C33.376 6.58255 33.3029 6.52344 33.2217 6.49355C33.2027 6.48674 33.1842 6.48084 33.1659 6.47585C33.1476 6.47062 33.1297 6.46762 33.1119 6.46615C33.0927 6.46485 33.0722 6.46522 33.051 6.46763C33.0294 6.46951 33.0088 6.47377 32.9891 6.47967C32.9062 6.49917 32.8281 6.54847 32.7547 6.62663C32.6813 6.70509 32.6391 6.82596 32.628 6.98865C32.6172 7.15146 32.6427 7.27704 32.7051 7.36537C32.7672 7.45346 32.8379 7.51359 32.9175 7.54513C32.9361 7.55365 32.9556 7.5609 32.9757 7.56583C32.9957 7.57099 33.0154 7.57409 33.0349 7.57547ZM35.4587 6.31071L35.4848 6.31543L36.8338 6.56275L36.7565 7.01814L35.9191 6.86459L35.8708 7.1494L36.1392 7.19858C36.176 7.20522 36.2233 7.21576 36.282 7.23018C36.3405 7.24476 36.4001 7.26784 36.4613 7.29938C36.5536 7.3463 36.6336 7.41623 36.7012 7.50977C36.7687 7.60326 36.7884 7.73287 36.7603 7.8992C36.7311 8.0709 36.6692 8.19037 36.5744 8.25656C36.4797 8.32321 36.3822 8.36202 36.2816 8.37335C36.2136 8.3835 36.149 8.38465 36.0873 8.37716C36.0259 8.36933 35.9778 8.36252 35.943 8.35617L35.9169 8.35146L35.1369 8.20851L35.4587 6.31071ZM35.9316 7.96278C36.0082 7.97668 36.0723 7.97407 36.1241 7.95472C36.1757 7.93521 36.2083 7.88665 36.2215 7.80893C36.2344 7.73309 36.2199 7.67682 36.1786 7.64029C36.1374 7.6037 36.0776 7.57858 35.9993 7.56416L35.8064 7.52884L35.7387 7.92743L35.9316 7.96278ZM38.3792 7.43343L38.0265 7.31452L38.1641 6.87469L38.1893 6.88318L39.0357 7.16892L38.8122 7.88365L39.0717 7.9713C39.1068 7.98304 39.1526 8.00044 39.2089 8.02332C39.2646 8.04588 39.3206 8.07747 39.3769 8.11753C39.4623 8.17738 39.5319 8.25888 39.5859 8.36202C39.64 8.46497 39.6414 8.59879 39.5902 8.76278C39.5387 8.92699 39.4621 9.0346 39.3596 9.08593C39.2574 9.1371 39.1554 9.16109 39.0545 9.15803C38.9863 9.15616 38.9221 9.14698 38.8625 9.13098C38.8026 9.11425 38.756 9.10063 38.7222 9.0893L38.697 9.08078L37.9438 8.82636L38.3792 7.43343ZM38.7637 8.698C38.8378 8.72295 38.9015 8.72959 38.9554 8.71779C39.0091 8.70599 39.0477 8.66265 39.0713 8.58749C39.0942 8.51426 39.0876 8.45658 39.0513 8.41437C39.0155 8.37239 38.9597 8.33875 38.8841 8.31306L38.6977 8.2502L38.5774 8.63508L38.7637 8.698ZM41.197 8.00261L41.2213 8.01367L42.2377 8.48386L42.0568 8.90651L41.5148 8.65556L41.4092 8.90198L41.9004 9.12933L41.7345 9.5166L41.2433 9.28946L41.1227 9.57106L41.6645 9.82189L41.4836 10.2443L41.4593 10.2332L40.4429 9.76278L41.197 8.00261ZM44.7772 9.94204L44.094 11.2228L44.2885 11.335L43.8929 12.0765L43.87 12.0634L43.4806 11.8389L43.6603 11.5017L42.7476 10.9759L42.5678 11.3131L42.5447 11.2998L42.1554 11.0756L42.551 10.334C42.5587 10.3385 42.5662 10.3422 42.5737 10.3455C42.5809 10.3486 42.5888 10.3517 42.5975 10.3545C42.6693 10.379 42.7494 10.3776 42.8378 10.3498C42.9264 10.3223 43.0064 10.2502 43.0784 10.1343C43.0902 10.1159 43.1016 10.0966 43.1123 10.0768C43.1229 10.0565 43.1338 10.036 43.1449 10.0153C43.1483 10.0089 43.1519 10.0023 43.1553 9.99598C43.1587 9.98963 43.1621 9.98326 43.1656 9.97664L43.5586 9.24L43.5817 9.25322L44.7772 9.94204ZM43.5697 10.2978C43.5132 10.4035 43.4538 10.4916 43.3913 10.5614C43.3288 10.6315 43.2462 10.6695 43.1442 10.6758L43.6168 10.9479L44.0843 10.0716L43.7829 9.89801L43.5697 10.2978ZM46.4707 11.2056L45.8101 12.0843L47.0154 11.648L47.0365 11.6649L47.437 11.9903L46.2954 13.5088L46.2746 13.4918L45.8802 13.1715L46.5389 12.2952L45.3439 12.7362L45.3228 12.7192L44.9137 12.3868L46.0552 10.8683L46.076 10.8853L46.4707 11.2056ZM48.5491 12.9932L48.5676 13.0129L48.9283 13.4011L48.4483 13.8831L48.8675 14.3345L49.3479 13.8527L49.3662 13.8726L49.7269 14.2605L48.3931 15.599L48.3746 15.5792L48.0141 15.1913L48.5475 14.6558L48.1281 14.2044L47.5946 14.7399L47.5762 14.7199L47.2153 14.3316L48.5491 12.9932ZM50.5865 15.359L50.6032 15.3804L51.3035 16.2789L50.9575 16.57L50.5842 16.0909L50.3824 16.2605L50.7209 16.6949L50.4037 16.9618L50.0653 16.5274L49.8348 16.7215L50.2081 17.2006L49.8625 17.4916L49.8457 17.4701L49.1455 16.5717L50.5865 15.359ZM52.1385 17.4954L52.1519 17.5194L52.4114 17.9867L51.8334 18.3335L52.1353 18.877L52.7134 18.5302L52.7267 18.554L52.9862 19.0211L51.3805 19.9846L51.3671 19.9608L51.1076 19.4937L51.75 19.1083L51.4481 18.5648L50.8056 18.9503L50.7925 18.9262L50.5327 18.4588L52.1385 17.4954ZM53.6382 20.2668L53.6493 20.2918L53.8687 20.7809L53.2637 21.0741L53.519 21.6428L54.124 21.3497L54.1353 21.3747L54.3545 21.8635L52.6741 22.6779L52.6628 22.6529L52.4436 22.1641L53.1157 21.8383L52.8605 21.2696L52.1884 21.5952L52.177 21.5702L51.9576 21.0812L53.6382 20.2668ZM53.2803 24.7719C53.1907 24.447 53.217 24.1722 53.3585 23.9466C53.5002 23.7212 53.6967 23.5709 53.948 23.496C54.1974 23.4218 54.44 23.4397 54.6752 23.55C54.9105 23.6602 55.0737 23.8805 55.1647 24.2103L55.1721 24.2369C55.263 24.5667 55.2369 24.843 55.0937 25.0661C54.9502 25.2894 54.7539 25.4383 54.5044 25.5125C54.2532 25.5874 54.011 25.5693 53.7783 25.4581C53.5457 25.3471 53.3829 25.1269 53.2903 24.7975L53.2803 24.7719ZM53.7111 24.655C53.7162 24.6727 53.7223 24.6906 53.7302 24.7092C53.7382 24.7281 53.7481 24.746 53.7602 24.7634C53.8059 24.8413 53.8766 24.9038 53.9733 24.9506C54.0696 24.997 54.1951 24.9975 54.3495 24.9514C54.5041 24.9054 54.6102 24.8355 54.668 24.7422C54.7258 24.6485 54.7543 24.5568 54.7534 24.4672C54.7531 24.4463 54.7524 24.4263 54.7502 24.4068C54.7486 24.3872 54.7455 24.3686 54.7405 24.351C54.7353 24.3316 54.7278 24.3119 54.7185 24.2918C54.7095 24.2715 54.6986 24.2526 54.6866 24.2355C54.6403 24.1613 54.5694 24.1016 54.4735 24.0567C54.3774 24.0119 54.2539 24.0119 54.1026 24.057C53.9516 24.102 53.847 24.1701 53.7883 24.261C53.73 24.3519 53.6998 24.4414 53.6987 24.5298C53.6971 24.5512 53.6974 24.5726 53.6998 24.5939C53.7018 24.6151 53.7057 24.6355 53.7111 24.655ZM55.6345 26.5627L55.6395 26.5898L55.8519 27.7245L55.4151 27.8128L55.302 27.2077L55.0472 27.259L55.1496 27.8077L54.7492 27.8884L54.6467 27.3401L54.3553 27.399L54.4686 28.0041L54.0317 28.0922L54.0267 28.0651L53.8144 26.9301L55.6345 26.5627Z" fill="white"/>
<path id="path6" fill-rule="evenodd" clip-rule="evenodd" d="M5 37.6773V36.5954H5.60723C5.93313 36.5954 6.1377 36.5685 6.21743 36.5165C6.29768 36.4644 6.33581 36.3784 6.33581 36.2571V33.1815C6.33581 33.0604 6.29768 32.9744 6.21743 32.9224C6.14067 32.87 5.93609 32.8435 5.60723 32.8435H5V31.7598H15.439V33.8846H13.2711C13.2592 33.7464 13.2116 33.5973 13.1284 33.4366C13.0636 33.2943 12.9684 33.1942 12.8412 33.1351C12.7138 33.0759 12.4355 33.0463 12.009 33.0463H10.6936V36.2486C10.6936 36.3869 10.744 36.4783 10.8446 36.5249C10.9427 36.5714 11.1348 36.5954 11.4221 36.5954H12.222V37.6773H5ZM22.8151 31.6079C23.6923 31.6079 24.6284 31.6839 25.6205 31.8345C26.6161 31.9867 27.4808 32.2715 28.2184 32.6898C29.202 33.2915 29.6939 33.9676 29.6939 34.7186C29.6939 35.564 29.2318 36.2528 28.3105 36.7827C27.7092 37.1263 26.9152 37.3857 25.9286 37.5605C24.9454 37.735 23.9053 37.8224 22.8151 37.8224C22.1073 37.8224 21.4114 37.7845 20.7328 37.7099C20.0513 37.6352 19.4173 37.5195 18.8279 37.3631C18.2415 37.2066 17.7437 37.0137 17.338 36.7827C16.4049 36.2472 15.9368 35.5583 15.9368 34.7186C15.9368 34.4946 15.9844 34.2677 16.079 34.0394C16.1706 33.8128 16.3305 33.5817 16.553 33.3492C16.7754 33.1153 17.0686 32.8955 17.4297 32.6898C17.8269 32.4644 18.2712 32.2797 18.769 32.1332C19.2632 31.9867 19.7581 31.8755 20.2499 31.8008C20.7417 31.7261 21.2039 31.6755 21.6362 31.6486C22.0657 31.6218 22.4599 31.6079 22.8151 31.6079ZM22.8151 36.5362C23.2629 36.5362 23.6061 36.4712 23.8433 36.3416C24.0801 36.2107 24.2401 36.0373 24.3174 35.8175C24.3941 35.5991 24.4328 35.3287 24.4328 35.0074V34.4397C24.4328 33.9466 24.3322 33.5661 24.1246 33.2972C23.9171 33.0279 23.4818 32.8941 22.8151 32.8941C22.1252 32.8941 21.6809 33.0336 21.4882 33.3125C21.2926 33.593 21.1979 33.965 21.1979 34.4312V35.0074C21.1979 35.5021 21.3044 35.8809 21.5239 36.143C21.7428 36.405 22.1727 36.5362 22.8151 36.5362ZM33 37.6773V36.5954H33.7965C34.0926 36.5954 34.2913 36.5714 34.3923 36.5235C34.4929 36.4768 34.5434 36.3883 34.5434 36.2571V33.0449H33.7965C33.4824 33.0449 33.2486 33.0547 33.0946 33.0745C32.9406 33.0927 32.843 33.1209 32.7984 33.1562C32.7568 33.1928 32.7152 33.2519 32.6771 33.3351L32.4488 33.8324H30.156L30.2774 31.7598H43.1666L43.291 33.8324H40.9952L40.7669 33.3351C40.7109 33.2125 40.6247 33.1336 40.5093 33.0984C40.3909 33.0632 40.1037 33.0449 39.6475 33.0449H38.9006V36.2571C38.9006 36.3642 38.9422 36.4474 39.0254 36.5066C39.1111 36.5657 39.3127 36.5954 39.6297 36.5954H40.4291V37.6773H33ZM51.304 31.7598V32.842H51.0702C50.8716 32.842 50.771 32.8842 50.771 32.9702C50.771 33.0109 50.8299 33.0632 50.9488 33.128L51.7483 33.6281H51.9439L52.7587 33.1294C52.9276 33.0223 53.0103 32.9589 53.0103 32.9351C53.0103 32.8729 52.8978 32.842 52.6725 32.842H52.409V31.7598H58.1857V32.842H57.685C57.371 32.842 57.1015 32.8828 56.8761 32.9631C56.6513 33.0435 56.3284 33.2083 55.9044 33.459L54.361 34.3975L56.9207 36.0191C56.9564 36.0416 56.9886 36.0599 57.0183 36.0754C57.048 36.091 57.0718 36.1021 57.0807 36.112C57.1193 36.1303 57.2199 36.1895 57.3828 36.2896C57.7147 36.4938 58.0584 36.5954 58.4136 36.5954H59V37.6773H51.621V36.5954C52.0123 36.5883 52.2074 36.5402 52.2074 36.4503C52.2074 36.3994 52.1099 36.3094 51.9083 36.181L51.1618 35.6993H50.9662L50.0598 36.2404C49.9295 36.319 49.8646 36.3937 49.8646 36.467C49.8646 36.5402 50.0658 36.5827 50.4689 36.5954V37.6773H44.2449V36.5954H44.8165C45.1632 36.5954 45.4564 36.56 45.6907 36.4896C45.9245 36.4205 46.2563 36.2543 46.6828 35.9951L48.4753 34.8948L46.0577 33.3577C46.0458 33.3492 45.9958 33.3181 45.9067 33.2646C45.818 33.2111 45.7259 33.1549 45.6342 33.0955C45.5159 33.0123 45.3911 32.949 45.2608 32.9054C45.1305 32.863 44.9349 32.842 44.6743 32.842H44.2271V31.7598H51.304Z" fill="white"/>
<path id="path8" fill-rule="evenodd" clip-rule="evenodd" d="M38.4702 26.4891L38.4725 25.9905L39.5597 25.9971C39.5597 25.9461 39.5661 25.4979 39.5661 25.4979L34.5699 25.5002C34.5699 25.3627 34.5699 25.2242 34.5699 25.0956H39.5659L39.5689 22.5399L40.4462 23.0993L39.9799 23.8518L41.1483 24.6356L42.5866 22.3859L41.4508 21.5653L40.9777 22.3263L36.1633 19.9505L25.1315 12.0606C25.3126 10.9297 23.8659 10.6498 23.5896 11.897C23.2448 13.4529 22.712 16.0651 22.4258 17.3823L22.5195 17.4054L22.5219 18.9144L21.4687 18.914L21.4673 21.104L23.6893 21.1047L23.6908 18.9112L22.7008 18.913L22.7003 17.4374L22.7953 17.456L24.5322 13.3273L33.5386 25.5405L33.5339 26.5172L22.4251 26.5081L22.4148 27.8729H44.1862V26.4954L38.4702 26.4891ZM31.0208 19.983C28.9409 17.5095 27.0173 15.0329 24.9308 12.5651L25.0346 12.305C25.9573 12.9726 35.7012 19.9748 35.6737 19.983H31.0208ZM33.5281 23.0615L31.4103 20.4535L36.0808 20.4704L39.0191 22.129L33.5331 22.1473L33.5281 23.0615Z" fill="white"/>
<path id="path10" fill-rule="evenodd" clip-rule="evenodd" d="M32.7407 45.2559L31.8707 45.2614C31.8782 45.18 31.8972 45.005 31.9137 44.9121L32.3356 44.9223C32.4513 44.6323 32.1971 43.181 31.9062 43.5059C31.233 44.2579 31.2087 47.1652 31.8635 48.4233C32.2049 49.079 32.4315 47.3212 32.3982 47.0555L31.9286 47.0406L31.8988 46.7057L32.7734 46.7115C32.7496 47.1003 32.7667 48.104 32.3786 48.7607C32.2475 48.9826 32.082 49.096 31.8094 49.0748C30.2344 48.9519 30.6517 42.7548 31.7533 42.7415C32.5439 42.7319 32.7792 44.6297 32.7407 45.2559ZM40.7378 42.709L45.8315 42.7356C44.7911 44.1911 43.5499 43.6951 41.9105 43.6951C41.6731 43.6951 41.7749 43.9643 41.9034 43.9666C42.5605 44.0402 43.2246 43.988 43.8887 44.0688C43.5978 45.3414 41.3115 45.0206 41.0627 44.7281C40.9426 44.7281 40.8861 44.8603 40.9496 44.9631C41.3157 45.1336 41.9005 45.2566 41.2701 45.6205C40.4835 45.8248 40.1875 45.9096 39.4378 45.6385C39.4143 45.684 39.3224 45.6745 39.3173 45.7904C39.2969 46.2477 38.2997 46.9031 37.4596 46.358C37.072 46.7969 35.6877 47.4036 35.326 46.6517C37.6883 45.6867 39.368 44.9867 40.7378 42.709ZM34.8385 46.003C34.8385 45.8896 34.8032 45.7707 34.9303 45.7707C35.0717 45.6973 35.3613 45.7707 35.4461 45.6238C35.5241 45.1985 35.3767 44.1082 35.5026 43.7222C35.5343 43.6778 35.5767 43.6557 35.6369 43.6561C36.2896 43.6561 36.7282 43.7296 37.1205 43.0908C37.2618 42.944 37.3819 42.966 37.5656 42.944C38.1703 43.032 39.6521 42.8408 39.9182 43.0173C39.9606 43.1128 39.9253 43.2596 39.8758 43.3478C39.4809 43.6695 38.9445 43.6741 38.477 43.6048C38.3569 43.5534 38.0531 43.3992 38.0742 43.6415C38.2309 43.9673 38.7301 43.937 39.021 43.9645C39.0916 44.0379 39.0139 44.2582 38.9645 44.3316C38.3715 44.9478 38.1229 44.8011 37.4031 44.4931C37.325 44.4641 37.1557 44.3721 37.0781 44.4124C37.0165 44.4764 37.0575 44.5779 37.0993 44.64C37.2642 44.7869 37.8211 44.9944 37.7705 45.22C37.6362 45.4329 37.3042 45.521 37.0711 45.5725C36.7142 45.5388 36.6106 45.3755 36.3787 45.1173C36.0113 45.1173 36.1879 45.6092 36.1879 45.8368C35.9435 46.1045 35.0411 46.255 34.8385 46.003ZM35.0784 42.6977C35.3593 42.6935 35.8484 42.6852 36.1306 42.6931C36.4648 42.7024 36.483 43.1177 36.2271 43.2004C35.8806 43.3122 35.1377 43.0548 35.1282 43.6111C35.1423 44.1166 34.7048 44.1866 34.6882 43.6964C34.6823 43.5224 34.6895 43.2827 34.7242 43.0818C34.7713 42.8091 34.8255 42.7015 35.0784 42.6977ZM22.7159 42.709L17.622 42.7107C18.6625 44.1662 19.9037 43.6552 21.5431 43.6552C21.7806 43.6552 21.6596 43.8586 21.5501 43.9268C20.8931 44.0002 20.229 44.0012 19.5649 44.082C19.8557 45.3546 22.1421 45.0206 22.3908 44.7281C22.511 44.7281 22.5675 44.8603 22.5039 44.9631C22.1378 45.1336 21.5531 45.2567 22.1835 45.6205C22.9702 45.8248 23.266 45.9096 24.0158 45.6385C24.0392 45.684 24.1312 45.6746 24.1363 45.7904C24.1567 46.2478 25.1539 46.9032 25.9939 46.358C26.3815 46.7969 27.7658 47.4037 28.1276 46.6518C25.7653 45.6867 24.0856 44.9867 22.7159 42.709ZM28.615 46.003C28.615 45.8896 28.6504 45.7707 28.5232 45.7707C28.3819 45.6973 28.0923 45.7707 28.0075 45.6238C27.9295 45.1985 28.0769 44.1082 27.9509 43.7222C27.9305 43.6831 27.8881 43.6611 27.8168 43.6561C27.1639 43.6561 26.7255 43.7296 26.3331 43.0908C26.1918 42.944 26.0717 42.966 25.888 42.944C25.2833 43.032 23.8014 42.8408 23.5354 43.0173C23.493 43.1128 23.5283 43.2596 23.5777 43.3478C23.9727 43.6695 24.509 43.6741 24.9766 43.6048C25.0967 43.5534 25.4005 43.3992 25.3793 43.6415C25.2226 43.9673 24.7235 43.937 24.4326 43.9645C24.362 44.0379 24.4397 44.2582 24.4892 44.3316C25.0821 44.9478 25.3307 44.8011 26.0505 44.4931C26.1286 44.4641 26.2978 44.3721 26.3755 44.4124C26.4371 44.4764 26.3961 44.5779 26.3543 44.64C26.1893 44.7869 25.6325 44.9944 25.6831 45.22C25.8173 45.4329 26.1494 45.521 26.3825 45.5725C26.7394 45.5388 26.8429 45.3755 27.0749 45.1173C27.4422 45.1173 27.2657 45.6092 27.2657 45.8368C27.51 46.1045 28.4125 46.255 28.615 46.003ZM28.2424 42.6977C27.9616 42.6935 27.4724 42.6852 27.1902 42.6931C26.856 42.7024 26.8379 43.1177 27.0937 43.2004C27.4402 43.3122 28.1832 43.0548 28.1927 43.6111C28.1785 44.1166 28.616 44.1866 28.6327 43.6964C28.6386 43.5224 28.6314 43.2827 28.5966 43.0818C28.5495 42.8091 28.4953 42.7015 28.2424 42.6977ZM34.1674 44.2655L34.5065 44.405C34.3722 44.6106 34.238 44.9149 34.1108 45.1278L33.4457 45.1035C33.4048 44.2041 33.1425 43.1162 32.6358 42.4345C32.094 41.7056 31.383 41.717 30.7705 42.453C30.1864 43.1548 29.9665 44.3169 29.8895 45.0778C29.734 45.0852 29.5018 45.1127 29.3464 45.1274C29.2122 44.9144 29.1159 44.662 28.9817 44.4491L29.3279 44.3243C29.3279 43.1972 29.4997 42.5243 28.92 42.2697L16.2111 42.2523C17.4166 43.4493 18.2359 44.2019 19.1879 44.2907C19.3781 45.3 20.5809 45.6926 21.4977 45.6926L21.5038 45.6939L21.596 45.7124C22.2795 46.469 22.9676 46.5455 23.8224 46.4019C24.1999 46.8942 24.6589 47.16 25.2807 47.1624H25.2821C25.5807 47.1635 25.8513 47.0836 26.1386 47.009C26.9008 47.8037 28.1648 47.8007 28.6247 46.7252L29.9371 46.7389C29.9842 47.7197 30.3632 49.9399 31.7099 49.9406C33.0671 49.9413 33.3528 47.7266 33.4071 46.7332L34.8748 46.737C35.3405 47.7672 36.6497 47.7766 37.3404 46.9777C38.3528 47.1708 38.889 47.1354 39.6289 46.3424C40.5899 46.5664 41.0906 46.4135 41.8724 45.6595C42.8959 45.6675 43.6518 45.4282 44.1888 44.3486C45.4238 44.1122 46.1713 43.1516 46.9857 42.22L34.7155 42.2136C33.8874 42.1689 34.1796 43.5734 34.1674 44.2655ZM29.9477 42.3528C30.7654 40.7406 32.746 40.8064 33.484 42.3247C33.6516 41.786 34.0747 41.4733 34.7539 41.4663L48.761 41.5323C47.5918 42.7201 46.3045 44.5895 44.6458 45.0131C44.086 45.9234 43.1834 46.2519 42.1984 46.3724C41.8481 46.7005 41.4562 46.8767 41.046 46.9724L41.046 46.9728C40.6699 47.0604 40.2978 47.0773 39.9319 47.0848C39.2394 47.7796 38.5154 47.9349 37.5862 47.7799C36.7237 48.4822 35.0894 48.5205 34.4389 47.4834L34.0029 47.4825C33.8746 48.7585 33.2275 50.6888 31.7099 50.6881C30.1898 50.6874 29.4935 48.7553 29.3749 47.4804L28.9597 47.5365C28.2656 48.4563 26.8292 48.4836 25.9749 47.8265C25.9742 47.8262 25.9736 47.8256 25.9729 47.825C25.7458 47.8814 25.5127 47.9099 25.2793 47.9099C25.2796 47.9099 25.2802 47.9099 25.28 47.9099C24.589 47.9068 23.8579 47.6025 23.4054 47.1027C22.5579 47.0814 21.9557 46.9762 21.2786 46.4084C20.4701 46.2473 19.123 45.9476 18.733 44.9323C16.7798 44.5674 15.924 42.8205 14.6747 41.5027L28.4978 41.4809C29.5057 41.5057 29.5924 41.9027 29.9477 42.3528Z" fill="white"/>
</g>
</g>
</svg>
