<svg width="52" height="63" viewBox="0 0 52 63" fill="none" xmlns="http://www.w3.org/2000/svg">
<g filter="url(#filter0_dd_6697_11537)">
<path fill-rule="evenodd" clip-rule="evenodd" d="M31.4346 45.3542C41.5143 42.9123 49 33.8303 49 23C49 10.2975 38.7025 0 26 0C13.2975 0 3 10.2975 3 23C3 33.8303 10.4857 42.9123 20.5654 45.3542C21.6309 45.7444 23.1139 46.5233 24 48C25.0465 49.7441 25.3866 54.0412 25.4741 55.5035C25.4908 55.7822 25.7207 56 26 56C26.2793 56 26.5092 55.7822 26.5259 55.5035C26.6134 54.0412 26.9535 49.7441 28 48C28.8861 46.5233 30.3691 45.7444 31.4346 45.3542Z" fill="#0076BF"/>
</g>
<circle cx="26" cy="59" r="1" fill="#0076BF"/>
<path fill-rule="evenodd" clip-rule="evenodd" d="M26.1818 16.3049H25.2922V18.4989H24.0195V13.0426H25.2922V15.2495H26.2143L27.6688 13.0426H29.0195L27.2078 15.678L29.0779 18.4989H27.6234L26.1818 16.3049ZM20.9091 18.5949C20.3442 18.5949 19.8377 18.4733 19.3766 18.2303C18.9221 17.9872 18.5649 17.6546 18.3052 17.226C18.0455 16.7974 17.9091 16.3113 17.9091 15.774C17.9091 15.2303 18.0455 14.7441 18.3052 14.3156C18.5649 13.887 18.9221 13.5544 19.3766 13.3113C19.8377 13.0682 20.3506 12.9531 20.9221 12.9531C21.3961 12.9531 21.8312 13.0362 22.2208 13.2026C22.6104 13.3689 22.9351 13.6055 23.1948 13.919L22.3766 14.6674C22 14.2388 21.539 14.0277 20.9805 14.0277C20.6364 14.0277 20.3312 14.0981 20.0649 14.2452C19.7922 14.3987 19.5844 14.6034 19.4351 14.8657C19.2857 15.1343 19.2078 15.435 19.2078 15.774C19.2078 16.1066 19.2857 16.4136 19.4351 16.6759C19.5844 16.9382 19.7922 17.1493 20.0649 17.2964C20.3312 17.4435 20.6364 17.5203 20.9805 17.5203C21.539 17.5203 22 17.3028 22.3766 16.8742L23.1948 17.6226C22.9351 17.936 22.6104 18.1791 22.2143 18.3454C21.8247 18.5117 21.3896 18.5949 20.9091 18.5949ZM32.7078 19.1386H37V12.5629H32.7078V19.1386ZM29.8506 12.5629H32.2273V9H17V24H32.2273V19.1386H29.8506V12.5629Z" fill="white"/>
<path fill-rule="evenodd" clip-rule="evenodd" d="M44 27V31.9225H43.0609V27.9296H41.6495L41.6198 28.9561C41.6009 29.6533 41.555 30.2182 41.4795 30.654C41.4066 31.0865 41.2798 31.419 41.107 31.6514C40.9316 31.8838 40.6888 32 40.3757 32C40.2462 32 40.0897 31.9742 39.9061 31.9225L39.9628 30.9574C40.0141 30.9768 40.0708 30.9864 40.1328 30.9864C40.3622 30.9864 40.5187 30.825 40.6105 30.5055C40.6996 30.1827 40.7562 29.6824 40.7805 28.9981L40.8399 27H44ZM38.09 30.0019L37.4369 28.1168L36.7838 30.0019H38.09ZM38.3895 30.867H36.4789L36.1145 31.9225H35.1376L36.9727 27H37.9118L39.7523 31.9225H38.7538L38.3895 30.867ZM34.5736 27V31.9225H33.6237V29.9051H31.7535V31.9225H30.8009V27H31.7535V28.94H33.6237V27H34.5736ZM25.9784 27H26.9229V30.2053L28.8849 27H29.7781V31.9225H28.839V28.7237L26.8771 31.9225H25.9784V27ZM24.0624 31.9225L24.0543 28.9755L22.8453 31.3996H22.4216L21.2099 29.0336V31.9225H20.3166V27H21.1046L22.6456 30.06L24.1622 27H24.9475L24.9556 31.9225H24.0624ZM17.8501 29.6372C18.1361 29.6372 18.352 29.5629 18.5031 29.4145C18.6516 29.2692 18.7244 29.0594 18.7244 28.785C18.7244 28.5107 18.6516 28.2976 18.5031 28.1491C18.352 28.0039 18.1361 27.9296 17.8501 27.9296H17.0729V29.6372H17.8501ZM17.9013 27C18.2657 27 18.5841 27.0742 18.8513 27.2195C19.1211 27.3648 19.3262 27.5713 19.472 27.836C19.6177 28.1039 19.6879 28.4203 19.6879 28.785C19.6879 29.1465 19.6177 29.4629 19.472 29.7308C19.3262 30.0019 19.1211 30.2085 18.8513 30.3505C18.5841 30.4926 18.2657 30.5636 17.9013 30.5636H17.0729V31.9225H16.1229V27H17.9013ZM15.3511 31.009V31.9225H12.1667V27H15.2756V27.9135H13.1139V28.9819H15.0219V29.8696H13.1139V31.009H15.3511ZM11.5676 27.9296H10.2507V31.9225H9.31154V27.9296H8V27H11.5676V27.9296Z" fill="white"/>
<path fill-rule="evenodd" clip-rule="evenodd" d="M21.137 29.4952H21.1208V29.5436H21.0965V29.4242H21.1208V29.4726H21.137L21.164 29.4242H21.1883L21.1559 29.4823L21.191 29.5436H21.164L21.137 29.4952ZM21.0399 29.5468C21.0318 29.5468 21.021 29.5436 21.0129 29.5371C21.0048 29.5339 20.9994 29.5242 20.994 29.5145C20.9886 29.5048 20.9859 29.4952 20.9859 29.4823C20.9859 29.4726 20.9886 29.4597 20.994 29.45C20.9994 29.4403 21.0048 29.4338 21.0129 29.4274C21.021 29.4242 21.0318 29.4209 21.0399 29.4209C21.0507 29.4209 21.0588 29.4242 21.0642 29.4274C21.0723 29.4306 21.0776 29.4371 21.083 29.4435L21.0669 29.4597C21.0615 29.45 21.0534 29.4435 21.0426 29.4435C21.0372 29.4435 21.0318 29.4467 21.0264 29.45C21.021 29.4532 21.0156 29.4564 21.0129 29.4629C21.0102 29.4693 21.0102 29.4758 21.0102 29.4823C21.0102 29.4919 21.0102 29.4984 21.0129 29.5048C21.0156 29.5081 21.021 29.5145 21.0264 29.5178C21.0318 29.521 21.0372 29.521 21.0426 29.521C21.0534 29.521 21.0615 29.5178 21.0669 29.5081L21.083 29.5242C21.0776 29.5307 21.0723 29.5371 21.0642 29.5404C21.0588 29.5436 21.0507 29.5468 21.0399 29.5468ZM21.2558 29.5597H21.334V29.4112H21.2558V29.5597ZM21.2045 29.4112H21.2477V29.3338H20.9697V29.6662H21.2477V29.5597H21.2045V29.4112Z" fill="white"/>
<path d="M21.334 29.2821H20.9697V29.7179H21.334V29.2821Z" fill="white"/>
<defs>
<filter id="filter0_dd_6697_11537" x="0" y="0" width="52" height="63" filterUnits="userSpaceOnUse" color-interpolation-filters="sRGB">
<feFlood flood-opacity="0" result="BackgroundImageFix"/>
<feColorMatrix in="SourceAlpha" type="matrix" values="0 0 0 0 0 0 0 0 0 0 0 0 0 0 0 0 0 0 127 0" result="hardAlpha"/>
<feMorphology radius="1" operator="erode" in="SourceAlpha" result="effect1_dropShadow_6697_11537"/>
<feOffset dy="4"/>
<feGaussianBlur stdDeviation="2"/>
<feComposite in2="hardAlpha" operator="out"/>
<feColorMatrix type="matrix" values="0 0 0 0 0.0470588 0 0 0 0 0.0470588 0 0 0 0 0.0509804 0 0 0 0.05 0"/>
<feBlend mode="normal" in2="BackgroundImageFix" result="effect1_dropShadow_6697_11537"/>
<feColorMatrix in="SourceAlpha" type="matrix" values="0 0 0 0 0 0 0 0 0 0 0 0 0 0 0 0 0 0 127 0" result="hardAlpha"/>
<feMorphology radius="1" operator="erode" in="SourceAlpha" result="effect2_dropShadow_6697_11537"/>
<feOffset dy="4"/>
<feGaussianBlur stdDeviation="2"/>
<feComposite in2="hardAlpha" operator="out"/>
<feColorMatrix type="matrix" values="0 0 0 0 0.0470588 0 0 0 0 0.0470588 0 0 0 0 0.0509804 0 0 0 0.1 0"/>
<feBlend mode="normal" in2="effect1_dropShadow_6697_11537" result="effect2_dropShadow_6697_11537"/>
<feBlend mode="normal" in="SourceGraphic" in2="effect2_dropShadow_6697_11537" result="shape"/>
</filter>
</defs>
</svg>
