<svg width="52" height="63" viewBox="0 0 52 63" fill="none" xmlns="http://www.w3.org/2000/svg">
<g filter="url(#filter0_dd_6697_10965)">
<path fill-rule="evenodd" clip-rule="evenodd" d="M31.4346 45.3542C41.5143 42.9123 49 33.8303 49 23C49 10.2975 38.7025 0 26 0C13.2975 0 3 10.2975 3 23C3 33.8303 10.4857 42.9123 20.5654 45.3542C21.6309 45.7444 23.1139 46.5233 24 48C25.0465 49.7441 25.3866 54.0412 25.4741 55.5035C25.4908 55.7822 25.7207 56 26 56C26.2793 56 26.5092 55.7822 26.5259 55.5035C26.6134 54.0412 26.9535 49.7441 28 48C28.8861 46.5233 30.3691 45.7444 31.4346 45.3542Z" fill="#0076BF"/>
</g>
<circle cx="26" cy="59" r="1" fill="#0076BF"/>
<path d="M14.6503 10.3498C14.6503 9.7939 14.697 9.40404 14.794 9.18023C14.8837 8.95642 15.0561 8.81564 15.3111 8.76511C15.5301 8.71096 15.9323 8.68569 16.5213 8.68569H17.0707C17.6668 8.68569 18.0654 8.71457 18.2737 8.76511C18.5394 8.81203 18.7118 8.95282 18.7908 9.18023C18.8877 9.40404 18.9344 9.7939 18.9344 10.3498V10.7902C18.9344 11.3461 18.8877 11.736 18.7908 11.9598C18.7046 12.1728 18.5322 12.3099 18.2737 12.3677C18.0654 12.4218 17.6668 12.4471 17.0707 12.4471H16.5213C15.9323 12.4471 15.5301 12.4218 15.3183 12.3677C15.0561 12.3099 14.8873 12.1728 14.8012 11.9598C14.7473 11.8479 14.7078 11.6927 14.6862 11.4941C14.6611 11.2956 14.6503 11.0609 14.6503 10.7902V10.3498ZM14.1332 12.032C14.2517 12.4471 14.4887 12.7323 14.8514 12.8875C15.1638 13.0355 15.7205 13.1113 16.5248 13.1113H17.0815C17.4298 13.1113 17.7278 13.0969 17.972 13.0716C18.2162 13.0463 18.4173 13.0066 18.5681 12.9597C18.5717 12.9597 18.5753 12.9597 18.5753 12.9525C18.7656 12.8983 18.9272 12.8153 19.0529 12.6998C19.1822 12.5843 19.2863 12.4471 19.3653 12.2883C19.4408 12.1294 19.4946 11.9237 19.5305 11.671C19.5628 11.4219 19.5808 11.1259 19.5808 10.7902C19.5808 10.3787 19.57 10.0358 19.5485 9.7578C19.5269 9.47985 19.4982 9.26687 19.4623 9.11887C19.3438 8.69652 19.1104 8.40773 18.7621 8.25251C18.4137 8.09729 17.8499 8.02148 17.0815 8.02148H16.5248C15.8282 8.02148 15.329 8.07202 15.0274 8.1731H15.0346C14.8442 8.23085 14.6826 8.31749 14.5498 8.433C14.4169 8.54852 14.3092 8.6893 14.223 8.85174C14.1476 9.01057 14.0937 9.21633 14.065 9.46902C14.0327 9.7217 14.0183 10.0141 14.0183 10.3498C14.0183 10.7613 14.0255 11.1043 14.047 11.3822C14.065 11.6602 14.0973 11.8768 14.1368 12.032" fill="white"/>
<path d="M24.1051 12.3747C23.9147 12.4325 23.5341 12.4614 22.9667 12.4614H22.1623C21.6739 12.4614 21.3436 12.4253 21.1676 12.3567C21.0132 12.3134 20.9019 12.2303 20.83 12.104C20.7582 11.9777 20.7187 11.8297 20.7151 11.6528C20.7151 11.6058 20.69 11.5806 20.6433 11.5806H20.1477C20.1011 11.5806 20.0759 11.6058 20.0759 11.6528C20.0867 12.2809 20.2914 12.6924 20.6864 12.8837C20.9521 13.0353 21.4262 13.1075 22.1049 13.1075H23.0529C23.7855 13.1075 24.299 13.0389 24.5898 12.8982C25.0315 12.6996 25.2506 12.2664 25.2506 11.595C25.2506 11.4254 25.2434 11.281 25.2326 11.1618C25.2183 11.0463 25.1931 10.9489 25.1572 10.8731C25.0567 10.6962 24.913 10.559 24.7263 10.4579C24.9023 10.3785 25.0279 10.2702 25.1105 10.1367C25.168 10.05 25.2075 9.94895 25.2255 9.83343C25.2434 9.71792 25.2542 9.57714 25.2542 9.41831C25.2542 8.78298 25.0172 8.37507 24.5468 8.19458C24.4103 8.14765 24.2164 8.10795 23.9722 8.08268C23.728 8.05741 23.4228 8.04297 23.0565 8.04297H22.1013C21.4585 8.04297 20.988 8.1296 20.69 8.29927C20.2806 8.5339 20.0795 8.94903 20.0795 9.54104C20.0795 9.58797 20.1047 9.61324 20.1513 9.61324H20.6469C20.6936 9.61324 20.7187 9.58797 20.7187 9.54104C20.7295 9.17284 20.8875 8.93098 21.1963 8.81186C21.4046 8.74327 21.7493 8.70717 22.2305 8.70717H22.9559C23.2253 8.70717 23.4551 8.71078 23.6382 8.718C23.8214 8.72522 23.9578 8.74327 24.0476 8.77215C24.2379 8.81547 24.3852 8.89127 24.4893 8.99957C24.5934 9.10786 24.6437 9.24864 24.6437 9.41831C24.6437 9.81177 24.4139 10.115 23.8752 10.115H21.3651V10.8009H23.9901C24.457 10.9019 24.6437 11.1691 24.6437 11.595C24.6437 12.021 24.4642 12.2701 24.1086 12.3711" fill="white"/>
<path d="M25.8898 11.8878C25.9329 12.108 26.0011 12.2921 26.1016 12.4437C26.1986 12.5953 26.3243 12.7216 26.4715 12.8227C26.6367 12.9238 26.845 12.996 27.0963 13.0429C27.3477 13.0862 27.6494 13.1115 28.0013 13.1115H29.8076C30.3821 13.1115 30.8095 13.0176 31.0896 12.8299C31.4307 12.5845 31.5995 12.191 31.5995 11.6531C31.5995 11.6387 31.5995 11.6279 31.5923 11.6206L31.5528 11.5882C31.5528 11.5882 31.5528 11.5809 31.5456 11.5809H31.0357C30.989 11.5809 30.9639 11.6062 30.9639 11.6531V11.6784C30.9639 12.0069 30.8561 12.2271 30.6371 12.3282C30.4575 12.4184 30.1774 12.4653 29.8004 12.4653H27.9438C27.2903 12.4653 26.8701 12.357 26.687 12.1441C26.6116 12.0502 26.5541 11.8878 26.5146 11.6603C26.4751 11.4329 26.4536 11.1441 26.4536 10.7904C26.4536 10.4655 26.4536 10.1948 26.4607 9.98539C26.4679 9.77603 26.4787 9.62441 26.5002 9.53417C26.5577 9.20207 26.6906 8.97826 26.8917 8.85552C27.003 8.79777 27.1538 8.75084 27.3513 8.71113C27.5452 8.67503 27.7858 8.65699 28.0803 8.65699H29.8004C30.5689 8.65699 30.9567 8.9205 30.9567 9.44753V9.46558C30.9567 9.51251 30.9818 9.53778 31.0285 9.53778H31.5313C31.5744 9.53778 31.5959 9.51251 31.5959 9.46558V9.44753C31.5959 8.96382 31.4451 8.59923 31.147 8.36098C30.8454 8.11912 30.4001 8 29.804 8H28.1306C27.24 8 26.6295 8.15883 26.3063 8.4801H26.3135C25.9831 8.80499 25.8215 9.42226 25.8215 10.3283C25.8215 11.108 25.8467 11.6279 25.8934 11.8914" fill="white"/>
<path d="M34.0271 36.5966H33.3161V32.3911H30.4217V36.5966H28.7735V29.2614H30.6013V28.6153L28.7771 27.4385H29.3803V25.6011H28.6693V27.3699L28.0589 26.9728V21.2296H31.93V20.5149H28.0589V19.4103H31.93V18.6955H28.0589V17.3527H31.93V16.6379H28.0589V14.7067H34.0271V36.6038V36.5966ZM24.4535 25.0957L22.8267 26.1931V16.0026L24.4642 15.3348L24.4535 25.0957ZM22.1157 26.6732L20.8481 27.5287V16.8112L22.1157 16.295V26.6732ZM37.5104 8.12238C37.5104 8.06824 37.4817 8.04297 37.4314 8.04297H36.627L33.528 10.0861H32.8098V8.12238C32.8098 8.06824 32.7846 8.04297 32.738 8.04297H32.2352C32.1885 8.04297 32.1634 8.07185 32.1634 8.12238V13.0389C32.1634 13.0859 32.1885 13.1111 32.2352 13.1111H32.738C32.7882 13.1111 32.8098 13.0859 32.8098 13.0389V10.6926H33.5423L36.7419 13.2555V36.5966H34.7381V13.9847H27.3478V16.6343H25.8288V17.3491H27.3478V18.6919H25.8288V19.4066H27.3478V20.5112H25.8288V21.226H27.3478V26.5071L25.1645 25.0885L25.1753 14.2663L14 18.8327V19.6016L20.1335 17.1V28.0052L18.6216 29.0412V29.5755H20.3274V34.8061H18.2482V19.089L14.0036 20.7748V37.3113H26.1125V34.0661H25.4015V36.5929H14.7146V21.2585L17.5336 20.1394V35.5172H21.0348V28.8571H20.1442L24.809 25.713L29.1649 28.5431H28.0553V37.3041H28.0948V37.3113H31.1292V33.1059H32.5979V37.3113H37.453V13.0065H37.4494C37.4494 13.0065 37.453 13.0028 37.4566 12.9992L34.1456 10.3713L37.5032 8.1657C37.5032 8.1657 37.5104 8.13682 37.5104 8.12599" fill="white"/>
<path d="M22.8267 29.959H22.1157V31.7964H22.8267V29.959Z" fill="white"/>
<path d="M25.3297 29.959H24.6187V31.7964H25.3297V29.959Z" fill="white"/>
<path d="M31.8441 22.4062H31.1331V24.2436H31.8441V22.4062Z" fill="white"/>
<path d="M31.8441 25.7031H31.1331V27.5405H31.8441V25.7031Z" fill="white"/>
<path d="M31.8441 29.0449H31.1331V30.8823H31.8441V29.0449Z" fill="white"/>
<path d="M29.3802 22.4062H28.6692V24.2436H29.3802V22.4062Z" fill="white"/>
<defs>
<filter id="filter0_dd_6697_10965" x="0" y="0" width="52" height="63" filterUnits="userSpaceOnUse" color-interpolation-filters="sRGB">
<feFlood flood-opacity="0" result="BackgroundImageFix"/>
<feColorMatrix in="SourceAlpha" type="matrix" values="0 0 0 0 0 0 0 0 0 0 0 0 0 0 0 0 0 0 127 0" result="hardAlpha"/>
<feMorphology radius="1" operator="erode" in="SourceAlpha" result="effect1_dropShadow_6697_10965"/>
<feOffset dy="4"/>
<feGaussianBlur stdDeviation="2"/>
<feComposite in2="hardAlpha" operator="out"/>
<feColorMatrix type="matrix" values="0 0 0 0 0.0470588 0 0 0 0 0.0470588 0 0 0 0 0.0509804 0 0 0 0.05 0"/>
<feBlend mode="normal" in2="BackgroundImageFix" result="effect1_dropShadow_6697_10965"/>
<feColorMatrix in="SourceAlpha" type="matrix" values="0 0 0 0 0 0 0 0 0 0 0 0 0 0 0 0 0 0 127 0" result="hardAlpha"/>
<feMorphology radius="1" operator="erode" in="SourceAlpha" result="effect2_dropShadow_6697_10965"/>
<feOffset dy="4"/>
<feGaussianBlur stdDeviation="2"/>
<feComposite in2="hardAlpha" operator="out"/>
<feColorMatrix type="matrix" values="0 0 0 0 0.0470588 0 0 0 0 0.0470588 0 0 0 0 0.0509804 0 0 0 0.1 0"/>
<feBlend mode="normal" in2="effect1_dropShadow_6697_10965" result="effect2_dropShadow_6697_10965"/>
<feBlend mode="normal" in="SourceGraphic" in2="effect2_dropShadow_6697_10965" result="shape"/>
</filter>
</defs>
</svg>
