<svg width="52" height="63" viewBox="0 0 52 63" fill="none" xmlns="http://www.w3.org/2000/svg">
<g filter="url(#filter0_dd_6697_10219)">
<path fill-rule="evenodd" clip-rule="evenodd" d="M31.4346 45.3542C41.5143 42.9123 49 33.8303 49 23C49 10.2975 38.7025 0 26 0C13.2975 0 3 10.2975 3 23C3 33.8303 10.4857 42.9123 20.5654 45.3542C21.6309 45.7444 23.1139 46.5233 24 48C25.0465 49.7441 25.3866 54.0412 25.4741 55.5035C25.4908 55.7822 25.7207 56 26 56C26.2793 56 26.5092 55.7822 26.5259 55.5035C26.6134 54.0412 26.9535 49.7441 28 48C28.8861 46.5233 30.3691 45.7444 31.4346 45.3542Z" fill="#0076BF"/>
</g>
<circle cx="26" cy="59" r="1" fill="#0076BF"/>
<path fill-rule="evenodd" clip-rule="evenodd" d="M10.907 29.1015L10.7813 28.8334L11.0627 28.6909L11.0708 28.7082L11.4826 29.5857L11.2013 29.7284L11.0754 29.4603L10.1841 29.9121L10.176 29.8947L10.0158 29.5534L10.907 29.1015ZM11.7384 30.0914L11.7483 30.108L12.0397 30.5926C12.1134 30.7152 12.1432 30.8233 12.1293 30.9171C12.1152 31.0107 12.0839 31.0877 12.0354 31.1481C12.0178 31.1703 11.9992 31.19 11.9795 31.2073C11.9599 31.2246 11.9406 31.2394 11.9216 31.2517C11.9027 31.2641 11.8815 31.2757 11.8578 31.2863C11.8342 31.2971 11.809 31.3059 11.7824 31.3124C11.7093 31.3324 11.629 31.3284 11.5409 31.3002C11.4528 31.2721 11.3719 31.1968 11.2983 31.074L11.2004 30.9115L10.8354 31.1486L10.8254 31.1321L10.6318 30.81L11.7384 30.0914ZM11.4439 30.7534L11.4894 30.8289C11.5178 30.876 11.5458 30.9055 11.5738 30.9179C11.6017 30.9302 11.6264 30.9347 11.6478 30.9316C11.6621 30.9284 11.6747 30.9239 11.686 30.9181C11.6972 30.9125 11.706 30.9076 11.7123 30.9034C11.7186 30.8994 11.7246 30.8949 11.7307 30.8903C11.7368 30.8857 11.7425 30.8807 11.7483 30.8755C11.767 30.8556 11.7792 30.8288 11.7843 30.7948C11.7896 30.7611 11.7762 30.7172 11.744 30.6635L11.6985 30.5881L11.4439 30.7534ZM12.8277 31.7908L12.8392 31.8062L13.1123 32.1694L12.3686 33.3828L12.3571 33.3676L12.1162 33.047L12.2502 32.8446L11.9886 32.4966L11.7661 32.5814L11.7546 32.5661L11.5138 32.2455L12.8277 31.7908ZM12.2598 32.3724L12.4319 32.6016L12.7085 32.1924L12.2598 32.3724ZM13.7504 32.9899L13.7632 33.004L14.0125 33.2819L13.6689 33.6147L13.9588 33.9377L14.3024 33.6048L14.315 33.6191L14.5641 33.8965L13.6099 34.8214L13.5972 34.8073L13.348 34.5296L13.7297 34.1597L13.4399 33.8367L13.0582 34.2066L13.0454 34.1924L12.7963 33.9146L13.7504 32.9899ZM14.9739 35.9801C14.9428 35.976 14.9138 35.9695 14.8867 35.9604C14.8597 35.9515 14.8339 35.9408 14.8093 35.9289C14.7774 35.9138 14.7482 35.8964 14.7211 35.8764C14.6943 35.8563 14.6691 35.8358 14.6457 35.8146L14.6303 35.8034C14.4925 35.6769 14.4137 35.522 14.3944 35.3384C14.375 35.1551 14.4365 34.9779 14.5793 34.8074C14.7284 34.6289 14.8927 34.5408 15.072 34.5429C15.2515 34.5449 15.4046 34.6032 15.5311 34.7176L15.5451 34.7302C15.5622 34.7456 15.5786 34.7623 15.5949 34.7803C15.611 34.7984 15.627 34.8178 15.6423 34.8387C15.6656 34.8698 15.6862 34.9038 15.704 34.9406C15.7221 34.9772 15.7362 35.0159 15.747 35.0561L15.4986 35.353L15.4845 35.3403C15.4845 35.3283 15.4841 35.3152 15.4832 35.3006C15.4821 35.2859 15.4807 35.2701 15.4786 35.2529C15.4735 35.2158 15.4623 35.1755 15.4446 35.1324C15.4273 35.0893 15.3993 35.0495 15.3607 35.0129C15.2821 34.9454 15.1971 34.921 15.1054 34.9401C15.014 34.9592 14.9353 35.0075 14.8701 35.0855C14.7967 35.1734 14.7645 35.2627 14.7731 35.3535C14.782 35.4444 14.8189 35.521 14.8838 35.5831C14.9352 35.626 14.9891 35.6536 15.0459 35.6654C15.1027 35.6773 15.1551 35.6811 15.2031 35.6766L15.2172 35.6893L14.9739 35.9801ZM16.3174 35.396L16.3323 35.4074L17.2735 36.1179L16.5063 37.215L16.4914 37.2035L16.1958 36.9804L16.7787 36.1466L16.444 35.8938L15.8611 36.7276L15.846 36.7161L15.5502 36.493L16.3174 35.396ZM17.7373 37.9576C17.5335 37.8497 17.41 37.7037 17.3663 37.5198C17.3226 37.3358 17.3425 37.1586 17.426 36.9883C17.5089 36.8191 17.6341 36.6981 17.8016 36.6251C17.9693 36.5522 18.1565 36.5706 18.3636 36.6803L18.3802 36.6892C18.5874 36.7987 18.7116 36.9454 18.7532 37.1291C18.7952 37.313 18.7745 37.4894 18.6915 37.6584C18.6081 37.8288 18.483 37.9495 18.3162 38.0206C18.1495 38.0919 17.9626 38.0732 17.7548 37.9647L17.7373 37.9576ZM17.8863 37.6711C17.8973 37.677 17.9093 37.6823 17.9224 37.6871C17.9354 37.6917 17.949 37.695 17.9635 37.6969C18.024 37.71 18.0889 37.7022 18.1585 37.6729C18.2277 37.6436 18.2881 37.5766 18.3395 37.4719C18.3907 37.3673 18.4071 37.277 18.3886 37.2012C18.37 37.1253 18.3382 37.0661 18.2935 37.0237C18.283 37.0139 18.2726 37.0046 18.2621 36.9962C18.2516 36.9877 18.2407 36.9804 18.2297 36.9746C18.2176 36.9681 18.2042 36.9627 18.1899 36.958C18.1754 36.9531 18.1608 36.9499 18.1466 36.9481C18.0876 36.9372 18.0241 36.9467 17.9559 36.9764C17.8874 37.0063 17.8282 37.0724 17.778 37.1747C17.7278 37.2771 17.7112 37.3658 17.7281 37.4408C17.7452 37.5157 17.7751 37.5747 17.8182 37.6178C17.8281 37.6287 17.8388 37.6388 17.8506 37.648C17.8621 37.6569 17.874 37.6646 17.8863 37.6711ZM19.5677 37.3212L19.585 37.3285L20.0948 37.5425C20.224 37.5967 20.3091 37.666 20.3508 37.7504C20.3924 37.8348 20.4106 37.9162 20.4055 37.9947C20.4039 38.0233 20.3999 38.0506 20.3938 38.0765C20.3878 38.1026 20.3804 38.1264 20.3721 38.1479C20.3637 38.1695 20.3532 38.1919 20.3401 38.2149C20.3272 38.2381 20.3117 38.2605 20.2938 38.2822C20.2462 38.3429 20.1787 38.3888 20.0916 38.4198C20.0045 38.4508 19.8963 38.4392 19.7673 38.385L19.5963 38.3132L19.435 38.7281L19.4178 38.7209L19.0788 38.5786L19.5677 37.3212ZM19.7038 38.0365L19.7833 38.07C19.8328 38.0908 19.8724 38.0975 19.9019 38.0904C19.9316 38.0834 19.9541 38.0719 19.9695 38.0563C19.9793 38.045 19.9871 38.0336 19.9928 38.0221C19.9987 38.0105 20.0031 38.0013 20.0057 37.9941C20.0087 37.987 20.011 37.9797 20.0133 37.9722C20.0155 37.9647 20.0174 37.9573 20.0191 37.9497C20.0231 37.922 20.0177 37.8928 20.0027 37.8623C19.9879 37.8316 19.9523 37.8045 19.8957 37.7807L19.8163 37.7473L19.7038 38.0365ZM21.1924 38.2481L20.9164 38.1658L21.0029 37.853L21.0207 37.8585L21.9237 38.1275L21.8374 38.4404L21.5615 38.3582L21.2882 39.3488L21.2702 39.3435L20.919 39.2388L21.1924 38.2481ZM22.4819 38.2519L22.5002 38.2555L22.859 38.3279L22.7693 38.8072L23.1865 38.8915L23.2761 38.4124L23.2944 38.416L23.653 38.4884L23.404 39.8194L23.3857 39.8158L23.0271 39.7433L23.1268 39.2108L22.7097 39.1267L22.61 39.6591L22.5916 39.6554L22.2329 39.5829L22.4819 38.2519ZM24.84 39.9965C24.6122 39.9757 24.445 39.8884 24.3382 39.7348C24.2313 39.5814 24.186 39.4093 24.2019 39.2188C24.2179 39.0298 24.2903 38.8687 24.4193 38.7359C24.5484 38.603 24.7287 38.5473 24.9603 38.5683L24.9789 38.57C25.2103 38.591 25.3785 38.6786 25.4834 38.8326C25.5884 38.9867 25.6329 39.1585 25.6169 39.3474C25.601 39.5379 25.5284 39.6986 25.3995 39.8295C25.2706 39.9603 25.0904 40.0158 24.8588 39.9961L24.84 39.9965ZM24.8747 39.6727C24.8871 39.6739 24.9001 39.6742 24.914 39.6735C24.9279 39.6727 24.9415 39.6705 24.9558 39.6665C25.0165 39.6551 25.0739 39.6226 25.1277 39.5684C25.1815 39.5143 25.2134 39.4288 25.2233 39.3116C25.233 39.1946 25.2156 39.1044 25.1711 39.0415C25.1266 38.9784 25.0759 38.9358 25.0191 38.9139C25.0057 38.9088 24.9928 38.9043 24.98 38.9007C24.9673 38.8968 24.9546 38.8944 24.9422 38.8932C24.9286 38.892 24.9143 38.892 24.8993 38.8933C24.8841 38.8943 24.8695 38.8971 24.8556 38.9009C24.7971 38.9137 24.7415 38.9473 24.6889 39.0013C24.6363 39.0557 24.6052 39.1401 24.5956 39.2545C24.5859 39.3689 24.6025 39.4576 24.6452 39.5205C24.6879 39.5834 24.7369 39.6265 24.7926 39.6497C24.8057 39.656 24.8192 39.6613 24.8333 39.6649C24.8473 39.6689 24.8612 39.6716 24.8747 39.6727ZM26.2559 38.6264L26.2746 38.6257L27.057 38.5974L27.068 38.9226L26.6507 38.9377L26.6571 39.1274L27.0353 39.1138L27.0452 39.4118L26.6672 39.4255L26.6745 39.6424L27.0917 39.6273L27.1025 39.9525L27.084 39.9532L26.3016 39.9815L26.2559 38.6264ZM30.1286 39.4191L30.1107 39.4244L29.7093 39.544L29.979 38.722L29.3944 38.2271L29.4124 38.2219L29.8334 38.0964L30.1033 38.3786L30.1882 37.9906L30.2061 37.9853L30.604 37.8668L30.377 38.5833L31.03 39.1505L31.012 39.1558L30.5981 39.2791L30.2559 38.9317L30.1286 39.4191ZM32.2729 38.7377C32.0609 38.8267 31.8738 38.828 31.7116 38.7416C31.5492 38.655 31.4337 38.5232 31.3648 38.346C31.2964 38.17 31.2907 37.9924 31.3476 37.8131C31.4044 37.6339 31.5408 37.4989 31.7563 37.4086L31.7735 37.4013C31.989 37.3108 32.1771 37.3095 32.3379 37.3973C32.4988 37.485 32.6134 37.617 32.6818 37.793C32.7507 37.9702 32.7563 38.1476 32.6985 38.325C32.6409 38.5025 32.5046 38.6369 32.2895 38.7286L32.2729 38.7377ZM32.1626 38.4329C32.1742 38.4281 32.1859 38.4223 32.1978 38.4151C32.2098 38.4079 32.2211 38.3994 32.232 38.3893C32.2812 38.3503 32.3181 38.2943 32.3425 38.2207C32.3668 38.1471 32.3576 38.0557 32.3154 37.9468C32.2729 37.838 32.218 37.7658 32.1509 37.7307C32.0836 37.6956 32.0198 37.6816 31.9597 37.6888C31.9456 37.6906 31.932 37.6925 31.9191 37.6954C31.9059 37.698 31.8936 37.7019 31.8822 37.7067C31.8696 37.7119 31.8568 37.7188 31.844 37.7271C31.8309 37.7352 31.8192 37.7444 31.8083 37.7544C31.7617 37.7935 31.7269 37.8495 31.7038 37.9226C31.6805 37.9958 31.6898 38.0856 31.7311 38.1922C31.7726 38.2986 31.826 38.3699 31.8915 38.4059C31.9571 38.4417 32.0196 38.4568 32.0793 38.4513C32.0936 38.4508 32.1082 38.449 32.1224 38.4457C32.1364 38.4427 32.15 38.4382 32.1626 38.4329ZM33.5377 37.1954C33.594 37.1656 33.6303 37.1352 33.6457 37.1046C33.6615 37.0738 33.6675 37.0464 33.6639 37.0222C33.6628 37.0141 33.6609 37.0063 33.658 36.9991C33.6553 36.992 33.6523 36.9855 33.6494 36.9797C33.6314 36.943 33.6031 36.9214 33.5644 36.9151C33.5257 36.9086 33.4817 36.9179 33.4324 36.9426C33.4009 36.9606 33.3738 36.9812 33.3508 37.0043C33.3278 37.0272 33.3071 37.0524 33.2884 37.0797C33.2808 37.0895 33.2736 37.0998 33.267 37.1105C33.2603 37.1213 33.2538 37.1328 33.2472 37.145L33.2306 37.1538L33.0016 36.9771C33.009 36.966 33.0183 36.9519 33.0302 36.9348C33.042 36.9177 33.0563 36.899 33.0727 36.8785C33.1013 36.843 33.1374 36.8055 33.1806 36.7659C33.2241 36.7264 33.2766 36.6902 33.3386 36.6573L33.3552 36.6485C33.4904 36.5769 33.6144 36.5522 33.7279 36.5741C33.8411 36.5961 33.9216 36.656 33.9697 36.7536C34.0002 36.8159 34.01 36.8808 33.9993 36.9487C33.9887 37.0167 33.9598 37.0764 33.9123 37.1275L33.9148 37.1328C33.921 37.1309 33.9271 37.1299 33.9332 37.1294C33.9394 37.1293 33.9458 37.1288 33.9523 37.1281C34.0078 37.122 34.0653 37.1303 34.1247 37.1531C34.1841 37.1762 34.2332 37.2272 34.2721 37.3066C34.3302 37.4252 34.3289 37.5404 34.268 37.6523C34.2072 37.7643 34.1129 37.854 33.9857 37.9215L33.9698 37.9321C33.9351 37.949 33.9014 37.9638 33.8694 37.9765C33.8373 37.9892 33.8043 37.9994 33.7705 38.0072C33.7248 38.0168 33.6747 38.0206 33.6199 38.0183C33.5652 38.0163 33.5004 38.0082 33.4251 37.9943L33.4497 37.6987L33.4663 37.6899C33.5009 37.7005 33.5361 37.708 33.5723 37.7119C33.6086 37.7161 33.6435 37.7171 33.6773 37.7151C33.7014 37.7126 33.7245 37.7087 33.7468 37.7033C33.7693 37.6978 33.7904 37.6907 33.8097 37.682C33.8568 37.6556 33.8874 37.6271 33.9016 37.5963C33.916 37.5656 33.9215 37.5373 33.9185 37.5112C33.9185 37.5026 33.917 37.4943 33.9145 37.4862C33.9121 37.4782 33.909 37.4706 33.9057 37.4636C33.8888 37.4293 33.8609 37.4066 33.8221 37.396C33.7836 37.3854 33.7282 37.399 33.6561 37.4371L33.4718 37.5347L33.3534 37.2931L33.5377 37.1954ZM35.0089 36.6517C34.9971 36.6565 34.985 36.6609 34.9731 36.6653C34.9611 36.6698 34.9475 36.6729 34.9325 36.6754C34.8735 36.6875 34.8091 36.6822 34.7392 36.6591C34.6693 36.6363 34.6063 36.5799 34.5502 36.4901C34.4688 36.3601 34.4466 36.2391 34.4833 36.1274C34.5202 36.0154 34.5948 35.9216 34.7076 35.8455L34.7232 35.8351L35.1718 35.5322L35.8824 36.6696L35.8669 36.68L35.5604 36.8869L35.3189 36.5002L35.3064 36.5086L35.3244 37.0461L35.3088 37.0566L34.9805 37.2783L35.0089 36.6517ZM35.006 35.9997L34.9373 36.0461C34.93 36.0511 34.9197 36.0587 34.907 36.069C34.8942 36.0791 34.8818 36.0912 34.87 36.1056C34.8539 36.1272 34.8432 36.1534 34.8378 36.1839C34.8323 36.2144 34.8419 36.2492 34.8662 36.2881C34.8953 36.3347 34.9263 36.3601 34.9592 36.3641C34.9922 36.3681 35.0233 36.3639 35.0526 36.3516C35.0627 36.3465 35.0724 36.3412 35.0815 36.3357C35.0907 36.3304 35.0995 36.3248 35.1078 36.3191L35.1768 36.2727L35.006 35.9997ZM35.9508 34.9099L36.4461 35.5021L36.318 34.5782L36.3322 34.5655L36.6021 34.3215L37.4582 35.3449L37.4442 35.3577L37.1783 35.5977L36.6842 35.0071L36.8168 35.9243L36.8028 35.937L36.5268 36.1862L35.6709 35.1629L35.685 35.1501L35.9508 34.9099ZM35.7879 34.5643L35.8018 34.5515C35.8261 34.5689 35.8489 34.5786 35.87 34.5799C35.891 34.5815 35.9102 34.5787 35.9274 34.5718C35.939 34.5679 35.9497 34.5629 35.9594 34.5568C35.969 34.5509 35.9773 34.5447 35.9837 34.5387C35.9904 34.5328 35.9972 34.5253 36.0045 34.5162C36.0116 34.5071 36.0178 34.4968 36.0229 34.4854C36.032 34.4687 36.0374 34.4493 36.0388 34.4273C36.0403 34.4056 36.0344 34.3808 36.0214 34.3533L36.0354 34.3407L36.2472 34.2571C36.2716 34.3377 36.2691 34.4136 36.2391 34.4852C36.2091 34.5567 36.1652 34.6188 36.107 34.6712L36.0929 34.6839C36.0282 34.7425 35.959 34.7798 35.8851 34.7959C35.8114 34.8121 35.7427 34.8037 35.6789 34.7705L35.7879 34.5643ZM38.6865 34.0141C38.6814 34.0462 38.674 34.0762 38.6645 34.1041C38.6549 34.1318 38.6437 34.1581 38.6314 34.1833C38.6158 34.2159 38.5979 34.2457 38.5777 34.273C38.5576 34.3002 38.5368 34.3256 38.5156 34.3493L38.5045 34.3647C38.378 34.5036 38.2263 34.5799 38.049 34.5936C37.872 34.6074 37.7039 34.5373 37.5448 34.3831C37.3785 34.222 37.2994 34.0482 37.3077 33.8621C37.3159 33.6758 37.3774 33.5188 37.4916 33.3913L37.5043 33.3772C37.5196 33.3601 37.5362 33.3435 37.5541 33.3273C37.5721 33.3112 37.5913 33.2953 37.612 33.2802C37.6428 33.257 37.6761 33.2368 37.7122 33.2195C37.7481 33.2022 37.7856 33.1887 37.8248 33.1791L38.1016 33.4473L38.089 33.4616C38.0773 33.4611 38.0647 33.4611 38.0507 33.4615C38.0364 33.4621 38.0212 33.4631 38.0046 33.4646C37.9687 33.4686 37.9296 33.4789 37.8875 33.4956C37.8454 33.5122 37.8061 33.5399 37.7698 33.5787C37.702 33.6579 37.6756 33.7454 37.6908 33.8412C37.706 33.937 37.7498 34.0203 37.8224 34.0907C37.9042 34.17 37.9891 34.2068 38.0769 34.2008C38.1644 34.1948 38.2394 34.1592 38.3014 34.0938C38.3445 34.042 38.3727 33.9869 38.3862 33.9284C38.3995 33.8699 38.4051 33.8155 38.4024 33.7655L38.4151 33.7512L38.6865 34.0141ZM38.5474 32.6934L38.3706 32.9284L38.124 32.728L38.1356 32.7128L38.7138 31.9434L38.9605 32.1439L38.784 32.3789L39.5654 33.0133L39.5539 33.0286L39.3289 33.328L38.5474 32.6934ZM39.4097 30.9189C39.4722 30.8148 39.5357 30.7506 39.6007 30.7255C39.6654 30.7006 39.7241 30.6945 39.7766 30.7073C39.8012 30.7126 39.8235 30.7199 39.8436 30.729C39.8635 30.7383 39.8816 30.7481 39.8975 30.7583C39.9544 30.7953 39.9921 30.8447 40.0108 30.9062C40.0294 30.9679 40.0326 31.0282 40.0205 31.0874L40.0237 31.0894C40.0348 31.0783 40.0491 31.0655 40.0666 31.0511C40.0841 31.0363 40.1047 31.0231 40.128 31.011C40.1685 30.9899 40.2165 30.9773 40.2717 30.9728C40.3271 30.9684 40.3875 30.9874 40.4529 31.0299C40.4591 31.034 40.4652 31.0383 40.4707 31.0427C40.4759 31.0469 40.4818 31.0511 40.4882 31.0552C40.5512 31.1066 40.5935 31.1799 40.6155 31.2749C40.6375 31.3701 40.6107 31.4805 40.5349 31.6063L40.525 31.6229L40.1714 32.211L39.0649 31.4924L39.0748 31.476L39.4097 30.9189ZM40.2327 31.5975C40.2379 31.5885 40.2446 31.5769 40.2526 31.5623C40.2606 31.5477 40.2674 31.5325 40.2727 31.5159C40.2819 31.4886 40.2843 31.4596 40.2799 31.4294C40.2754 31.3991 40.2551 31.3722 40.2193 31.349C40.1845 31.3264 40.1534 31.3203 40.1259 31.3306C40.0985 31.3408 40.0752 31.3558 40.0561 31.3753C40.0462 31.3873 40.0371 31.3992 40.029 31.4115C40.0208 31.4237 40.0141 31.4342 40.0088 31.443L39.9259 31.5809L40.1537 31.7288L40.2327 31.5975ZM39.7758 31.319C39.804 31.2719 39.8174 31.2334 39.8155 31.2033C39.8139 31.1733 39.8061 31.149 39.7922 31.1308C39.7871 31.1245 39.7819 31.1193 39.7764 31.1149C39.771 31.1106 39.7656 31.1068 39.7603 31.1033C39.732 31.0849 39.7001 31.079 39.6645 31.0856C39.6289 31.0922 39.5943 31.1235 39.5608 31.1794L39.4896 31.2976L39.7047 31.4372L39.7758 31.319ZM41.4598 30.0132C41.3596 30.2269 41.2213 30.3578 41.045 30.4064C40.8688 30.4551 40.698 30.4374 40.5327 30.3537C40.3686 30.2705 40.2499 30.1425 40.1768 29.9696C40.1036 29.7969 40.1181 29.6019 40.2201 29.3848L40.2282 29.3673C40.3301 29.1502 40.4689 29.0185 40.645 28.972C40.8211 28.9254 40.9911 28.9437 41.1554 29.0268C41.3207 29.1107 41.4391 29.2386 41.5103 29.4106C41.5818 29.5825 41.567 29.7773 41.4663 29.9949L41.4598 30.0132ZM41.1816 29.8635C41.187 29.8519 41.1919 29.8394 41.1963 29.8257C41.2006 29.8121 41.2034 29.7978 41.205 29.7828C41.2165 29.7196 41.2079 29.6523 41.1786 29.5807C41.1492 29.5093 41.0838 29.4476 40.9821 29.396C40.8804 29.3446 40.7933 29.3292 40.7207 29.3498C40.648 29.3705 40.5917 29.4043 40.5515 29.4516C40.5422 29.4627 40.5336 29.4736 40.5257 29.4847C40.5177 29.4958 40.511 29.5071 40.5054 29.5187C40.4995 29.5314 40.4944 29.5454 40.4903 29.5605C40.4858 29.5756 40.4829 29.5906 40.4815 29.6055C40.4719 29.667 40.4821 29.7329 40.5119 29.8033C40.5419 29.8738 40.6065 29.9343 40.7059 29.9847C40.8053 30.0349 40.8908 30.0506 40.9627 30.0318C41.0345 30.0129 41.0907 29.9807 41.1315 29.9351C41.1419 29.9247 41.1514 29.9134 41.1599 29.901C41.1683 29.8889 41.1755 29.8763 41.1816 29.8635ZM8.88452 19.2379L8.88801 19.2188L9.0375 18.4202L9.34471 18.4823L9.26513 18.9082L10.2386 19.1048L10.2351 19.1239L10.1652 19.4967L8.88452 19.2379ZM10.6752 17.2788C10.6122 17.5074 10.4978 17.6612 10.3326 17.741C10.167 17.8207 9.99585 17.8341 9.81912 17.7814C9.64347 17.7292 9.50519 17.6244 9.40436 17.4674C9.30342 17.3105 9.28518 17.1158 9.34921 16.8836L9.35427 16.8651C9.41838 16.6328 9.53308 16.4781 9.69882 16.4005C9.86441 16.3228 10.0349 16.31 10.2105 16.3624C10.3873 16.4151 10.5253 16.5198 10.6244 16.6762C10.7234 16.8327 10.7414 17.0271 10.6786 17.2596L10.6752 17.2788ZM10.3761 17.1817C10.3797 17.1692 10.3824 17.156 10.3843 17.1417C10.3863 17.1276 10.3868 17.1131 10.3858 17.0979C10.3867 17.0336 10.3669 16.969 10.3259 16.9037C10.2852 16.8385 10.2104 16.7898 10.1016 16.7573C9.99297 16.725 9.90448 16.7255 9.83649 16.7588C9.76838 16.7923 9.71844 16.8358 9.68687 16.8896C9.6795 16.9023 9.67282 16.9146 9.6669 16.927C9.66083 16.9393 9.65622 16.9517 9.65273 16.9642C9.64903 16.9778 9.64635 16.9923 9.64463 17.0079C9.64285 17.0237 9.64255 17.0391 9.64349 17.054C9.6445 17.1162 9.66566 17.1792 9.70669 17.2432C9.74797 17.3071 9.82169 17.3551 9.92793 17.3867C10.0342 17.4183 10.1211 17.4183 10.1887 17.387C10.2562 17.3553 10.3063 17.3135 10.3388 17.2613C10.3473 17.249 10.3548 17.2362 10.3612 17.2225C10.3675 17.209 10.3724 17.1952 10.3761 17.1817ZM9.91708 15.2133L9.92502 15.1957L10.1574 14.6778C10.2163 14.5467 10.2873 14.4619 10.3705 14.4229C10.4537 14.3842 10.5329 14.3696 10.6081 14.379C10.6355 14.3823 10.6615 14.3877 10.6861 14.3954C10.7108 14.403 10.7333 14.4117 10.7535 14.4217C10.774 14.4315 10.7949 14.4436 10.8162 14.4583C10.8377 14.4731 10.8586 14.4904 10.8784 14.5099C10.9344 14.5626 10.9749 14.6351 11.0001 14.7271C11.0253 14.8191 11.0086 14.9306 10.9497 15.0618L10.8719 15.2355L11.2621 15.4247L11.2541 15.4422L11.0997 15.7864L9.91708 15.2133ZM10.6116 15.1094L10.6478 15.0288C10.6705 14.9784 10.6789 14.9377 10.6738 14.9066C10.6685 14.8756 10.6586 14.8516 10.6444 14.8346C10.634 14.8239 10.6235 14.8154 10.6127 14.8087C10.602 14.802 10.5934 14.797 10.5865 14.7937C10.5798 14.7906 10.5729 14.7876 10.5659 14.7849C10.5588 14.7822 10.5517 14.7798 10.5446 14.7776C10.5181 14.772 10.4899 14.7762 10.4597 14.7901C10.4295 14.8039 10.4015 14.8395 10.3758 14.8968L10.3396 14.9775L10.6116 15.1094ZM10.739 13.3891L10.7483 13.3722L10.9311 13.0433L11.3718 13.3077L11.4676 13.135C11.4807 13.1114 11.4989 13.0815 11.5221 13.0447C11.5455 13.008 11.5745 12.9726 11.6093 12.9381C11.6613 12.8859 11.7254 12.8481 11.8019 12.8245C11.8779 12.8007 11.9668 12.8192 12.0679 12.8799C12.169 12.9407 12.2292 13.0114 12.2482 13.0922C12.267 13.1729 12.2681 13.2492 12.2512 13.3212C12.24 13.3696 12.2247 13.414 12.2051 13.4544C12.1855 13.4949 12.1695 13.5262 12.1571 13.5486L12.1477 13.5655L11.869 14.0671L10.739 13.3891ZM11.9039 13.4618C11.9314 13.4125 11.9451 13.3677 11.9451 13.3277C11.9452 13.2873 11.9221 13.2534 11.8759 13.2255C11.8307 13.1985 11.7915 13.1949 11.7583 13.2142C11.7251 13.234 11.6946 13.2689 11.6666 13.3194L11.5977 13.4433L11.835 13.5857L11.9039 13.4618ZM11.8242 11.5585L11.836 11.5435L12.066 11.2484L12.4715 11.5897L12.3016 10.9458L12.3134 10.9307L12.5831 10.5844L12.7623 11.398L13.6054 11.4273L13.5937 11.4423L13.3063 11.8112L12.6656 11.753L13.08 12.1017L13.0682 12.1168L12.8382 12.4119L11.8242 11.5585ZM14.5252 10.3961C14.3663 10.5671 14.196 10.6473 14.014 10.6368C13.8318 10.6265 13.6746 10.5549 13.5423 10.4222C13.4108 10.2902 13.336 10.1304 13.3179 9.94257C13.2999 9.75479 13.3714 9.57389 13.533 9.40021L13.5459 9.38624C13.7074 9.21252 13.8787 9.1318 14.0599 9.14406C14.2413 9.15635 14.3976 9.22843 14.529 9.36024C14.6613 9.49301 14.7358 9.65264 14.7525 9.83915C14.7693 10.0256 14.6973 10.2061 14.5369 10.3807L14.5252 10.3961ZM14.3051 10.1644C14.3139 10.1551 14.3222 10.1448 14.3303 10.1332C14.3384 10.1214 14.3454 10.109 14.3515 10.0951C14.3812 10.0387 14.393 9.97191 14.3863 9.89434C14.3797 9.81691 14.3357 9.73735 14.2544 9.6558C14.173 9.57409 14.0947 9.53146 14.0197 9.52783C13.9443 9.52403 13.8806 9.53825 13.8285 9.5703C13.8164 9.57785 13.8048 9.58551 13.794 9.59345C13.783 9.60139 13.7733 9.61002 13.7646 9.61931C13.7553 9.62946 13.7461 9.64123 13.7377 9.65412C13.7291 9.66706 13.7218 9.68051 13.716 9.69424C13.6887 9.74965 13.6789 9.81559 13.6862 9.89203C13.6936 9.96875 13.7372 10.047 13.8167 10.1267C13.8963 10.2065 13.973 10.2491 14.047 10.254C14.1209 10.2591 14.1838 10.2466 14.2362 10.2163C14.2491 10.2098 14.2617 10.202 14.2734 10.193C14.285 10.1843 14.2956 10.1745 14.3051 10.1644ZM15.3057 7.78917C15.3987 7.71364 15.4797 7.67569 15.5488 7.67532C15.6181 7.6748 15.6751 7.68989 15.7203 7.72055C15.7415 7.73448 15.7602 7.74925 15.776 7.76501C15.7918 7.78074 15.8055 7.79636 15.817 7.8116C15.8583 7.86661 15.8776 7.92629 15.8747 7.99079C15.872 8.05526 15.8552 8.11311 15.8243 8.16452L15.8267 8.16751C15.8407 8.16101 15.8584 8.1541 15.8797 8.14679C15.9009 8.13917 15.9246 8.13402 15.9505 8.13086C15.9954 8.12556 16.0447 8.1306 16.0981 8.14627C16.1516 8.16169 16.202 8.20116 16.2495 8.26431C16.2542 8.27042 16.2583 8.27641 16.262 8.28256C16.2657 8.28834 16.2698 8.29445 16.2744 8.30064C16.3167 8.37124 16.3323 8.45512 16.3218 8.55224C16.3111 8.64936 16.2495 8.74352 16.1369 8.83505L16.1223 8.84702L15.5963 9.27399L14.793 8.20548L14.8077 8.19349L15.3057 7.78917ZM15.8557 8.71917C15.8637 8.71275 15.8737 8.70413 15.886 8.6933C15.8984 8.68252 15.9098 8.67043 15.9203 8.65687C15.9379 8.63431 15.9497 8.60796 15.9556 8.5781C15.9611 8.54797 15.9511 8.51559 15.9251 8.48098C15.8997 8.44749 15.8726 8.43057 15.8434 8.43057C15.8142 8.43044 15.7874 8.43624 15.763 8.44782C15.7498 8.45543 15.7373 8.46342 15.7257 8.47204C15.7139 8.48078 15.7042 8.48829 15.6964 8.49456L15.5731 8.59467L15.7383 8.81454L15.8557 8.71917ZM15.5182 8.29517C15.5603 8.261 15.5855 8.2295 15.5937 8.20068C15.602 8.17182 15.6026 8.14627 15.5955 8.12425C15.5927 8.11662 15.5897 8.10964 15.586 8.10368C15.5823 8.09769 15.5785 8.09206 15.5746 8.08711C15.5541 8.05962 15.5259 8.04268 15.4903 8.03618C15.4549 8.02991 15.4119 8.04699 15.362 8.0876L15.2565 8.17345L15.4124 8.38103L15.5182 8.29517ZM17.9036 7.51019C17.8906 7.54005 17.8761 7.5669 17.8598 7.59125C17.8437 7.61533 17.8265 7.63805 17.8082 7.65892C17.785 7.68607 17.7605 7.71013 17.7341 7.73121C17.7078 7.75193 17.6815 7.77097 17.655 7.78806L17.6404 7.79999C17.4837 7.9001 17.3181 7.93307 17.1434 7.89863C16.9691 7.86433 16.8241 7.75121 16.709 7.55961C16.5883 7.35917 16.5552 7.17021 16.6095 6.99249C16.664 6.81482 16.7624 6.6797 16.9045 6.58737L16.9203 6.57711C16.9394 6.56481 16.9595 6.5532 16.9809 6.5423C17.0023 6.53148 17.0248 6.52139 17.0484 6.51229C17.084 6.49819 17.1213 6.48773 17.1604 6.48078C17.1993 6.47364 17.239 6.47065 17.2792 6.47197L17.4797 6.80548L17.4639 6.81582C17.4529 6.81214 17.4408 6.80883 17.4271 6.80536C17.4132 6.8022 17.3982 6.79906 17.3818 6.79605C17.346 6.79027 17.3058 6.78963 17.261 6.79458C17.2162 6.79925 17.1714 6.81549 17.1266 6.843C17.0414 6.90136 16.9942 6.97872 16.9849 7.0756C16.9756 7.17205 16.9971 7.26438 17.05 7.35188C17.1092 7.45051 17.1821 7.50874 17.2682 7.52663C17.3543 7.54436 17.4357 7.5301 17.5118 7.48388C17.5664 7.44524 17.6073 7.39965 17.6347 7.34676C17.6623 7.29371 17.6812 7.24286 17.6912 7.19376L17.707 7.1835L17.9036 7.51019ZM18.0919 5.92992L18.109 5.92195L18.4429 5.76745L18.6552 6.26312L18.785 5.60914L18.8021 5.60136L19.1938 5.42017L18.9978 6.22947L19.7365 6.65336L19.7194 6.66133L19.3021 6.85426L18.7568 6.50018L18.9735 7.00627L18.9565 7.0142L18.6227 7.16869L18.0919 5.92992ZM21.0152 6.19729C20.7976 6.27074 20.611 6.25829 20.4548 6.16053C20.2988 6.06237 20.1922 5.92245 20.1354 5.74079C20.079 5.56025 20.0852 5.38253 20.154 5.20782C20.2228 5.03309 20.3678 4.90859 20.5889 4.83382L20.6067 4.82783C20.8278 4.75327 21.0153 4.76553 21.1699 4.86485C21.3244 4.96412 21.4299 5.10407 21.4864 5.28454C21.5432 5.46625 21.5369 5.64364 21.4674 5.81652C21.398 5.98925 21.253 6.11363 21.0324 6.18951L21.0152 6.19729ZM20.9255 5.8853C20.9373 5.88134 20.9493 5.87635 20.9617 5.87009C20.9743 5.86378 20.9861 5.85616 20.9976 5.84686C21.0493 5.81153 21.0898 5.75836 21.1192 5.68659C21.1482 5.61494 21.1453 5.52329 21.1104 5.41156C21.0754 5.29963 21.0255 5.22373 20.9609 5.18394C20.8961 5.14399 20.8335 5.12543 20.773 5.12822C20.7588 5.12887 20.7453 5.13006 20.732 5.13189C20.7188 5.13353 20.7063 5.13637 20.6944 5.14031C20.6815 5.14479 20.6682 5.15065 20.655 5.15788C20.6414 5.16506 20.629 5.17348 20.6177 5.18279C20.5685 5.21824 20.5301 5.27181 20.502 5.34289C20.474 5.41419 20.477 5.50453 20.5113 5.61381C20.5454 5.72303 20.5939 5.79795 20.6569 5.8386C20.7199 5.87903 20.7813 5.89879 20.8411 5.8976C20.8555 5.89812 20.87 5.89733 20.8845 5.89511C20.8987 5.89312 20.9124 5.88965 20.9255 5.8853ZM22.2437 4.40862L22.2622 4.40531L23.0332 4.26408L23.0876 4.5845L22.6765 4.65995L22.7081 4.8468L23.0807 4.77849L23.1306 5.07238L22.758 5.14067L22.7942 5.35436L23.2054 5.27895L23.2597 5.59953L23.2413 5.60283L22.4704 5.74407L22.2437 4.40862ZM26.6989 5.43292C26.4709 5.41635 26.302 5.33212 26.1928 5.18063C26.0834 5.02894 26.0351 4.85769 26.0478 4.66709C26.0606 4.47771 26.1304 4.31546 26.2571 4.18017C26.3839 4.04509 26.5633 3.98589 26.7951 4.00283L26.8138 4.00418C27.0456 4.02106 27.2153 4.10544 27.3226 4.25778C27.4303 4.40994 27.4777 4.58071 27.4649 4.77C27.452 4.96065 27.3823 5.12263 27.2554 5.25588C27.1288 5.38899 26.9497 5.44788 26.7178 5.43227L26.6989 5.43292ZM26.7283 5.10866C26.7407 5.10971 26.7536 5.10971 26.7675 5.10866C26.7812 5.10775 26.795 5.10519 26.809 5.10103C26.8698 5.08862 26.9265 5.05496 26.9795 4.99976C27.0323 4.94491 27.0626 4.85869 27.0706 4.74134C27.0784 4.62413 27.0596 4.53444 27.014 4.4723C26.9683 4.40994 26.9168 4.36834 26.8597 4.34731C26.8463 4.34252 26.8334 4.33837 26.8205 4.33486C26.8076 4.33118 26.795 4.32906 26.7825 4.32803C26.7689 4.32712 26.7546 4.32738 26.7396 4.32908C26.7244 4.33039 26.7099 4.33339 26.6961 4.33755C26.6377 4.35127 26.5828 4.38596 26.5311 4.44096C26.4795 4.49618 26.4498 4.58123 26.442 4.69572C26.4343 4.81028 26.4523 4.89866 26.4962 4.96082C26.5399 5.02281 26.5896 5.06512 26.6457 5.08732C26.6587 5.09331 26.6724 5.09841 26.6867 5.10188C26.7007 5.10551 26.7145 5.10769 26.7283 5.10866ZM28.4339 4.21865L28.4523 4.22197L29.4016 4.39601L29.3472 4.71647L28.7579 4.60842L28.7239 4.80883L28.9128 4.84345C28.9387 4.84812 28.972 4.85554 29.0133 4.86568C29.0545 4.87594 29.0964 4.89218 29.1395 4.91438C29.2044 4.9474 29.2607 4.9966 29.3083 5.06243C29.3558 5.12822 29.3696 5.21943 29.3499 5.33647C29.3293 5.4573 29.2857 5.54137 29.2191 5.58795C29.1524 5.63485 29.0838 5.66216 29.013 5.67014C28.9651 5.67728 28.9197 5.67809 28.8763 5.67281C28.833 5.6673 28.7992 5.66251 28.7747 5.65805L28.7563 5.65473L28.2074 5.55414L28.4339 4.21865ZM28.7667 5.38122C28.8206 5.39099 28.8657 5.38916 28.9021 5.37555C28.9385 5.36181 28.9614 5.32764 28.9707 5.27295C28.9798 5.21958 28.9696 5.17998 28.9405 5.15428C28.9115 5.12853 28.8694 5.11085 28.8144 5.10071L28.6786 5.07585L28.631 5.35634L28.7667 5.38122ZM30.4891 5.00871L30.2409 4.92503L30.3377 4.61552L30.3554 4.6215L30.9511 4.82257L30.7938 5.32553L30.9764 5.38721C31.0011 5.39547 31.0334 5.40772 31.073 5.42382C31.1122 5.43969 31.1516 5.46192 31.1911 5.49011C31.2513 5.53223 31.3002 5.58958 31.3382 5.66216C31.3763 5.73461 31.3773 5.82878 31.3412 5.94418C31.305 6.05973 31.2511 6.13546 31.179 6.17158C31.1071 6.20759 31.0353 6.22447 30.9643 6.22232C30.9163 6.221 30.8711 6.21454 30.8292 6.20328C30.7871 6.19151 30.7542 6.18193 30.7305 6.17395L30.7127 6.16796L30.1827 5.98892L30.4891 5.00871ZM30.7596 5.89859C30.8118 5.91615 30.8567 5.92082 30.8946 5.91252C30.9324 5.90421 30.9595 5.87372 30.9761 5.82083C30.9922 5.7693 30.9876 5.72871 30.9621 5.699C30.9369 5.66946 30.8976 5.64579 30.8444 5.62771L30.7132 5.58347L30.6285 5.85432L30.7596 5.89859ZM32.472 5.40924L32.4891 5.41703L33.2044 5.7479L33.077 6.04532L32.6957 5.86873L32.6213 6.04214L32.967 6.20212L32.8502 6.47465L32.5046 6.31481L32.4197 6.51296L32.8009 6.68948L32.6736 6.98671L32.6566 6.97893L31.9413 6.64789L32.472 5.40924ZM34.9914 6.77403L34.5106 7.67532L34.6475 7.75424L34.3691 8.27608L34.353 8.26682L34.0789 8.10883L34.2054 7.8716L33.5631 7.50156L33.4366 7.73884L33.4203 7.72949L33.1464 7.5717L33.4248 7.04986C33.4302 7.053 33.4355 7.05564 33.4407 7.05795C33.4459 7.06016 33.4514 7.06231 33.4575 7.06426C33.5081 7.0815 33.5644 7.08051 33.6266 7.06099C33.6889 7.04159 33.7453 6.99086 33.796 6.9093C33.8043 6.89637 33.8123 6.88276 33.8198 6.86887C33.8273 6.85458 33.8349 6.84017 33.8427 6.82556C33.8451 6.82108 33.8477 6.81646 33.85 6.81198C33.8525 6.80752 33.8549 6.80304 33.8573 6.79838L34.1338 6.28L34.1501 6.28931L34.9914 6.77403ZM34.1417 7.02435C34.1019 7.09875 34.0601 7.16074 34.0161 7.20984C33.9721 7.25922 33.914 7.28593 33.8422 7.2904L34.1748 7.48189L34.5038 6.8652L34.2917 6.74305L34.1417 7.02435ZM36.1831 7.66323L35.7183 8.28155L36.5664 7.97455L36.5812 7.98644L36.8631 8.21541L36.0598 9.284L36.0451 9.27203L35.7676 9.04658L36.2311 8.42993L35.3902 8.74025L35.3753 8.72831L35.0874 8.4944L35.8907 7.42584L35.9054 7.43777L36.1831 7.66323ZM37.6457 8.92111L37.6587 8.93501L37.9125 9.2082L37.5747 9.54739L37.8698 9.86501L38.2078 9.52599L38.2207 9.53996L38.4745 9.81295L37.5359 10.7549L37.5229 10.7409L37.2692 10.4679L37.6446 10.0911L37.3494 9.77347L36.974 10.1503L36.9611 10.1362L36.7071 9.86301L37.6457 8.92111ZM39.0794 10.586L39.0912 10.601L39.5839 11.2333L39.3405 11.4382L39.0778 11.101L38.9358 11.2203L39.174 11.526L38.9508 11.7139L38.7127 11.4082L38.5504 11.5448L38.8132 11.8819L38.5699 12.0867L38.5581 12.0716L38.0653 11.4393L39.0794 10.586ZM40.1715 12.0893L40.181 12.1062L40.3636 12.4351L39.9569 12.6791L40.1693 13.0616L40.5761 12.8176L40.5855 12.8343L40.7681 13.163L39.6381 13.841L39.6287 13.8243L39.4461 13.4956L39.8982 13.2244L39.6857 12.8419L39.2336 13.1132L39.2244 13.0962L39.0416 12.7673L40.1715 12.0893ZM41.2269 14.0396L41.2347 14.0572L41.3891 14.4014L40.9634 14.6077L41.143 15.0079L41.5687 14.8017L41.5767 14.8192L41.7309 15.1632L40.5485 15.7363L40.5405 15.7187L40.3863 15.3747L40.8592 15.1455L40.6796 14.7453L40.2067 14.9744L40.1987 14.9568L40.0443 14.6127L41.2269 14.0396ZM40.975 17.2099C40.912 16.9813 40.9305 16.7878 41.0301 16.6291C41.1298 16.4705 41.2681 16.3647 41.4449 16.312C41.6204 16.2598 41.7911 16.2724 41.9566 16.35C42.1222 16.4276 42.2371 16.5826 42.3011 16.8146L42.3063 16.8334C42.3703 17.0654 42.3519 17.2599 42.2511 17.4169C42.1502 17.574 42.012 17.6788 41.8364 17.731C41.6597 17.7837 41.4893 17.771 41.3255 17.6927C41.1618 17.6146 41.0473 17.4597 40.9821 17.2279L40.975 17.2099ZM41.2782 17.1276C41.2818 17.14 41.2861 17.1527 41.2916 17.1658C41.2973 17.179 41.3042 17.1916 41.3127 17.2039C41.3449 17.2587 41.3947 17.3027 41.4627 17.3356C41.5304 17.3683 41.6188 17.3686 41.7274 17.3362C41.8362 17.3038 41.9109 17.2546 41.9516 17.1889C41.9923 17.123 42.0123 17.0585 42.0117 16.9955C42.0114 16.9807 42.0109 16.9666 42.0095 16.9529C42.0083 16.9391 42.0061 16.9261 42.0026 16.9136C41.9989 16.9 41.9937 16.8861 41.9871 16.872C41.9808 16.8577 41.9731 16.8444 41.9646 16.8324C41.9321 16.7802 41.8822 16.7382 41.8147 16.7065C41.7471 16.675 41.6602 16.675 41.5537 16.7068C41.4475 16.7384 41.3738 16.7863 41.3325 16.8503C41.2915 16.9143 41.2702 16.9773 41.2695 17.0395C41.2683 17.0545 41.2686 17.0696 41.2702 17.0846C41.2717 17.0995 41.2744 17.1139 41.2782 17.1276ZM42.6317 18.47L42.6353 18.4891L42.7847 19.2876L42.4773 19.3498L42.3977 18.9239L42.2184 18.96L42.2905 19.3461L42.0087 19.403L41.9366 19.0171L41.7316 19.0585L41.8112 19.4844L41.5038 19.5464L41.5003 19.5273L41.3509 18.7286L42.6317 18.47Z" fill="white"/>
<path fill-rule="evenodd" clip-rule="evenodd" d="M7 26.2906V25.5292H7.42731C7.65665 25.5292 7.80061 25.5103 7.85671 25.4737C7.91318 25.4371 7.94002 25.3765 7.94002 25.2912V23.1269C7.94002 23.0417 7.91318 22.9811 7.85671 22.9445C7.80269 22.9077 7.65873 22.889 7.42731 22.889H7V22.1264H14.346V23.6217H12.8204C12.812 23.5244 12.7786 23.4195 12.72 23.3064C12.6744 23.2063 12.6074 23.1358 12.5179 23.0942C12.4282 23.0526 12.2324 23.0317 11.9323 23.0317H11.0066V25.2852C11.0066 25.3825 11.0421 25.4468 11.1129 25.4796C11.1819 25.5123 11.3171 25.5292 11.5193 25.5292H12.0822V26.2906H7ZM19.5366 22.0195C20.1538 22.0195 20.8126 22.073 21.5107 22.179C22.2113 22.2861 22.8198 22.4865 23.3388 22.7809C24.031 23.2042 24.3772 23.68 24.3772 24.2085C24.3772 24.8035 24.052 25.2882 23.4037 25.661C22.9806 25.9028 22.4218 26.0854 21.7275 26.2084C21.0357 26.3312 20.3037 26.3927 19.5366 26.3927C19.0385 26.3927 18.5488 26.366 18.0713 26.3135C17.5916 26.2609 17.1455 26.1795 16.7308 26.0695C16.3181 25.9594 15.9678 25.8236 15.6823 25.661C15.0257 25.2842 14.6963 24.7995 14.6963 24.2085C14.6963 24.0509 14.7297 23.8912 14.7963 23.7306C14.8608 23.5711 14.9733 23.4085 15.1299 23.2449C15.2864 23.0803 15.4927 22.9256 15.7468 22.7809C16.0263 22.6222 16.339 22.4923 16.6893 22.3892C17.0371 22.2861 17.3853 22.2078 17.7314 22.1553C18.0775 22.1027 18.4027 22.0671 18.707 22.0482C19.0092 22.0293 19.2866 22.0195 19.5366 22.0195ZM19.5366 25.4876C19.8516 25.4876 20.0932 25.4419 20.2601 25.3507C20.4267 25.2585 20.5393 25.1365 20.5937 24.9819C20.6477 24.8282 20.6749 24.6379 20.6749 24.4118V24.0122C20.6749 23.6653 20.6042 23.3976 20.4581 23.2083C20.312 23.0188 20.0057 22.9246 19.5366 22.9246C19.051 22.9246 18.7384 23.0228 18.6028 23.219C18.4651 23.4164 18.3986 23.6782 18.3986 24.0063V24.4118C18.3986 24.7599 18.4735 25.0264 18.6279 25.2109C18.7819 25.3953 19.0845 25.4876 19.5366 25.4876ZM26.7037 26.2906V25.5292H27.2642C27.4726 25.5292 27.6124 25.5123 27.6835 25.4786C27.7543 25.4458 27.7898 25.3835 27.7898 25.2912V23.0307H27.2642C27.0432 23.0307 26.8787 23.0376 26.7703 23.0516C26.6619 23.0644 26.5932 23.0842 26.5619 23.1091C26.5326 23.1348 26.5033 23.1764 26.4765 23.235L26.3158 23.5849H24.7024L24.7878 22.1264H33.858L33.9455 23.5849H32.33L32.1693 23.235C32.1299 23.1487 32.0693 23.0932 31.988 23.0684C31.9047 23.0436 31.7026 23.0307 31.3816 23.0307H30.856V25.2912C30.856 25.3666 30.8853 25.4251 30.9438 25.4667C31.0041 25.5083 31.146 25.5292 31.369 25.5292H31.9316V26.2906H26.7037ZM39.5843 22.1264V22.888H39.4198C39.28 22.888 39.2092 22.9176 39.2092 22.9782C39.2092 23.0068 39.2507 23.0436 39.3344 23.0892L39.8969 23.4412H40.0346L40.608 23.0902C40.7268 23.0148 40.785 22.9702 40.785 22.9535C40.785 22.9097 40.7059 22.888 40.5473 22.888H40.3619V22.1264H44.427V22.888H44.0746C43.8537 22.888 43.664 22.9166 43.5054 22.9732C43.3472 23.0297 43.1199 23.1457 42.8216 23.3221L41.7355 23.9826L43.5368 25.1237C43.5619 25.1395 43.5846 25.1524 43.6055 25.1633C43.6264 25.1743 43.6431 25.1821 43.6494 25.1891C43.6766 25.202 43.7473 25.2436 43.862 25.3141C44.0955 25.4578 44.3374 25.5292 44.5873 25.5292H45V26.2906H39.8073V25.5292C40.0827 25.5242 40.22 25.4904 40.22 25.4271C40.22 25.3913 40.1514 25.328 40.0095 25.2376L39.4843 24.8986H39.3466L38.7087 25.2794C38.6171 25.3347 38.5714 25.3873 38.5714 25.4389C38.5714 25.4904 38.7129 25.5203 38.9966 25.5292V26.2906H34.6168V25.5292H35.019C35.263 25.5292 35.4693 25.5044 35.6342 25.4548C35.7987 25.4062 36.0322 25.2892 36.3323 25.1068L37.5937 24.3325L35.8924 23.2508C35.8841 23.2449 35.8489 23.223 35.7862 23.1854C35.7238 23.1477 35.6589 23.1081 35.5944 23.0663C35.5112 23.0078 35.4233 22.9632 35.3317 22.9326C35.24 22.9028 35.1023 22.888 34.919 22.888H34.6042V22.1264H39.5843Z" fill="white"/>
<path fill-rule="evenodd" clip-rule="evenodd" d="M30.5532 18.4181L30.5548 18.0673L31.3198 18.0719C31.3198 18.036 31.3244 17.7206 31.3244 17.7206L27.8085 17.7222C27.8085 17.6255 27.8085 17.528 27.8085 17.4375H31.3242L31.3263 15.6391L31.9437 16.0327L31.6155 16.5623L32.4377 17.1138L33.4499 15.5307L32.6506 14.9532L32.3177 15.4888L28.9298 13.8169L21.1667 8.26473C21.2941 7.46894 20.276 7.27195 20.0816 8.14963C19.8389 9.2445 19.464 11.0827 19.2626 12.0096L19.3286 12.0259L19.3303 13.0877L18.5891 13.0875L18.5881 14.6286L20.1518 14.6291L20.1528 13.0855L19.4562 13.0868L19.4558 12.0484L19.5227 12.0615L20.7449 9.15613L27.0827 17.7506L27.0794 18.4379L19.2621 18.4315L19.2549 19.3919H34.5755V18.4225L30.5532 18.4181ZM25.311 13.8397C23.8474 12.0991 22.4937 10.3563 21.0254 8.61975L21.0985 8.43668C21.7478 8.90648 28.6046 13.834 28.5853 13.8397H25.311ZM27.0754 16.0061L25.5851 14.1709L28.8717 14.1827L30.9394 15.3499L27.0789 15.3628L27.0754 16.0061Z" fill="white"/>
<path fill-rule="evenodd" clip-rule="evenodd" d="M26.5212 31.625L25.909 31.6289C25.9143 31.5716 25.9277 31.4485 25.9392 31.3831L26.2362 31.3903C26.3176 31.1862 26.1387 30.1649 25.934 30.3935C25.4602 30.9227 25.4432 32.9686 25.904 33.8539C26.1442 34.3154 26.3037 33.0784 26.2802 32.8914L25.9497 32.881L25.9288 32.6453L26.5443 32.6493C26.5275 32.9229 26.5395 33.6292 26.2664 34.0914C26.1741 34.2475 26.0577 34.3273 25.8659 34.3124C24.7575 34.2259 25.0512 29.865 25.8264 29.8556C26.3828 29.8489 26.5483 31.1843 26.5212 31.625ZM32.1488 29.8328L35.7333 29.8514C35.0012 30.8757 34.1277 30.5266 32.9741 30.5266C32.807 30.5266 32.8786 30.7161 32.9691 30.7178C33.4314 30.7695 33.8988 30.7328 34.3661 30.7897C34.1614 31.6852 32.5525 31.4594 32.3775 31.2536C32.293 31.2536 32.2532 31.3466 32.2979 31.419C32.5555 31.5389 32.967 31.6255 32.5234 31.8816C31.9698 32.0254 31.7616 32.085 31.234 31.8943C31.2175 31.9263 31.1528 31.9196 31.1492 32.0011C31.1349 32.323 30.4331 32.7842 29.842 32.4006C29.5692 32.7094 28.5951 33.1364 28.3405 32.6073C30.0029 31.9282 31.1849 31.4356 32.1488 29.8328ZM27.9974 32.1508C27.9974 32.071 27.9726 31.9873 28.0621 31.9873C28.1615 31.9356 28.3654 31.9873 28.425 31.8839C28.4799 31.5847 28.3762 30.8174 28.4648 30.5458C28.4871 30.5145 28.5169 30.4989 28.5593 30.4993C29.0186 30.4993 29.3272 30.551 29.6033 30.1014C29.7028 29.9981 29.7873 30.0136 29.9165 29.9981C30.3421 30.06 31.3848 29.9255 31.5721 30.0497C31.6019 30.1169 31.577 30.2202 31.5422 30.2823C31.2643 30.5086 30.8869 30.5119 30.5579 30.4631C30.4734 30.4269 30.2596 30.3184 30.2745 30.4889C30.3847 30.7182 30.736 30.6969 30.9407 30.7163C30.9904 30.7679 30.9357 30.923 30.9009 30.9746C30.4836 31.4082 30.3087 31.305 29.8022 31.0883C29.7472 31.0678 29.6281 31.0031 29.5735 31.0314C29.5301 31.0765 29.559 31.1479 29.5884 31.1916C29.7044 31.295 30.0964 31.441 30.0607 31.5998C29.9662 31.7496 29.7326 31.8116 29.5685 31.8478C29.3174 31.8241 29.2445 31.7092 29.0813 31.5275C28.8228 31.5275 28.9471 31.8736 28.9471 32.0338C28.7751 32.2222 28.14 32.3281 27.9974 32.1508ZM28.1663 29.8248C28.3639 29.8218 28.7082 29.816 28.9067 29.8215C29.1419 29.8281 29.1547 30.1204 28.9746 30.1785C28.7308 30.2572 28.208 30.0761 28.2013 30.4676C28.2113 30.8233 27.9034 30.8725 27.8917 30.5276C27.8875 30.4051 27.8926 30.2364 27.917 30.0951C27.9502 29.9032 27.9883 29.8274 28.1663 29.8248ZM19.4667 29.8328L15.8822 29.8339C16.6143 30.8582 17.4878 30.4986 18.6414 30.4986C18.8085 30.4986 18.7234 30.6417 18.6464 30.6897C18.184 30.7414 17.7167 30.7421 17.2493 30.7989C17.454 31.6945 19.0629 31.4595 19.238 31.2536C19.3225 31.2536 19.3623 31.3466 19.3175 31.419C19.0599 31.5389 18.6484 31.6256 19.0921 31.8816C19.6457 32.0254 19.8539 32.085 20.3815 31.8943C20.398 31.9263 20.4627 31.9196 20.4663 32.0011C20.4806 32.323 21.1824 32.7842 21.7735 32.4006C22.0463 32.7094 23.0204 33.1364 23.275 32.6073C21.6126 31.9282 20.4306 31.4356 19.4667 29.8328ZM23.618 32.1508C23.618 32.071 23.6429 31.9873 23.5534 31.9873C23.4539 31.9356 23.2501 31.9873 23.1904 31.8839C23.1355 31.5847 23.2393 30.8174 23.1506 30.5458C23.1363 30.5182 23.1064 30.5027 23.0562 30.4993C22.5968 30.4993 22.2883 30.551 22.0122 30.1014C21.9127 29.9981 21.8282 30.0136 21.6989 29.9981C21.2734 30.06 20.2306 29.9255 20.0434 30.0497C20.0136 30.1169 20.0384 30.2202 20.0732 30.2823C20.3512 30.5086 20.7286 30.5119 21.0576 30.4631C21.1421 30.4269 21.3559 30.3184 21.341 30.4889C21.2307 30.7182 20.8795 30.6969 20.6748 30.7163C20.6251 30.7679 20.6798 30.923 20.7146 30.9746C21.1318 31.4082 21.3068 31.305 21.8133 31.0883C21.8683 31.0678 21.9874 31.0031 22.042 31.0314C22.0854 31.0765 22.0565 31.1479 22.0271 31.1916C21.911 31.295 21.5192 31.441 21.5548 31.5998C21.6492 31.7496 21.8829 31.8116 22.0469 31.8478C22.2981 31.8241 22.3709 31.7092 22.5342 31.5275C22.7927 31.5275 22.6684 31.8736 22.6684 32.0338C22.8404 32.2222 23.4754 32.3281 23.618 32.1508ZM23.3558 29.8248C23.1582 29.8218 22.8139 29.816 22.6153 29.8215C22.3802 29.8281 22.3674 30.1204 22.5474 30.1785C22.7913 30.2572 23.3141 30.0761 23.3208 30.4676C23.3108 30.8233 23.6187 30.8725 23.6304 30.5276C23.6345 30.4051 23.6295 30.2364 23.605 30.0951C23.5719 29.9032 23.5337 29.8274 23.3558 29.8248ZM27.5252 30.9281L27.7638 31.0263C27.6693 31.1709 27.5749 31.3851 27.4854 31.5349L27.0173 31.5178C26.9886 30.8849 26.8039 30.1193 26.4474 29.6396C26.0661 29.1267 25.5658 29.1347 25.1348 29.6526C24.7238 30.1464 24.569 30.9642 24.5148 31.4997C24.4054 31.5049 24.242 31.5242 24.1327 31.5346C24.0382 31.3847 23.9705 31.2071 23.876 31.0573L24.1196 30.9694C24.1196 30.1763 24.2405 29.7028 23.8326 29.5236L14.8893 29.5114C15.7376 30.3537 16.3141 30.8833 16.984 30.9458C17.1179 31.6561 17.9643 31.9323 18.6095 31.9323L18.6138 31.9332L18.6786 31.9462C19.1597 32.4787 19.6439 32.5325 20.2454 32.4314C20.5111 32.7779 20.8341 32.9649 21.2716 32.9667H21.2726C21.4827 32.9674 21.6731 32.9112 21.8753 32.8587C22.4117 33.4179 23.3012 33.4158 23.6248 32.659L24.5483 32.6686C24.5815 33.3588 24.8482 34.9212 25.7959 34.9217C26.7509 34.9222 26.952 33.3636 26.9902 32.6646L28.023 32.6673C28.3507 33.3922 29.272 33.3988 29.7581 32.8366C30.4705 32.9726 30.8478 32.9477 31.3685 32.3896C32.0447 32.5472 32.3971 32.4397 32.9473 31.909C33.6675 31.9147 34.1994 31.7462 34.5773 30.9865C35.4463 30.8202 35.9724 30.1442 36.5455 29.4887L27.9109 29.4841C27.3282 29.4527 27.5338 30.4411 27.5252 30.9281ZM24.5558 29.5821C25.1312 28.4476 26.525 28.4939 27.0443 29.5623C27.1622 29.1833 27.46 28.9632 27.9379 28.9583L37.7948 29.0047C36.972 29.8406 36.0661 31.1561 34.8989 31.4541C34.5049 32.0947 33.8698 32.3259 33.1767 32.4107C32.9302 32.6416 32.6543 32.7656 32.3657 32.8329L32.3657 32.8332C32.101 32.8949 31.8392 32.9068 31.5817 32.912C31.0944 33.401 30.5849 33.5102 29.931 33.4011C29.3241 33.8954 28.174 33.9223 27.7162 33.1925L27.4095 33.1919C27.3191 34.0898 26.8638 35.4482 25.7959 35.4477C24.7262 35.4472 24.2362 34.0876 24.1527 33.1904L23.8605 33.2299C23.3721 33.8772 22.3613 33.8964 21.7601 33.434C21.7596 33.4337 21.7592 33.4333 21.7587 33.4329C21.5989 33.4726 21.4349 33.4927 21.2706 33.4927C21.2708 33.4927 21.2712 33.4927 21.2711 33.4927C20.7849 33.4904 20.2703 33.2763 19.952 32.9246C19.3556 32.9097 18.9318 32.8356 18.4553 32.4361C17.8863 32.3227 16.9384 32.1118 16.664 31.3973C15.2895 31.1405 14.6873 29.9112 13.8081 28.9839L23.5355 28.9685C24.2447 28.986 24.3058 29.2653 24.5558 29.5821Z" fill="white"/>
<defs>
<filter id="filter0_dd_6697_10219" x="0" y="0" width="52" height="63" filterUnits="userSpaceOnUse" color-interpolation-filters="sRGB">
<feFlood flood-opacity="0" result="BackgroundImageFix"/>
<feColorMatrix in="SourceAlpha" type="matrix" values="0 0 0 0 0 0 0 0 0 0 0 0 0 0 0 0 0 0 127 0" result="hardAlpha"/>
<feMorphology radius="1" operator="erode" in="SourceAlpha" result="effect1_dropShadow_6697_10219"/>
<feOffset dy="4"/>
<feGaussianBlur stdDeviation="2"/>
<feComposite in2="hardAlpha" operator="out"/>
<feColorMatrix type="matrix" values="0 0 0 0 0.0470588 0 0 0 0 0.0470588 0 0 0 0 0.0509804 0 0 0 0.05 0"/>
<feBlend mode="normal" in2="BackgroundImageFix" result="effect1_dropShadow_6697_10219"/>
<feColorMatrix in="SourceAlpha" type="matrix" values="0 0 0 0 0 0 0 0 0 0 0 0 0 0 0 0 0 0 127 0" result="hardAlpha"/>
<feMorphology radius="1" operator="erode" in="SourceAlpha" result="effect2_dropShadow_6697_10219"/>
<feOffset dy="4"/>
<feGaussianBlur stdDeviation="2"/>
<feComposite in2="hardAlpha" operator="out"/>
<feColorMatrix type="matrix" values="0 0 0 0 0.0470588 0 0 0 0 0.0470588 0 0 0 0 0.0509804 0 0 0 0.1 0"/>
<feBlend mode="normal" in2="effect1_dropShadow_6697_10219" result="effect2_dropShadow_6697_10219"/>
<feBlend mode="normal" in="SourceGraphic" in2="effect2_dropShadow_6697_10219" result="shape"/>
</filter>
</defs>
</svg>
