<svg width="64" height="64" viewBox="0 0 64 64" fill="none" xmlns="http://www.w3.org/2000/svg">
<g id="Logo">
<path d="M0 32C0 14.3269 14.3269 0 32 0C49.6731 0 64 14.3269 64 32C64 49.6731 49.6731 64 32 64C14.3269 64 0 49.6731 0 32Z" fill="#003F86"/>
<g id="Logo_2">
<path id="Vector" d="M15.9404 14.3672C15.9404 13.5706 16.0079 13.012 16.1482 12.6913C16.278 12.3707 16.5273 12.1689 16.896 12.0965C17.2128 12.0189 17.7944 11.9827 18.6461 11.9827H19.4407C20.3027 11.9827 20.8792 12.0241 21.1804 12.0965C21.5647 12.1638 21.814 12.3655 21.9282 12.6913C22.0684 13.012 22.1359 13.5706 22.1359 14.3672V14.9982C22.1359 15.7948 22.0684 16.3534 21.9282 16.6741C21.8036 16.9792 21.5543 17.1758 21.1804 17.2586C20.8792 17.3361 20.3027 17.3723 19.4407 17.3723H18.6461C17.7944 17.3723 17.2128 17.3361 16.9064 17.2586C16.5273 17.1758 16.2832 16.9792 16.1585 16.6741C16.0807 16.5137 16.0235 16.2913 15.9924 16.0068C15.956 15.7224 15.9404 15.3862 15.9404 14.9982V14.3672ZM15.1926 16.7775C15.364 17.3723 15.7067 17.781 16.2313 18.0034C16.6831 18.2154 17.488 18.3241 18.6513 18.3241H19.4562C19.96 18.3241 20.391 18.3034 20.7442 18.2672C21.0973 18.231 21.3881 18.1741 21.6062 18.1068C21.6114 18.1068 21.6166 18.1068 21.6166 18.0965C21.8919 18.0189 22.1256 17.8999 22.3073 17.7344C22.4943 17.5689 22.6449 17.3723 22.7591 17.1448C22.8682 16.9172 22.9461 16.6224 22.998 16.2603C23.0448 15.9034 23.0707 15.4793 23.0707 14.9982C23.0707 14.4086 23.0551 13.9172 23.024 13.5189C22.9928 13.1206 22.9513 12.8155 22.8993 12.6034C22.728 11.9982 22.3904 11.5845 21.8867 11.362C21.3829 11.1396 20.5676 11.031 19.4562 11.031H18.6513C17.6438 11.031 16.922 11.1034 16.4857 11.2482H16.4961C16.2209 11.331 15.9872 11.4551 15.795 11.6207C15.6029 11.7862 15.4471 11.9879 15.3224 12.2207C15.2134 12.4482 15.1355 12.7431 15.0939 13.1051C15.0472 13.4672 15.0264 13.8862 15.0264 14.3672C15.0264 14.9568 15.0368 15.4482 15.068 15.8465C15.0939 16.2448 15.1407 16.5551 15.1978 16.7775" fill="white"/>
<path id="Vector_2" d="M29.6137 17.2691C29.3385 17.3519 28.788 17.3933 27.9675 17.3933H26.8042C26.0979 17.3933 25.6201 17.3415 25.3657 17.2433C25.1424 17.1812 24.9814 17.0622 24.8775 16.8812C24.7736 16.7002 24.7165 16.4881 24.7113 16.2346C24.7113 16.1674 24.675 16.1312 24.6075 16.1312H23.8908C23.8233 16.1312 23.7869 16.1674 23.7869 16.2346C23.8025 17.1346 24.0985 17.7243 24.6698 17.9984C25.0541 18.2157 25.7396 18.3191 26.7211 18.3191H28.0921C29.1515 18.3191 29.8942 18.2208 30.3148 18.0191C30.9536 17.7346 31.2704 17.1139 31.2704 16.1519C31.2704 15.9088 31.26 15.7019 31.2444 15.5312C31.2236 15.3657 31.1873 15.226 31.1353 15.1174C30.9899 14.864 30.7822 14.6674 30.5121 14.5226C30.7666 14.4088 30.9484 14.2536 31.0678 14.0622C31.1509 13.9381 31.208 13.7933 31.234 13.6278C31.26 13.4622 31.2755 13.2605 31.2755 13.0329C31.2755 12.1226 30.9328 11.5381 30.2525 11.2795C30.0551 11.2123 29.7747 11.1554 29.4216 11.1192C29.0684 11.0829 28.627 11.0623 28.0973 11.0623H26.7159C25.7863 11.0623 25.106 11.1864 24.675 11.4295C24.0829 11.7657 23.7921 12.3605 23.7921 13.2088C23.7921 13.276 23.8285 13.3122 23.896 13.3122H24.6126C24.6802 13.3122 24.7165 13.276 24.7165 13.2088C24.7321 12.6812 24.9606 12.3347 25.4072 12.164C25.7084 12.0657 26.207 12.014 26.9029 12.014H27.9519C28.3414 12.014 28.6737 12.0191 28.9386 12.0295C29.2035 12.0398 29.4008 12.0657 29.5306 12.1071C29.8059 12.1691 30.0188 12.2778 30.1694 12.4329C30.32 12.5881 30.3927 12.7898 30.3927 13.0329C30.3927 13.5967 30.0603 14.0312 29.2814 14.0312H25.6513V15.014H29.4475C30.1227 15.1588 30.3927 15.5415 30.3927 16.1519C30.3927 16.7622 30.133 17.1191 29.6189 17.2639" fill="white"/>
<path id="Vector_3" d="M32.1947 16.5707C32.257 16.8862 32.3557 17.15 32.5011 17.3672C32.6413 17.5844 32.8231 17.7655 33.036 17.9103C33.2749 18.0551 33.5761 18.1586 33.9396 18.2258C34.3031 18.2879 34.7394 18.3241 35.2483 18.3241H37.8605C38.6914 18.3241 39.3094 18.1896 39.7145 17.9206C40.2078 17.5689 40.4519 17.0051 40.4519 16.2344C40.4519 16.2138 40.4519 16.1982 40.4415 16.1879L40.3844 16.1413C40.3844 16.1413 40.3844 16.131 40.374 16.131H39.6366C39.5691 16.131 39.5327 16.1672 39.5327 16.2344V16.2707C39.5327 16.7413 39.3769 17.0569 39.0601 17.2017C38.8005 17.331 38.3954 17.3982 37.8501 17.3982H35.1652C34.22 17.3982 33.6124 17.2431 33.3476 16.9379C33.2385 16.8034 33.1554 16.5707 33.0983 16.2448C33.0412 15.9189 33.01 15.5051 33.01 14.9983C33.01 14.5327 33.01 14.1448 33.0204 13.8448C33.0308 13.5448 33.0464 13.3276 33.0775 13.1983C33.1606 12.7224 33.3528 12.4017 33.6436 12.2259C33.8046 12.1431 34.0227 12.0759 34.3083 12.019C34.5888 11.9672 34.9367 11.9414 35.3625 11.9414H37.8501C38.9614 11.9414 39.5223 12.319 39.5223 13.0741V13.1C39.5223 13.1672 39.5587 13.2034 39.6262 13.2034H40.3532C40.4155 13.2034 40.4467 13.1672 40.4467 13.1V13.0741C40.4467 12.381 40.2286 11.8586 39.7976 11.5172C39.3613 11.1707 38.7174 11 37.8553 11H35.4352C34.1473 11 33.2645 11.2276 32.7971 11.6879H32.8075C32.3297 12.1534 32.096 13.0379 32.096 14.3362C32.096 15.4534 32.1324 16.1982 32.1999 16.5758" fill="white"/>
<path id="Vector_4" d="M43.9626 51.9758H42.9343V45.95H38.7486V51.9758H36.3649V41.4655H39.0082V40.5397L36.3701 38.8535H37.2426V36.2207H36.2143V38.7552L35.3314 38.1862V29.957H40.9297V28.9328H35.3314V27.3501H40.9297V26.326H35.3314V24.4018H40.9297V23.3777H35.3314V20.6105H43.9626V51.9861V51.9758ZM30.1175 35.4966L27.7649 37.069V22.4674L30.133 21.5105L30.1175 35.4966ZM26.7367 37.7569L24.9035 38.9828V23.626L26.7367 22.8863V37.7569ZM49 11.176C49 11.0985 48.9585 11.0623 48.8857 11.0623H47.7225L43.2407 13.9898H42.2021V11.176C42.2021 11.0985 42.1657 11.0623 42.0982 11.0623H41.3712C41.3036 11.0623 41.2673 11.1036 41.2673 11.176V18.2208C41.2673 18.2881 41.3036 18.3243 41.3712 18.3243H42.0982C42.1709 18.3243 42.2021 18.2881 42.2021 18.2208V14.8588H43.2615L47.8886 18.5312V51.9758H44.9908V19.576H34.3032V23.3725H32.1065V24.3967H34.3032V26.3208H32.1065V27.3449H34.3032V28.9277H32.1065V29.9518H34.3032V37.519L31.1457 35.4862L31.1613 19.9794L15 26.5225V27.6242L23.87 24.0398V39.6655L21.6837 41.15V41.9155H24.1505V49.4103H21.1436V26.8897L15.0052 29.3052V52.9999H32.5167V48.35H31.4885V51.9706H16.0335V29.9983L20.1101 28.3949V50.4293H25.1735V40.8862H23.8856L30.6316 36.3811L36.931 40.4362H35.3263V52.9896H35.3834V52.9999H39.7717V46.9741H41.8957V52.9999H48.9169V18.1743H48.9117C48.9117 18.1743 48.9169 18.1691 48.9221 18.1639L44.134 14.3984L48.9896 11.2381C48.9896 11.2381 49 11.1967 49 11.1812" fill="white"/>
<path id="Vector_5" d="M27.7648 42.4639H26.7365V45.0966H27.7648V42.4639Z" fill="white"/>
<path id="Vector_6" d="M31.3846 42.4639H30.3563V45.0966H31.3846V42.4639Z" fill="white"/>
<path id="Vector_7" d="M40.8053 31.6433H39.777V34.2761H40.8053V31.6433Z" fill="white"/>
<path id="Vector_8" d="M40.8053 36.3652H39.777V38.998H40.8053V36.3652Z" fill="white"/>
<path id="Vector_9" d="M40.8053 41.1553H39.777V43.788H40.8053V41.1553Z" fill="white"/>
<path id="Vector_10" d="M37.2421 31.6433H36.2139V34.2761H37.2421V31.6433Z" fill="white"/>
</g>
</g>
</svg>
