<svg width="64" height="64" viewBox="0 0 64 64" fill="none" xmlns="http://www.w3.org/2000/svg">
<path d="M0 32C0 14.3269 14.3269 0 32 0C49.6731 0 64 14.3269 64 32C64 49.6731 49.6731 64 32 64C14.3269 64 0 49.6731 0 32Z" fill="#003F86"/>
<g clip-path="url(#clip0_5821_6451)">
<path d="M23.5828 41.2223C23.228 41.004 22.8417 40.8955 22.4217 40.8955C22.0731 40.8955 21.7508 40.9725 21.4511 41.1277C21.1539 41.2854 20.9232 41.4872 20.7677 41.7371H20.7188V41.004H19.515V48.0002H20.7853V45.4427H20.8354C20.9859 45.6673 21.2053 45.8502 21.4937 45.9928C21.7822 46.1354 22.0906 46.2048 22.4204 46.2048C22.8405 46.2048 23.2267 46.0963 23.5816 45.878C23.9364 45.661 24.2186 45.3519 24.428 44.9481C24.6387 44.5444 24.744 44.0788 24.744 43.5501C24.744 43.0215 24.6387 42.5648 24.428 42.1585C24.2186 41.7509 23.9364 41.438 23.5816 41.2223M23.2731 44.3715C23.1653 44.6037 23.0098 44.7791 22.8066 44.9027C22.6022 45.0238 22.3703 45.0856 22.1057 45.0856C21.8411 45.0856 21.6028 45.0238 21.4035 44.8989C21.2028 44.7715 21.0511 44.5948 20.9458 44.3677C20.8404 44.1406 20.7878 43.8668 20.7878 43.5501C20.7878 43.2335 20.8404 42.9685 20.9458 42.7389C21.0511 42.5067 21.2028 42.3313 21.4035 42.2077C21.6041 42.084 21.8386 42.0247 22.1057 42.0247C22.3728 42.0247 22.6022 42.084 22.8066 42.2026C23.0098 42.3212 23.1653 42.4954 23.2731 42.7275C23.3809 42.9584 23.4361 43.2335 23.4361 43.5501C23.4361 43.8668 23.3809 44.1406 23.2731 44.3715Z" fill="white"/>
<path d="M28.8808 43.8884H28.8306L27.1679 41.0042H25.7296V46.0964H26.9898V42.7579H27.0387L28.4381 45.135H29.2658L30.6627 42.7579H30.7116V46.0964H31.963V41.0042H30.5636L28.8808 43.8884Z" fill="white"/>
<path d="M34.5612 44.5016H34.5123V41.0042H33.2533V46.0964H34.7681L36.8559 42.609H36.9061V46.0964H38.1663V41.0042H36.649L34.5612 44.5016Z" fill="white"/>
<path d="M42.9226 42.6646L40.7169 43.3396V41.0042H39.4453V46.0964H40.7169V44.2606L42.9226 43.8544V46.0964H44.1829V41.0042H42.9226V42.6646Z" fill="white"/>
<path d="M48.9039 41.1567C48.5665 40.9826 48.154 40.8955 47.6662 40.8955C47.2461 40.8955 46.8699 40.9662 46.5351 41.1075C46.2003 41.2488 45.9332 41.4519 45.7326 41.7131C45.532 41.9743 45.4166 42.2783 45.3828 42.6278H46.6718C46.7182 42.4171 46.8298 42.2518 47.0079 42.1332C47.1847 42.0146 47.4041 41.9553 47.6662 41.9553C47.9772 41.9553 48.2192 42.0336 48.3973 42.1925C48.5741 42.3515 48.6631 42.5849 48.6631 42.8953V43.0745H47.0781C46.6768 43.0745 46.3333 43.1401 46.0486 43.2713C45.764 43.405 45.5445 43.5855 45.394 43.8176C45.2423 44.0485 45.1683 44.3173 45.1683 44.6201C45.1683 44.9229 45.2448 45.1866 45.3991 45.4276C45.5533 45.6698 45.7665 45.8591 46.0348 45.9966C46.3044 46.1367 46.6091 46.2048 46.9502 46.2048C47.3176 46.2048 47.6612 46.1266 47.9784 45.9663C48.2969 45.8086 48.5314 45.6029 48.6832 45.3519H48.7321V46.095H49.9333V42.9735C49.9333 42.5597 49.8468 42.1963 49.6738 41.8847C49.4982 41.5743 49.2437 41.3321 48.9051 41.1567M48.4951 44.5053C48.3835 44.7071 48.2242 44.8648 48.0186 44.9771C47.8117 45.0894 47.5797 45.1449 47.3239 45.1449C47.0405 45.1449 46.8298 45.0894 46.6881 44.9809C46.5464 44.8724 46.4775 44.7286 46.4775 44.5494C46.4775 44.3703 46.5452 44.2289 46.6806 44.1242C46.8135 44.0182 47.0167 43.9652 47.2863 43.9652H48.6581C48.6393 44.1633 48.5866 44.3438 48.4951 44.5053Z" fill="white"/>
<path d="M51.9309 41.0042L51.714 44.2152C51.6952 44.5067 51.625 44.7148 51.5071 44.8435C51.3917 44.971 51.2162 45.0366 50.9854 45.0366H50.9265V46.2264H51.1924C51.5748 46.2264 51.887 46.1608 52.1341 46.0333C52.3786 45.9034 52.5642 45.7002 52.6896 45.4176C52.8137 45.1375 52.894 44.7653 52.9266 44.3048L53.072 42.1346H54.7398V46.0977H56V41.0042H51.9322H51.9309Z" fill="white"/>
<path d="M17.2128 41.2311C16.8115 41.0078 16.3626 40.8955 15.8635 40.8955C15.3644 40.8955 14.9093 41.0103 14.5005 41.2412C14.0892 41.4721 13.7631 41.7913 13.5249 42.1963C13.2841 42.6039 13.1663 43.0543 13.1663 43.5489C13.1663 44.0435 13.2841 44.4939 13.5249 44.8977C13.7631 45.2989 14.0879 45.6181 14.5005 45.8528C14.9105 46.0862 15.3644 46.2035 15.8635 46.2035C16.2961 46.2035 16.6886 46.1253 17.0397 45.9651C17.3921 45.8086 17.683 45.5929 17.9162 45.3254C18.1507 45.0579 18.315 44.7626 18.414 44.4397H17.1049C16.987 44.6579 16.824 44.822 16.6171 44.9342C16.4102 45.0465 16.1619 45.102 15.8723 45.102C15.5826 45.102 15.3431 45.0402 15.1299 44.9153C14.9168 44.7904 14.7525 44.6075 14.6384 44.369C14.5744 44.239 14.5306 44.0977 14.503 43.9438H18.5219V43.6549C18.5219 43.101 18.404 42.614 18.167 42.1938C17.93 41.7749 17.614 41.4519 17.2128 41.2273M14.5281 43.0341C14.5556 42.9281 14.5907 42.8284 14.6384 42.7326C14.7525 42.4991 14.9168 42.3162 15.1299 42.1888C15.3431 42.0588 15.5927 41.9957 15.8723 41.9957C16.1231 41.9957 16.3475 42.0487 16.5482 42.1597C16.7488 42.2682 16.9118 42.4209 17.036 42.6203C17.1162 42.7452 17.1751 42.884 17.2128 43.0341H14.5281Z" fill="white"/>
<path d="M8 42.5218L9.71796 42.2834V46.0963H10.9744V42.108L12.6937 41.8695V40.5952L8 41.6084V42.5218Z" fill="white"/>
<path d="M23.0392 29.0799L27.4256 27.9189V34.8218H23.0392V29.0799Z" fill="white"/>
<path d="M40.8355 17V21.4417L23.0392 27.7935V17H40.8355Z" fill="white"/>
<path d="M29.5562 27.3605L40.8355 24.4048V34.8218H29.5562V27.3605Z" fill="white"/>
</g>
<defs>
<clipPath id="clip0_5821_6451">
<rect width="48" height="31" fill="white" transform="translate(8 17)"/>
</clipPath>
</defs>
</svg>
