<svg width="64" height="64" viewBox="0 0 64 64" fill="none" xmlns="http://www.w3.org/2000/svg">
<g id="Logo">
<path d="M0 32C0 14.3269 14.3269 0 32 0C49.6731 0 64 14.3269 64 32C64 49.6731 49.6731 64 32 64C14.3269 64 0 49.6731 0 32Z" fill="#003F86"/>
<g id="Vector">
<path fill-rule="evenodd" clip-rule="evenodd" d="M32.1363 15.1794C41.7248 15.1794 49.5278 22.9719 49.5278 32.5474C49.5278 42.1229 41.7248 49.9153 32.1363 49.9153C22.5478 49.9153 14.7448 42.1229 14.7448 32.5474C14.7448 22.9058 22.5478 15.1794 32.1363 15.1794ZM32.1363 15.5756C41.5264 15.5756 49.0649 23.17 49.0649 32.4813C49.0649 41.8587 41.4603 49.387 32.1363 49.387C22.7462 49.387 15.2077 41.7927 15.2077 32.4813C15.2077 23.17 22.8123 15.5756 32.1363 15.5756Z" fill="white"/>
<path fill-rule="evenodd" clip-rule="evenodd" d="M32.2029 49.9151C41.7914 49.9151 49.5944 42.1886 49.5944 32.6131C49.5944 32.0188 49.5944 31.4245 49.5283 30.8301H49.0654C49.1315 31.4245 49.1315 32.0188 49.1315 32.6131C49.1315 41.9245 41.5269 49.4528 32.2029 49.4528C22.8128 49.4528 15.2743 41.9245 15.2743 32.6131C15.2743 32.0188 15.2743 31.4245 15.3404 30.8301H14.8775C14.8114 31.4245 14.8114 32.0188 14.8114 32.6131C14.8114 42.1226 22.6144 49.9151 32.2029 49.9151Z" fill="white"/>
<path fill-rule="evenodd" clip-rule="evenodd" d="M18.1843 16.5003C17.5891 17.0286 16.6633 16.9626 16.1343 16.3682C15.6053 15.7739 15.6714 14.8493 16.3327 14.321C16.9278 13.7927 17.8536 13.8588 18.3826 14.4531C18.9117 15.0475 18.7794 15.972 18.1843 16.5003ZM17.986 16.3018C17.5231 16.698 16.7296 16.632 16.3328 16.1697C15.9361 15.7075 16.0022 14.915 16.4651 14.5188C16.928 14.1226 17.7215 14.1886 18.1183 14.6509C18.5812 15.1792 18.4489 15.9056 17.986 16.3018Z" fill="white"/>
<path fill-rule="evenodd" clip-rule="evenodd" d="M14.7458 12.4716C13.0926 13.8584 12.8281 16.3018 14.2168 17.9528C15.6054 19.6037 18.1183 19.7358 19.7053 18.349C21.3585 16.9622 21.623 14.5188 20.2344 12.8678C18.8457 11.2829 16.399 11.0848 14.7458 12.4716ZM14.944 12.7361C13.4892 13.9908 13.2247 16.2361 14.4811 17.755C15.7375 19.2739 17.9859 19.406 19.5068 18.1512C20.9616 16.8965 21.2261 14.6512 19.9697 13.1324C18.7133 11.6135 16.4649 11.4814 14.944 12.7361Z" fill="white"/>
<path fill-rule="evenodd" clip-rule="evenodd" d="M50.8504 22.245C50.4536 21.5186 50.652 20.5941 51.3794 20.1978C52.1068 19.8016 52.9664 20.0658 53.3632 20.7262C53.76 21.4526 53.5616 22.3771 52.8342 22.7733C52.1729 23.2356 51.2471 22.9714 50.8504 22.245ZM51.1139 22.0474C50.7833 21.5191 50.9817 20.7927 51.5107 20.4625C52.1058 20.1323 52.7671 20.3304 53.0977 20.9248C53.4284 21.4531 53.23 22.1795 52.701 22.5097C52.1719 22.8399 51.4445 22.5757 51.1139 22.0474Z" fill="white"/>
<path fill-rule="evenodd" clip-rule="evenodd" d="M55.4783 19.538C54.4203 17.7549 52.0397 17.0285 50.1881 18.0851C48.2704 19.1417 47.7414 21.5851 48.7994 23.3682C49.8575 25.1512 52.2381 25.8776 54.0896 24.821C55.9412 23.7644 56.5364 21.387 55.4783 19.538ZM55.2148 19.7356C54.2229 18.0186 52.0407 17.3582 50.3214 18.3488C48.602 19.3394 48.073 21.5186 49.0649 23.2356C50.0568 24.9526 52.239 25.613 53.9584 24.6224C55.6777 23.6318 56.2067 21.4526 55.2148 19.7356Z" fill="white"/>
<path d="M45.5611 15.9054L45.2304 15.6413L45.7594 15.3111L45.5611 15.9054Z" fill="white"/>
<path fill-rule="evenodd" clip-rule="evenodd" d="M48.5362 11.0186L43.5766 13.9243L42.9154 13.396L40.7332 16.2356L42.8492 17.9526L43.4444 17.1602L44.7008 18.0186L44.0395 18.8771L46.1556 20.5941L48.4039 17.5564L47.7427 17.0941L49.1975 11.4809L48.5362 11.0186ZM48.4707 11.3488L43.5111 14.2545L43.0482 13.7922L41.2628 16.1696L42.916 17.4903L43.5111 16.6979L45.1643 17.9526L44.503 18.8111L46.0901 20.0658L48.0078 17.5564L47.4787 17.1602L48.8674 11.613L48.4707 11.3488Z" fill="white"/>
<path fill-rule="evenodd" clip-rule="evenodd" d="M41.3293 12.736L41.9906 10.6888L42.5857 10.8869L42.8503 8.17937L38.4858 6.79258L36.1714 13.7926L40.668 15.2454L42.3212 13.0662L41.3293 12.736ZM40.0053 10.0284L40.0714 9.76429L42.3197 10.4907L42.5181 8.3775L38.6827 7.12278L36.5666 13.5945L40.5343 14.9152L41.8568 13.1983L39.2117 12.3398L39.344 11.8775L41.0633 12.4718L41.7246 10.5567L40.0053 10.0284Z" fill="white"/>
<path fill-rule="evenodd" clip-rule="evenodd" d="M31.7392 8.70755L32.4005 8.64152L32.4666 13.3962H35.1778L35.1117 6L28.9619 6.13208L29.0941 13.3962H31.8053L31.7392 8.70755ZM31.4102 8.37737H32.6666L32.7988 13.1321H34.9149L34.7827 6.3302L29.228 6.39623L29.3602 13.1321H31.4763L31.4102 8.37737Z" fill="white"/>
<path d="M24.2668 10.4909L24.0685 9.83048C24.2668 9.76445 24.4652 9.76445 24.5975 10.0286C24.6636 10.2927 24.4652 10.4248 24.2668 10.4909Z" fill="white"/>
<path fill-rule="evenodd" clip-rule="evenodd" d="M25.8538 14.4526L25.2587 12.6035C26.5813 12.0092 27.3748 10.7544 26.9119 9.3016C26.3167 7.58461 24.6636 7.18839 23.0765 7.71669C22.6136 7.84877 22.1507 7.98084 21.6878 8.17896L21.0265 8.44311L23.341 15.5092L25.8538 14.4526ZM25.4571 14.255L24.862 12.406C26.2507 11.9437 27.0442 10.755 26.5152 9.30218C25.9861 7.71727 24.5313 7.45312 23.0765 7.91538C22.8451 7.98142 22.6302 8.06397 22.4153 8.14652C22.2004 8.22906 21.9854 8.31161 21.754 8.37765L21.3572 8.50973L23.4733 15.0475L25.4571 14.255Z" fill="white"/>
<path fill-rule="evenodd" clip-rule="evenodd" d="M16.3982 22.3114L12.4305 19.868L13.2241 18.6133L10.9757 17.2265L8 22.1133L10.2483 23.5001L11.0419 22.1793L15.2079 24.7548L16.3982 22.3114ZM16.0022 22.3775L12.0346 19.9341L12.762 18.7454L11.0427 17.6888L8.39758 21.9813L10.1169 23.0379L10.9104 21.7832L15.0764 24.2926L16.0022 22.3775Z" fill="white"/>
<path d="M50.5201 18.7455C49.0652 19.6039 48.5362 21.519 49.462 23.0379C50.3217 24.5568 52.2394 25.0851 53.6942 24.2266C55.149 23.3681 55.678 21.453 54.7522 19.9341C53.8926 18.4153 52.041 17.887 50.5201 18.7455ZM51.1813 19.8021C52.1071 19.2738 53.2974 19.6039 53.8264 20.5285C54.3554 21.453 54.0248 22.6417 53.1651 23.17C52.2394 23.6983 51.0491 23.3681 50.5201 22.4436C49.9249 21.519 50.2555 20.3304 51.1813 19.8021Z" fill="white"/>
<path d="M43.511 14.7829L43.0481 14.4527L41.7917 16.1037L42.7174 16.8301L43.3126 16.0376L45.7593 17.8867L45.098 18.7452L46.0238 19.4716L47.3464 17.6886L46.8835 17.3584L48.2721 12.0093L43.511 14.7829ZM44.4368 15.5754L46.5528 14.2546L45.8254 16.698L44.4368 15.5754Z" fill="white"/>
<path d="M38.9481 7.71684L37.1627 13.3301L40.3368 14.3867L41.0642 13.4621L38.6175 12.6697L39.0804 11.3489L40.7997 11.8772L41.1304 10.8867L39.411 10.2923L39.7417 9.16967L41.9239 9.89609L42.0561 8.70741L38.9481 7.71684Z" fill="white"/>
<path d="M31.0127 12.6699L30.9465 7.91515H33.1287L33.1949 12.6699H34.4513L34.319 6.79251L29.6901 6.85855L29.8224 12.6699H31.0127Z" fill="white"/>
<path d="M23.8042 14.519L24.9283 14.0567L24.3332 12.1416C24.4654 12.1416 24.5316 12.0756 24.6638 12.0756C26.0525 11.6133 26.5154 10.5567 26.1848 9.56615C25.9864 8.83973 25.1928 7.84916 23.3413 8.4435C22.9445 8.57558 22.2832 8.77369 22.0187 8.90577L23.8042 14.519ZM23.4735 9.50011L23.8042 9.36803C24.5316 9.10388 24.8622 9.56615 24.9945 9.8303C25.1267 10.1605 25.0606 10.6888 24.2671 10.9529C24.2009 10.9529 24.0687 11.019 23.9364 11.019L23.4735 9.50011Z" fill="white"/>
<path d="M15.7364 16.698C15.0751 15.9056 15.2074 14.6509 16.0009 13.9905C16.7945 13.3301 18.0509 13.3961 18.7121 14.1886C19.3734 14.9811 19.2412 16.2358 18.4476 16.8962C17.6541 17.5565 16.4638 17.4905 15.7364 16.698ZM14.8106 17.4245C15.9348 18.7452 17.8525 18.8773 19.2412 17.7547C20.5637 16.632 20.7621 14.6509 19.7041 13.3961C18.5799 12.0754 16.5961 11.9433 15.2735 13.066C13.951 14.1886 13.6865 16.1697 14.8106 17.4245Z" fill="white"/>
<path d="M11.373 20.132L12.1665 18.8772L11.1746 18.2829L9.0585 21.849L9.98428 22.4433L10.7778 21.1225L14.8777 23.632L15.4067 22.5754L11.373 20.132Z" fill="white"/>
<path d="M11.6365 41.2642L10.314 41.1321L9.91719 40.4057L11.5042 40.6038L12.2316 39.217L12.6284 39.9434L11.9671 41.066L12.959 40.5377L13.2897 41.1321L12.2316 41.7264L13.6203 41.7925L13.951 42.4529L12.43 42.3208L11.7026 43.7736L11.3059 42.9812L11.9671 41.8585L10.9752 42.3868L10.6446 41.7925L11.6365 41.2642Z" fill="white"/>
<path d="M15.2077 44.104L13.8852 45.1606L15.8028 44.8304L16.2657 45.4248L14.2158 47.0757L13.7529 46.5474L15.0754 45.4908L13.1578 45.7549L12.761 45.2266L14.7448 43.5757L15.2077 44.104Z" fill="white"/>
<path d="M19.1096 48L17.3903 49.9811L16.8613 49.5188L18.1838 47.9339L17.6548 47.5377L17.0597 48.2641C16.9274 48.4622 16.5968 48.7264 16.2661 48.7924C16.0677 48.7924 15.8694 48.7264 15.671 48.5943C15.5387 48.5283 15.4726 48.3962 15.4726 48.3302L15.8694 47.8679C15.8694 47.9339 15.9355 47.9339 15.9355 48C16.0016 48.066 16.0677 48.066 16.1339 48.066C16.2 48.066 16.3322 48.066 16.5306 47.8019L17.4564 46.6792L19.1096 48Z" fill="white"/>
<path d="M21.2919 52.0945C20.9613 52.1605 20.5645 52.0945 20.2339 51.8964C19.9033 51.6982 19.6387 51.368 19.5065 51.0379C19.3742 50.6416 19.4404 50.3114 19.6387 49.9813C19.8371 49.6511 20.1016 49.3869 20.4984 49.3209C20.829 49.2548 21.2258 49.3209 21.5564 49.519C21.8871 49.7171 22.1516 50.0473 22.2838 50.3775C22.4161 50.7077 22.35 51.1039 22.1516 51.4341C21.9532 51.6982 21.6226 51.9624 21.2919 52.0945ZM20.6307 49.9813C20.4323 50.0473 20.3 50.1794 20.1678 50.3114C20.0355 50.5096 20.1016 50.7077 20.1016 50.8397C20.1678 51.0379 20.2339 51.1699 20.4323 51.302C20.6307 51.4341 20.829 51.4341 21.0274 51.3681C21.2258 51.302 21.3581 51.236 21.4903 51.0379C21.5564 50.8397 21.6226 50.6416 21.5564 50.5096C21.4903 50.3114 21.3581 50.1794 21.2258 50.0473C21.0274 49.9813 20.829 49.9152 20.6307 49.9813Z" fill="white"/>
<path d="M24.7308 51.0379L24.2018 52.6228L25.6566 51.368L26.3179 51.5662L25.4582 54.0756L24.797 53.8775L25.326 52.2926L23.9373 53.5473L23.276 53.3492L24.1357 50.8397L24.7308 51.0379ZM26.2518 50.7737C26.1195 50.9718 25.9211 51.0379 25.855 51.0379C25.7227 51.0379 25.5905 51.0379 25.326 50.9718C25.1937 50.9058 24.9953 50.8397 24.8631 50.7077C24.797 50.6416 24.6647 50.4435 24.6647 50.2454H25.1276C25.1276 50.3114 25.1276 50.3775 25.1937 50.4435C25.2598 50.5096 25.326 50.5756 25.3921 50.5756C25.4582 50.5756 25.5244 50.6416 25.6566 50.5756C25.7227 50.5756 25.7889 50.5096 25.855 50.4435L26.2518 50.7737Z" fill="white"/>
<path d="M30.4836 53.4151L31.4094 52.3585L32.203 52.4245L31.0788 53.5472L32.1368 55H31.2772L30.4175 53.8113V54.934H29.6901L29.8224 52.2924H30.5498L30.4836 53.4151Z" fill="white"/>
<path d="M36.0374 54.4058C35.7729 54.67 35.4423 54.8681 35.0455 54.8681C34.6487 54.9341 34.252 54.802 33.9875 54.6039C33.6568 54.3398 33.5246 54.0096 33.4585 53.6794C33.3923 53.3492 33.5246 52.953 33.7891 52.6888C34.0536 52.4247 34.3842 52.2265 34.781 52.1605C35.1778 52.0945 35.5745 52.2265 35.839 52.4247C36.1697 52.6888 36.3019 53.019 36.3681 53.3492C36.3681 53.6794 36.2358 54.0756 36.0374 54.4058ZM34.3181 53.085C34.1859 53.2171 34.1197 53.4152 34.1859 53.6133C34.1859 53.8775 34.3181 54.0096 34.4504 54.0756C34.5826 54.2077 34.781 54.2737 34.9794 54.2077C35.2439 54.2077 35.3761 54.0756 35.5084 53.9435C35.6407 53.8115 35.7068 53.6133 35.6407 53.4152C35.6407 53.2171 35.5084 53.019 35.3762 52.953C35.2439 52.8209 35.0455 52.7548 34.8471 52.8209C34.5826 52.8209 34.3842 52.953 34.3181 53.085Z" fill="white"/>
<path d="M38.2861 54.2738L37.8894 51.6323L38.5506 51.4342L39.4764 52.5568L39.5425 51.104L40.2038 50.8399L41.3941 53.2172L40.799 53.4153L40.1377 52.0946L40.0054 53.6795L39.7409 53.8116L38.6829 52.5568L38.9474 54.0757L38.2861 54.2738Z" fill="white"/>
<path d="M44.5682 51.5662L43.5762 49.7831L42.7166 50.2454L43.7746 52.0284L43.1795 52.3586L41.8569 50.1133L43.8408 48.9247L45.1633 51.236L44.5682 51.5662Z" fill="white"/>
<path d="M46.8829 46.6133L48.6022 48.5945L48.0732 49.0567L46.7506 47.4718L46.2216 47.868L46.8168 48.5945C46.949 48.7926 47.2135 49.1228 47.2135 49.453C47.2135 49.6511 47.0813 49.8492 46.8829 50.0473C46.7506 50.1133 46.6845 50.1794 46.6184 50.2454L46.2216 49.7831C46.2877 49.7831 46.2877 49.7171 46.3539 49.7171C46.42 49.6511 46.4861 49.585 46.4861 49.519C46.4861 49.453 46.4861 49.3209 46.2877 49.0567L45.3619 47.9341L46.8829 46.6133Z" fill="white"/>
<path d="M49.3958 44.6982L48.8668 45.3586L49.1974 45.6227L49.7264 45.0284L50.1232 45.4246L49.6603 46.019L49.9909 46.2831L50.5199 45.6888L50.9828 46.085L49.9909 47.2076L48.0071 45.4246L48.999 44.302L49.3958 44.6982Z" fill="white"/>
<path d="M51.1154 43.1793L50.6525 41.8585L51.1154 41.1981L51.5783 42.717L53.3638 42.4529L52.9009 43.2453L51.4461 43.3774L52.438 43.9717L52.1073 44.5661L49.859 43.1793L50.1896 42.5849L51.1154 43.1793Z" fill="white"/>
<path d="M54.7523 39.349C54.7523 39.6132 54.6862 39.8113 54.6201 39.9434C54.4217 40.3396 54.1572 40.6037 53.8927 40.7358C53.5621 40.8679 53.1653 40.8679 52.8347 40.7358C52.504 40.6037 52.2395 40.3396 52.1073 40.0094C51.975 39.6792 51.975 39.349 52.1073 38.9528C52.1734 38.8207 52.2395 38.6226 52.4379 38.4245L53.1653 38.7547C52.8347 38.8207 52.7024 39.0849 52.6363 39.2169C52.5701 39.4151 52.5701 39.5471 52.6363 39.7452C52.7024 39.9434 52.9008 40.0754 53.033 40.1415C53.2314 40.2075 53.4298 40.2075 53.5621 40.1415C53.6943 40.0754 53.8266 39.9434 53.8927 39.7452C53.9588 39.6792 54.025 39.4151 53.8927 39.0849L54.7523 39.349Z" fill="white"/>
<path d="M35.3762 47.3398V33.0756H28.9618V47.3398C28.9618 47.4719 28.8296 47.604 28.6973 47.604C28.5651 47.604 28.4328 47.4719 28.4328 47.3398V32.8115C28.4328 32.6794 28.5651 32.5473 28.6973 32.5473H35.6407C35.773 32.5473 35.9052 32.6794 35.9052 32.8115V47.3398C35.9052 47.4719 35.773 47.604 35.6407 47.604C35.5085 47.604 35.3762 47.4719 35.3762 47.3398ZM32.9956 42.6511C32.8634 42.6511 32.7311 42.519 32.7311 42.387V40.8021C32.7311 40.67 32.8634 40.5379 32.9956 40.5379H34.0537C34.1859 40.5379 34.3182 40.67 34.3182 40.8021V42.387C34.3182 42.519 34.1859 42.6511 34.0537 42.6511H32.9956ZM33.2601 42.1228H33.7891V41.0662H33.2601V42.1228ZM30.3505 42.6511C30.2183 42.6511 30.086 42.519 30.086 42.387V40.8021C30.086 40.67 30.2183 40.5379 30.3505 40.5379H31.4086C31.5408 40.5379 31.6731 40.67 31.6731 40.8021V42.387C31.6731 42.519 31.5408 42.6511 31.4086 42.6511H30.3505ZM30.615 42.1228H31.144V41.0662H30.615V42.1228ZM32.9956 39.4813C32.8634 39.4813 32.7311 39.3492 32.7311 39.2171V37.6322C32.7311 37.5002 32.8634 37.3681 32.9956 37.3681H34.0537C34.1859 37.3681 34.3182 37.5002 34.3182 37.6322V39.2171C34.3182 39.3492 34.1859 39.4813 34.0537 39.4813H32.9956ZM33.2601 38.953H33.7891V37.8964H33.2601V38.953ZM30.3505 39.4813C30.2183 39.4813 30.086 39.3492 30.086 39.2171V37.6322C30.086 37.5002 30.2183 37.3681 30.3505 37.3681H31.4086C31.5408 37.3681 31.6731 37.5002 31.6731 37.6322V39.2171C31.6731 39.3492 31.5408 39.4813 31.4086 39.4813H30.3505ZM30.615 38.953H31.144V37.8964H30.615V38.953ZM32.9956 36.2454C32.8634 36.2454 32.7311 36.1134 32.7311 35.9813V34.3964C32.7311 34.2643 32.8634 34.1322 32.9956 34.1322H34.0537C34.1859 34.1322 34.3182 34.2643 34.3182 34.3964V35.9813C34.3182 36.1134 34.1859 36.2454 34.0537 36.2454H32.9956ZM33.2601 35.7171H33.7891V34.6605H33.2601V35.7171ZM30.3505 36.2454C30.2183 36.2454 30.086 36.1134 30.086 35.9813V34.3964C30.086 34.2643 30.2183 34.1322 30.3505 34.1322H31.4086C31.5408 34.1322 31.6731 34.2643 31.6731 34.3964V35.9813C31.6731 36.1134 31.5408 36.2454 31.4086 36.2454H30.3505ZM30.615 35.7171H31.144V34.6605H30.615V35.7171Z" fill="white"/>
<path d="M27.6398 35.7171H24.4657C24.3334 35.7171 24.2012 35.8491 24.2012 35.9812V41.3303C24.2012 41.4624 24.3334 41.5944 24.4657 41.5944C24.5979 41.5944 24.7302 41.4624 24.7302 41.3303V36.3114H27.6398C27.772 36.3114 27.9043 36.1793 27.9043 36.0472C27.9704 35.8491 27.8382 35.7171 27.6398 35.7171Z" fill="white"/>
<path d="M27.1104 40.5378H26.0523C25.9201 40.5378 25.7878 40.6699 25.7878 40.8019V41.3302C25.7878 41.4623 25.9201 41.5944 26.0523 41.5944C26.1846 41.5944 26.3168 41.4623 26.3168 41.3302V41.0661H26.8459V42.3868C26.8459 42.5189 26.9781 42.651 27.1104 42.651C27.2426 42.651 27.3749 42.5189 27.3749 42.3868V40.8019C27.3749 40.6038 27.3087 40.5378 27.1104 40.5378Z" fill="white"/>
<path d="M37.2286 43.7075H38.2866C38.4189 43.7075 38.5511 43.8396 38.5511 43.9717V44.6981C38.5511 44.8302 38.4189 44.9622 38.2866 44.9622C38.1544 44.9622 38.0221 44.8302 38.0221 44.6981V44.2358H37.4931V45.0283C37.4931 45.1603 37.3608 45.2924 37.2286 45.2924C37.0963 45.2924 36.9641 45.1603 36.9641 45.0283V43.9717C36.9641 43.8396 37.0963 43.7075 37.2286 43.7075Z" fill="white"/>
<path d="M37.2286 39.4812H38.2866C38.4189 39.4812 38.5511 39.3491 38.5511 39.2171V37.6322C38.5511 37.5001 38.4189 37.368 38.2866 37.368H37.2286C37.0963 37.368 36.9641 37.5001 36.9641 37.6322V39.2171C36.9641 39.3491 37.0963 39.4812 37.2286 39.4812ZM37.4931 37.8303H38.0221V38.8869H37.4931V37.8303Z" fill="white"/>
<path d="M27.1104 37.3021H26.0523C25.9201 37.3021 25.7878 37.4342 25.7878 37.5663V39.1512C25.7878 39.2832 25.9201 39.4153 26.0523 39.4153H27.1104C27.2426 39.4153 27.3749 39.2832 27.3749 39.1512V37.5663C27.3749 37.4342 27.3087 37.3021 27.1104 37.3021ZM26.8459 38.9531H26.3168V37.8964H26.8459V38.9531Z" fill="white"/>
<path d="M37.8895 46.9435H37.2283C37.096 46.9435 36.9638 46.8114 36.9638 46.6793C36.9638 46.5473 37.096 46.4152 37.2283 46.4152C37.2944 46.4152 37.3605 46.4152 37.3605 46.4812C37.4266 46.5473 37.4928 46.5473 37.625 46.4812C37.6912 46.4812 37.7573 46.3492 37.7573 46.2831C37.8234 46.019 38.0218 45.8869 38.2863 45.8869C38.5508 45.8869 38.7492 46.085 38.8153 46.2831C38.8153 46.3492 38.8815 46.4152 38.9476 46.4812C39.3443 46.2831 39.7411 46.085 40.1379 45.8209V35.9812C40.1379 35.8491 40.0056 35.7171 39.8734 35.7171H36.6992C36.567 35.7171 36.4347 35.8491 36.4347 35.9812C36.4347 36.1133 36.567 36.2454 36.6992 36.2454H39.6089V45.9529C39.5427 45.9529 39.4105 45.8869 39.3443 45.8869C39.2782 45.8869 39.2782 45.8869 39.2121 45.8869C39.0137 45.5567 38.6831 45.3586 38.2863 45.3586C37.8895 45.3586 37.5589 45.5567 37.3605 45.8869C37.2944 45.8869 37.2944 45.8869 37.2283 45.8869C36.7654 45.8869 36.4347 46.2171 36.4347 46.6793C36.4347 46.9435 36.567 47.2077 36.7654 47.3397C37.1621 47.2077 37.5589 47.0756 37.8895 46.9435Z" fill="white"/>
<path d="M32.004 45.3587C31.9378 45.4248 31.9378 45.4908 31.9378 45.5568C31.9378 45.6229 31.9378 45.6889 32.004 45.755C32.0701 45.821 32.1362 45.821 32.2023 45.821C32.2685 45.821 32.3346 45.821 32.4007 45.755C32.4668 45.6889 32.4668 45.6229 32.4668 45.5568C32.4668 45.4908 32.4668 45.4248 32.4007 45.3587C32.2685 45.2927 32.1362 45.2927 32.004 45.3587Z" fill="white"/>
<path d="M29.5581 43.9717C29.5581 44.1037 29.6903 44.2358 29.8226 44.2358H30.6161V47.6698C30.6161 47.8019 30.7484 47.9339 30.8806 47.9339C31.0129 47.9339 31.1451 47.8019 31.1451 47.6698V44.2358H33.2612V47.6698C33.2612 47.8019 33.3935 47.9339 33.5257 47.9339C33.658 47.9339 33.7902 47.8019 33.7902 47.6698V44.2358H34.5838C34.716 44.2358 34.8483 44.1037 34.8483 43.9717C34.8483 43.8396 34.716 43.7075 34.5838 43.7075H29.8226C29.6242 43.7075 29.5581 43.8396 29.5581 43.9717Z" fill="white"/>
<path d="M36.9641 42.3868C36.9641 42.5189 37.0963 42.651 37.2286 42.651H38.2866C38.4189 42.651 38.5511 42.5189 38.5511 42.3868V40.8019C38.5511 40.6699 38.4189 40.5378 38.2866 40.5378H37.2286C37.0963 40.5378 36.9641 40.6699 36.9641 40.8019V42.3868ZM37.4931 41.0661H38.0221V42.1227H37.4931V41.0661Z" fill="white"/>
<path d="M21.6882 40.3398C21.6882 40.4718 21.8204 40.6039 21.9527 40.6039H23.0107C23.143 40.6039 23.2753 40.4718 23.2753 40.3398V38.7549C23.2753 38.6228 23.143 38.4907 23.0107 38.4907H21.9527C21.8204 38.4907 21.6882 38.6228 21.6882 38.7549V40.3398ZM22.2172 39.019H22.7462V40.0756H22.2172V39.019Z" fill="white"/>
<path d="M21.6882 43.5095C21.6882 43.6416 21.8204 43.7737 21.9527 43.7737H23.0107C23.143 43.7737 23.2753 43.6416 23.2753 43.5095V41.9246C23.2753 41.7926 23.143 41.6605 23.0107 41.6605H21.9527C21.8204 41.6605 21.6882 41.7926 21.6882 41.9246V43.5095ZM22.2172 42.1888H22.7462V43.2454H22.2172V42.1888Z" fill="white"/>
<path d="M21.9527 37.4342H23.0107C23.143 37.4342 23.2753 37.3021 23.2753 37.17V35.5851C23.2753 35.453 23.143 35.321 23.0107 35.321H21.9527C21.8204 35.321 21.6882 35.453 21.6882 35.5851V37.17C21.6882 37.3021 21.7543 37.4342 21.9527 37.4342ZM22.2172 35.8493H22.7462V36.9059H22.2172V35.8493Z" fill="white"/>
<path d="M26.2509 33.8681H20.2994C20.1672 33.8681 20.0349 34.0001 20.0349 34.1322V42.1228C20.2333 42.3209 20.3656 42.519 20.564 42.7832V34.3964H25.9864C26.1848 34.3964 26.5154 34.3964 26.5154 34.1983V34.1322C26.5154 34.0001 26.3832 33.8681 26.2509 33.8681Z" fill="white"/>
<path d="M38.2859 33.8681H44.2374C44.3696 33.8681 44.5019 34.0001 44.5019 34.1322V41.9907C44.3035 42.1888 44.1712 42.453 43.9729 42.6511V34.3964H38.5504C38.352 34.3964 38.0214 34.3964 38.0214 34.1983V34.1322C38.0214 34.0001 38.0875 33.8681 38.2859 33.8681Z" fill="white"/>
<path d="M17.522 37.3018C17.4559 37.1037 17.3898 36.9716 17.3898 36.7735H19.4397C19.572 36.7735 19.7042 36.9056 19.7042 37.0377C19.7042 37.1698 19.572 37.3018 19.4397 37.3018H17.522ZM18.9107 38.8867H18.3817V39.4811C18.1833 39.1509 18.0511 38.8207 17.9188 38.4905C17.9849 38.4245 18.0511 38.4245 18.1172 38.4245H19.1752C19.3075 38.4245 19.4397 38.5566 19.4397 38.6886V40.2735C19.4397 40.4056 19.3075 40.5377 19.1752 40.5377H18.9768C18.8446 40.3396 18.7785 40.2075 18.6462 40.0094H18.9107V38.8867Z" fill="white"/>
<path d="M32.2685 30.8962L36.3022 31.9528C36.4345 32.0188 36.5006 32.1509 36.5006 32.283C36.4345 32.415 36.3022 32.4811 36.17 32.4811L32.1362 31.4245C32.004 31.3584 31.9378 31.2264 31.9378 31.0943C31.9378 30.8962 32.1362 30.8301 32.2685 30.8962Z" fill="white"/>
<path d="M32.1371 30.8962L28.1034 31.9528C27.9711 32.0188 27.905 32.1509 27.905 32.283C27.9711 32.415 28.1034 32.4811 28.2356 32.4811L32.2694 31.4245C32.4016 31.3584 32.4678 31.2264 32.4678 31.0943C32.4016 30.8962 32.2694 30.8301 32.1371 30.8962Z" fill="white"/>
<path d="M36.7654 34.0661L40.5346 35.0567C40.6669 35.1227 40.733 35.2548 40.733 35.3869C40.6669 35.5189 40.5346 35.585 40.4024 35.585L36.6331 34.5944C36.5009 34.5284 36.4347 34.3963 36.4347 34.2642C36.5009 34.1321 36.6331 34.0661 36.7654 34.0661Z" fill="white"/>
<path d="M27.6396 34.0661L23.8704 35.1227C23.7381 35.1888 23.672 35.3208 23.672 35.4529C23.7381 35.585 23.8704 35.651 24.0026 35.651L27.7719 34.6605C27.9041 34.5944 27.9703 34.4623 27.9703 34.3303C27.9703 34.1322 27.7719 34.0661 27.6396 34.0661Z" fill="white"/>
<path d="M19.3742 35.3207L17.1259 35.915C17.192 36.1132 17.192 36.2452 17.2581 36.4433L19.5064 35.849C19.6387 35.783 19.7048 35.6509 19.7048 35.5188C19.6387 35.3867 19.5064 35.2547 19.3742 35.3207Z" fill="white"/>
<path d="M23.54 32.0851L19.7707 33.0756C19.6385 33.1417 19.5724 33.2738 19.5724 33.4058C19.6385 33.5379 19.7707 33.6039 19.903 33.6039L23.6723 32.6134C23.8045 32.5473 23.8707 32.4153 23.8707 32.2832C23.8707 32.1511 23.7384 32.019 23.54 32.0851Z" fill="white"/>
<path d="M23.6719 32.0851L27.4412 33.0756C27.5735 33.1417 27.6396 33.2738 27.6396 33.4058C27.5735 33.5379 27.4412 33.6039 27.309 33.6039L23.5397 32.6134C23.4074 32.5473 23.3413 32.4153 23.3413 32.2832C23.4074 32.1511 23.5397 32.019 23.6719 32.0851Z" fill="white"/>
<path d="M42.7828 40.3398C42.7828 40.4718 42.6505 40.6039 42.5183 40.6039H41.4602C41.328 40.6039 41.1957 40.4718 41.1957 40.3398V38.7549C41.1957 38.6228 41.328 38.4907 41.4602 38.4907H42.5183C42.6505 38.4907 42.7828 38.6228 42.7828 38.7549V40.3398ZM42.2538 39.019H41.7247V40.0756H42.2538V39.019Z" fill="white"/>
<path d="M42.7828 43.5095C42.7828 43.6416 42.6505 43.7737 42.5183 43.7737H41.4602C41.328 43.7737 41.1957 43.6416 41.1957 43.5095V41.9246C41.1957 41.7926 41.328 41.6605 41.4602 41.6605H42.5183C42.6505 41.6605 42.7828 41.7926 42.7828 41.9246V43.5095ZM42.2538 42.1888H41.7247V43.2454H42.2538V42.1888Z" fill="white"/>
<path d="M42.5183 37.4342H41.4602C41.328 37.4342 41.1957 37.3021 41.1957 37.17V35.5851C41.1957 35.453 41.328 35.321 41.4602 35.321H42.5183C42.6505 35.321 42.7828 35.453 42.7828 35.5851V37.17C42.7828 37.3021 42.7167 37.4342 42.5183 37.4342ZM42.2538 35.8493H41.7247V36.9059H42.2538V35.8493Z" fill="white"/>
<path d="M47.1479 36.7735C47.0818 36.9716 47.0157 37.1037 47.0157 37.3018H45.0319C44.8996 37.3018 44.7673 37.1698 44.7673 37.0377C44.7673 36.9056 44.8996 36.7735 45.0319 36.7735H47.1479ZM45.5609 38.8867H46.0899V39.4811C46.2883 39.1509 46.4205 38.8207 46.5528 38.4905C46.4867 38.4245 46.4205 38.3584 46.3544 38.3584H45.2964C45.1641 38.3584 45.0319 38.4905 45.0319 38.6226V40.2075C45.0319 40.3396 45.1641 40.4717 45.2964 40.4717H45.4947C45.627 40.2735 45.6931 40.1415 45.8254 39.9434H45.5609V38.8867Z" fill="white"/>
<path d="M45.098 35.3207L47.3463 35.915C47.2802 36.1132 47.2802 36.2452 47.2141 36.4433L44.9657 35.849C44.8335 35.783 44.7673 35.6509 44.7673 35.5188C44.8335 35.3867 44.9657 35.2547 45.098 35.3207Z" fill="white"/>
<path d="M40.9318 32.0851L44.701 33.0756C44.8333 33.1417 44.8994 33.2738 44.8994 33.4058C44.8333 33.5379 44.701 33.6039 44.5688 33.6039L40.7995 32.6134C40.6672 32.5473 40.6011 32.4153 40.6011 32.2832C40.6011 32.1511 40.7334 32.019 40.9318 32.0851Z" fill="white"/>
<path d="M40.7992 32.0851L36.9638 33.0756C36.8315 33.1417 36.7654 33.2738 36.7654 33.4058C36.8315 33.5379 36.9638 33.6039 37.0961 33.6039L40.8653 32.6134C40.9976 32.5473 41.0637 32.4153 41.0637 32.2832C41.0637 32.1511 40.9314 32.019 40.7992 32.0851Z" fill="white"/>
<path fill-rule="evenodd" clip-rule="evenodd" d="M24.2012 45.755C24.7963 46.1512 25.4576 46.4814 26.1189 46.7455C26.5817 46.5474 26.8463 46.0851 26.8463 45.5568C26.8463 45.5568 26.8463 42.1229 25.5237 42.1229C24.2012 42.1229 24.2012 45.4908 24.2012 45.5568V45.755ZM24.7308 45.5567C24.7308 46.019 25.0614 46.3492 25.5243 46.3492C25.9872 46.3492 26.3178 46.019 26.3178 45.5567C26.3178 44.2359 25.9872 42.651 25.5243 42.651C25.0614 42.651 24.7308 44.2359 24.7308 45.5567Z" fill="white"/>
<path d="M16.1335 30.3681H48.4037V30.7644L16.0674 30.8304L16.1335 30.3681Z" fill="white"/>
<path fill-rule="evenodd" clip-rule="evenodd" d="M48.4034 30.5001C47.4115 22.4434 40.5342 16.2359 32.2022 16.2359C23.9362 16.2359 17.059 22.4434 16.0671 30.5001H48.4034ZM22.4153 27.5944L21.6879 28.2548C21.6879 28.2548 22.2169 28.3208 22.4153 28.2548C22.4999 28.2548 22.909 28.0867 23.3659 27.899C23.9807 27.6465 24.6821 27.3584 24.7959 27.3963C24.8951 27.4293 25.11 27.3798 25.3249 27.3303C25.5398 27.2807 25.7547 27.2312 25.8539 27.2642C26.0523 27.3303 27.1103 27.3303 27.3087 27.3303C27.3485 27.3303 27.4243 27.3482 27.5378 27.3751C27.8014 27.4376 28.2686 27.5482 28.9619 27.5944C29.0335 27.6039 29.1044 27.6135 29.1746 27.6229C30.0765 27.7442 30.8565 27.849 31.4086 27.7265C31.9377 27.5944 32.9296 26.5378 32.9296 26.5378C32.9296 26.5378 33.9215 26.6699 34.8473 26.7359C35.3481 26.7716 35.7522 26.7494 36.07 26.7319C36.3396 26.717 36.5471 26.7056 36.6988 26.7359C37.6246 26.868 38.7488 25.3491 38.7488 25.3491L39.6746 26.4718L41.3939 23.7642L41.0633 25.9435C41.0633 25.9435 40.7987 26.4718 40.6665 26.5378C40.5342 26.6038 40.2036 26.5378 40.2036 26.5378C40.2036 26.5378 39.9391 27.0001 40.2036 27.0661C40.405 27.1164 40.8365 26.822 41.0893 26.6496C41.1685 26.5956 41.2301 26.5535 41.2616 26.5378C41.3939 26.4718 41.8568 24.2265 41.8568 24.1604C41.8568 24.1604 41.9229 23.0378 41.6584 22.7736C41.4821 22.5975 40.6298 23.6248 40.0616 24.3096C39.7774 24.652 39.5644 24.9089 39.5423 24.8869C39.5137 24.8582 39.485 24.7305 39.451 24.5787C39.4065 24.3802 39.3528 24.1406 39.2778 24.0284C39.1456 23.8302 39.1456 23.1038 39.1456 22.9718C39.1456 22.7736 38.4182 21.651 38.1536 21.5189C37.8891 21.3868 36.8311 20.5283 36.8311 20.2642C36.8311 20 37.823 18.7453 37.823 18.7453C37.823 18.7453 37.6246 18.5472 37.4924 18.5472C37.3601 18.5472 34.9795 19.4057 34.9795 19.4057L35.8392 18.8774L35.6408 18.6793L35.244 18.8774L34.6489 18.9434H34.1199V19.0755C34.1199 19.0755 34.186 19.4057 34.1199 19.4717C33.9876 19.5378 33.5247 19.8019 33.4586 19.868C33.4481 19.868 33.398 19.8663 33.3214 19.8638C32.9141 19.8504 31.7602 19.8124 31.8715 19.868C31.9127 19.8885 32.0049 19.9218 32.1105 19.9599C32.3447 20.0444 32.6445 20.1527 32.5989 20.1982C32.5989 20.2202 32.6136 20.2422 32.6283 20.2642C32.6577 20.3082 32.6871 20.3522 32.5989 20.3963C32.528 20.4317 31.9429 20.3721 31.4261 20.3194C30.9798 20.2739 30.5845 20.2336 30.6151 20.2642C30.6151 20.2873 30.6797 20.3668 30.7581 20.4633C30.9041 20.643 31.0979 20.8816 31.0119 20.9246C30.8796 20.9906 29.2264 20.8585 29.2264 20.8585C29.2264 20.8585 29.4248 21.1887 30.0861 21.3868C30.6269 21.485 31.8256 21.0722 32.4594 20.8539C32.6781 20.7786 32.8295 20.7265 32.8635 20.7265C32.9957 20.7265 34.4505 19.7359 34.4505 19.7359C34.4505 19.7359 34.5828 20 34.4505 20C34.373 20 34.1367 20.0907 33.941 20.1658C33.8025 20.2189 33.6844 20.2642 33.657 20.2642C33.5909 20.3302 33.7231 20.6604 33.7231 20.6604H33.9876L34.0537 21.1227L34.9134 22.1793C34.9134 22.1793 35.4424 22.7076 35.1118 23.5661C34.8048 24.3632 31.8755 24.3063 31.2463 24.2941C31.1979 24.2932 31.1631 24.2925 31.1441 24.2925C30.8796 24.2925 29.6893 24.4906 29.4909 24.5567C29.3476 24.6044 29.3769 24.8589 29.4042 25.0962C29.4146 25.1873 29.4248 25.2758 29.4248 25.3491C29.4248 25.5472 28.4329 26.3397 28.3007 26.3397H26.1185C25.9862 26.3397 22.4153 27.5944 22.4153 27.5944Z" fill="white"/>
<path fill-rule="evenodd" clip-rule="evenodd" d="M32.2027 16.6321C40.9976 16.6321 48.0733 23.7642 48.0733 32.4812C48.0733 41.2642 40.9315 48.3303 32.2027 48.3303C23.4077 48.3303 16.3321 41.1982 16.3321 32.4812C16.3321 23.7642 23.4077 16.6321 32.2027 16.6321ZM32.2027 16.2359C41.196 16.2359 48.47 23.5 48.47 32.4812C48.47 41.4624 41.196 48.7265 32.2027 48.7265C23.2093 48.7926 15.9353 41.5284 15.9353 32.5472C15.9353 23.5 23.2093 16.2359 32.2027 16.2359Z" fill="white"/>
<path fill-rule="evenodd" clip-rule="evenodd" d="M32.2027 48.3963C40.9976 48.3963 48.0733 41.3303 48.0733 32.5472C48.0733 31.9529 48.0071 31.3586 47.941 30.7642H48.3378C48.4039 31.3586 48.47 31.9529 48.47 32.5472C48.47 41.5284 41.196 48.7926 32.2027 48.7926C23.2093 48.7926 15.9353 41.5284 15.9353 32.5472C15.9353 31.9529 16.0014 31.3586 16.0676 30.7642H16.4643C16.3982 31.3586 16.3982 31.9529 16.3982 32.5472C16.3321 41.3303 23.4077 48.3963 32.2027 48.3963Z" fill="white"/>
</g>
</g>
</svg>
