<svg width="134" height="80" viewBox="0 0 134 80" fill="none" xmlns="http://www.w3.org/2000/svg">
<path fill-rule="evenodd" clip-rule="evenodd" d="M42.3426 0.90417C42.9856 0.604824 43.5791 0.172982 44.2739 0C44.8588 0.12759 45.3533 0.49073 45.89 0.739775C53.1181 4.33928 60.3487 7.93387 67.5695 11.5481C74.6999 8.00994 81.8143 4.43988 88.9473 0.906623C89.589 0.59869 90.1936 0.17789 90.8885 0C91.5536 0.164394 92.1261 0.569247 92.7394 0.861231C101.555 5.23118 110.347 9.64652 119.164 14.0116C121.428 15.1783 123.723 16.2873 126 17.4258C128.424 18.6146 130.819 19.8586 133.246 21.0388C133.549 21.1836 133.919 21.3553 133.953 21.7356C134.03 22.4656 133.987 23.2017 133.998 23.9341C133.999 34.6885 133.998 45.4428 133.999 56.1959C133.993 56.4793 133.964 56.7971 133.743 57.0032C133.47 57.2866 133.041 57.2547 132.68 57.2608C131.375 57.2436 130.068 57.2792 128.765 57.2449C128.278 57.2436 127.91 56.7873 127.944 56.3198C127.934 45.9053 127.942 35.4908 127.94 25.0763C122.634 22.4533 117.35 19.7838 112.041 17.1657C108.411 15.3144 104.735 13.5564 101.109 11.7015C97.6987 10.0109 94.2862 8.32278 90.8872 6.61258C85.3579 9.38398 79.8138 12.1247 74.2857 14.8986C78.4982 16.9645 82.6835 19.0833 86.8861 21.1689C87.3065 21.3455 87.5068 21.9 87.2608 22.2926C86.6129 23.5759 85.9737 24.8628 85.3171 26.1412C85.1168 26.5951 84.5258 26.7301 84.1153 26.4786C81.687 25.2382 79.2364 24.0421 76.7969 22.8263C65.9609 17.4123 55.1087 12.029 44.2739 6.61258C30.9737 13.2583 17.6549 19.8709 4.35222 26.5141C3.94791 26.7337 3.41006 26.5497 3.22707 26.1301C2.59773 24.9107 1.99559 23.6777 1.36749 22.4582C1.23519 22.1994 1.09671 21.8976 1.2389 21.613C1.3984 21.1885 1.88679 21.083 2.24411 20.8793C6.22417 18.9005 10.1943 16.9007 14.183 14.9354C17.7823 13.0927 21.4322 11.3494 25.0339 9.51157C30.813 6.66043 36.5636 3.75408 42.3426 0.90417Z" fill="white"/>
<path fill-rule="evenodd" clip-rule="evenodd" d="M97.5651 22.2644C98.286 22.641 99.0229 22.9907 99.7499 23.3587C99.7487 24.0727 99.7487 24.7868 99.7499 25.502C99.0204 25.1425 98.2909 24.7831 97.5651 24.4163V22.2644Z" fill="white"/>
<path fill-rule="evenodd" clip-rule="evenodd" d="M107.368 29.2868C107.381 28.5715 107.37 27.855 107.375 27.1398C108.074 27.5299 108.851 27.8133 109.508 28.2562C109.535 28.9543 109.508 29.6523 109.515 30.3504C108.791 30.013 108.082 29.645 107.368 29.2868Z" fill="white"/>
<path fill-rule="evenodd" clip-rule="evenodd" d="M96.5327 27.9802C97.167 28.2967 97.8112 28.5997 98.4381 28.9334C98.4245 29.5149 98.4306 30.0965 98.4306 30.678C97.7988 30.359 97.1608 30.0535 96.5327 29.7284C96.5364 29.1457 96.5352 28.5629 96.5327 27.9802Z" fill="white"/>
<path fill-rule="evenodd" clip-rule="evenodd" d="M98.8411 34.1045C98.8473 32.4434 98.8387 30.7835 98.8448 29.1224C99.4903 29.4426 100.129 29.7726 100.78 30.083C100.779 31.7453 100.782 33.4077 100.779 35.07C100.132 34.7486 99.4828 34.4333 98.8411 34.1045Z" fill="white"/>
<path fill-rule="evenodd" clip-rule="evenodd" d="M96.5352 30.1443C97.1683 30.4547 97.7939 30.781 98.4294 31.0877C98.4319 32.0275 98.4294 32.966 98.4306 33.9057C97.8001 33.5954 97.1732 33.2776 96.5401 32.9721C96.529 32.0299 96.5377 31.0865 96.5352 30.1443Z" fill="white"/>
<path fill-rule="evenodd" clip-rule="evenodd" d="M117.31 32.0913C118.035 32.4471 118.757 32.8139 119.486 33.166C119.494 33.8824 119.491 34.6001 119.488 35.3166C118.76 34.9571 118.033 34.5977 117.307 34.2345C117.307 33.5193 117.303 32.8053 117.31 32.0913Z" fill="white"/>
<path fill-rule="evenodd" clip-rule="evenodd" d="M107.375 33.3745C108.088 33.7291 108.802 34.0824 109.515 34.437C109.519 35.0271 109.51 35.6172 109.525 36.2073C108.812 35.8429 108.091 35.4945 107.376 35.1362C107.372 34.5486 107.374 33.9622 107.375 33.3745Z" fill="white"/>
<path fill-rule="evenodd" clip-rule="evenodd" d="M107.375 35.5448C108.092 35.8957 108.803 36.2576 109.523 36.6048C109.509 37.5445 109.521 38.4855 109.516 39.4265C108.801 39.0744 108.087 38.7174 107.375 38.3616C107.375 37.4218 107.372 36.4833 107.375 35.5448Z" fill="white"/>
<path fill-rule="evenodd" clip-rule="evenodd" d="M96.5327 35.7092C97.167 36.0245 97.8063 36.33 98.4356 36.6587C98.4257 37.2415 98.4306 37.8242 98.4306 38.407C97.7988 38.0892 97.1621 37.7813 96.5327 37.4599C96.5352 36.8759 96.5352 36.2919 96.5327 35.7092Z" fill="white"/>
<path fill-rule="evenodd" clip-rule="evenodd" d="M98.8387 41.8286C98.8498 40.1699 98.8387 38.5112 98.8448 36.8526C99.4915 37.1703 100.132 37.5016 100.78 37.8181C100.779 39.478 100.782 41.1391 100.779 42.799C100.131 42.4751 99.4779 42.1635 98.8387 41.8286Z" fill="white"/>
<path fill-rule="evenodd" clip-rule="evenodd" d="M116.278 37.7899C116.903 38.1138 117.532 38.4303 118.169 38.7333C118.175 39.3246 118.169 39.9172 118.175 40.5097C117.546 40.1834 116.905 39.8828 116.275 39.5614C116.277 38.9701 116.275 38.38 116.278 37.7899Z" fill="white"/>
<path fill-rule="evenodd" clip-rule="evenodd" d="M96.5352 37.8733C97.1683 38.1849 97.7951 38.51 98.4306 38.8192C98.4294 39.7577 98.4294 40.6962 98.4306 41.6347C97.8001 41.3244 97.1744 41.0066 96.5414 40.7024C96.5278 39.7589 96.5377 38.8167 96.5352 37.8733Z" fill="white"/>
<path fill-rule="evenodd" clip-rule="evenodd" d="M118.584 38.9492C119.232 39.2694 119.874 39.6007 120.522 39.9209C120.518 41.5844 120.524 43.248 120.519 44.9116C119.881 44.5718 119.231 44.2577 118.584 43.9363V38.9492Z" fill="white"/>
<path fill-rule="evenodd" clip-rule="evenodd" d="M116.274 39.9847C116.908 40.2889 117.535 40.6116 118.17 40.917C118.174 41.8519 118.173 42.7867 118.17 43.7216C117.532 43.421 116.909 43.0898 116.276 42.7794C116.276 41.847 116.278 40.9158 116.274 39.9847Z" fill="white"/>
<path fill-rule="evenodd" clip-rule="evenodd" d="M107.375 41.1048C108.088 41.4569 108.801 41.8126 109.515 42.1647C109.519 42.7548 109.51 43.3462 109.524 43.9363C108.812 43.5719 108.092 43.2223 107.376 42.8665C107.372 42.2788 107.374 41.6912 107.375 41.1048Z" fill="white"/>
<path fill-rule="evenodd" clip-rule="evenodd" d="M107.375 43.2726C108.088 43.6283 108.804 43.9792 109.518 44.3374C109.515 45.2772 109.518 46.2169 109.516 47.1567C108.801 46.8034 108.088 46.4463 107.375 46.0906C107.374 45.1508 107.374 44.2123 107.375 43.2726Z" fill="white"/>
<path fill-rule="evenodd" clip-rule="evenodd" d="M116.278 45.5189C116.893 45.8477 117.531 46.136 118.144 46.4709C118.213 47.0536 118.155 47.6437 118.166 48.2301C117.54 47.9087 116.903 47.6094 116.275 47.2904C116.277 46.6991 116.275 46.109 116.278 45.5189Z" fill="white"/>
<path fill-rule="evenodd" clip-rule="evenodd" d="M118.584 46.6782C119.231 47.0021 119.878 47.326 120.524 47.6523C120.516 49.3147 120.526 50.977 120.519 52.6394C119.881 52.2995 119.227 51.9879 118.582 51.6616C118.587 50.0005 118.583 48.3393 118.584 46.6782Z" fill="white"/>
<path fill-rule="evenodd" clip-rule="evenodd" d="M116.274 47.7137C116.908 48.0191 117.536 48.3406 118.17 48.6473C118.174 49.5809 118.173 50.5157 118.17 51.4506C117.532 51.15 116.909 50.8188 116.276 50.5084C116.276 49.576 116.28 48.6448 116.274 47.7137Z" fill="white"/>
<path fill-rule="evenodd" clip-rule="evenodd" d="M42.5553 70.0345C42.2561 70.67 41.8184 71.1546 41.2546 71.4932C40.6846 71.8257 40.0367 71.995 39.3023 71.995C38.5678 71.995 37.9026 71.8257 37.3438 71.4809C36.7861 71.1313 36.3633 70.6467 36.0678 70.0222C35.7747 69.399 35.6264 68.6445 35.6264 67.7771C35.6264 66.9098 35.7735 66.1774 36.0678 65.5468C36.3633 64.9113 36.7861 64.4255 37.3438 64.0881C37.9039 63.7483 38.5555 63.5851 39.3023 63.5851C40.0491 63.5851 40.6846 63.7482 41.2546 64.0758C41.8184 64.4021 42.2561 64.8794 42.5553 65.5161C42.8545 66.1516 43.0078 66.9061 43.0078 67.7771C43.0078 68.6482 42.8558 69.399 42.5553 70.0345ZM45.7787 63.9531C45.1963 62.8306 44.4075 61.9743 43.4183 61.378C42.4317 60.7781 41.3547 60.48 40.1838 60.48C39.2133 60.48 38.3131 60.691 37.4785 61.1155C36.6501 61.5486 36.0084 62.1031 35.5732 62.7901H35.4372V60.7781H32.084V80H35.6251V72.974H35.7661C36.1828 73.5923 36.796 74.0941 37.601 74.4854C38.4083 74.8755 39.2664 75.0682 40.1838 75.0682C41.3547 75.0682 42.4317 74.7713 43.4183 74.1701C44.4075 73.5739 45.1951 72.7225 45.7787 71.6134C46.366 70.5056 46.6602 69.2272 46.6602 67.7759C46.6602 66.3246 46.366 65.0659 45.7787 63.9531Z" fill="white"/>
<path fill-rule="evenodd" clip-rule="evenodd" d="M62.8698 60.7781L58.1813 68.7009H58.0391L53.4049 60.7781H49.4002V74.7725H52.9104V65.5971H53.0476L56.9473 72.1275H59.252L63.148 65.5971H63.284V74.7725H66.7707V60.7781H62.8698Z" fill="white"/>
<path fill-rule="evenodd" clip-rule="evenodd" d="M79.8274 60.7781L74.01 70.3903H73.8752V60.7781H70.3638V74.7725H74.5874L80.4035 65.1898H80.5445V74.7725H84.056V60.7781H79.8274Z" fill="white"/>
<path fill-rule="evenodd" clip-rule="evenodd" d="M112.833 70.4001C112.521 70.9546 112.081 71.3852 111.505 71.6968C110.928 72.006 110.281 72.1569 109.568 72.1569C108.78 72.1569 108.191 72.006 107.799 71.7067C107.403 71.4098 107.211 71.0123 107.211 70.5228C107.211 70.0333 107.398 69.6407 107.774 69.3548C108.145 69.0629 108.709 68.9169 109.462 68.9169H113.286C113.232 69.4616 113.086 69.9572 112.833 70.4001ZM116.115 63.1986C115.627 62.3472 114.915 61.6823 113.974 61.1989C113.033 60.718 111.885 60.48 110.527 60.48C109.357 60.48 108.311 60.6726 107.375 61.0627C106.44 61.4541 105.698 62.0086 105.139 62.7275C104.581 63.444 104.259 64.2782 104.163 65.2413H107.756C107.887 64.6647 108.197 64.2083 108.692 63.8844C109.185 63.5556 109.797 63.3937 110.525 63.3937C111.391 63.3937 112.067 63.6084 112.561 64.0464C113.055 64.4843 113.301 65.126 113.301 65.9786V66.4681H108.886C107.767 66.4681 106.809 66.6485 106.014 67.0092C105.22 67.3784 104.608 67.8741 104.19 68.5096C103.766 69.1463 103.561 69.8811 103.561 70.7154C103.561 71.5496 103.771 72.2747 104.201 72.9335C104.63 73.5984 105.225 74.1186 105.97 74.4977C106.723 74.8817 107.57 75.0694 108.524 75.0694C109.546 75.0694 110.506 74.8522 111.387 74.4167C112.276 73.9849 112.928 73.4193 113.352 72.7286H113.487V74.7725H116.832V66.1933C116.832 65.0548 116.591 64.0574 116.11 63.1986H116.115Z" fill="white"/>
<path fill-rule="evenodd" clip-rule="evenodd" d="M122.409 60.7781L121.802 69.6014C121.75 70.4013 121.556 70.973 121.225 71.3288C120.904 71.6797 120.416 71.8612 119.774 71.8612H119.609V75.127H120.35C121.416 75.127 122.286 74.9467 122.972 74.5983C123.655 74.2413 124.172 73.6806 124.519 72.9053C124.867 72.1348 125.089 71.1129 125.178 69.8468L125.583 63.8832H130.23V74.7737H133.742V60.7793H122.407L122.409 60.7781Z" fill="white"/>
<path fill-rule="evenodd" clip-rule="evenodd" d="M18.1878 66.3577C18.2645 66.067 18.3634 65.7921 18.4932 65.5284C18.8098 64.8867 19.2697 64.3838 19.8632 64.0353C20.4579 63.6783 21.1515 63.5041 21.9342 63.5041C22.634 63.5041 23.2572 63.6501 23.816 63.9544C24.3737 64.25 24.8274 64.6708 25.1749 65.2204C25.3974 65.5639 25.5619 65.943 25.6682 66.3577H18.1878ZM29.3157 68.0716C29.3157 66.5491 28.9843 65.2131 28.329 64.0562C27.6687 62.9067 26.7872 62.0197 25.6694 61.4026C24.5529 60.7892 23.2992 60.48 21.9119 60.48C20.5247 60.48 19.2524 60.7953 18.1112 61.432C16.965 62.0663 16.0587 62.9435 15.3947 64.0574C14.7246 65.1787 14.3932 66.4154 14.3932 67.7771C14.3932 69.1389 14.7246 70.3731 15.3947 71.4809C16.0587 72.5838 16.965 73.4598 18.1112 74.1076C19.2524 74.7504 20.5173 75.0706 21.9119 75.0706C23.1175 75.0706 24.2105 74.8547 25.1885 74.4179C26.169 73.9861 26.9813 73.396 27.6279 72.6611C28.2795 71.925 28.7395 71.1141 29.0164 70.2283H25.3702C25.0413 70.8295 24.5876 71.2785 24.0114 71.5889C23.4352 71.8968 22.7416 72.0477 21.9367 72.0477C21.1318 72.0477 20.4604 71.8784 19.8657 71.5349C19.2722 71.1902 18.8122 70.6884 18.4957 70.0357C18.3189 69.6799 18.1965 69.2886 18.1186 68.869H29.3169V68.074L29.3157 68.0716Z" fill="white"/>
<path fill-rule="evenodd" clip-rule="evenodd" d="M13.0727 59.6568V63.1569L8.289 63.8145V74.7737H4.78868V64.2954L0 64.9518V62.4405L13.074 59.658L13.0727 59.6568Z" fill="white"/>
<path fill-rule="evenodd" clip-rule="evenodd" d="M100.817 60.7793V74.7688H97.3055V68.788L91.1568 69.9045V74.7688H87.6193V60.7793H91.1568V67.16L97.3055 65.4437V60.7793H100.817Z" fill="white"/>
<path d="M42.2128 51.004H34.5618L33.1276 46.4046H23.8581L22.4238 51.004H14.92L23.6009 25.4554H33.569L42.2128 51.004ZM28.4193 31.6962L25.6966 40.4926H31.3249L28.6022 31.6962H28.418H28.4193Z" fill="white"/>
<path fill-rule="evenodd" clip-rule="evenodd" d="M67.6362 50.9095V25.0149H61.9264V33.8702L49.0367 37.4672V25.0149H43.2761V50.9095H49.0367V41.6311L61.9264 39.2903V50.9095H67.6362Z" fill="white"/>
</svg>
