<svg width="104" height="96" viewBox="0 0 104 96" fill="none" xmlns="http://www.w3.org/2000/svg">
<path fill-rule="evenodd" clip-rule="evenodd" d="M10.693 66.9372L10.349 66.2224L11.119 65.8423L11.1412 65.8886L12.2684 68.2284L11.4984 68.6091L11.1539 67.8941L8.71441 69.0989L8.69224 69.0524L8.25386 68.1423L10.693 66.9372ZM12.9684 69.5772L12.9954 69.6214L13.793 70.9136C13.9947 71.2406 14.0762 71.5289 14.0383 71.7791C13.9995 72.0285 13.914 72.2339 13.7812 72.3949C13.7331 72.4542 13.682 72.5067 13.6283 72.5527C13.5746 72.599 13.5218 72.6384 13.4699 72.6712C13.418 72.7043 13.3599 72.7352 13.2953 72.7635C13.2306 72.7922 13.1617 72.8158 13.0887 72.833C12.8888 72.8864 12.6689 72.8758 12.4278 72.8006C12.1868 72.7256 11.9655 72.5248 11.7638 72.1973L11.4961 71.7641L10.497 72.3962L10.4698 72.3524L9.93984 71.4935L12.9684 69.5772ZM12.1624 71.3424L12.2868 71.5438C12.3646 71.6694 12.4414 71.7481 12.5178 71.7812C12.5942 71.814 12.6618 71.826 12.7204 71.8175C12.7597 71.8091 12.7942 71.7972 12.8251 71.7817C12.8557 71.7667 12.8796 71.7535 12.8971 71.7424C12.9141 71.7318 12.9307 71.7198 12.9473 71.7075C12.9639 71.6951 12.9796 71.6817 12.9954 71.668C13.0468 71.615 13.0801 71.5435 13.094 71.4528C13.1085 71.3631 13.0718 71.2459 12.9836 71.1027L12.8591 70.9016L12.1624 71.3424ZM15.9497 74.1088L15.981 74.1498L16.7284 75.1184L14.6931 78.3542L14.6617 78.3135L14.0025 77.4587L14.3691 76.9189L13.6532 75.991L13.0442 76.2169L13.0128 76.1762L12.3537 75.3212L15.9497 74.1088ZM14.3954 75.6598L14.8665 76.2708L15.6235 75.1798L14.3954 75.6598ZM18.475 77.3065L18.5101 77.3441L19.1923 78.0851L18.252 78.9727L19.0451 79.8338L19.9856 78.9462L20.0201 78.9841L20.7019 79.7241L18.0905 82.1904L18.0555 82.1529L17.3737 81.4124L18.4184 80.4258L17.6251 79.5646L16.5804 80.5508L16.5455 80.5132L15.8636 79.7724L18.475 77.3065ZM21.8236 85.2803C21.7383 85.2693 21.6589 85.2521 21.5847 85.2278C21.5109 85.204 21.4403 85.1755 21.373 85.1438C21.2856 85.1036 21.2057 85.0572 21.1316 85.0036C21.0582 84.9501 20.9892 84.8954 20.9251 84.8388L20.8831 84.8091C20.506 84.4718 20.2903 84.0586 20.2375 83.5691C20.1843 83.0802 20.3528 82.6077 20.7435 82.1532C21.1516 81.6771 21.6012 81.442 22.0919 81.4476C22.5831 81.4531 23.0022 81.6086 23.3484 81.9137L23.3869 81.9472C23.4335 81.9884 23.4785 82.0327 23.5231 82.0808C23.5671 82.129 23.6108 82.1807 23.6527 82.2364C23.7164 82.3196 23.7728 82.41 23.8217 82.5082C23.8711 82.6059 23.9099 82.7089 23.9392 82.8163L23.2593 83.6081L23.2209 83.574C23.2209 83.5422 23.2198 83.5073 23.2174 83.4683C23.2143 83.429 23.2105 83.387 23.2048 83.3411C23.1908 83.2421 23.1602 83.1346 23.1117 83.0197C23.0642 82.9047 22.9878 82.7987 22.8822 82.701C22.667 82.521 22.4342 82.456 22.1833 82.5069C21.9331 82.5578 21.7178 82.6868 21.5393 82.8946C21.3385 83.129 21.2503 83.3672 21.2739 83.6094C21.2984 83.8516 21.3992 84.0559 21.5768 84.2216C21.7175 84.3361 21.865 84.4096 22.0204 84.441C22.1758 84.4727 22.3194 84.4829 22.4508 84.471L22.4893 84.5049L21.8236 85.2803ZM25.5003 83.7225L25.5413 83.7531L28.117 85.6477L26.0175 88.5732L25.9766 88.5427L25.1675 87.9477L26.7628 85.7243L25.8469 85.0501L24.2516 87.2736L24.2102 87.243L23.4007 86.648L25.5003 83.7225ZM29.3865 90.5537C28.8286 90.266 28.4907 89.8764 28.371 89.3862C28.2515 88.8956 28.306 88.423 28.5344 87.9689C28.7614 87.5177 29.104 87.1949 29.5625 87.0003C30.0213 86.806 30.5337 86.855 31.1004 87.1476L31.1458 87.1711C31.713 87.4633 32.0531 87.8545 32.1669 88.3443C32.2818 88.8346 32.225 89.305 31.998 89.7557C31.7698 90.2102 31.4274 90.5321 30.9708 90.7217C30.5146 90.9118 30.0029 90.8618 29.4344 90.5726L29.3865 90.5537ZM29.7942 89.7897C29.8243 89.8053 29.8571 89.8194 29.893 89.8322C29.9286 89.8446 29.9658 89.8535 30.0056 89.8584C30.171 89.8933 30.3487 89.8725 30.5391 89.7943C30.7285 89.7164 30.894 89.5377 31.0345 89.2584C31.1748 88.9794 31.2196 88.7385 31.169 88.5366C31.1179 88.3341 31.031 88.1763 30.9088 88.0631C30.88 88.037 30.8516 88.0122 30.8228 87.9898C30.794 87.9672 30.7642 87.9477 30.7342 87.9323C30.701 87.915 30.6644 87.9005 30.6251 87.888C30.5853 87.8748 30.5456 87.8664 30.5067 87.8615C30.3452 87.8325 30.1714 87.858 29.9846 87.9372C29.7973 88.0167 29.6353 88.1932 29.4978 88.4658C29.3603 88.7391 29.3149 88.9756 29.3612 89.1754C29.4079 89.3751 29.4899 89.5325 29.6079 89.6474C29.6349 89.6766 29.6642 89.7036 29.6965 89.728C29.7279 89.7518 29.7606 89.7721 29.7942 89.7897ZM34.3961 88.8566L34.4432 88.8761L35.8384 89.4467C36.1921 89.5913 36.4252 89.7761 36.5391 90.0011C36.6531 90.2261 36.7029 90.4432 36.6889 90.6526C36.6845 90.7288 36.6737 90.8016 36.657 90.8706C36.6404 90.9404 36.6203 91.0037 36.5975 91.0611C36.5745 91.1187 36.5457 91.1783 36.5099 91.2397C36.4746 91.3017 36.4322 91.3613 36.3832 91.4192C36.2528 91.581 36.0681 91.7035 35.8298 91.7861C35.5913 91.8688 35.2954 91.8378 34.9422 91.6933L34.4742 91.5019L34.0328 92.6083L33.9856 92.589L33.0579 92.2097L34.3961 88.8566ZM34.7684 90.7641L34.9859 90.8534C35.1216 90.9087 35.2299 90.9268 35.3106 90.9078C35.3919 90.8892 35.4534 90.8583 35.4957 90.8167C35.5224 90.7867 35.5438 90.7561 35.5595 90.7257C35.5756 90.6947 35.5875 90.67 35.5948 90.6508C35.6028 90.6319 35.6092 90.6124 35.6154 90.5926C35.6215 90.5726 35.6267 90.5528 35.6315 90.5325C35.6424 90.4586 35.6276 90.3808 35.5865 90.2995C35.5459 90.2177 35.4486 90.1452 35.2936 90.082L35.0762 89.9927L34.7684 90.7641ZM38.8425 91.3282L38.0872 91.1089L38.3238 90.2747L38.3727 90.2893L40.844 91.0067L40.6078 91.841L39.8526 91.6218L39.1048 94.2635L39.0555 94.2493L38.0942 93.97L38.8425 91.3282ZM42.3717 91.3384L42.4217 91.348L43.4036 91.5412L43.1582 92.8193L44.3 93.0439L44.5454 91.7663L44.5954 91.776L45.5768 91.9691L44.8954 95.5185L44.8452 95.5088L43.8638 95.3156L44.1366 93.8956L42.995 93.6711L42.7222 95.091L42.6719 95.0812L41.6902 94.8877L42.3717 91.3384ZM48.8253 95.9906C48.2019 95.9353 47.7443 95.7023 47.4519 95.2929C47.1595 94.8836 47.0354 94.4247 47.079 93.9168C47.1228 93.4129 47.3209 92.9832 47.6741 92.6291C48.0272 92.2746 48.5209 92.126 49.1545 92.1822L49.2056 92.1867C49.839 92.2428 50.2992 92.4762 50.5864 92.8869C50.8736 93.298 50.9954 93.7559 50.9518 94.2598C50.9081 94.7678 50.7095 95.1962 50.3567 95.5454C50.004 95.8941 49.5107 96.0422 48.8769 95.9897L48.8253 95.9906ZM48.9205 95.1272C48.9544 95.1303 48.9899 95.1312 49.0278 95.1292C49.0659 95.1272 49.1033 95.1213 49.1423 95.1106C49.3085 95.0802 49.4657 94.9936 49.6128 94.8491C49.7599 94.7048 49.8473 94.4767 49.8744 94.1642C49.901 93.8522 49.8535 93.6116 49.7316 93.4441C49.6098 93.2757 49.471 93.1621 49.3156 93.1038C49.2789 93.09 49.2435 93.0781 49.2085 93.0684C49.1737 93.0582 49.1391 93.0516 49.1051 93.0484C49.068 93.0453 49.0287 93.0453 48.9878 93.0488C48.9462 93.0515 48.9061 93.059 48.868 93.0691C48.7079 93.1032 48.5559 93.1929 48.4119 93.3369C48.2678 93.482 48.1827 93.7069 48.1566 94.012C48.1298 94.317 48.1753 94.5535 48.2922 94.7215C48.4092 94.889 48.5433 95.004 48.6956 95.0659C48.7315 95.0826 48.7686 95.0968 48.807 95.1065C48.8453 95.1171 48.8834 95.1242 48.9205 95.1272ZM52.7006 92.337L52.7517 92.3353L54.893 92.2597L54.9231 93.1269L53.7811 93.1671L53.7986 93.673L54.8337 93.6367L54.8608 94.4315L53.8261 94.4681L53.8462 95.0463L54.9878 95.0061L55.0175 95.8734L54.9669 95.8752L52.8254 95.9508L52.7006 92.337ZM63.2994 94.4509L63.2505 94.465L62.1518 94.7841L62.89 92.592L61.2901 91.2724L61.3393 91.2583L62.4914 90.9237L63.2301 91.6762L63.4627 90.6416L63.5117 90.6275L64.6004 90.3114L63.9793 92.222L65.7665 93.7346L65.7173 93.7489L64.5843 94.0777L63.6479 93.1512L63.2994 94.4509ZM69.1682 92.634C68.588 92.8713 68.0759 92.8745 67.6319 92.6442C67.1875 92.4134 66.8714 92.0619 66.6829 91.5894C66.4956 91.12 66.4799 90.6465 66.6356 90.1682C66.7911 89.6904 67.1643 89.3305 67.7541 89.0896L67.8013 89.0701C68.3912 88.8287 68.9058 88.8252 69.346 89.0595C69.7864 89.2933 70.0999 89.6452 70.2871 90.1147C70.4757 90.5872 70.4911 91.0602 70.3329 91.5333C70.1753 92.0067 69.8021 92.3652 69.2136 92.6097L69.1682 92.634ZM68.8661 91.821C68.898 91.8082 68.9299 91.7928 68.9627 91.7737C68.9952 91.7544 69.0263 91.7317 69.056 91.7048C69.1909 91.6009 69.2917 91.4516 69.3586 91.2552C69.425 91.059 69.4 90.8153 69.2843 90.5249C69.1682 90.2346 69.0179 90.0422 68.8343 89.9485C68.65 89.8549 68.4754 89.8176 68.3108 89.8367C68.2723 89.8415 68.2352 89.8467 68.1999 89.8543C68.1636 89.8614 68.1301 89.8717 68.0987 89.8845C68.0642 89.8985 68.0292 89.9167 67.9944 89.9388C67.9585 89.9604 67.9263 89.9851 67.8965 90.0116C67.7691 90.1161 67.6739 90.2654 67.6106 90.4603C67.5467 90.6553 67.5721 90.8949 67.6852 91.1793C67.7987 91.463 67.945 91.6532 68.1243 91.749C68.3038 91.8446 68.4749 91.8848 68.6383 91.8702C68.6775 91.8688 68.7173 91.8639 68.7561 91.8551C68.7946 91.8472 68.8317 91.8353 68.8661 91.821ZM72.6297 88.5211C72.7838 88.4415 72.883 88.3606 72.9253 88.2788C72.9684 88.1967 72.985 88.1237 72.975 88.0591C72.9719 88.0376 72.9667 88.0167 72.9588 87.9977C72.9515 87.9787 72.9432 87.9614 72.9353 87.9459C72.886 87.8479 72.8086 87.7903 72.7027 87.7736C72.5969 87.7564 72.4764 87.781 72.3416 87.847C72.2551 87.895 72.1809 87.95 72.118 88.0114C72.0552 88.0725 71.9984 88.1397 71.9473 88.2125C71.9264 88.2387 71.9068 88.266 71.8889 88.2947C71.8705 88.3235 71.8526 88.354 71.8346 88.3867L71.7892 88.4103L71.1625 87.9389C71.1826 87.9093 71.2082 87.8717 71.2406 87.8262C71.2729 87.7806 71.3122 87.7307 71.3571 87.6759C71.4353 87.5813 71.534 87.4814 71.6522 87.3757C71.7714 87.2705 71.9151 87.1738 72.0848 87.0862L72.1302 87.0627C72.5001 86.8718 72.8396 86.806 73.1501 86.8642C73.4601 86.923 73.6804 87.0826 73.8119 87.343C73.8953 87.5092 73.9223 87.682 73.8931 87.8633C73.864 88.0446 73.7849 88.2037 73.6547 88.3399L73.6617 88.354C73.6787 88.3492 73.6954 88.3465 73.712 88.3451C73.729 88.3448 73.7464 88.3433 73.7643 88.3416C73.9163 88.3253 74.0734 88.3475 74.2363 88.4083C74.3987 88.4699 74.5332 88.606 74.6396 88.8176C74.7986 89.1338 74.795 89.4411 74.6283 89.7393C74.4619 90.0382 74.2039 90.2773 73.8556 90.4573L73.8123 90.4856C73.7172 90.5307 73.625 90.5701 73.5373 90.604C73.4496 90.6377 73.3592 90.6651 73.2666 90.6858C73.1418 90.7114 73.0047 90.7217 72.8546 90.7155C72.7049 90.7101 72.5276 90.6884 72.3216 90.6514L72.3887 89.8632L72.4342 89.8397C72.5288 89.8681 72.6253 89.888 72.7244 89.8985C72.8235 89.9095 72.9192 89.9122 73.0117 89.9069C73.0776 89.9003 73.1409 89.8897 73.202 89.8755C73.2636 89.8609 73.3212 89.842 73.3741 89.8186C73.5028 89.7483 73.5866 89.6722 73.6255 89.59C73.6648 89.5083 73.6801 89.4327 73.6718 89.3632C73.6718 89.3402 73.6678 89.3181 73.6609 89.2965C73.6543 89.2752 73.6459 89.2549 73.6368 89.2363C73.5905 89.1448 73.5142 89.0844 73.408 89.0559C73.3025 89.0276 73.1509 89.064 72.9537 89.1656L72.4494 89.426L72.1251 88.7815L72.6297 88.5211ZM76.656 87.0712C76.6238 87.0839 76.5907 87.0958 76.558 87.1074C76.5252 87.1194 76.4879 87.1278 76.4471 87.1344C76.2854 87.1667 76.1092 87.1525 75.9179 87.091C75.7267 87.03 75.5542 86.8796 75.4006 86.6401C75.1779 86.2936 75.1172 85.9709 75.2176 85.673C75.3185 85.3745 75.5228 85.1244 75.8315 84.9215L75.8742 84.8936L77.1019 84.086L79.0468 87.1188L79.0044 87.1467L78.1653 87.6984L77.5044 86.6672L77.4703 86.6897L77.5197 88.1228L77.4769 88.1511L76.5784 88.7422L76.656 87.0712ZM76.6483 85.3326L76.4601 85.4564C76.44 85.4697 76.412 85.49 76.3773 85.5174C76.3423 85.5443 76.3081 85.5765 76.2758 85.615C76.2319 85.6724 76.2025 85.7424 76.1877 85.8237C76.1728 85.905 76.1991 85.9978 76.2654 86.1016C76.3453 86.2258 76.4299 86.2936 76.5199 86.3042C76.6103 86.3148 76.6954 86.3039 76.7758 86.271C76.8032 86.2572 76.8298 86.2432 76.8548 86.2285C76.8801 86.2145 76.904 86.1993 76.9267 86.1843L77.1154 86.0606L76.6483 85.3326ZM79.234 82.4265L80.5896 84.0055L80.239 81.5418L80.2778 81.5079L81.0165 80.8572L83.3595 83.5864L83.3211 83.6205L82.5933 84.2605L81.2412 82.6855L81.6041 85.1314L81.5657 85.1654L80.8104 85.8299L78.4679 83.1011L78.5063 83.067L79.234 82.4265ZM78.788 81.5047L78.8262 81.4707C78.8925 81.5172 78.955 81.5428 79.0127 81.5463C79.0703 81.5507 79.1227 81.5432 79.1699 81.5247C79.2017 81.5145 79.2309 81.5012 79.2576 81.4849C79.2838 81.469 79.3065 81.4525 79.3239 81.4367C79.3423 81.4208 79.361 81.4008 79.3807 81.3765C79.4003 81.3523 79.4173 81.3248 79.4313 81.2944C79.4562 81.2498 79.471 81.1981 79.4746 81.1396C79.479 81.0817 79.4628 81.0154 79.427 80.942L79.4655 80.9085L80.0451 80.6856C80.112 80.9004 80.1049 81.1029 80.0229 81.2939C79.9407 81.4845 79.8207 81.6502 79.6614 81.7899L79.6229 81.8238C79.4457 81.98 79.2563 82.0795 79.0541 82.1223C78.8524 82.1656 78.6643 82.1431 78.4897 82.0547L78.788 81.5047ZM86.7211 80.0377C86.707 80.1233 86.687 80.2033 86.6608 80.2777C86.6346 80.3513 86.604 80.4217 86.5704 80.4889C86.5276 80.5756 86.4787 80.6551 86.4233 80.7281C86.3683 80.8006 86.3114 80.8683 86.2534 80.9315L86.223 80.9725C85.8768 81.3429 85.4615 81.5463 84.9765 81.5829C84.492 81.6197 84.0319 81.4327 83.5965 81.0216C83.1412 80.5919 82.9247 80.1287 82.9474 79.6322C82.9701 79.1354 83.1382 78.7168 83.4507 78.3767L83.4856 78.3392C83.5276 78.2937 83.573 78.2495 83.622 78.2061C83.6712 78.1632 83.7236 78.1209 83.7804 78.0805C83.8646 78.0188 83.9558 77.9647 84.0544 77.9187C84.1527 77.8724 84.2553 77.8367 84.3628 77.811L85.1202 78.5262L85.0857 78.5642C85.0539 78.5628 85.0193 78.5628 84.9809 78.5639C84.942 78.5656 84.9002 78.5683 84.8548 78.5723C84.7565 78.5829 84.6496 78.6103 84.5344 78.6549C84.419 78.6992 84.3117 78.7729 84.2121 78.8764C84.0266 79.0876 83.9545 79.3212 83.9961 79.5766C84.0375 79.8321 84.1576 80.054 84.3561 80.2419C84.5802 80.4532 84.8124 80.5513 85.0526 80.5354C85.2922 80.5195 85.4974 80.4245 85.6673 80.2502C85.7851 80.1119 85.8624 79.9652 85.8991 79.8091C85.9357 79.6532 85.9509 79.5081 85.9436 79.3747L85.9784 79.3366L86.7211 80.0377ZM86.3404 76.5157L85.8566 77.1425L85.1817 76.608L85.2132 76.5675L86.7957 74.5158L87.4711 75.0503L86.9878 75.6772L89.1265 77.3688L89.0951 77.4096L88.4791 78.2079L86.3404 76.5157ZM88.7004 71.7839C88.8715 71.5062 89.0453 71.3349 89.223 71.268C89.4002 71.2017 89.5608 71.1854 89.7045 71.2194C89.7717 71.2336 89.8329 71.2531 89.8879 71.2773C89.9424 71.302 89.9918 71.3282 90.0355 71.3555C90.1913 71.4542 90.2944 71.586 90.3454 71.7498C90.3965 71.9144 90.4053 72.0753 90.372 72.233L90.3807 72.2383C90.4113 72.2088 90.4502 72.1747 90.4981 72.1362C90.5462 72.0969 90.6025 72.0616 90.6662 72.0293C90.7771 71.9731 90.9085 71.9395 91.0596 71.9276C91.2111 71.9156 91.3765 71.9665 91.5556 72.0797C91.5725 72.0907 91.5891 72.1021 91.604 72.1137C91.6184 72.1251 91.6345 72.1362 91.6521 72.1473C91.8245 72.2843 91.9402 72.4797 92.0003 72.733C92.0607 72.9868 91.9873 73.2812 91.7799 73.6168L91.7529 73.6609L90.785 75.2292L87.7566 73.313L87.7837 73.2693L88.7004 71.7839ZM90.9527 73.5933C90.9671 73.5694 90.9854 73.5385 91.0072 73.4996C91.0291 73.4606 91.0478 73.4201 91.0622 73.3758C91.0875 73.3029 91.0941 73.2255 91.0819 73.1451C91.0697 73.0642 91.0142 72.9924 90.916 72.9307C90.8209 72.8705 90.7357 72.8542 90.6605 72.8815C90.5855 72.9089 90.5218 72.9487 90.4694 73.0009C90.4423 73.0328 90.4174 73.0645 90.3952 73.0972C90.3729 73.13 90.3545 73.1579 90.3401 73.1813L90.1132 73.5491L90.7366 73.9435L90.9527 73.5933ZM89.7023 72.8507C89.7796 72.7251 89.8163 72.6225 89.811 72.5421C89.8066 72.462 89.7853 72.3974 89.7473 72.3489C89.7333 72.3321 89.7189 72.318 89.704 72.3064C89.6893 72.295 89.6744 72.2848 89.66 72.2755C89.5824 72.2264 89.495 72.2106 89.3977 72.2282C89.3002 72.2458 89.2055 72.3294 89.1138 72.4783L88.9192 72.7936L89.5077 73.1659L89.7023 72.8507ZM94.3111 69.3686C94.0369 69.9384 93.6585 70.2875 93.176 70.4172C92.6936 70.547 92.2262 70.4998 91.7738 70.2765C91.3246 70.0546 90.9997 69.7134 90.7998 69.2522C90.5995 68.7916 90.6392 68.2717 90.9182 67.6928L90.9404 67.6463C91.2194 67.0672 91.5992 66.7161 92.0811 66.5919C92.5632 66.4677 93.0285 66.5164 93.4781 66.7382C93.9304 66.9619 94.2544 67.3028 94.4495 67.7616C94.6451 68.22 94.6045 68.7395 94.3291 69.3198L94.3111 69.3686ZM93.5498 68.9694C93.5646 68.9384 93.578 68.9052 93.5899 68.8686C93.6017 68.8324 93.6096 68.7943 93.6139 68.7542C93.6453 68.5856 93.6218 68.4062 93.5415 68.2152C93.4611 68.0247 93.2821 67.8602 93.0036 67.7228C92.7255 67.5857 92.4871 67.5446 92.2885 67.5994C92.0894 67.6547 91.9354 67.7448 91.8253 67.8709C91.8 67.9005 91.7764 67.9296 91.7547 67.9593C91.7328 67.9889 91.7144 68.0189 91.6992 68.0498C91.6831 68.0839 91.669 68.121 91.6577 68.1613C91.6454 68.2015 91.6376 68.2417 91.6337 68.2814C91.6075 68.4454 91.6354 68.621 91.717 68.8089C91.7991 68.9967 91.9759 69.158 92.2479 69.2924C92.5198 69.4265 92.754 69.4684 92.9508 69.4181C93.1472 69.3677 93.3009 69.2819 93.4128 69.1604C93.4411 69.1325 93.4672 69.1025 93.4904 69.0692C93.5135 69.037 93.5331 69.0034 93.5498 68.9694ZM5.15778 40.6343L5.16733 40.5835L5.57645 38.4538L6.41724 38.6195L6.19943 39.7551L8.8638 40.2795L8.85411 40.3303L8.66291 41.3244L5.15778 40.6343ZM10.0585 35.4101C9.88614 36.0198 9.57318 36.4299 9.12092 36.6426C8.66762 36.8553 8.1993 36.891 7.71564 36.7505C7.2349 36.6112 6.85644 36.3318 6.58049 35.9132C6.30423 35.4945 6.2543 34.9755 6.42955 34.3563L6.44341 34.3068C6.61886 33.6875 6.93278 33.2749 7.38638 33.0681C7.83958 32.8608 8.30623 32.8268 8.78686 32.9664C9.27062 33.107 9.64825 33.3861 9.91946 33.8032C10.1905 34.2205 10.2398 34.739 10.0678 35.3589L10.0585 35.4101ZM9.24002 35.1512C9.24972 35.1179 9.25717 35.0826 9.26233 35.0445C9.26801 35.0069 9.26924 34.9682 9.26663 34.9278C9.26904 34.7563 9.21471 34.5839 9.10252 34.4098C8.99119 34.236 8.78651 34.106 8.48883 34.0194C8.19142 33.9333 7.94923 33.9346 7.76315 34.0235C7.57676 34.1128 7.44009 34.2289 7.35369 34.3722C7.33351 34.4061 7.31522 34.4389 7.29902 34.4721C7.28242 34.5048 7.26979 34.5379 7.26024 34.5711C7.25013 34.6074 7.24277 34.6462 7.23806 34.6878C7.23321 34.7298 7.23239 34.7709 7.23496 34.8107C7.23771 34.9765 7.29562 35.1444 7.40791 35.3151C7.52089 35.4857 7.72265 35.6135 8.01342 35.6979C8.30419 35.7822 8.54209 35.7823 8.7271 35.6986C8.9118 35.614 9.04889 35.5026 9.13804 35.3635C9.16104 35.3307 9.18164 35.2966 9.1991 35.26C9.21643 35.2241 9.22995 35.1873 9.24002 35.1512ZM7.98371 29.9021L8.00545 29.8552L8.64145 28.4743C8.8026 28.1246 8.99687 27.8983 9.22479 27.7943C9.45226 27.6913 9.66915 27.6524 9.87486 27.6773C9.94995 27.6861 10.0211 27.7006 10.0884 27.721C10.156 27.7414 10.2175 27.7647 10.2729 27.7913C10.3289 27.8174 10.3861 27.8496 10.4444 27.8889C10.5034 27.9284 10.5606 27.9744 10.6148 28.0264C10.768 28.167 10.8789 28.3602 10.9479 28.6055C11.0168 28.8509 10.971 29.1484 10.81 29.498L10.597 29.9613L11.6647 30.4658L11.6428 30.5126L11.2202 31.4303L7.98371 29.9021ZM9.88445 29.6249L9.98358 29.41C10.0456 29.2758 10.0686 29.1673 10.0547 29.0843C10.0402 29.0017 10.0132 28.9375 9.97433 28.8924C9.94593 28.8637 9.91715 28.8412 9.88748 28.8231C9.85825 28.8054 9.83474 28.792 9.81579 28.7832C9.7976 28.7749 9.77869 28.7669 9.75954 28.7598C9.73991 28.7524 9.72065 28.7461 9.70109 28.7403C9.62868 28.7253 9.55132 28.7364 9.4689 28.7736C9.38625 28.8103 9.3094 28.9052 9.23909 29.0582L9.14007 29.2734L9.88445 29.6249ZM10.2332 25.0376L10.2586 24.9926L10.7589 24.1155L11.965 24.8206L12.2274 24.36C12.2632 24.2971 12.313 24.2172 12.3764 24.1191C12.4405 24.0213 12.5199 23.9268 12.6152 23.8349C12.7575 23.6956 12.9329 23.5948 13.1421 23.532C13.3503 23.4685 13.5935 23.518 13.8702 23.6798C14.147 23.8419 14.3116 24.0303 14.3636 24.246C14.4151 24.4612 14.4181 24.6646 14.3719 24.8564C14.3413 24.9855 14.2993 25.1039 14.2456 25.2118C14.192 25.3198 14.1484 25.4032 14.1142 25.463L14.0885 25.5081L13.3258 26.8457L10.2332 25.0376ZM13.4214 25.2313C13.4965 25.1001 13.5341 24.9806 13.5341 24.8738C13.5344 24.7661 13.4712 24.6757 13.3447 24.6014C13.2211 24.5293 13.1137 24.5196 13.0229 24.5712C12.9321 24.624 12.8486 24.7172 12.7718 24.8516L12.5833 25.1823L13.2328 25.5619L13.4214 25.2313ZM13.2031 20.156L13.2355 20.1159L13.8651 19.329L14.9748 20.2392L14.5098 18.5222L14.5421 18.4819L15.2802 17.5585L15.7706 19.7281L18.0782 19.806L18.0459 19.8462L17.2596 20.8297L15.506 20.6745L16.6402 21.6047L16.608 21.6449L15.9784 22.4318L13.2031 20.156ZM20.5955 17.0563C20.1606 17.5122 19.6944 17.7261 19.1962 17.6982C18.6977 17.6708 18.2673 17.4798 17.9053 17.1258C17.5455 16.7739 17.3409 16.3478 17.2911 15.8469C17.2418 15.3461 17.4378 14.8637 17.8801 14.4006L17.9154 14.3633C18.3572 13.9001 18.8261 13.6848 19.322 13.7175C19.8183 13.7503 20.2462 13.9425 20.6059 14.294C20.9678 14.648 21.1717 15.0737 21.2175 15.5711C21.2634 16.0684 21.0665 16.5497 20.6274 17.0152L20.5955 17.0563ZM19.993 16.4384C20.017 16.4136 20.0397 16.3862 20.062 16.3552C20.0843 16.3238 20.1034 16.2907 20.12 16.2536C20.2013 16.1033 20.2336 15.9251 20.2152 15.7183C20.1973 15.5118 20.0768 15.2996 19.8542 15.0821C19.6315 14.8642 19.4172 14.7506 19.212 14.7409C19.0055 14.7307 18.8313 14.7687 18.6886 14.8541C18.6554 14.8743 18.6239 14.8947 18.5943 14.9159C18.5641 14.937 18.5375 14.96 18.5139 14.9848C18.4882 15.0119 18.4633 15.0433 18.4401 15.0777C18.4166 15.1122 18.3965 15.148 18.3808 15.1846C18.3061 15.3324 18.2791 15.5082 18.2992 15.7121C18.3196 15.9167 18.4388 16.1253 18.6563 16.338C18.8741 16.5507 19.0841 16.6642 19.2867 16.6775C19.4888 16.6909 19.6612 16.6576 19.8044 16.5768C19.8398 16.5594 19.8742 16.5387 19.9062 16.5148C19.9381 16.4914 19.9672 16.4653 19.993 16.4384ZM22.7315 10.1044C22.9861 9.90303 23.2078 9.80183 23.3969 9.80086C23.5864 9.79947 23.7426 9.83971 23.8662 9.92146C23.9243 9.95861 23.9754 9.99801 24.0185 10.04C24.0619 10.082 24.0993 10.1236 24.1308 10.1643C24.2438 10.311 24.2966 10.4701 24.2888 10.6421C24.2814 10.814 24.2355 10.9683 24.1509 11.1054L24.1573 11.1134C24.1958 11.096 24.2443 11.0776 24.3024 11.0581C24.3604 11.0378 24.4254 11.0241 24.4961 11.0156C24.6192 11.0015 24.7541 11.0149 24.9003 11.0567C25.0466 11.0978 25.1846 11.2031 25.3146 11.3715C25.3274 11.3878 25.3387 11.4038 25.3488 11.4202C25.3589 11.4356 25.3701 11.4519 25.3827 11.4684C25.4985 11.6567 25.5413 11.8803 25.5124 12.1393C25.4832 12.3983 25.3146 12.6494 25.0064 12.8935L24.9663 12.9254L23.5269 14.064L21.3284 11.2146L21.3687 11.1826L22.7315 10.1044ZM24.2368 12.5845C24.2586 12.5673 24.2862 12.5443 24.3198 12.5155C24.3538 12.4867 24.3848 12.4545 24.4136 12.4183C24.4616 12.3582 24.494 12.2879 24.5101 12.2083C24.5253 12.1279 24.4978 12.0416 24.4267 11.9493C24.3572 11.86 24.2832 11.8149 24.2032 11.8149C24.1233 11.8145 24.05 11.83 23.9831 11.8609C23.947 11.8811 23.9128 11.9024 23.8811 11.9254C23.8487 11.9488 23.8221 11.9688 23.8007 11.9855L23.4633 12.2524L23.9155 12.8388L24.2368 12.5845ZM23.313 11.4538C23.4283 11.3627 23.4972 11.2787 23.5196 11.2018C23.5423 11.1248 23.544 11.0567 23.5248 10.998C23.5169 10.9777 23.5087 10.959 23.4986 10.9432C23.4886 10.9272 23.478 10.9122 23.4676 10.899C23.4113 10.8256 23.3341 10.7805 23.2366 10.7631C23.1398 10.7464 23.0223 10.792 22.8856 10.9003L22.5968 11.1292L23.0236 11.6827L23.313 11.4538ZM29.8415 9.36051C29.8059 9.44014 29.7663 9.51174 29.7217 9.57667C29.6777 9.64087 29.6306 9.70146 29.5803 9.75713C29.517 9.82951 29.4499 9.89368 29.3778 9.9499C29.3058 10.0052 29.2337 10.0559 29.1612 10.1015L29.1212 10.1333C28.6924 10.4003 28.2392 10.4882 27.7612 10.3963C27.284 10.3049 26.8872 10.0032 26.572 9.49228C26.2419 8.9578 26.1511 8.45389 26.2999 7.97998C26.4489 7.50618 26.7182 7.14587 27.1073 6.89966L27.1504 6.87229C27.2027 6.83949 27.2578 6.80854 27.3163 6.77947C27.3748 6.75061 27.4363 6.7237 27.501 6.69943C27.5983 6.66183 27.7005 6.63394 27.8075 6.61542C27.914 6.59638 28.0227 6.5884 28.1328 6.59192L28.6815 7.48128L28.6382 7.50885C28.608 7.49903 28.5749 7.49022 28.5374 7.48096C28.4994 7.47254 28.4584 7.46415 28.4135 7.45614C28.3156 7.44072 28.2055 7.43902 28.0829 7.45221C27.9603 7.46468 27.8376 7.50798 27.7149 7.58134C27.4818 7.73696 27.3527 7.94325 27.3272 8.20161C27.3019 8.45879 27.3607 8.705 27.5053 8.93834C27.6673 9.20137 27.8668 9.35664 28.1026 9.40434C28.3383 9.45162 28.561 9.4136 28.7692 9.29036C28.9186 9.1873 29.0307 9.06573 29.1057 8.92469C29.1813 8.78324 29.2329 8.64763 29.2603 8.51669L29.3036 8.48932L29.8415 9.36051ZM30.357 5.14646L30.4037 5.12519L31.3175 4.71321L31.8985 6.03498L32.2539 4.29104L32.3005 4.27029L33.3728 3.78713L32.8361 5.94526L34.858 7.07562L34.8112 7.09689L33.6691 7.61135L32.1766 6.66715L32.7698 8.01671L32.7231 8.03787L31.8095 8.44985L30.357 5.14646ZM38.3574 5.85944C37.762 6.05531 37.2512 6.0221 36.8237 5.7614C36.3968 5.49966 36.1052 5.12654 35.9498 4.64212C35.7953 4.16066 35.8123 3.68675 36.0005 3.22085C36.1889 2.75491 36.5858 2.42292 37.1909 2.22353L37.2394 2.20755C37.8445 2.00872 38.3578 2.04141 38.7809 2.30625C39.2039 2.57099 39.4925 2.94418 39.647 3.42543C39.8025 3.90999 39.7854 4.38303 39.5951 4.84405C39.4051 5.30466 39.0082 5.63635 38.4045 5.8387L38.3574 5.85944ZM38.1121 5.02746C38.1444 5.01691 38.177 5.00361 38.2112 4.98689C38.2457 4.97008 38.2779 4.94975 38.3094 4.92496C38.4508 4.83075 38.5617 4.68895 38.6421 4.49757C38.7215 4.3065 38.7137 4.0621 38.618 3.76415C38.5224 3.46568 38.3858 3.26329 38.2089 3.15717C38.0316 3.05064 37.8601 3.00114 37.6947 3.00859C37.6558 3.01033 37.6187 3.01349 37.5825 3.01836C37.5463 3.02275 37.5121 3.03031 37.4795 3.04082C37.4441 3.05276 37.4078 3.0684 37.3716 3.08769C37.3346 3.10684 37.3005 3.12929 37.2695 3.15411C37.135 3.24864 37.0299 3.39148 36.953 3.58105C36.8763 3.77118 36.8845 4.01207 36.9783 4.30351C37.0717 4.59474 37.2044 4.79455 37.3768 4.90293C37.5494 5.01075 37.7175 5.06343 37.8811 5.06026C37.9205 5.06165 37.9601 5.05956 37.9999 5.05364C38.0387 5.04831 38.0762 5.03905 38.1121 5.02746ZM41.7198 1.08966L41.7704 1.08082L43.8804 0.704224L44.0293 1.55866L42.9041 1.75986L42.9907 2.25813L44.0104 2.07598L44.1471 2.85968L43.1273 3.0418L43.2264 3.61162L44.3518 3.41052L44.5002 4.26542L44.45 4.27422L42.3402 4.65086L41.7198 1.08966ZM53.9129 3.82111C53.2888 3.77693 52.8268 3.55233 52.5277 3.14833C52.2283 2.74385 52.0961 2.28717 52.131 1.7789C52.1659 1.27391 52.3571 0.841223 52.7038 0.480466C53.0507 0.120231 53.5419 -0.0376216 54.1762 0.00753391L54.2272 0.011157C54.8617 0.0561733 55.3261 0.281179 55.6199 0.687405C55.9147 1.09318 56.0443 1.54857 56.0093 2.05332C55.974 2.56173 55.7832 2.99368 55.4361 3.34901C55.0896 3.70398 54.5993 3.861 53.9645 3.8194L53.9129 3.82111ZM53.9933 2.95643C54.0273 2.95921 54.0627 2.95921 54.1008 2.95643C54.1382 2.95399 54.1758 2.94716 54.2143 2.93609C54.3805 2.90298 54.5359 2.81323 54.681 2.66603C54.8254 2.51977 54.9083 2.28985 54.9301 1.9769C54.9515 1.66436 54.9002 1.42518 54.7752 1.25946C54.6503 1.09318 54.5094 0.982253 54.3531 0.926166C54.3164 0.913388 54.281 0.902318 54.2456 0.892953C54.2103 0.883135 54.1758 0.877503 54.1417 0.874752C54.1046 0.872315 54.0652 0.87301 54.0244 0.877536C53.9828 0.881052 53.9431 0.889053 53.9052 0.900124C53.7454 0.936715 53.5951 1.02922 53.4537 1.1759C53.3124 1.32314 53.2311 1.54996 53.2098 1.85525C53.1888 2.16076 53.238 2.39643 53.3581 2.56219C53.4777 2.72749 53.6139 2.84033 53.7672 2.89951C53.803 2.91549 53.8405 2.9291 53.8794 2.93836C53.9178 2.94804 53.9557 2.95385 53.9933 2.95643ZM58.6614 0.583069L58.7116 0.591909L61.3096 1.05603L61.1608 1.91058L59.5481 1.62244L59.4551 2.15689L59.9721 2.24919C60.0428 2.26165 60.1339 2.28143 60.2471 2.30849C60.3598 2.33585 60.4744 2.37916 60.5924 2.43834C60.77 2.52639 60.9242 2.65761 61.0543 2.83315C61.1844 3.00858 61.2223 3.2518 61.1683 3.56392C61.1119 3.88614 60.9927 4.11032 60.8102 4.23454C60.6278 4.3596 60.44 4.43243 60.2462 4.4537C60.1152 4.47274 59.9908 4.4749 59.8721 4.46084C59.7537 4.44615 59.6612 4.43337 59.594 4.42146L59.5438 4.41262L58.0415 4.14437L58.6614 0.583069ZM59.5722 3.68324C59.7197 3.70932 59.8432 3.70443 59.9428 3.66812C60.0423 3.6315 60.1052 3.54039 60.1305 3.39454C60.1554 3.25222 60.1274 3.14662 60.0479 3.07807C59.9685 3.00942 59.8533 2.96227 59.7026 2.93522L59.3311 2.86893L59.2007 3.61691L59.5722 3.68324ZM64.2861 2.68988L63.6068 2.46675L63.8718 1.64139L63.9203 1.65733L65.5505 2.19353L65.12 3.53475L65.6198 3.69922C65.6874 3.72126 65.7756 3.75391 65.884 3.79684C65.9913 3.83918 66.0992 3.89846 66.2075 3.97363C66.3721 4.08594 66.506 4.23889 66.61 4.43243C66.7143 4.62562 66.7169 4.87674 66.6183 5.18447C66.5192 5.49262 66.3716 5.69455 66.1743 5.79088C65.9774 5.88691 65.7809 5.93193 65.5866 5.92618C65.4553 5.92266 65.3317 5.90544 65.2169 5.87543C65.1016 5.84402 65.0117 5.81847 64.9467 5.7972L64.8982 5.78122L63.4475 5.30379L64.2861 2.68988ZM65.0265 5.0629C65.1694 5.10973 65.292 5.12219 65.3958 5.10005C65.4993 5.07791 65.5736 4.99658 65.619 4.85554C65.663 4.71812 65.6504 4.60988 65.5805 4.53068C65.5115 4.45189 65.4041 4.38877 65.2584 4.34056L64.8995 4.2226L64.6677 4.94484L65.0265 5.0629ZM69.713 3.75799L69.7597 3.77874L71.7173 4.66106L71.3689 5.4542L70.3251 4.98328L70.1216 5.44569L71.0677 5.87232L70.7482 6.59906L69.8021 6.17281L69.5699 6.70124L70.6132 7.17195L70.2648 7.96455L70.2182 7.9438L68.2605 7.06103L69.713 3.75799ZM76.6081 7.39741L75.2923 9.80086L75.6669 10.0113L74.905 11.4029L74.861 11.3782L74.1109 10.9569L74.4571 10.3243L72.6992 9.3375L72.3529 9.97023L72.3084 9.9453L71.5588 9.52453L72.3206 8.13295C72.3354 8.14134 72.3499 8.14838 72.3643 8.15454C72.3783 8.16043 72.3935 8.16616 72.4101 8.17135C72.5485 8.21734 72.7027 8.2147 72.873 8.16265C73.0436 8.11092 73.1977 7.97562 73.3364 7.75813C73.3592 7.72366 73.381 7.68736 73.4016 7.65031C73.4221 7.61222 73.4431 7.57379 73.4644 7.53483C73.4709 7.52289 73.4779 7.51056 73.4844 7.49862C73.4911 7.48671 73.4976 7.47477 73.5042 7.46234L74.2611 6.08L74.3057 6.10482L76.6081 7.39741ZM74.2826 8.06492C74.1738 8.26334 74.0594 8.42864 73.939 8.55958C73.8185 8.69125 73.6595 8.76249 73.4631 8.77439L74.3734 9.28503L75.2736 7.64053L74.6933 7.31479L74.2826 8.06492ZM79.8697 9.76861L78.5975 11.4175L80.9187 10.5988L80.9593 10.6305L81.7308 11.2411L79.5321 14.0907L79.492 14.0587L78.7325 13.4575L80.0011 11.8131L77.6995 12.6407L77.6588 12.6088L76.8709 11.9851L79.0695 9.13556L79.1095 9.16739L79.8697 9.76861ZM83.8725 13.123L83.9082 13.16L84.6029 13.8885L83.6783 14.793L84.4858 15.64L85.411 14.736L85.4463 14.7732L86.1408 15.5012L83.572 18.0129L83.5364 17.9758L82.8421 17.2478L83.8694 16.243L83.0618 15.3959L82.0342 16.4008L81.9988 16.3632L81.3038 15.6347L83.8725 13.123ZM87.7963 17.5626L87.8286 17.6027L89.1772 19.2887L88.511 19.8351L87.792 18.936L87.4034 19.2542L88.0553 20.0694L87.4444 20.5703L86.7927 19.7552L86.3487 20.1194L87.0677 21.0185L86.402 21.5644L86.3696 21.5242L85.0211 19.8382L87.7963 17.5626ZM90.7854 21.5716L90.8113 21.6166L91.3111 22.4936L90.1979 23.1443L90.7793 24.1642L91.8926 23.5135L91.9184 23.5581L92.4181 24.4347L89.3256 26.2427L89.2997 26.1981L88.8 25.3215L90.0372 24.5983L89.4557 23.5784L88.2184 24.3017L88.1932 24.2566L87.6929 23.3795L90.7854 21.5716ZM93.6737 26.7723L93.6952 26.8191L94.1176 27.737L92.9525 28.2872L93.4441 29.3544L94.6093 28.8044L94.6311 28.8513L95.0532 29.7686L91.817 31.2968L91.7951 31.25L91.3731 30.3326L92.6674 29.7213L92.1759 28.6542L90.8815 29.2651L90.8596 29.2182L90.437 28.3005L93.6737 26.7723ZM92.9844 35.2263C92.812 34.6167 92.8626 34.1008 93.135 33.6776C93.4079 33.2546 93.7864 32.9726 94.2705 32.8321C94.7507 32.6927 95.2179 32.7264 95.6709 32.9333C96.1241 33.1402 96.4385 33.5536 96.6136 34.1724L96.628 34.2223C96.803 34.8412 96.7528 35.3598 96.4769 35.7784C96.2006 36.1974 95.8224 36.4768 95.3419 36.6161C94.8581 36.7567 94.3918 36.7226 93.9436 36.514C93.4956 36.3057 93.1822 35.8924 93.0036 35.2744L92.9844 35.2263ZM93.8142 35.0069C93.8239 35.0401 93.8357 35.0738 93.8509 35.1087C93.8663 35.144 93.8854 35.1776 93.9087 35.2103C93.9967 35.3566 94.133 35.4738 94.3191 35.5617C94.5045 35.6488 94.7464 35.6496 95.0437 35.5631C95.3414 35.4769 95.5458 35.3456 95.6571 35.1705C95.7684 34.9947 95.8233 34.8226 95.8216 34.6545C95.8209 34.6153 95.8195 34.5777 95.8155 34.5411C95.8124 34.5044 95.8063 34.4695 95.7968 34.4364C95.7867 34.4001 95.7723 34.363 95.7543 34.3253C95.7369 34.2873 95.716 34.2519 95.6928 34.2196C95.6038 34.0805 95.4672 33.9685 95.2825 33.8841C95.0974 33.8001 94.8595 33.8001 94.5682 33.8848C94.2774 33.9692 94.0758 34.0969 93.9628 34.2675C93.8505 34.4382 93.7924 34.6062 93.7903 34.7719C93.7872 34.8121 93.7879 34.8524 93.7923 34.8922C93.7963 34.932 93.8038 34.9703 93.8142 35.0069ZM97.5185 38.5867L97.5282 38.6376L97.9372 40.767L97.0959 40.9327L96.8781 39.7971L96.3875 39.8935L96.5847 40.923L95.8134 41.0746L95.6161 40.0456L95.0549 40.1561L95.273 41.2917L94.4317 41.457L94.422 41.4062L94.013 39.2763L97.5185 38.5867Z" fill="white"/>
<path fill-rule="evenodd" clip-rule="evenodd" d="M0 59.4439V57.4136H1.16949C1.79714 57.4136 2.19113 57.3631 2.34468 57.2655C2.49923 57.1678 2.57268 57.0064 2.57268 56.7788V51.0072C2.57268 50.78 2.49923 50.6186 2.34468 50.521C2.19684 50.4228 1.80285 50.3729 1.16949 50.3729H0V48.3394H20.1048V52.3267H15.9295C15.9066 52.0673 15.815 51.7875 15.6548 51.486C15.5299 51.219 15.3466 51.0311 15.1015 50.9202C14.8563 50.8092 14.3203 50.7535 13.4988 50.7535H10.9654V56.7628C10.9654 57.0223 11.0626 57.1939 11.2562 57.2813C11.4452 57.3685 11.8152 57.4136 12.3685 57.4136H13.9091V59.4439H0ZM34.3106 48.0544C35.9999 48.0544 37.8028 48.1971 39.7135 48.4795C41.631 48.7652 43.2964 49.2996 44.7168 50.0847C46.6113 51.2136 47.5586 52.4824 47.5586 53.8917C47.5586 55.4782 46.6686 56.7707 44.8943 57.765C43.7363 58.4099 42.2071 58.8966 40.3069 59.2247C38.4134 59.5522 36.4101 59.7162 34.3106 59.7162C32.9474 59.7162 31.6071 59.645 30.3003 59.5049C28.9876 59.3648 27.7667 59.1477 26.6315 58.8542C25.5021 58.5606 24.5433 58.1986 23.7621 57.765C21.965 56.7602 21.0635 55.4675 21.0635 53.8917C21.0635 53.4713 21.155 53.0456 21.3373 52.6172C21.5137 52.192 21.8218 51.7582 22.2501 51.322C22.6785 50.883 23.2432 50.4705 23.9386 50.0847C24.7036 49.6616 25.5593 49.3151 26.518 49.0401C27.47 48.7652 28.423 48.5566 29.3702 48.4163C30.3174 48.2762 31.2074 48.1812 32.0402 48.1307C32.8673 48.0804 33.6266 48.0544 34.3106 48.0544ZM34.3106 57.3026C35.1729 57.3026 35.834 57.1806 36.2908 56.9374C36.7468 56.6917 37.055 56.3663 37.2038 55.9539C37.3516 55.5441 37.4261 55.0366 37.4261 54.4337V53.3683C37.4261 52.4431 37.2324 51.7291 36.8326 51.2243C36.433 50.719 35.5946 50.4679 34.3106 50.4679C32.9818 50.4679 32.1261 50.7297 31.755 51.2531C31.3783 51.7795 31.196 52.4775 31.196 53.3523V54.4337C31.196 55.3619 31.4011 56.0727 31.8237 56.5647C32.2453 57.0563 33.0733 57.3026 34.3106 57.3026ZM53.926 59.4439V57.4136H55.4599C56.0303 57.4136 56.4128 57.3685 56.6075 57.2787C56.8011 57.1911 56.8983 57.0249 56.8983 56.7788V50.7509H55.4599C54.8551 50.7509 54.4048 50.7694 54.1082 50.8065C53.8115 50.8406 53.6236 50.8936 53.5377 50.9599C53.4576 51.0285 53.3775 51.1394 53.304 51.2955L52.8643 52.2287H48.4486L48.6824 48.3394H73.5061L73.7456 52.2287H69.3241L68.8843 51.2955C68.7766 51.0655 68.6106 50.9175 68.3883 50.8513C68.1603 50.7853 67.6071 50.7509 66.7285 50.7509H65.29V56.7788C65.29 56.9799 65.3702 57.1359 65.5304 57.2469C65.6954 57.3578 66.0837 57.4136 66.6942 57.4136H68.2338V59.4439H53.926ZM89.1781 48.3394V50.3702H88.7278C88.3452 50.3702 88.1516 50.4493 88.1516 50.6107C88.1516 50.6872 88.2651 50.7853 88.4941 50.9069L90.0337 51.8454H90.4104L91.9797 50.9096C92.305 50.7085 92.4643 50.5895 92.4643 50.5449C92.4643 50.4282 92.2477 50.3702 91.8137 50.3702H91.3062V48.3394H102.432V50.3702H101.467C100.863 50.3702 100.344 50.4467 99.9096 50.5974C99.4765 50.7483 98.8546 51.0576 98.038 51.528L95.0657 53.2892L99.9955 56.3322C100.064 56.3743 100.126 56.4088 100.183 56.4379C100.241 56.4671 100.286 56.4879 100.304 56.5064C100.378 56.5409 100.572 56.6519 100.885 56.8398C101.525 57.223 102.187 57.4136 102.871 57.4136H104V59.4439H89.7885V57.4136C90.5422 57.4003 90.9179 57.3101 90.9179 57.1413C90.9179 57.0458 90.7301 56.8769 90.3419 56.6359L88.9043 55.732H88.5275L86.7818 56.7474C86.5309 56.8949 86.4059 57.0352 86.4059 57.1727C86.4059 57.3101 86.7933 57.3897 87.5697 57.4136V59.4439H75.5828V57.4136H76.6836C77.3513 57.4136 77.9161 57.3473 78.3673 57.215C78.8175 57.0855 79.4566 56.7735 80.2779 56.2871L83.7302 54.2223L79.0741 51.3379C79.0512 51.322 78.9549 51.2636 78.7832 51.1633C78.6124 51.0629 78.435 50.9573 78.2585 50.8458C78.0306 50.6899 77.7902 50.5709 77.5393 50.4891C77.2884 50.4096 76.9116 50.3702 76.4098 50.3702H75.5484V48.3394H89.1781Z" fill="white"/>
<path fill-rule="evenodd" clip-rule="evenodd" d="M64.4611 38.4497L64.4656 37.514L66.5594 37.5263C66.5594 37.4306 66.5717 36.5896 66.5717 36.5896L56.9494 36.5939C56.9494 36.3359 56.9494 36.0759 56.9494 35.8347H66.5714L66.5771 31.0388L68.2668 32.0885L67.3686 33.5006L69.6189 34.9714L72.389 30.7498L70.2014 29.2098L69.2903 30.638L60.0182 26.1796L38.7717 11.3739C39.1206 9.25178 36.3342 8.72649 35.8021 11.067C35.138 13.9866 34.1119 18.8885 33.5607 21.3603L33.7413 21.4037L33.7459 24.2353L31.7175 24.2346L31.7147 28.3442L35.9942 28.3455L35.997 24.2293L34.0905 24.2327L34.0894 21.4637L34.2723 21.4985L37.6174 13.751L54.9631 36.6696L54.954 38.5024L33.5594 38.4852L33.5395 41.0463H75.4696V38.4613L64.4611 38.4497ZM50.1142 26.2406C46.1084 21.599 42.4037 16.9515 38.3853 12.3206L38.5851 11.8324C40.3621 13.0852 59.1281 26.2252 59.0753 26.2406H50.1142ZM54.943 32.0175L50.8643 27.1236L59.8592 27.1553L65.5183 30.2676L54.9526 30.302L54.943 32.0175Z" fill="white"/>
<path fill-rule="evenodd" clip-rule="evenodd" d="M53.4266 73.6656L51.7511 73.6759C51.7656 73.5231 51.8023 73.1947 51.8339 73.0205L52.6465 73.0395C52.8693 72.4954 52.3797 69.7718 51.8195 70.3815C50.5229 71.7928 50.4762 77.2484 51.7373 79.6092C52.3947 80.8398 52.8312 77.5412 52.7671 77.0425L51.8626 77.0147L51.8052 76.3862L53.4897 76.3971C53.4439 77.1266 53.4767 79.0101 52.7292 80.2425C52.4767 80.6588 52.158 80.8717 51.633 80.8319C48.5998 80.6013 49.4033 68.9722 51.5251 68.9471C53.0478 68.9292 53.5008 72.4904 53.4266 73.6656ZM68.8284 68.8862L78.6387 68.936C76.6349 71.6674 74.2444 70.7365 71.0871 70.7365C70.6297 70.7365 70.8259 71.2418 71.0734 71.2462C72.3388 71.3842 73.6179 71.2863 74.8968 71.4379C74.3367 73.826 69.9334 73.224 69.4543 72.6751C69.223 72.6751 69.1142 72.9231 69.2365 73.1161C69.9416 73.436 71.0678 73.6669 69.8537 74.3497C68.3387 74.7331 67.7688 74.8921 66.3248 74.3835C66.2796 74.4689 66.1026 74.4511 66.0927 74.6685C66.0535 75.5268 64.1329 76.7567 62.515 75.7337C61.7685 76.5573 59.1025 77.6959 58.4058 76.2849C62.9554 74.4739 66.1905 73.1604 68.8284 68.8862ZM57.4669 75.0676C57.4669 74.8548 57.3988 74.6315 57.6438 74.6315C57.916 74.4938 58.4739 74.6315 58.6371 74.3559C58.7873 73.5579 58.5035 71.5119 58.746 70.7875C58.8069 70.7041 58.8885 70.6627 59.0045 70.6635C60.2617 70.6635 61.1063 70.8014 61.8619 69.6027C62.134 69.3271 62.3653 69.3685 62.7191 69.3271C63.8837 69.4923 66.7376 69.1335 67.25 69.4648C67.3317 69.644 67.2637 69.9195 67.1684 70.0849C66.4077 70.6885 65.3748 70.6973 64.4743 70.5671C64.243 70.4707 63.6579 70.1813 63.6987 70.636C64.0005 71.2474 64.9618 71.1906 65.5221 71.2422C65.6581 71.3799 65.5084 71.7934 65.4132 71.9311C64.2712 73.0874 63.7924 72.8122 62.4061 72.2342C62.2557 72.1797 61.9296 72.007 61.7802 72.0827C61.6615 72.2029 61.7405 72.3932 61.8211 72.5098C62.1386 72.7854 63.2113 73.1747 63.1137 73.5982C62.8551 73.9978 62.2156 74.1631 61.7666 74.2596C61.0793 74.1964 60.8799 73.89 60.4331 73.4054C59.7257 73.4054 60.0658 74.3285 60.0658 74.7556C59.5951 75.258 57.8571 75.5404 57.4669 75.0676ZM57.929 68.8649C58.4699 68.857 59.412 68.8415 59.9555 68.8563C60.599 68.8738 60.634 69.6531 60.1412 69.8082C59.4739 70.0181 58.0431 69.5351 58.0247 70.579C58.0521 71.5275 57.2094 71.6589 57.1775 70.7391C57.166 70.4125 57.1799 69.9627 57.2467 69.5858C57.3375 69.0739 57.4418 68.872 57.929 68.8649ZM34.1196 68.8862L24.3092 68.8893C26.3131 71.6207 28.7035 70.6618 31.8609 70.6618C32.3183 70.6618 32.0853 71.0434 31.8745 71.1714C30.6091 71.3093 29.33 71.3111 28.051 71.4626C28.6112 73.8507 33.0145 73.224 33.4936 72.6751C33.725 72.6751 33.8339 72.9231 33.7113 73.1161C33.0063 73.436 31.8801 73.667 33.0942 74.3497C34.6094 74.7331 35.1791 74.8922 36.6231 74.3836C36.6683 74.4689 36.8455 74.4512 36.8553 74.6685C36.8944 75.5268 38.8151 76.7567 40.4329 75.7337C41.1794 76.5573 43.8454 77.6959 44.5422 76.2849C39.9926 74.4739 36.7576 73.1604 34.1196 68.8862ZM45.481 75.0676C45.481 74.8548 45.5491 74.6315 45.3042 74.6315C45.032 74.4938 44.4742 74.6315 44.3108 74.3559C44.1606 73.5579 44.4446 71.5119 44.2019 70.7875C44.1626 70.7141 44.0809 70.6728 43.9435 70.6635C42.6862 70.6635 41.8418 70.8014 41.0861 69.6027C40.8139 69.3271 40.5826 69.3685 40.2289 69.3271C39.0642 69.4923 36.2103 69.1335 35.6979 69.4648C35.6162 69.644 35.6843 69.9195 35.7795 70.0849C36.5402 70.6885 37.5731 70.6973 38.4736 70.5671C38.7049 70.4707 39.29 70.1813 39.2492 70.636C38.9474 71.2474 37.9862 71.1906 37.4259 71.2422C37.2899 71.3799 37.4395 71.7934 37.5349 71.9311C38.6767 73.0874 39.1556 72.8122 40.5418 72.2342C40.6923 72.1797 41.0182 72.007 41.1677 72.0827C41.2864 72.2029 41.2075 72.3932 41.1269 72.5098C40.8092 72.7854 39.7368 73.1747 39.8342 73.5982C40.0928 73.9978 40.7323 74.1631 41.1813 74.2596C41.8686 74.1964 42.068 73.89 42.5148 73.4054C43.2223 73.4054 42.8822 74.3285 42.8822 74.7556C43.3528 75.258 45.0908 75.5404 45.481 75.0676ZM44.7634 68.8649C44.2225 68.857 43.2803 68.8415 42.7368 68.8563C42.0932 68.8738 42.0583 69.6531 42.551 69.8082C43.2184 70.0181 44.6492 69.5351 44.6675 70.579C44.6403 71.5275 45.4828 71.6589 45.5149 70.7391C45.5263 70.4125 45.5125 69.9627 45.4455 69.5858C45.3548 69.0739 45.2504 68.872 44.7634 68.8649ZM56.1744 71.8071L56.8274 72.0688C56.5689 72.4546 56.3104 73.0257 56.0655 73.4252L54.7844 73.3795C54.7057 71.6918 54.2004 69.6503 53.2247 68.3711C52.1811 67.0033 50.8119 67.0246 49.6322 68.4058C48.5073 69.7227 48.0838 71.9034 47.9355 73.3314C47.6361 73.3452 47.1889 73.3967 46.8896 73.4243C46.631 73.0247 46.4457 72.5512 46.1872 72.1515L46.8539 71.9173C46.8539 69.8023 47.1848 68.5396 46.0684 68.0618L21.5919 68.0292C23.9137 70.2754 25.4914 71.6877 27.3249 71.8543C27.6914 73.7484 30.0078 74.485 31.7735 74.485L31.7852 74.4874L31.9628 74.5221C33.2792 75.942 34.6044 76.0856 36.2507 75.816C36.9778 76.7399 37.8618 77.2387 39.0592 77.2432H39.062C39.6371 77.2453 40.1581 77.0953 40.7116 76.9553C42.1794 78.4466 44.6139 78.441 45.4997 76.4227L48.0272 76.4485C48.1179 78.289 48.8478 82.4553 51.4415 82.4566C54.0553 82.458 54.6055 78.3018 54.7101 76.4378L57.5368 76.4449C58.4338 78.3781 60.9552 78.3957 62.2854 76.8965C64.2353 77.259 65.2678 77.1926 66.6928 75.7043C68.5436 76.1247 69.508 75.8379 71.0138 74.4229C72.9849 74.4379 74.4407 73.9888 75.4749 71.9629C77.8533 71.5193 79.293 69.7167 80.8615 67.9686L57.23 67.9565C55.6352 67.8726 56.1979 70.5083 56.1744 71.8071ZM48.0476 68.2177C49.6224 65.1925 53.4369 65.3159 54.8583 68.165C55.1809 67.1542 55.996 66.5673 57.3039 66.5542L84.2806 66.678C82.0288 68.907 79.5496 72.4151 76.3551 73.2099C75.2768 74.9181 73.5385 75.5347 71.6416 75.7607C70.967 76.3763 70.2121 76.7071 69.4221 76.8866L69.4222 76.8873C68.6978 77.0518 67.9812 77.0835 67.2764 77.0975C65.9428 78.4015 64.5483 78.6928 62.7587 78.4019C61.0977 79.7198 57.9501 79.7916 56.6972 77.8456L55.8576 77.8438C55.6105 80.2384 54.3641 83.8606 51.4415 83.8594C48.5139 83.858 47.1728 80.2323 46.9445 77.8399L46.1448 77.9453C44.8079 79.6713 42.0416 79.7224 40.3962 78.4894C40.3948 78.4887 40.3938 78.4877 40.3923 78.4867C39.9551 78.5925 39.5061 78.6459 39.0565 78.6459C39.0572 78.6459 39.0582 78.6459 39.0579 78.6459C37.7271 78.64 36.319 78.069 35.4476 77.1312C33.8154 77.0912 32.6556 76.8938 31.3516 75.8283C29.7944 75.526 27.1999 74.9635 26.4489 73.0584C22.6873 72.3736 21.039 69.0953 18.6329 66.6225L45.2553 66.5816C47.1963 66.6282 47.3633 67.373 48.0476 68.2177Z" fill="white"/>
</svg>
