<svg width="77" height="96" viewBox="0 0 77 96" fill="none" xmlns="http://www.w3.org/2000/svg">
<path d="M2.12953 7.69665C2.12953 5.87596 2.28242 4.59912 2.59997 3.86611C2.894 3.13311 3.45853 2.67203 4.29357 2.50651C5.011 2.32917 6.32824 2.24641 8.25706 2.24641H10.0565C12.0089 2.24641 13.3143 2.34099 13.9965 2.50651C14.8668 2.6602 15.4313 3.12129 15.6901 3.86611C16.0076 4.59912 16.1605 5.87596 16.1605 7.69665V9.13901C16.1605 10.9597 16.0076 12.2365 15.6901 12.9695C15.4078 13.6671 14.8433 14.1163 13.9965 14.3055C13.3143 14.4828 12.0089 14.5656 10.0565 14.5656H8.25706C6.32824 14.5656 5.011 14.4828 4.31709 14.3055C3.45853 14.1163 2.90576 13.6671 2.62349 12.9695C2.44708 12.603 2.3177 12.0947 2.24714 11.4444C2.16481 10.7942 2.12953 10.0257 2.12953 9.13901V7.69665ZM0.435926 13.206C0.824043 14.5656 1.60028 15.4996 2.78815 16.008C3.81137 16.4927 5.63434 16.741 8.26883 16.741H10.0918C11.2326 16.741 12.2088 16.6937 13.0086 16.6109C13.8083 16.5282 14.4669 16.3981 14.9609 16.2444C14.9727 16.2444 14.9844 16.2444 14.9844 16.2208C15.6078 16.0434 16.137 15.7715 16.5486 15.3932C16.972 15.0149 17.3131 14.5656 17.5719 14.0454C17.8188 13.5252 17.9953 12.8513 18.1129 12.0237C18.2187 11.208 18.2775 10.2385 18.2775 9.13901C18.2775 7.79123 18.2422 6.66808 18.1717 5.75774C18.1011 4.84739 18.007 4.14986 17.8894 3.66513C17.5013 2.28188 16.7368 1.33607 15.596 0.827694C14.4552 0.31932 12.6087 0.0710449 10.0918 0.0710449H8.26883C5.98717 0.0710449 4.35238 0.236562 3.36444 0.567596H3.38797C2.76463 0.756758 2.23538 1.0405 1.80021 1.41883C1.36505 1.79715 1.01222 2.25823 0.729954 2.79025C0.48297 3.31045 0.306554 3.98434 0.212465 4.81192C0.106615 5.63951 0.0595703 6.59714 0.0595703 7.69665C0.0595703 9.04443 0.0830925 10.1676 0.153659 11.0779C0.212465 11.9883 0.318315 12.6976 0.447687 13.206" fill="white"/>
<path d="M33.0959 14.3293C32.4725 14.5184 31.2259 14.613 29.3676 14.613H26.7331C25.1336 14.613 24.0516 14.4948 23.4753 14.2701C22.9696 14.1283 22.605 13.8564 22.3697 13.4426C22.1345 13.0288 22.0051 12.544 21.9934 11.9647C21.9934 11.811 21.9111 11.7283 21.7582 11.7283H20.1351C19.9822 11.7283 19.8999 11.811 19.8999 11.9647C19.9352 14.0219 20.6056 15.3697 21.8993 15.9963C22.7696 16.4928 24.3221 16.7293 26.5449 16.7293H29.6499C32.0491 16.7293 33.731 16.5046 34.6836 16.0435C36.1302 15.3933 36.8477 13.9746 36.8477 11.7756C36.8477 11.2199 36.8241 10.747 36.7889 10.3569C36.7418 9.97853 36.6595 9.65932 36.5419 9.41104C36.2126 8.83173 35.7421 8.38247 35.1305 8.05144C35.7068 7.79134 36.1185 7.43666 36.389 6.99922C36.5772 6.71548 36.7065 6.38444 36.7653 6.00612C36.8241 5.6278 36.8594 5.16671 36.8594 4.64652C36.8594 2.56573 36.0832 1.22977 34.5425 0.638641C34.0956 0.484946 33.4605 0.354897 32.6607 0.272139C31.861 0.18938 30.8613 0.14209 29.6616 0.14209H26.5332C24.4279 0.14209 22.8872 0.425833 21.9111 0.981497C20.5703 1.74997 19.9117 3.10957 19.9117 5.04849C19.9117 5.20218 19.994 5.28494 20.1469 5.28494H21.7699C21.9228 5.28494 22.0051 5.20218 22.0051 5.04849C22.0404 3.84258 22.5579 3.05046 23.5694 2.66031C24.2515 2.43568 25.3806 2.31746 26.9566 2.31746H29.3323C30.2144 2.31746 30.9671 2.32928 31.5669 2.35292C32.1667 2.37657 32.6137 2.43568 32.9077 2.53026C33.531 2.67214 34.0132 2.92041 34.3543 3.27509C34.6954 3.62977 34.86 4.09085 34.86 4.64652C34.86 5.93518 34.1073 6.92829 32.3432 6.92829H24.1221V9.17459H32.7195C34.2485 9.50562 34.86 10.3805 34.86 11.7756C34.86 13.1706 34.272 13.9864 33.1076 14.3174" fill="white"/>
<path d="M38.9407 12.733C39.0819 13.4542 39.3053 14.0571 39.6347 14.5537C39.9522 15.0502 40.3638 15.464 40.846 15.7951C41.3871 16.1261 42.0692 16.3625 42.8925 16.5162C43.7158 16.6581 44.7037 16.7409 45.8563 16.7409H51.7721C53.6539 16.7409 55.0535 16.4335 55.9708 15.8187C57.0881 15.0148 57.6409 13.7261 57.6409 11.9645C57.6409 11.9172 57.6409 11.8818 57.6174 11.8581L57.488 11.7517C57.488 11.7517 57.488 11.7281 57.4645 11.7281H55.7944C55.6415 11.7281 55.5592 11.8108 55.5592 11.9645V12.0473C55.5592 13.1231 55.2064 13.8443 54.4889 14.1753C53.9009 14.4709 52.9835 14.6246 51.7486 14.6246H45.6681C43.5276 14.6246 42.1515 14.2699 41.5517 13.5724C41.3047 13.265 41.1166 12.733 40.9872 11.9882C40.8578 11.2433 40.7872 10.2975 40.7872 9.1389C40.7872 8.07486 40.7872 7.18817 40.8108 6.50245C40.8343 5.81674 40.8696 5.32019 40.9401 5.02462C41.1283 3.93694 41.5635 3.20394 42.2221 2.80197C42.5867 2.6128 43.0807 2.45911 43.7275 2.32906C44.3626 2.21083 45.1506 2.15172 46.115 2.15172H51.7486C54.2655 2.15172 55.5357 3.01477 55.5357 4.74088V4.79999C55.5357 4.95369 55.618 5.03645 55.7709 5.03645H57.4175C57.5586 5.03645 57.6292 4.95369 57.6292 4.79999V4.74088C57.6292 3.15665 57.1352 1.96256 56.159 1.18226C55.1711 0.390147 53.7127 0 51.7604 0H46.2797C43.3629 0 41.3635 0.520196 40.305 1.57241H40.3286C39.2465 2.63645 38.7173 4.65812 38.7173 7.6256C38.7173 10.1793 38.7996 11.8818 38.9525 12.7448" fill="white"/>
<path d="M65.5917 93.6592H63.263V79.8858H53.7836V93.6592H48.3852V69.6356H54.3716V67.5193L48.397 63.6651H50.3728V57.6474H48.0441V63.4405L46.0448 62.14V43.3302H58.7232V40.9893H46.0448V37.3716H58.7232V35.0307H46.0448V30.6327H58.7232V28.2918H46.0448V21.9667H65.5917V93.6828V93.6592ZM34.2366 55.9922L28.9088 59.5863V26.211L34.2719 24.0238L34.2366 55.9922ZM26.5801 61.1587L22.4284 63.9607V28.8593L26.5801 27.1686V61.1587ZM77 0.402188C77 0.224848 76.9059 0.14209 76.7413 0.14209H74.1068L63.9569 6.8337H61.6047V0.402188C61.6047 0.224848 61.5224 0.14209 61.3695 0.14209H59.7229C59.57 0.14209 59.4877 0.236671 59.4877 0.402188V16.5046C59.4877 16.6583 59.57 16.7411 59.7229 16.7411H61.3695C61.5341 16.7411 61.6047 16.6583 61.6047 16.5046V8.81991H64.004L74.4831 17.214V93.6592H67.9204V19.6022H43.7161V28.28H38.7411V30.6209H43.7161V35.0189H38.7411V37.3598H43.7161V40.9775H38.7411V43.3184H43.7161V60.6149L36.5653 55.9686L36.6006 20.5243L0 35.48V37.9982L20.088 29.8051V65.5213L15.1366 68.9144V70.6641H20.7231V87.7952H13.9134V36.3194L0.0117611 41.8405V96.0001H39.6702V85.3715H37.3415V93.6474H2.34046V43.4248L11.5729 39.7598V90.1242H23.04V68.3114H20.1233L35.4009 58.0139L49.6672 67.2829H46.033V95.9764H46.1624V96.0001H56.1005V82.2267H60.9108V96.0001H76.8118V16.3982H76.8001C76.8001 16.3982 76.8118 16.3864 76.8236 16.3746L65.9798 7.76769L76.9765 0.54406C76.9765 0.54406 77 0.449479 77 0.414011" fill="white"/>
<path d="M28.9085 71.9172H26.5798V77.935H28.9085V71.9172Z" fill="white"/>
<path d="M37.1065 71.9172H34.7778V77.935H37.1065V71.9172Z" fill="white"/>
<path d="M58.4417 47.1843H56.113V53.2021H58.4417V47.1843Z" fill="white"/>
<path d="M58.4417 57.9783H56.113V63.996H58.4417V57.9783Z" fill="white"/>
<path d="M58.4417 68.9263H56.113V74.944H58.4417V68.9263Z" fill="white"/>
<path d="M50.3719 47.1843H48.0432V53.2021H50.3719V47.1843Z" fill="white"/>
</svg>
