<svg width="32" height="32" viewBox="0 0 32 32" fill="none" xmlns="http://www.w3.org/2000/svg">
<path d="M5.3601 28.8804C7.21584 28.8804 8.7202 27.376 8.7202 25.5203C8.7202 23.6645 7.21584 22.1602 5.3601 22.1602C3.50437 22.1602 2 23.6645 2 25.5203C2 27.376 3.50437 28.8804 5.3601 28.8804Z" fill="white"/>
<path d="M6.48047 7.59976H13.2007V10.9464H6.48047V7.59976ZM14.3449 7.59976H21.0651V10.9464H14.3449V7.59976ZM9.86476 3.11963H17.6808V6.46629H9.86476V3.11963Z" fill="white"/>
<path d="M25.5207 8.71973L22.1606 12.0798H2C2 17.0272 6.01017 21.0401 10.9603 21.0401H15.4404L23.2806 28.8803H25.5207L25.3899 16.9578V12.1694L26.6407 10.9598H30.0008V8.71973H25.5207ZM18.8005 21.0401H23.2161L23.2806 25.5202L18.8005 21.0401Z" fill="white"/>
</svg>
