<svg width="32" height="32" viewBox="0 0 32 32" fill="none" xmlns="http://www.w3.org/2000/svg">
<path d="M16.0007 14.7648L9.4025 8.16665L12.7016 4.86755L19.2998 11.4657L16.0007 14.7648ZM20.5378 19.3033L17.239 16.0045L23.8375 9.406L27.1363 12.7047L20.5378 19.3033ZM2 12.312V19.688L5.68795 16L2 12.312ZM30 19.688V12.312L26.312 16L30 19.688ZM21.7753 20.5367L30 28.7627V22.1635L25.0748 17.2372L21.7753 20.5367ZM10.2253 11.4633L2 3.23725V9.83755L6.9252 14.7627L10.2253 11.4633ZM3.62575 20.5367L2 22.1625V28.7627L6.9252 23.8375L3.62575 20.5367ZM28.3739 11.4633L30 9.83615V3.23725L25.0748 8.16385L28.3739 11.4633ZM11.4626 21.7753L3.23725 30H9.83685L14.7627 25.0748L11.4626 21.7753ZM11.4615 12.6971L14.761 15.9965L8.1628 22.5947L4.86335 19.2952L11.4615 12.6971ZM12.312 30H19.688L16 26.312L12.312 30ZM20.5367 28.3739L22.1625 30H28.7627L23.8375 25.0748L20.5367 28.3739ZM11.4626 3.62575L9.83685 2H3.23725L8.16315 6.9252L11.4626 3.62575ZM19.688 2H12.312L16 5.68795L19.688 2ZM16.0007 17.233L22.5996 23.8323L19.3005 27.1314L12.7013 20.5325L16.0007 17.233ZM20.5367 10.2257L28.7627 2H22.1625L17.2372 6.9252L20.5367 10.2257Z" fill="white"/>
</svg>
