<svg width="32" height="32" viewBox="0 0 32 32" fill="none" xmlns="http://www.w3.org/2000/svg">
<path d="M7.27254 3.07083V7.25226H5.13869V3.07083C5.13869 2.78722 5.2509 2.51519 5.45072 2.31444C5.65053 2.11368 5.92161 2.0006 6.20449 2C6.79384 2 7.27254 2.47995 7.27254 3.07083ZM5.13869 10.1184H7.27254V14.5307H5.13869V10.1184ZM5.13869 17.3968H7.27254V21.945H5.13869V17.3968ZM5.13869 24.8111H7.27254V28.9292C7.27254 29.5201 6.79384 30 6.20449 30C5.92161 29.9994 5.65053 29.8863 5.45072 29.6856C5.2509 29.4848 5.13869 29.2128 5.13869 28.9292V24.8111ZM13.2112 3.07083V7.25226H11.0751V3.07083C11.0751 2.47995 11.5538 2 12.1432 2C12.7325 2 13.2112 2.47995 13.2112 3.07083ZM11.0751 10.1184H13.2112V14.5307H11.0751V10.1184ZM11.0751 17.3968H13.2112V21.945H11.0751V17.3968ZM11.0751 24.8111H13.2112V28.9292C13.2112 29.5201 12.7325 30 12.1432 30C11.5538 30 11.0751 29.5201 11.0751 28.9292V24.8111ZM15.6567 22.3978C15.6251 22.4635 15.5912 22.5314 15.5573 22.5993C15.3293 23.0589 15.0741 23.566 14.968 24.3583H2.97774C2.43806 24.3583 2 23.9191 2 23.3781C2 22.8393 2.43806 22.3978 2.97774 22.3978H15.6567ZM14.9138 16.0362C14.9138 16.3781 14.9364 16.6769 14.9793 16.944H2.97774C2.43806 16.944 2 16.5049 2 15.9638C2 15.425 2.43806 14.9835 2.97774 14.9835H15.0018C14.9477 15.2846 14.9138 15.631 14.9138 16.0362ZM15.6522 9.66559H2.97774C2.43806 9.66559 2 9.22413 2 8.68532C2 8.14424 2.43806 7.70505 2.97774 7.70505H14.9657C15.0718 8.50421 15.327 9.01358 15.5573 9.47542L15.6522 9.66559ZM25.7405 24.3588C25.4295 24.3592 25.1314 24.4832 24.9115 24.7036C24.6917 24.924 24.568 25.2229 24.5676 25.5347C24.5676 26.1828 25.0937 26.7103 25.7405 26.7103C26.3872 26.7103 26.9133 26.1828 26.9133 25.5347C26.9129 25.2229 26.7892 24.924 26.5694 24.7036C26.3495 24.4832 26.0514 24.3592 25.7405 24.3588Z" fill="white"/>
<path d="M19.6885 6.73749C20.3362 6.73749 20.8613 6.21103 20.8613 5.56162C20.8613 4.9122 20.3362 4.38574 19.6885 4.38574C19.0407 4.38574 18.5156 4.9122 18.5156 5.56162C18.5156 6.21103 19.0407 6.73749 19.6885 6.73749Z" fill="white"/>
<path d="M29.0919 2.07422H16.7359C16.6094 2.07422 16.5101 2.17609 16.5101 2.30061C16.5101 3.39408 16.2436 3.92609 15.9614 4.49207C15.6678 5.07842 15.3652 5.68515 15.3652 6.88049C15.3652 8.0781 15.6678 8.68483 15.9614 9.27118C16.2436 9.83489 16.5101 10.3669 16.5101 11.4581C16.5101 12.5493 16.2436 13.0813 15.9614 13.645C15.6678 14.2314 15.3652 14.8381 15.3652 16.0357C15.3652 17.2333 15.6678 17.8401 15.9614 18.4264C16.2436 18.9901 16.5101 19.5244 16.5101 20.6156C16.5101 21.7068 16.2436 22.2388 15.9614 22.8026C15.6678 23.3889 15.3652 23.9956 15.3652 25.1932C15.3652 26.3931 15.6701 26.9998 15.9614 27.5862C16.2436 28.1499 16.5101 28.6819 16.5101 29.7731C16.5101 29.8976 16.6094 29.9995 16.7359 29.9995H29.0919C29.5932 29.9995 29.9997 29.592 29.9997 29.0894V2.98431C29.9997 2.48399 29.5932 2.07422 29.0919 2.07422ZM19.6885 7.18952C18.7927 7.18952 18.0641 6.45873 18.0641 5.56086C18.0641 4.663 18.7927 3.93221 19.6885 3.93221C20.5843 3.93221 21.3129 4.663 21.3129 5.56086C21.3129 6.45873 20.5843 7.18952 19.6885 7.18952ZM25.7403 27.1628C24.8445 27.1628 24.1159 26.4323 24.1159 25.5344C24.1159 24.6365 24.8448 23.9058 25.7403 23.9058C26.6358 23.9058 27.3647 24.6365 27.3647 25.5344C27.3647 26.4323 26.6361 27.1628 25.7403 27.1628Z" fill="white"/>
</svg>
