<svg width="32" height="32" viewBox="0 0 32 32" fill="none" xmlns="http://www.w3.org/2000/svg">
<path d="M3.98625 17.75H9C9.11593 17.7497 9.22701 17.7034 9.30898 17.6215C9.39095 17.5395 9.43715 17.4284 9.4375 17.3125V13.375H7.705C7.49495 13.3753 7.28802 13.4259 7.10154 13.5225C6.91505 13.6192 6.75443 13.7591 6.63313 13.9306L4.14375 17.4875C4.08616 17.5718 4.03356 17.6595 3.98625 17.75Z" fill="white"/>
<path d="M3.86375 18.625H9C9.34778 18.624 9.68101 18.4853 9.92693 18.2394C10.1728 17.9935 10.3115 17.6603 10.3125 17.3125V13.375H11.625C11.8571 13.375 12.0796 13.4672 12.2437 13.6313C12.4078 13.7954 12.5 14.0179 12.5 14.25V24.3125H11.8044C11.7457 24.1558 11.6725 24.0049 11.5856 23.8619C11.2772 23.3323 10.8351 22.8931 10.3034 22.5882C9.77179 22.2834 9.16936 22.1236 8.55653 22.1249C7.9437 22.1263 7.34197 22.2886 6.81167 22.5958C6.28136 22.9029 5.8411 23.3441 5.535 23.875C5.4505 24.0141 5.37875 24.1605 5.32063 24.3125H3.75V18.7387L3.86375 18.625ZM7.6875 20.375H8.5625C8.67853 20.375 8.78981 20.3289 8.87186 20.2469C8.95391 20.1648 9 20.0535 9 19.9375C9 19.8215 8.95391 19.7102 8.87186 19.6281C8.78981 19.5461 8.67853 19.5 8.5625 19.5H7.6875C7.57147 19.5 7.46019 19.5461 7.37814 19.6281C7.29609 19.7102 7.25 19.8215 7.25 19.9375C7.25 20.0535 7.29609 20.1648 7.37814 20.2469C7.46019 20.3289 7.57147 20.375 7.6875 20.375ZM3.75 25.1875V25.625C3.75104 25.9728 3.88965 26.306 4.13557 26.5519C4.38149 26.7978 4.71472 26.9365 5.0625 26.9375H5.32063C5.22149 26.7097 5.15237 26.47 5.115 26.2244C5.07959 26.0266 5.06202 25.826 5.0625 25.625C5.062 25.4788 5.07076 25.3326 5.08875 25.1875H3.75ZM26.2419 26.9375H26.9375C27.2853 26.9365 27.6185 26.7978 27.8644 26.5519C28.1103 26.306 28.249 25.9728 28.25 25.625V25.1875H26.4694C26.4908 25.3323 26.501 25.4786 26.5 25.625C26.5011 25.8156 26.485 26.006 26.4519 26.1937C26.4134 26.4495 26.3428 26.6994 26.2419 26.9375ZM13.375 12.0625V24.3125H19.7581C19.8162 24.1605 19.888 24.0141 19.9725 23.875C20.2786 23.3441 20.7189 22.9029 21.2492 22.5958C21.7795 22.2886 22.3812 22.1263 22.994 22.1249C23.6069 22.1236 24.2093 22.2834 24.7409 22.5882C25.2726 22.8931 25.7147 23.3323 26.0231 23.8619C26.11 24.0049 26.1832 24.1558 26.2419 24.3125H28.25V12.0625C28.2493 11.8306 28.1569 11.6085 27.993 11.4445C27.829 11.2806 27.6069 11.1882 27.375 11.1875H25.9225C25.8875 11.2925 25.8437 11.3975 25.8 11.5069C25.6906 11.7912 25.555 12.0931 25.3931 12.4388C24.3913 14.4342 23.2064 16.3323 21.8537 18.1087C21.7325 18.2685 21.5761 18.3982 21.3967 18.4877C21.2172 18.5773 21.0196 18.6243 20.819 18.6251C20.6185 18.626 20.4205 18.5806 20.2403 18.4926C20.0601 18.4046 19.9026 18.2762 19.78 18.1175C18.4233 16.3399 17.2368 14.4386 16.2362 12.4388C16.07 12.0931 15.9344 11.7913 15.8294 11.52C15.7812 11.4063 15.7375 11.2969 15.6981 11.1875H14.25C14.0181 11.1882 13.796 11.2806 13.632 11.4445C13.4681 11.6085 13.3757 11.8306 13.375 12.0625ZM11.8044 26.9375H19.7581C19.659 26.7097 19.5899 26.47 19.5525 26.2244C19.5171 26.0266 19.4995 25.826 19.5 25.625C19.4995 25.4788 19.5083 25.3326 19.5262 25.1875H12.0319C12.0533 25.3323 12.0635 25.4786 12.0625 25.625C12.0636 25.8156 12.0475 26.006 12.0144 26.1937C11.9759 26.4495 11.9053 26.6994 11.8044 26.9375Z" fill="white"/>
<path d="M5.93751 25.6252C5.94118 26.0858 6.06321 26.5378 6.29188 26.9377C6.52174 27.3366 6.85263 27.6679 7.25124 27.8983C7.64985 28.1286 8.10212 28.2499 8.56251 28.2499C9.02289 28.2499 9.47516 28.1286 9.87377 27.8983C10.2724 27.6679 10.6033 27.3366 10.8331 26.9377C11.0635 26.5387 11.1848 26.086 11.1848 25.6252C11.1848 25.1644 11.0635 24.7118 10.8331 24.3127C10.6033 23.9138 10.2724 23.5825 9.87377 23.3521C9.47516 23.1218 9.02289 23.0005 8.56251 23.0005C8.10212 23.0005 7.64985 23.1218 7.25124 23.3521C6.85263 23.5825 6.52174 23.9138 6.29188 24.3127C6.06321 24.7126 5.94118 25.1646 5.93751 25.6252Z" fill="white"/>
<path d="M5.93751 25.6252C5.94118 26.0858 6.06321 26.5378 6.29188 26.9377C6.52174 27.3366 6.85263 27.6679 7.25124 27.8983C7.64985 28.1286 8.10212 28.2499 8.56251 28.2499C9.02289 28.2499 9.47516 28.1286 9.87377 27.8983C10.2724 27.6679 10.6033 27.3366 10.8331 26.9377C11.0635 26.5387 11.1848 26.086 11.1848 25.6252C11.1848 25.1644 11.0635 24.7118 10.8331 24.3127C10.6033 23.9138 10.2724 23.5825 9.87377 23.3521C9.47516 23.1218 9.02289 23.0005 8.56251 23.0005C8.10212 23.0005 7.64985 23.1218 7.25124 23.3521C6.85263 23.5825 6.52174 23.9138 6.29188 24.3127C6.06321 24.7126 5.94118 25.1646 5.93751 25.6252ZM20.375 25.6252C20.3787 26.0858 20.5007 26.5378 20.7294 26.9377C20.9592 27.3366 21.2901 27.6679 21.6887 27.8983C22.0874 28.1286 22.5396 28.2499 23 28.2499C23.4604 28.2499 23.9127 28.1286 24.3113 27.8983C24.7099 27.6679 25.0408 27.3366 25.2706 26.9377C25.501 26.5387 25.6223 26.086 25.6223 25.6252C25.6223 25.1644 25.501 24.7118 25.2706 24.3127C25.0408 23.9138 24.7099 23.5825 24.3113 23.3521C23.9127 23.1218 23.4604 23.0005 23 23.0005C22.5396 23.0005 22.0874 23.1218 21.6887 23.3521C21.2901 23.5825 20.9592 23.9138 20.7294 24.3127C20.5007 24.7126 20.3787 25.1646 20.375 25.6252Z" fill="white"/>
<path d="M20.375 25.625C20.3787 26.0856 20.5007 26.5376 20.7294 26.9375C20.9592 27.3364 21.2901 27.6677 21.6887 27.8981C22.0873 28.1284 22.5396 28.2497 23 28.2497C23.4604 28.2497 23.9127 28.1284 24.3113 27.8981C24.7099 27.6677 25.0408 27.3364 25.2706 26.9375C25.501 26.5385 25.6223 26.0858 25.6223 25.625C25.6223 25.1642 25.501 24.7115 25.2706 24.3125C25.0408 23.9136 24.7099 23.5823 24.3113 23.3519C23.9127 23.1216 23.4604 23.0003 23 23.0003C22.5396 23.0003 22.0873 23.1216 21.6887 23.3519C21.2901 23.5823 20.9592 23.9136 20.7294 24.3125C20.5007 24.7124 20.3787 25.1644 20.375 25.625ZM20.8125 3.75C22.0886 3.75081 23.3122 4.2581 24.2146 5.16044C25.1169 6.06279 25.6242 7.28639 25.625 8.5625C25.5785 9.46981 25.3618 10.3603 24.9862 11.1875C24.8725 11.4763 24.7412 11.7694 24.6012 12.0625C23.626 14.0036 22.4733 15.8504 21.1581 17.5794C21.1175 17.6324 21.0652 17.6755 21.0052 17.705C20.9453 17.7346 20.8793 17.75 20.8125 17.75C20.7457 17.75 20.6797 17.7346 20.6198 17.705C20.5598 17.6755 20.5075 17.6324 20.4669 17.5794C19.1517 15.8504 17.999 14.0036 17.0238 12.0625C16.8837 11.7694 16.7525 11.4763 16.6388 11.1875C16.2632 10.3603 16.0465 9.46981 16 8.5625C16.0008 7.28639 16.5081 6.06279 17.4104 5.16044C18.3128 4.2581 19.5364 3.75081 20.8125 3.75ZM20.8125 10.3125C21.1586 10.3125 21.497 10.2099 21.7847 10.0176C22.0725 9.82528 22.2968 9.55197 22.4293 9.2322C22.5617 8.91243 22.5964 8.56056 22.5289 8.22109C22.4614 7.88163 22.2947 7.5698 22.0499 7.32506C21.8052 7.08032 21.4934 6.91365 21.1539 6.84613C20.8144 6.7786 20.4626 6.81326 20.1428 6.94571C19.823 7.07816 19.5497 7.30247 19.3574 7.59025C19.1651 7.87804 19.0625 8.21638 19.0625 8.5625C19.0624 8.79233 19.1077 9.01992 19.1956 9.23226C19.2835 9.44461 19.4124 9.63755 19.5749 9.80007C19.7374 9.96258 19.9304 10.0915 20.1427 10.1794C20.3551 10.2673 20.5827 10.3126 20.8125 10.3125Z" fill="white"/>
<path d="M20.8125 3.75C22.0886 3.75081 23.3122 4.2581 24.2146 5.16044C25.1169 6.06279 25.6242 7.28639 25.625 8.5625C25.5785 9.46981 25.3618 10.3603 24.9862 11.1875C24.8725 11.4763 24.7412 11.7694 24.6012 12.0625C23.626 14.0036 22.4733 15.8504 21.1581 17.5794C21.1175 17.6324 21.0652 17.6755 21.0052 17.705C20.9453 17.7346 20.8793 17.75 20.8125 17.75C20.7457 17.75 20.6797 17.7346 20.6198 17.705C20.5598 17.6755 20.5075 17.6324 20.4669 17.5794C19.1517 15.8504 17.999 14.0036 17.0238 12.0625C16.8837 11.7694 16.7525 11.4763 16.6388 11.1875C16.2632 10.3603 16.0465 9.46981 16 8.5625C16.0008 7.28639 16.5081 6.06279 17.4104 5.16044C18.3128 4.2581 19.5364 3.75081 20.8125 3.75ZM20.8125 10.3125C21.1586 10.3125 21.497 10.2099 21.7847 10.0176C22.0725 9.82528 22.2968 9.55197 22.4293 9.2322C22.5617 8.91243 22.5964 8.56056 22.5289 8.22109C22.4614 7.88163 22.2947 7.5698 22.0499 7.32506C21.8052 7.08032 21.4934 6.91365 21.1539 6.84613C20.8144 6.7786 20.4626 6.81326 20.1428 6.94571C19.823 7.07816 19.5497 7.30247 19.3574 7.59025C19.1651 7.87804 19.0625 8.21638 19.0625 8.5625C19.0624 8.79233 19.1077 9.01992 19.1956 9.23226C19.2835 9.44461 19.4124 9.63755 19.5749 9.80007C19.7374 9.96258 19.9304 10.0915 20.1427 10.1794C20.3551 10.2673 20.5827 10.3126 20.8125 10.3125Z" fill="white"/>
<path d="M20.8125 9.4375C20.3293 9.4375 19.9375 9.04575 19.9375 8.5625C19.9375 8.07925 20.3293 7.6875 20.8125 7.6875C21.2957 7.6875 21.6875 8.07925 21.6875 8.5625C21.6875 9.04575 21.2957 9.4375 20.8125 9.4375Z" fill="white"/>
</svg>
