<svg width="46" height="46" viewBox="0 0 46 46" fill="none" xmlns="http://www.w3.org/2000/svg">
<g clip-path="url(#clip0_6697_3573)">
<path d="M14.9336 31.6602C14.5935 31.456 14.2234 31.3545 13.8208 31.3545C13.4868 31.3545 13.1779 31.4265 12.8907 31.5717C12.6059 31.7192 12.3848 31.9081 12.2358 32.1418H12.1889V31.456H11.0353V38.0008H12.2526V35.6083H12.3007C12.4449 35.8184 12.6552 35.9896 12.9316 36.1229C13.208 36.2563 13.5036 36.3212 13.8196 36.3212C14.2222 36.3212 14.5923 36.2197 14.9324 36.0155C15.2725 35.8125 15.5429 35.5233 15.7435 35.1456C15.9454 34.7679 16.0464 34.3324 16.0464 33.8379C16.0464 33.3433 15.9454 32.916 15.7435 32.536C15.5429 32.1547 15.2725 31.862 14.9324 31.6602M14.6368 34.6062C14.5334 34.8234 14.3844 34.9875 14.1897 35.1032C13.9939 35.2165 13.7716 35.2743 13.518 35.2743C13.2644 35.2743 13.0361 35.2165 12.845 35.0996C12.6528 34.9804 12.5074 34.8152 12.4064 34.6027C12.3055 34.3902 12.255 34.1341 12.255 33.8379C12.255 33.5416 12.3055 33.2937 12.4064 33.0789C12.5074 32.8617 12.6528 32.6977 12.845 32.582C13.0373 32.4663 13.262 32.4109 13.518 32.4109C13.774 32.4109 13.9939 32.4663 14.1897 32.5773C14.3844 32.6882 14.5334 32.8511 14.6368 33.0683C14.7401 33.2843 14.793 33.5416 14.793 33.8379C14.793 34.1341 14.7401 34.3902 14.6368 34.6062Z" fill="white"/>
<path d="M20.0107 34.1542H19.9627L18.3692 31.4561H16.9908V36.2198H18.1986V33.0967H18.2454L19.5865 35.3204H20.3796L21.7183 33.0967H21.7652V36.2198H22.9645V31.4561H21.6234L20.0107 34.1542Z" fill="white"/>
<path d="M25.4544 34.7279H25.4076V31.4561H24.201V36.2198H25.6527L27.6535 32.9574H27.7016V36.2198H28.9093V31.4561H27.4553L25.4544 34.7279Z" fill="white"/>
<path d="M33.4674 33.0093L31.3536 33.6408V31.4561H30.135V36.2198H31.3536V34.5024L33.4674 34.1224V36.2198H34.6752V31.4561H33.4674V33.0093Z" fill="white"/>
<path d="M39.1996 31.5988C38.8764 31.4359 38.481 31.3545 38.0135 31.3545C37.611 31.3545 37.2505 31.4206 36.9296 31.5528C36.6088 31.685 36.3528 31.875 36.1605 32.1193C35.9682 32.3637 35.8577 32.6481 35.8252 32.9751H37.0606C37.1051 32.7779 37.212 32.6233 37.3826 32.5124C37.5521 32.4014 37.7624 32.346 38.0135 32.346C38.3116 32.346 38.5435 32.4191 38.7141 32.5679C38.8836 32.7166 38.9689 32.9349 38.9689 33.2253V33.3929H37.4499C37.0654 33.3929 36.7361 33.4543 36.4633 33.577C36.1906 33.7021 35.9803 33.8709 35.8361 34.0881C35.6906 34.3041 35.6198 34.5555 35.6198 34.8388C35.6198 35.122 35.6931 35.3687 35.8409 35.5942C35.9887 35.8208 36.193 35.9978 36.4501 36.1265C36.7085 36.2575 37.0005 36.3212 37.3274 36.3212C37.6795 36.3212 38.0087 36.2481 38.3128 36.0982C38.618 35.9506 38.8427 35.7582 38.9881 35.5233H39.035V36.2185H40.1862V33.2985C40.1862 32.9113 40.1033 32.5714 39.9375 32.2799C39.7692 31.9895 39.5253 31.7629 39.2008 31.5988M38.8079 34.7314C38.7009 34.9202 38.5483 35.0677 38.3512 35.1728C38.1529 35.2778 37.9306 35.3298 37.6855 35.3298C37.4139 35.3298 37.212 35.2778 37.0762 35.1763C36.9404 35.0748 36.8743 34.9403 36.8743 34.7727C36.8743 34.6051 36.9392 34.4729 37.069 34.3749C37.1964 34.2758 37.3911 34.2262 37.6494 34.2262H38.9641C38.9461 34.4115 38.8956 34.5803 38.8079 34.7314Z" fill="white"/>
<path d="M42.1005 31.4561L41.8926 34.4599C41.8746 34.7326 41.8073 34.9273 41.6943 35.0477C41.5838 35.1669 41.4155 35.2283 41.1944 35.2283H41.1379V36.3414H41.3927C41.7592 36.3414 42.0584 36.28 42.2952 36.1608C42.5295 36.0392 42.7074 35.8492 42.8275 35.5848C42.9465 35.3227 43.0234 34.9746 43.0547 34.5437L43.1941 32.5136H44.7923V36.221H46V31.4561H42.1017H42.1005Z" fill="white"/>
<path d="M8.82895 31.6685C8.4444 31.4595 8.01419 31.3545 7.53591 31.3545C7.05764 31.3545 6.62142 31.4619 6.22966 31.6779C5.8355 31.8939 5.52306 32.1925 5.29474 32.5714C5.06401 32.9526 4.95105 33.374 4.95105 33.8367C4.95105 34.2994 5.06401 34.7207 5.29474 35.0984C5.52306 35.4738 5.8343 35.7724 6.22966 35.9919C6.62262 36.2103 7.05764 36.3201 7.53591 36.3201C7.9505 36.3201 8.32663 36.2469 8.66311 36.097C9.00079 35.9506 9.27958 35.7488 9.5031 35.4986C9.72782 35.2483 9.88524 34.9721 9.98018 34.67H8.7256C8.61264 34.8742 8.45642 35.0276 8.25814 35.1327C8.05986 35.2377 7.82192 35.2896 7.54432 35.2896C7.26673 35.2896 7.03721 35.2318 6.83292 35.115C6.62863 34.9981 6.4712 34.827 6.36185 34.6039C6.30056 34.4823 6.2585 34.3501 6.23207 34.2061H10.0835V33.9358C10.0835 33.4177 9.97056 32.9621 9.74344 32.569C9.51632 32.1772 9.21349 31.875 8.82895 31.6649M6.2561 33.3551C6.28254 33.256 6.31618 33.1627 6.36185 33.073C6.4712 32.8547 6.62863 32.6835 6.83292 32.5643C7.03721 32.4427 7.27635 32.3837 7.54432 32.3837C7.78467 32.3837 7.99977 32.4333 8.19204 32.5372C8.38432 32.6387 8.54054 32.7815 8.6595 32.968C8.73641 33.0848 8.79289 33.2147 8.82895 33.3551H6.2561Z" fill="white"/>
<path d="M0 32.8756L1.64638 32.6525V36.2194H2.85051V32.4884L4.49809 32.2654V31.0732L0 32.021V32.8756Z" fill="white"/>
<path d="M14.4125 20.3009L18.6161 19.2148V25.6723H14.4125V20.3009Z" fill="white"/>
<path d="M31.4673 9V13.1551L14.4125 19.0972V9H31.4673Z" fill="white"/>
<path d="M20.658 18.6917L31.4674 15.9268V25.6717H20.658V18.6917Z" fill="white"/>
</g>
<defs>
<clipPath id="clip0_6697_3573">
<rect width="46" height="29" fill="white" transform="translate(0 9)"/>
</clipPath>
</defs>
</svg>
