<svg width="191" height="32" viewBox="0 0 191 32" fill="none" xmlns="http://www.w3.org/2000/svg">
<path d="M93.5676 12.7833C92.9509 11.5775 92.1156 10.6544 91.0682 10.017C90.0208 9.36977 88.8821 9.05109 87.6389 9.05109C86.6111 9.05109 85.6583 9.27778 84.7708 9.73444C83.8931 10.1977 83.2111 10.7956 82.7511 11.5348H82.6075V9.36977H79.0542V30.0414H82.8065V22.485H82.9566C83.4004 23.1486 84.0464 23.6907 84.9013 24.1113C85.7562 24.5318 86.6665 24.7388 87.6389 24.7388C88.8788 24.7388 90.0208 24.4201 91.0682 23.7729C92.1156 23.1322 92.9509 22.2156 93.5676 21.023C94.1908 19.8304 94.5008 18.4571 94.5008 16.8933C94.5008 15.3294 94.1875 13.9824 93.5676 12.7833ZM90.1546 19.3212C89.8381 20.0045 89.3748 20.5269 88.7776 20.8916C88.174 21.2497 87.4888 21.4304 86.709 21.4304C85.9291 21.4304 85.2243 21.2497 84.6338 20.8784C84.0432 20.5006 83.5929 19.9815 83.2829 19.308C82.9697 18.6378 82.8163 17.8263 82.8163 16.8933C82.8163 15.9602 82.9729 15.175 83.2829 14.495C83.5962 13.8116 84.0432 13.2892 84.6338 12.9278C85.2243 12.5632 85.9161 12.389 86.709 12.389C87.5018 12.389 88.174 12.5632 88.7776 12.9147C89.3748 13.2662 89.8381 13.782 90.1546 14.4654C90.4711 15.1487 90.6342 15.9602 90.6342 16.8933C90.6342 17.8263 90.4711 18.6378 90.1546 19.3212Z" fill="white"/>
<path d="M111.68 9.36969L106.714 17.8887H106.564L101.653 9.36969H97.408V24.4167H101.128V14.5507H101.271L105.402 21.5749H107.846L111.974 14.5507H112.114V24.4167H115.811V9.36969H111.68Z" fill="white"/>
<path d="M129.645 9.36969L123.482 19.7022H123.338V9.36969H119.618V24.4167H124.092L130.255 14.1138H130.406V24.4167H134.129V9.36969H129.645Z" fill="white"/>
<path d="M168.099 11.9713C167.58 11.0547 166.826 10.3385 165.831 9.81937C164.833 9.30356 163.619 9.0473 162.18 9.0473C160.94 9.0473 159.831 9.25428 158.839 9.67481C157.847 10.0953 157.064 10.69 156.47 11.4621C155.876 12.2341 155.537 13.131 155.435 14.1659H159.243C159.38 13.545 159.71 13.0555 160.235 12.7039C160.757 12.3524 161.407 12.1783 162.18 12.1783C163.097 12.1783 163.811 12.4115 164.337 12.8813C164.859 13.3511 165.123 14.0411 165.123 14.9577V15.4866H160.444C159.26 15.4866 158.245 15.6805 157.403 16.0714C156.561 16.4657 155.912 17.0012 155.471 17.6846C155.021 18.3679 154.806 19.1597 154.806 20.0566C154.806 20.9535 155.031 21.7321 155.484 22.4418C155.941 23.158 156.568 23.7165 157.361 24.1239C158.16 24.5379 159.057 24.7383 160.065 24.7383C161.149 24.7383 162.167 24.505 163.1 24.0352C164.04 23.572 164.731 22.9609 165.182 22.2217H165.325V24.4163H168.872V15.191C168.872 13.9688 168.618 12.8945 168.105 11.9713M164.62 19.7149C164.291 20.3096 163.821 20.7761 163.211 21.1079C162.601 21.4397 161.916 21.604 161.162 21.604C160.326 21.604 159.703 21.4397 159.286 21.1211C158.868 20.8024 158.662 20.3753 158.662 19.8463C158.662 19.3174 158.861 18.9001 159.26 18.5913C159.651 18.2759 160.251 18.1215 161.048 18.1215H165.097C165.041 18.7063 164.885 19.2385 164.617 19.7149" fill="white"/>
<path d="M174.768 9.36969L174.125 18.8579C174.07 19.7186 173.864 20.333 173.515 20.7141C173.172 21.0919 172.654 21.2858 171.975 21.2858H171.799V24.8011H172.585C173.714 24.8011 174.634 24.6073 175.365 24.2295C176.09 23.8451 176.638 23.2438 177.003 22.4094C177.372 21.5814 177.607 20.4841 177.701 19.1207L178.132 12.7076H183.056V24.4167H186.776V9.36969H174.765H174.768Z" fill="white"/>
<path d="M76.124 17.2115C76.124 15.5721 75.7749 14.1364 75.0766 12.8945C74.3784 11.6592 73.4452 10.7031 72.2608 10.0395C71.0763 9.37913 69.7483 9.0473 68.2768 9.0473C66.8052 9.0473 65.4609 9.3857 64.2503 10.0691C63.0365 10.7524 62.0772 11.6953 61.3725 12.8945C60.6611 14.1002 60.312 15.4308 60.312 16.8928C60.312 18.3548 60.6611 19.6854 61.3725 20.8779C62.0772 22.064 63.0365 23.0069 64.2503 23.7034C65.4609 24.3933 66.7987 24.7383 68.2768 24.7383C69.5558 24.7383 70.7141 24.505 71.7485 24.0352C72.7893 23.572 73.6507 22.9379 74.336 22.1461C75.0277 21.3543 75.5139 20.4837 75.8075 19.5309H71.9442C71.5951 20.1782 71.1155 20.6611 70.5053 20.9929C69.8952 21.3248 69.1577 21.489 68.3061 21.489C67.4545 21.489 66.7432 21.3083 66.1134 20.9371C65.4837 20.5658 64.9975 20.027 64.6615 19.324C64.4755 18.9396 64.345 18.519 64.2634 18.0689H76.1306V17.2147L76.124 17.2115ZM64.3352 15.3684C64.4167 15.0563 64.5212 14.7606 64.6582 14.478C64.9943 13.7881 65.4804 13.2493 66.1102 12.8715C66.7399 12.4871 67.4741 12.2998 68.3029 12.2998C69.0435 12.2998 69.7059 12.4575 70.2965 12.7828C70.8871 13.1015 71.3667 13.5548 71.7354 14.1429C71.9736 14.5142 72.1465 14.9216 72.2608 15.3651H64.3352V15.3684Z" fill="white"/>
<path d="M58.9156 8.16327L45.0613 11.1562V13.8535L50.1351 13.1472V24.416H53.8417V12.6314L58.9156 11.925V8.16327Z" fill="white"/>
<path d="M148.169 9.36969V14.3832L141.656 16.2328V9.36969H137.904V24.4134H141.656V19.1831L148.169 17.9839V24.4134H151.889V9.36969H148.169Z" fill="white"/>
<path d="M0 21.6817L7.83674 19.5919V32H0V21.6817Z" fill="white"/>
<path d="M32 0V8.06413L0 19.5918V0H32Z" fill="white"/>
<path d="M11.7551 18.6698L32 13.3878V32H11.7551V18.6698Z" fill="white"/>
</svg>
