<svg width="140" height="144" viewBox="0 0 140 144" fill="none" xmlns="http://www.w3.org/2000/svg">
<path fill-rule="evenodd" clip-rule="evenodd" d="M70.3975 26.9762C98.364 26.9762 121.123 49.8765 121.123 78.0167C121.123 106.157 98.364 129.057 70.3975 129.057C42.4311 129.057 19.6723 106.157 19.6723 78.0167C19.6723 49.6824 42.4311 26.9762 70.3975 26.9762ZM70.3975 28.1406C97.7853 28.1406 119.773 50.4587 119.773 77.8227C119.773 105.381 97.5925 127.505 70.3975 127.505C43.0098 127.505 21.0224 105.187 21.0224 77.8227C21.0224 50.4587 43.2026 28.1406 70.3975 28.1406Z" fill="white"/>
<path fill-rule="evenodd" clip-rule="evenodd" d="M70.5918 129.057C98.5582 129.057 121.317 106.35 121.317 78.21C121.317 76.4634 121.317 74.7168 121.124 72.9701H119.774C119.967 74.7168 119.967 76.4634 119.967 78.21C119.967 105.574 97.7867 127.698 70.5918 127.698C43.204 127.698 21.2166 105.574 21.2166 78.21C21.2166 76.4634 21.2166 74.7168 21.4095 72.9701H20.0594C19.8665 74.7168 19.8665 76.4634 19.8665 78.21C19.8665 106.156 42.6254 129.057 70.5918 129.057Z" fill="white"/>
<path fill-rule="evenodd" clip-rule="evenodd" d="M29.7041 30.858C27.9682 32.4106 25.268 32.2165 23.7251 30.4699C22.1821 28.7232 22.375 26.0062 24.3037 24.4537C26.0395 22.9011 28.7397 23.0952 30.2827 24.8418C31.8257 26.5884 31.4399 29.3054 29.7041 30.858ZM29.1259 30.2747C27.7758 31.4391 25.4613 31.245 24.3041 29.8866C23.1469 28.5281 23.3397 26.1992 24.6898 25.0348C26.0399 23.8704 28.3544 24.0644 29.5116 25.4229C30.8617 26.9755 30.476 29.1103 29.1259 30.2747Z" fill="white"/>
<path fill-rule="evenodd" clip-rule="evenodd" d="M19.6752 19.0186C14.8534 23.0941 14.0819 30.2747 18.1322 35.1265C22.1825 39.9782 29.5116 40.3664 34.1406 36.2909C38.9624 32.2154 39.7338 25.0348 35.6835 20.183C31.6332 15.5253 24.497 14.9431 19.6752 19.0186ZM20.2534 19.796C16.0102 23.4833 15.2387 30.0817 18.9033 34.5453C22.5678 39.009 29.1255 39.3971 33.5615 35.7098C37.8047 32.0224 38.5762 25.424 34.9116 20.9604C31.2471 16.4968 24.6894 16.1086 20.2534 19.796Z" fill="white"/>
<path fill-rule="evenodd" clip-rule="evenodd" d="M124.98 47.7405C123.823 45.6057 124.402 42.8887 126.523 41.7243C128.645 40.5599 131.152 41.3361 132.309 43.2769C133.467 45.4116 132.888 48.1286 130.766 49.293C128.838 50.6515 126.137 49.8753 124.98 47.7405ZM125.749 47.1597C124.785 45.6072 125.363 43.4724 126.906 42.502C128.642 41.5317 130.571 42.1139 131.535 43.8605C132.499 45.4131 131.921 47.5479 130.378 48.5182C128.835 49.4886 126.713 48.7123 125.749 47.1597Z" fill="white"/>
<path fill-rule="evenodd" clip-rule="evenodd" d="M138.478 39.7851C135.393 34.5452 128.449 32.4104 123.049 35.5155C117.455 38.6206 115.912 45.8012 118.998 51.0412C122.084 56.2811 129.028 58.4158 134.428 55.3107C139.829 52.2056 141.564 45.219 138.478 39.7851ZM137.71 40.3658C134.817 35.32 128.452 33.3793 123.437 36.2903C118.423 39.2014 116.88 45.6057 119.773 50.6515C122.666 55.6974 129.031 57.6381 134.045 54.727C139.06 51.816 140.603 45.4116 137.71 40.3658Z" fill="white"/>
<path d="M109.553 29.1099L108.589 28.3336L110.132 27.3632L109.553 29.1099Z" fill="white"/>
<path fill-rule="evenodd" clip-rule="evenodd" d="M118.231 14.7486L103.765 23.2877L101.836 21.7352L95.4717 30.0802L101.644 35.126L103.379 32.7972L107.044 35.3201L105.115 37.843L111.287 42.8889L117.845 33.9616L115.916 32.6031L120.159 16.1071L118.231 14.7486ZM118.039 15.719L103.574 24.2581L102.224 22.8996L97.0164 29.8861L101.838 33.7676L103.574 31.4387L108.396 35.1261L106.467 37.649L111.096 41.3363L116.689 33.9616L115.146 32.7972L119.197 16.4953L118.039 15.719Z" fill="white"/>
<path fill-rule="evenodd" clip-rule="evenodd" d="M97.2105 19.7956L99.1393 13.7794L100.875 14.3616L101.647 6.40469L88.917 2.32921L82.1665 22.9007L95.2818 27.1703L100.104 20.7659L97.2105 19.7956ZM93.3487 11.8387L93.5416 11.0624L100.099 13.1972L100.678 6.98693L89.4913 3.29958L83.3194 22.3185L94.8917 26.1999L98.7491 21.1541L91.0343 18.6312L91.42 17.2727L96.4347 19.0193L98.3634 13.3913L93.3487 11.8387Z" fill="white"/>
<path fill-rule="evenodd" clip-rule="evenodd" d="M69.2394 7.9569L71.1681 7.76283L71.361 21.7359H79.2687L79.0758 0L61.1388 0.388141L61.5245 21.7359H69.4323L69.2394 7.9569ZM68.2797 6.98656H71.9442L72.33 20.9597H78.5019L78.1161 0.970374L61.9149 1.16445L62.3006 20.9597H68.4725L68.2797 6.98656Z" fill="white"/>
<path d="M47.4449 13.1976L46.8663 11.2569C47.4449 11.0629 48.0236 11.0629 48.4093 11.8391C48.6022 12.6154 48.0236 13.0036 47.4449 13.1976Z" fill="white"/>
<path fill-rule="evenodd" clip-rule="evenodd" d="M52.0737 24.8402L50.3379 19.4062C54.1953 17.6596 56.5098 13.9722 55.1597 9.70266C53.4238 4.65682 48.602 3.4924 43.9731 5.04497C42.623 5.43311 41.2729 5.82125 39.9228 6.40346L37.9941 7.17974L44.7446 27.9453L52.0737 24.8402ZM50.9166 24.2597L49.1808 18.8257C53.2311 17.4672 55.5456 13.9739 54.0026 9.70437C52.4596 5.04667 48.2164 4.27039 43.9732 5.62888C43.2982 5.82296 42.6714 6.06554 42.0445 6.30813C41.4177 6.55072 40.7909 6.79331 40.1158 6.98738L38.9586 7.37552L45.1305 26.5885L50.9166 24.2597Z" fill="white"/>
<path fill-rule="evenodd" clip-rule="evenodd" d="M24.4947 47.9355L12.9224 40.7549L15.2369 37.0675L8.67923 32.992L0 47.3533L6.55764 51.4288L8.8721 47.5473L21.023 55.1161L24.4947 47.9355ZM23.3398 48.1299L11.7675 40.9493L13.8891 37.456L8.87447 34.3509L1.15959 46.9655L6.17426 50.0706L8.48872 46.3833L20.6396 53.7579L23.3398 48.1299Z" fill="white"/>
<path d="M124.017 37.456C119.774 39.9789 118.231 45.607 120.931 50.0706C123.438 54.5342 129.031 56.0868 133.275 53.5639C137.518 51.041 139.061 45.4129 136.361 40.9493C133.853 36.4857 128.453 34.9331 124.017 37.456ZM125.946 40.5612C128.646 39.0086 132.117 39.9789 133.66 42.6959C135.203 45.4129 134.239 48.9062 131.732 50.4588C129.031 52.0113 125.56 51.041 124.017 48.324C122.281 45.607 123.245 42.1137 125.946 40.5612Z" fill="white"/>
<path d="M103.574 25.811L102.224 24.8407L98.559 29.6924L101.259 31.8272L102.995 29.4983L110.131 34.9323L108.203 37.4552L110.903 39.59L114.76 34.3501L113.41 33.3798L117.46 17.66L103.574 25.811ZM106.274 28.1399L112.446 24.2584L110.324 31.4391L106.274 28.1399Z" fill="white"/>
<path d="M90.2654 5.0454L85.0579 21.5414L94.3158 24.6465L96.4373 21.9295L89.3011 19.6007L90.6512 15.7193L95.6658 17.2718L96.6302 14.3608L91.6155 12.6142L92.5799 9.31495L98.9447 11.4497L99.3304 7.95646L90.2654 5.0454Z" fill="white"/>
<path d="M67.1203 19.6013L66.9274 5.6282H73.2922L73.485 19.6013H77.1496L76.7639 2.329L63.2628 2.52307L63.6486 19.6013H67.1203Z" fill="white"/>
<path d="M46.0955 25.0354L49.3743 23.6769L47.6385 18.0489C48.0242 18.0489 48.2171 17.8548 48.6028 17.8548C52.6531 16.4963 54.0032 13.3912 53.0389 10.4801C52.4603 8.34533 50.1458 5.43427 44.7454 7.1809C43.5882 7.56904 41.6594 8.15126 40.8879 8.5394L46.0955 25.0354ZM45.1311 10.286L46.0955 9.89789C48.2171 9.12161 49.1814 10.4801 49.5672 11.2564C49.9529 12.2267 49.7601 13.7793 47.4456 14.5556C47.2527 14.5556 46.867 14.7497 46.4812 14.7497L45.1311 10.286Z" fill="white"/>
<path d="M22.5645 31.4392C20.6358 29.1103 21.0216 25.423 23.336 23.4823C25.6505 21.5415 29.315 21.7356 31.2438 24.0645C33.1725 26.3933 32.7867 30.0807 30.4723 32.0214C28.1578 33.9621 24.6861 33.768 22.5645 31.4392ZM19.8643 33.5739C23.1432 37.4553 28.7364 37.8435 32.7867 34.5443C36.6442 31.2451 37.2228 25.423 34.1368 21.7356C30.858 17.8542 25.0719 17.4661 21.2144 20.7653C17.357 24.0645 16.5855 29.8866 19.8643 33.5739Z" fill="white"/>
<path d="M9.83781 41.5307L12.1523 37.8433L9.25919 36.0967L3.08729 46.5765L5.7875 48.3231L8.10196 44.4417L20.06 51.8164L21.603 48.7113L9.83781 41.5307Z" fill="white"/>
<path d="M10.6065 103.633L6.74902 103.245L5.59179 101.111L10.2207 101.693L12.3423 97.6173L13.4995 99.7521L11.5708 103.051L14.4639 101.499L15.4283 103.245L12.3423 104.992L16.3926 105.186L17.357 107.127L12.9209 106.739L10.7993 111.008L9.6421 108.679L11.5708 105.38L8.67774 106.933L7.71338 105.186L10.6065 103.633Z" fill="white"/>
<path d="M21.0225 111.979L17.165 115.084L22.7583 114.114L24.1084 115.861L18.1294 120.712L16.7793 119.16L20.6367 116.055L15.0434 116.831L13.8862 115.278L19.6724 110.427L21.0225 111.979Z" fill="white"/>
<path d="M32.403 123.428L27.3883 129.251L25.8454 127.892L29.7028 123.234L28.1598 122.07L26.424 124.205C26.0382 124.787 25.0739 125.563 24.1095 125.757C23.5309 125.757 22.9523 125.563 22.3737 125.175C21.9879 124.981 21.7951 124.593 21.7951 124.399L22.9523 123.04C22.9523 123.234 23.1452 123.234 23.1452 123.428C23.338 123.623 23.5309 123.623 23.7238 123.623C23.9167 123.623 24.3024 123.623 24.881 122.846L27.5812 119.547L32.403 123.428Z" fill="white"/>
<path d="M38.7681 135.461C37.8038 135.655 36.6466 135.461 35.6822 134.879C34.7178 134.297 33.9463 133.327 33.5606 132.356C33.1749 131.192 33.3677 130.221 33.9463 129.251C34.525 128.281 35.2965 127.504 36.4537 127.31C37.418 127.116 38.5753 127.31 39.5396 127.893C40.504 128.475 41.2755 129.445 41.6612 130.415C42.047 131.386 41.8541 132.55 41.2755 133.521C40.6969 134.297 39.7325 135.073 38.7681 135.461ZM36.8394 129.251C36.2608 129.445 35.8751 129.833 35.4893 130.221C35.1036 130.804 35.2964 131.386 35.2964 131.774C35.4893 132.356 35.6822 132.744 36.2608 133.132C36.8394 133.521 37.418 133.521 37.9967 133.327C38.5753 133.132 38.961 132.938 39.3468 132.356C39.5396 131.774 39.7325 131.192 39.5396 130.804C39.3468 130.221 38.961 129.833 38.5753 129.445C37.9967 129.251 37.418 129.057 36.8394 129.251Z" fill="white"/>
<path d="M48.7982 132.356L47.2553 137.014L51.4985 133.327L53.4272 133.909L50.9198 141.283L48.9911 140.701L50.5341 136.044L46.4838 139.731L44.5551 139.149L47.0624 131.774L48.7982 132.356ZM53.2343 131.58C52.8486 132.162 52.2699 132.356 52.0771 132.356C51.6913 132.356 51.3056 132.356 50.5341 132.162C50.1483 131.968 49.5697 131.774 49.184 131.386C48.9911 131.192 48.6054 130.61 48.6054 130.027H49.9555C49.9555 130.221 49.9555 130.415 50.1483 130.61C50.3412 130.804 50.5341 130.998 50.727 130.998C50.9198 130.998 51.1127 131.192 51.4985 130.998C51.6913 130.998 51.8842 130.804 52.0771 130.61L53.2343 131.58Z" fill="white"/>
<path d="M65.5773 139.342L68.2775 136.237L70.592 136.431L67.3131 139.73L70.3991 144H67.8918L65.3844 140.507V143.806H63.2628L63.6486 136.043H65.7702L65.5773 139.342Z" fill="white"/>
<path d="M81.7758 142.254C81.0043 143.03 80.04 143.612 78.8828 143.612C77.7255 143.806 76.5683 143.418 75.7968 142.836C74.8324 142.06 74.4467 141.089 74.2538 140.119C74.061 139.149 74.4467 137.984 75.2182 137.208C75.9897 136.432 76.954 135.849 78.1113 135.655C79.2685 135.461 80.4257 135.849 81.1972 136.432C82.1616 137.208 82.5473 138.178 82.7402 139.149C82.7402 140.119 82.3544 141.283 81.7758 142.254ZM76.7612 138.372C76.3754 138.761 76.1825 139.343 76.3754 139.925C76.3754 140.701 76.7612 141.089 77.1469 141.283C77.5326 141.672 78.1113 141.866 78.6899 141.672C79.4614 141.672 79.8471 141.283 80.2328 140.895C80.6186 140.507 80.8115 139.925 80.6186 139.343C80.6186 138.761 80.2329 138.178 79.8471 137.984C79.4614 137.596 78.8828 137.402 78.3041 137.596C77.5326 137.596 76.954 137.984 76.7612 138.372Z" fill="white"/>
<path d="M88.3345 141.866L87.1773 134.103L89.106 133.521L91.8062 136.82L91.9991 132.551L93.9278 131.774L97.3995 138.761L95.6636 139.343L93.7349 135.462L93.3492 140.119L92.5777 140.507L89.4918 136.82L90.2632 141.284L88.3345 141.866Z" fill="white"/>
<path d="M106.657 133.909L103.764 128.669L101.257 130.027L104.343 135.267L102.607 136.238L98.7494 129.639L104.536 126.146L108.393 132.938L106.657 133.909Z" fill="white"/>
<path d="M113.408 119.353L118.423 125.176L116.88 126.534L113.023 121.876L111.48 123.041L113.216 125.176C113.601 125.758 114.373 126.728 114.373 127.698C114.373 128.281 113.987 128.863 113.408 129.445C113.023 129.639 112.83 129.833 112.637 130.027L111.48 128.669C111.673 128.669 111.673 128.475 111.865 128.475C112.058 128.281 112.251 128.087 112.251 127.893C112.251 127.698 112.251 127.31 111.673 126.534L108.972 123.235L113.408 119.353Z" fill="white"/>
<path d="M120.738 113.725L119.195 115.666L120.159 116.442L121.702 114.696L122.859 115.86L121.509 117.607L122.474 118.383L124.017 116.636L125.367 117.801L122.474 121.1L116.687 115.86L119.58 112.561L120.738 113.725Z" fill="white"/>
<path d="M125.753 109.262L124.403 105.38L125.753 103.439L127.103 107.903L132.311 107.127L130.961 109.456L126.718 109.844L129.611 111.59L128.646 113.337L122.089 109.262L123.053 107.515L125.753 109.262Z" fill="white"/>
<path d="M136.361 98.0053C136.361 98.7815 136.168 99.3638 135.975 99.7519C135.397 100.916 134.625 101.693 133.854 102.081C132.889 102.469 131.732 102.469 130.768 102.081C129.803 101.693 129.032 100.916 128.646 99.946C128.26 98.9756 128.26 98.0053 128.646 96.8408C128.839 96.4527 129.032 95.8705 129.611 95.2883L131.732 96.2586C130.768 96.4527 130.382 97.229 130.189 97.6171C129.996 98.1993 129.996 98.5875 130.189 99.1697C130.382 99.7519 130.961 100.14 131.346 100.334C131.925 100.528 132.504 100.528 132.889 100.334C133.275 100.14 133.661 99.7519 133.854 99.1697C134.047 98.9756 134.239 98.1993 133.854 97.229L136.361 98.0053Z" fill="white"/>
<path d="M79.8473 121.488V79.5692H61.1387V121.488C61.1387 121.877 60.753 122.265 60.3672 122.265C59.9815 122.265 59.5957 121.877 59.5957 121.488V78.7929C59.5957 78.4047 59.9815 78.0166 60.3672 78.0166H80.6187C81.0045 78.0166 81.3902 78.4047 81.3902 78.7929V121.488C81.3902 121.877 81.0045 122.265 80.6187 122.265C80.233 122.265 79.8473 121.877 79.8473 121.488ZM72.9039 107.709C72.5181 107.709 72.1324 107.321 72.1324 106.933V102.275C72.1324 101.887 72.5181 101.499 72.9039 101.499H75.9898C76.3756 101.499 76.7613 101.887 76.7613 102.275V106.933C76.7613 107.321 76.3756 107.709 75.9898 107.709H72.9039ZM73.6754 106.157H75.2183V103.052H73.6754V106.157ZM65.189 107.709C64.8033 107.709 64.4175 107.321 64.4175 106.933V102.275C64.4175 101.887 64.8033 101.499 65.189 101.499H68.275C68.6607 101.499 69.0464 101.887 69.0464 102.275V106.933C69.0464 107.321 68.6607 107.709 68.275 107.709H65.189ZM65.9605 106.157H67.5035V103.052H65.9605V106.157ZM72.9039 98.394C72.5181 98.394 72.1324 98.0059 72.1324 97.6178V92.9601C72.1324 92.5719 72.5181 92.1838 72.9039 92.1838H75.9898C76.3756 92.1838 76.7613 92.5719 76.7613 92.9601V97.6178C76.7613 98.0059 76.3756 98.394 75.9898 98.394H72.9039ZM73.6754 96.8415H75.2183V93.7363H73.6754V96.8415ZM65.189 98.394C64.8033 98.394 64.4175 98.0059 64.4175 97.6178V92.9601C64.4175 92.5719 64.8033 92.1838 65.189 92.1838H68.275C68.6607 92.1838 69.0464 92.5719 69.0464 92.9601V97.6178C69.0464 98.0059 68.6607 98.394 68.275 98.394H65.189ZM65.9605 96.8415H67.5035V93.7363H65.9605V96.8415ZM72.9039 88.8846C72.5181 88.8846 72.1324 88.4964 72.1324 88.1083V83.4506C72.1324 83.0624 72.5181 82.6743 72.9039 82.6743H75.9898C76.3756 82.6743 76.7613 83.0624 76.7613 83.4506V88.1083C76.7613 88.4964 76.3756 88.8846 75.9898 88.8846H72.9039ZM73.6754 87.332H75.2183V84.2269H73.6754V87.332ZM65.189 88.8846C64.8033 88.8846 64.4175 88.4964 64.4175 88.1083V83.4506C64.4175 83.0624 64.8033 82.6743 65.189 82.6743H68.275C68.6607 82.6743 69.0464 83.0624 69.0464 83.4506V88.1083C69.0464 88.4964 68.6607 88.8846 68.275 88.8846H65.189ZM65.9605 87.332H67.5035V84.2269H65.9605V87.332Z" fill="white"/>
<path d="M57.2827 87.3318H48.0249C47.6391 87.3318 47.2534 87.7199 47.2534 88.108V103.828C47.2534 104.216 47.6391 104.604 48.0249 104.604C48.4106 104.604 48.7964 104.216 48.7964 103.828V89.0784H57.2827C57.6685 89.0784 58.0542 88.6903 58.0542 88.3021C58.2471 87.7199 57.8613 87.3318 57.2827 87.3318Z" fill="white"/>
<path d="M55.7386 101.499H52.6526C52.2669 101.499 51.8811 101.887 51.8811 102.275V103.828C51.8811 104.216 52.2669 104.604 52.6526 104.604C53.0384 104.604 53.4241 104.216 53.4241 103.828V103.051H54.9671V106.933C54.9671 107.321 55.3528 107.709 55.7386 107.709C56.1243 107.709 56.5101 107.321 56.5101 106.933V102.275C56.5101 101.693 56.3172 101.499 55.7386 101.499Z" fill="white"/>
<path d="M85.25 110.814H88.336C88.7217 110.814 89.1074 111.202 89.1074 111.59V113.725C89.1074 114.113 88.7217 114.501 88.336 114.501C87.9502 114.501 87.5645 114.113 87.5645 113.725V112.367H86.0215V114.695C86.0215 115.083 85.6358 115.472 85.25 115.472C84.8643 115.472 84.4785 115.083 84.4785 114.695V111.59C84.4785 111.202 84.8643 110.814 85.25 110.814Z" fill="white"/>
<path d="M85.25 98.3938H88.336C88.7217 98.3938 89.1074 98.0056 89.1074 97.6175V92.9598C89.1074 92.5717 88.7217 92.1835 88.336 92.1835H85.25C84.8643 92.1835 84.4785 92.5717 84.4785 92.9598V97.6175C84.4785 98.0056 84.8643 98.3938 85.25 98.3938ZM86.0215 93.542H87.5645V96.6471H86.0215V93.542Z" fill="white"/>
<path d="M55.7386 91.9899H52.6526C52.2669 91.9899 51.8811 92.378 51.8811 92.7662V97.4238C51.8811 97.812 52.2669 98.2001 52.6526 98.2001H55.7386C56.1243 98.2001 56.5101 97.812 56.5101 97.4238V92.7662C56.5101 92.378 56.3172 91.9899 55.7386 91.9899ZM54.9671 96.8416H53.4241V93.7365H54.9671V96.8416Z" fill="white"/>
<path d="M87.1778 120.324H85.2491C84.8634 120.324 84.4776 119.936 84.4776 119.547C84.4776 119.159 84.8634 118.771 85.2491 118.771C85.442 118.771 85.6349 118.771 85.6349 118.965C85.8277 119.159 86.0206 119.159 86.4063 118.965C86.5992 118.965 86.7921 118.577 86.7921 118.383C86.985 117.607 87.5636 117.219 88.3351 117.219C89.1065 117.219 89.6852 117.801 89.878 118.383C89.878 118.577 90.0709 118.771 90.2638 118.965C91.421 118.383 92.5782 117.801 93.7355 117.025V88.108C93.7355 87.7199 93.3497 87.3318 92.964 87.3318H83.7061C83.3204 87.3318 82.9346 87.7199 82.9346 88.108C82.9346 88.4962 83.3204 88.8843 83.7061 88.8843H92.1925V117.413C91.9996 117.413 91.6139 117.219 91.421 117.219C91.2281 117.219 91.2281 117.219 91.0353 117.219C90.4567 116.248 89.4923 115.666 88.3351 115.666C87.1778 115.666 86.2135 116.248 85.6349 117.219C85.442 117.219 85.442 117.219 85.2491 117.219C83.899 117.219 82.9346 118.189 82.9346 119.547C82.9346 120.324 83.3204 121.1 83.899 121.488C85.0562 121.1 86.2135 120.712 87.1778 120.324Z" fill="white"/>
<path d="M70.0115 115.666C69.8187 115.861 69.8187 116.055 69.8187 116.249C69.8187 116.443 69.8187 116.637 70.0115 116.831C70.2044 117.025 70.3973 117.025 70.5902 117.025C70.783 117.025 70.9759 117.025 71.1688 116.831C71.3616 116.637 71.3616 116.443 71.3616 116.249C71.3616 116.055 71.3616 115.861 71.1688 115.666C70.783 115.472 70.3973 115.472 70.0115 115.666Z" fill="white"/>
<path d="M62.8777 111.59C62.8777 111.978 63.2635 112.367 63.6492 112.367H65.9637V122.458C65.9637 122.846 66.3494 123.234 66.7352 123.234C67.1209 123.234 67.5067 122.846 67.5067 122.458V112.367H73.6786V122.458C73.6786 122.846 74.0643 123.234 74.45 123.234C74.8358 123.234 75.2215 122.846 75.2215 122.458V112.367H77.536C77.9217 112.367 78.3075 111.978 78.3075 111.59C78.3075 111.202 77.9217 110.814 77.536 110.814H63.6492C63.0706 110.814 62.8777 111.202 62.8777 111.59Z" fill="white"/>
<path d="M84.4785 106.933C84.4785 107.321 84.8643 107.709 85.25 107.709H88.336C88.7217 107.709 89.1074 107.321 89.1074 106.933V102.275C89.1074 101.887 88.7217 101.499 88.336 101.499H85.25C84.8643 101.499 84.4785 101.887 84.4785 102.275V106.933ZM86.0215 103.051H87.5645V106.156H86.0215V103.051Z" fill="white"/>
<path d="M39.9239 100.917C39.9239 101.305 40.3096 101.693 40.6954 101.693H43.7813C44.1671 101.693 44.5528 101.305 44.5528 100.917V96.2592C44.5528 95.871 44.1671 95.4829 43.7813 95.4829H40.6954C40.3096 95.4829 39.9239 95.871 39.9239 96.2592V100.917ZM41.4669 97.0355H43.0099V100.141H41.4669V97.0355Z" fill="white"/>
<path d="M39.9239 110.232C39.9239 110.62 40.3096 111.008 40.6954 111.008H43.7813C44.1671 111.008 44.5528 110.62 44.5528 110.232V105.574C44.5528 105.186 44.1671 104.798 43.7813 104.798H40.6954C40.3096 104.798 39.9239 105.186 39.9239 105.574V110.232ZM41.4669 106.351H43.0099V109.456H41.4669V106.351Z" fill="white"/>
<path d="M40.6954 92.378H43.7813C44.1671 92.378 44.5528 91.9899 44.5528 91.6017V86.944C44.5528 86.5559 44.1671 86.1677 43.7813 86.1677H40.6954C40.3096 86.1677 39.9239 86.5559 39.9239 86.944V91.6017C39.9239 91.9899 40.1168 92.378 40.6954 92.378ZM41.4669 87.7203H43.0099V90.8254H41.4669V87.7203Z" fill="white"/>
<path d="M53.2318 81.898H35.8734C35.4876 81.898 35.1019 82.2861 35.1019 82.6743V106.157C35.6805 106.739 36.0662 107.321 36.6449 108.098V83.4506H52.4604C53.039 83.4506 54.0033 83.4506 54.0033 82.8684V82.6743C54.0033 82.2861 53.6176 81.898 53.2318 81.898Z" fill="white"/>
<path d="M88.3339 81.898H105.692C106.078 81.898 106.464 82.2861 106.464 82.6743V105.769C105.885 106.351 105.499 107.127 104.921 107.709V83.4506H89.1054C88.5268 83.4506 87.5624 83.4506 87.5624 82.8684V82.6743C87.5624 82.2861 87.7553 81.898 88.3339 81.898Z" fill="white"/>
<path d="M27.7726 91.9891C27.5797 91.4069 27.3869 91.0187 27.3869 90.4365H33.3659C33.7516 90.4365 34.1374 90.8247 34.1374 91.2128C34.1374 91.6009 33.7516 91.9891 33.3659 91.9891H27.7726ZM31.8229 96.6468H30.2799V98.3934C29.7013 97.4231 29.3156 96.4527 28.9298 95.4824C29.1227 95.2883 29.3156 95.2883 29.5084 95.2883H32.5944C32.9801 95.2883 33.3659 95.6764 33.3659 96.0646V100.722C33.3659 101.11 32.9801 101.499 32.5944 101.499H32.0158C31.63 100.916 31.4372 100.528 31.0514 99.946H31.8229V96.6468Z" fill="white"/>
<path d="M70.783 73.1643L82.5482 76.2694C82.9339 76.4635 83.1268 76.8516 83.1268 77.2398C82.9339 77.6279 82.5482 77.822 82.1625 77.822L70.3973 74.7168C70.0115 74.5228 69.8187 74.1346 69.8187 73.7465C69.8187 73.1643 70.3973 72.9702 70.783 73.1643Z" fill="white"/>
<path d="M70.4 73.1643L58.6348 76.2694C58.249 76.4635 58.0562 76.8516 58.0562 77.2398C58.249 77.6279 58.6348 77.822 59.0205 77.822L70.7857 74.7168C71.1715 74.5228 71.3643 74.1346 71.3643 73.7465C71.1714 73.1643 70.7857 72.9702 70.4 73.1643Z" fill="white"/>
<path d="M83.899 82.48L94.8927 85.3911C95.2785 85.5851 95.4713 85.9733 95.4713 86.3614C95.2785 86.7496 94.8927 86.9436 94.507 86.9436L83.5133 84.0326C83.1275 83.8385 82.9346 83.4504 82.9346 83.0622C83.1275 82.6741 83.5133 82.48 83.899 82.48Z" fill="white"/>
<path d="M57.2823 82.48L46.2886 85.5851C45.9028 85.7792 45.71 86.1673 45.71 86.5555C45.9028 86.9436 46.2886 87.1377 46.6743 87.1377L57.668 84.2266C58.0538 84.0326 58.2466 83.6444 58.2466 83.2563C58.2466 82.6741 57.668 82.48 57.2823 82.48Z" fill="white"/>
<path d="M33.1747 86.167L26.6171 87.9136C26.8099 88.4958 26.8099 88.8839 27.0028 89.4662L33.5605 87.7195C33.9462 87.5255 34.1391 87.1373 34.1391 86.7492C33.9462 86.361 33.5605 85.9729 33.1747 86.167Z" fill="white"/>
<path d="M45.325 76.6582L34.3314 79.5692C33.9456 79.7633 33.7527 80.1514 33.7527 80.5396C33.9456 80.9277 34.3313 81.1218 34.7171 81.1218L45.7108 78.2107C46.0965 78.0167 46.2894 77.6285 46.2894 77.2404C46.2894 76.8522 45.9037 76.4641 45.325 76.6582Z" fill="white"/>
<path d="M45.7098 76.6582L56.7035 79.5692C57.0893 79.7633 57.2821 80.1514 57.2821 80.5396C57.0893 80.9277 56.7035 81.1218 56.3178 81.1218L45.3241 78.2107C44.9383 78.0167 44.7455 77.6285 44.7455 77.2404C44.9383 76.8522 45.3241 76.4641 45.7098 76.6582Z" fill="white"/>
<path d="M101.45 100.917C101.45 101.305 101.064 101.693 100.678 101.693H97.5923C97.2066 101.693 96.8209 101.305 96.8209 100.917V96.2592C96.8209 95.871 97.2066 95.4829 97.5923 95.4829H100.678C101.064 95.4829 101.45 95.871 101.45 96.2592V100.917ZM99.9068 97.0355H98.3638V100.141H99.9068V97.0355Z" fill="white"/>
<path d="M101.45 110.232C101.45 110.62 101.064 111.008 100.678 111.008H97.5923C97.2066 111.008 96.8209 110.62 96.8209 110.232V105.574C96.8209 105.186 97.2066 104.798 97.5923 104.798H100.678C101.064 104.798 101.45 105.186 101.45 105.574V110.232ZM99.9068 106.351H98.3638V109.456H99.9068V106.351Z" fill="white"/>
<path d="M100.678 92.378H97.5923C97.2066 92.378 96.8209 91.9899 96.8209 91.6017V86.944C96.8209 86.5559 97.2066 86.1677 97.5923 86.1677H100.678C101.064 86.1677 101.45 86.5559 101.45 86.944V91.6017C101.45 91.9899 101.257 92.378 100.678 92.378ZM99.9068 87.7203H98.3638V90.8254H99.9068V87.7203Z" fill="white"/>
<path d="M114.181 90.4365C113.989 91.0187 113.796 91.4069 113.796 91.9891H108.01C107.624 91.9891 107.238 91.6009 107.238 91.2128C107.238 90.8247 107.624 90.4365 108.01 90.4365H114.181ZM109.553 96.6468H111.096V98.3934C111.674 97.4231 112.06 96.4527 112.446 95.4824C112.253 95.2883 112.06 95.0942 111.867 95.0942H108.781C108.395 95.0942 108.01 95.4824 108.01 95.8705V100.528C108.01 100.916 108.395 101.304 108.781 101.304H109.36C109.745 100.722 109.938 100.334 110.324 99.7519H109.553V96.6468Z" fill="white"/>
<path d="M108.202 86.167L114.76 87.9136C114.567 88.4958 114.567 88.8839 114.374 89.4662L107.817 87.7195C107.431 87.5255 107.238 87.1373 107.238 86.7492C107.431 86.361 107.817 85.9729 108.202 86.167Z" fill="white"/>
<path d="M96.051 76.6582L107.045 79.5692C107.43 79.7633 107.623 80.1514 107.623 80.5396C107.43 80.9277 107.045 81.1218 106.659 81.1218L95.6652 78.2107C95.2795 78.0167 95.0866 77.6285 95.0866 77.2404C95.0866 76.8522 95.4724 76.4641 96.051 76.6582Z" fill="white"/>
<path d="M95.6643 76.6582L84.4778 79.5692C84.092 79.7633 83.8992 80.1514 83.8992 80.5396C84.092 80.9277 84.4778 81.1218 84.8635 81.1218L95.8572 78.2107C96.243 78.0167 96.4358 77.6285 96.4358 77.2404C96.4358 76.8522 96.0501 76.4641 95.6643 76.6582Z" fill="white"/>
<path fill-rule="evenodd" clip-rule="evenodd" d="M47.2534 116.831C48.9892 117.995 50.9179 118.966 52.8467 119.742C54.1968 119.16 54.9683 117.801 54.9683 116.249C54.9683 116.249 54.9683 106.157 51.1108 106.157C47.2534 106.157 47.2534 116.055 47.2534 116.249V116.831ZM48.7981 116.248C48.7981 117.607 49.7624 118.577 51.1125 118.577C52.4626 118.577 53.427 117.607 53.427 116.248C53.427 112.367 52.4626 107.709 51.1125 107.709C49.7624 107.709 48.7981 112.367 48.7981 116.248Z" fill="white"/>
<path d="M23.7227 71.6125H117.844V72.7769L23.5298 72.971L23.7227 71.6125Z" fill="white"/>
<path fill-rule="evenodd" clip-rule="evenodd" d="M117.843 72.0002C114.95 48.3236 94.8915 30.0809 70.5897 30.0809C46.4807 30.0809 26.422 48.3236 23.529 72.0002H117.843ZM42.0447 63.4611L39.9231 65.4018C39.9231 65.4018 41.466 65.5959 42.0447 65.4018C42.2914 65.4018 43.4846 64.908 44.8173 64.3564C46.6105 63.6142 48.6561 62.7676 48.988 62.8789C49.2774 62.9759 49.9042 62.8304 50.531 62.6848C51.1579 62.5393 51.7847 62.3937 52.074 62.4908C52.6526 62.6848 55.7384 62.6848 56.3171 62.6848C56.4333 62.6848 56.6542 62.7376 56.9853 62.8166C57.7541 63.0002 59.1167 63.3255 61.139 63.4611C61.3478 63.4891 61.5546 63.5171 61.7592 63.5449C64.3899 63.9012 66.6647 64.2094 68.2752 63.8493C69.8182 63.4611 72.7113 60.356 72.7113 60.356C72.7113 60.356 75.6044 60.7441 78.3046 60.9382C79.7653 61.0432 80.9439 60.9778 81.8707 60.9263C82.6571 60.8827 83.2623 60.8491 83.705 60.9382C86.4052 61.3263 89.684 56.8627 89.684 56.8627L92.3842 60.1619L97.3989 52.205L96.4345 58.6093C96.4345 58.6093 95.663 60.1619 95.2773 60.356C94.8915 60.5501 93.9272 60.356 93.9272 60.356C93.9272 60.356 93.1557 61.7145 93.9272 61.9085C94.5147 62.0563 95.7732 61.1913 96.5104 60.6846C96.7413 60.5258 96.9211 60.4023 97.0131 60.356C97.3989 60.1619 98.749 53.5635 98.749 53.3694C98.749 53.3694 98.9418 50.0702 98.1704 49.294C97.656 48.7764 95.1701 51.7953 93.5129 53.8079C92.6842 54.8142 92.0628 55.5689 91.9985 55.5042C91.9149 55.4201 91.8313 55.0447 91.7321 54.5987C91.6023 54.0153 91.4456 53.3113 91.227 52.9813C90.8412 52.3991 90.8412 50.2643 90.8412 49.8762C90.8412 49.294 88.7196 45.9948 87.9482 45.6066C87.1767 45.2185 84.0907 42.6956 84.0907 41.9193C84.0907 41.143 86.9838 37.4556 86.9838 37.4556C86.9838 37.4556 86.4052 36.8734 86.0194 36.8734C85.6337 36.8734 78.6903 39.3963 78.6903 39.3963L81.1976 37.8438L80.619 37.2616L79.4618 37.8438L77.7259 38.0379H76.183V38.426C76.183 38.426 76.3758 39.3964 76.183 39.5904C75.7972 39.7845 74.4471 40.5608 74.2543 40.7548C74.2237 40.7548 74.0774 40.75 73.8542 40.7426C72.6662 40.7032 69.3006 40.5915 69.6253 40.7548C69.7453 40.8152 70.0143 40.913 70.3224 41.0251C71.0053 41.2734 71.8798 41.5915 71.7469 41.7252C71.7469 41.7899 71.7898 41.8546 71.8326 41.9193C71.9184 42.0486 72.0041 42.178 71.7469 42.3074C71.5399 42.4115 69.8334 42.2363 68.3261 42.0815C67.0245 41.9478 65.8714 41.8293 65.9608 41.9193C65.9608 41.9871 66.1492 42.2208 66.3779 42.5045C66.8036 43.0326 67.3689 43.7337 67.118 43.86C66.7323 44.054 61.9105 43.6659 61.9105 43.6659C61.9105 43.6659 62.4891 44.6363 64.4178 45.2185C65.9951 45.507 69.4915 44.2938 71.34 43.6523C71.9778 43.431 72.4194 43.2778 72.5184 43.2778C72.9041 43.2778 77.1473 40.3667 77.1473 40.3667C77.1473 40.3667 77.5331 41.143 77.1473 41.143C76.9214 41.143 76.2321 41.4094 75.6611 41.63C75.2574 41.7861 74.9128 41.9193 74.8329 41.9193C74.64 42.1133 75.0257 43.0837 75.0257 43.0837H75.7972L75.9901 44.4422L78.4974 47.5473C78.4974 47.5473 80.0404 49.0999 79.076 51.6228C78.1807 53.9653 69.637 53.7982 67.8018 53.7623C67.6605 53.7596 67.5589 53.7576 67.5037 53.7576C66.7323 53.7576 63.2606 54.3398 62.6819 54.5339C62.2639 54.6741 62.3493 55.4222 62.4288 56.1194C62.4594 56.3871 62.4891 56.6473 62.4891 56.8627C62.4891 57.4449 59.596 59.7738 59.2103 59.7738H52.8455C52.4597 59.7738 42.0447 63.4611 42.0447 63.4611Z" fill="white"/>
<path fill-rule="evenodd" clip-rule="evenodd" d="M70.5911 31.2453C96.2431 31.2453 116.88 52.205 116.88 77.8223C116.88 103.634 96.0502 124.399 70.5911 124.399C44.9392 124.399 24.3019 103.44 24.3019 77.8223C24.3019 52.205 44.9392 31.2453 70.5911 31.2453ZM70.5911 30.0809C96.8217 30.0809 118.038 51.4287 118.038 77.8223C118.038 104.216 96.8217 125.564 70.5911 125.564C44.3606 125.758 23.1447 104.41 23.1447 78.0164C23.1447 51.4287 44.3606 30.0809 70.5911 30.0809Z" fill="white"/>
<path fill-rule="evenodd" clip-rule="evenodd" d="M70.5911 124.593C96.2431 124.593 116.88 103.828 116.88 78.0164C116.88 76.2698 116.687 74.5231 116.495 72.7765H117.652C117.845 74.5231 118.038 76.2698 118.038 78.0164C118.038 104.41 96.8217 125.758 70.5911 125.758C44.3606 125.758 23.1447 104.41 23.1447 78.0164C23.1447 76.2697 23.3375 74.5231 23.5304 72.7765H24.6876C24.4948 74.5231 24.4948 76.2698 24.4948 78.0164C24.3019 103.828 44.9392 124.593 70.5911 124.593Z" fill="white"/>
</svg>
